<?xml version="1.0" encoding="UTF-8" standalone="no"?>
<!DOCTYPE svg PUBLIC "-//W3C//DTD SVG 1.1//EN"
 "http://www.w3.org/Graphics/SVG/1.1/DTD/svg11.dtd">
<!-- Generated by graphviz version 2.43.0 (0)
 -->
<!-- Title: %3 Pages: 1 -->
<svg width="409pt" height="1257pt"
 viewBox="0.00 0.00 408.85 1257.00" xmlns="http://www.w3.org/2000/svg" xmlns:xlink="http://www.w3.org/1999/xlink">
<g id="graph0" class="graph" transform="scale(1 1) rotate(0) translate(4 1253)">
<title>%3</title>
<polygon fill="white" stroke="#000000" points="-4,4 -4,-1253 404.85,-1253 404.85,4 -4,4"/>
<g id="clust1" class="cluster">
<title>outer_cluster_String&#45;0</title>
</g>
<g id="clust2" class="cluster">
<title>cluster_String&#45;0</title>
<path fill="#ffffb3" stroke="black" stroke-dasharray="5,2" d="M176.85,-11C176.85,-11 212.85,-11 212.85,-11 218.85,-11 224.85,-17 224.85,-23 224.85,-23 224.85,-41 224.85,-41 224.85,-47 218.85,-53 212.85,-53 212.85,-53 176.85,-53 176.85,-53 170.85,-53 164.85,-47 164.85,-41 164.85,-41 164.85,-23 164.85,-23 164.85,-17 170.85,-11 176.85,-11"/>
</g>
<g id="clust4" class="cluster">
<title>outer_cluster_String&#45;2</title>
</g>
<g id="clust5" class="cluster">
<title>cluster_String&#45;2</title>
<path fill="#ffffb3" stroke="black" stroke-dasharray="5,2" d="M124.85,-880C124.85,-880 160.85,-880 160.85,-880 166.85,-880 172.85,-886 172.85,-892 172.85,-892 172.85,-910 172.85,-910 172.85,-916 166.85,-922 160.85,-922 160.85,-922 124.85,-922 124.85,-922 118.85,-922 112.85,-916 112.85,-910 112.85,-910 112.85,-892 112.85,-892 112.85,-886 118.85,-880 124.85,-880"/>
</g>
<g id="clust7" class="cluster">
<title>outer_cluster_String&#45;1</title>
</g>
<g id="clust8" class="cluster">
<title>cluster_String&#45;1</title>
<path fill="#ffffb3" stroke="black" stroke-dasharray="5,2" d="M264.85,-11C264.85,-11 300.85,-11 300.85,-11 306.85,-11 312.85,-17 312.85,-23 312.85,-23 312.85,-41 312.85,-41 312.85,-47 306.85,-53 300.85,-53 300.85,-53 264.85,-53 264.85,-53 258.85,-53 252.85,-47 252.85,-41 252.85,-41 252.85,-23 252.85,-23 252.85,-17 258.85,-11 264.85,-11"/>
</g>
<g id="clust10" class="cluster">
<title>outer_cluster_Tensor&#45;6</title>
</g>
<g id="clust11" class="cluster">
<title>cluster_Tensor&#45;6</title>
<path fill="#bebada" stroke="black" stroke-dasharray="5,2" d="M155.85,-564C155.85,-564 341.85,-564 341.85,-564 347.85,-564 353.85,-570 353.85,-576 353.85,-576 353.85,-594 353.85,-594 353.85,-600 347.85,-606 341.85,-606 341.85,-606 155.85,-606 155.85,-606 149.85,-606 143.85,-600 143.85,-594 143.85,-594 143.85,-576 143.85,-576 143.85,-570 149.85,-564 155.85,-564"/>
</g>
<g id="clust13" class="cluster">
<title>outer_cluster_Tensor&#45;7</title>
</g>
<g id="clust14" class="cluster">
<title>cluster_Tensor&#45;7</title>
<path fill="#bebada" stroke="black" stroke-dasharray="5,2" d="M141.85,-643C141.85,-643 327.85,-643 327.85,-643 333.85,-643 339.85,-649 339.85,-655 339.85,-655 339.85,-673 339.85,-673 339.85,-679 333.85,-685 327.85,-685 327.85,-685 141.85,-685 141.85,-685 135.85,-685 129.85,-679 129.85,-673 129.85,-673 129.85,-655 129.85,-655 129.85,-649 135.85,-643 141.85,-643"/>
</g>
<g id="clust16" class="cluster">
<title>outer_cluster_Tensor&#45;21</title>
</g>
<g id="clust17" class="cluster">
<title>cluster_Tensor&#45;21</title>
<path fill="#bebada" stroke="black" stroke-dasharray="5,2" d="M249.85,-959C249.85,-959 377.85,-959 377.85,-959 383.85,-959 389.85,-965 389.85,-971 389.85,-971 389.85,-989 389.85,-989 389.85,-995 383.85,-1001 377.85,-1001 377.85,-1001 249.85,-1001 249.85,-1001 243.85,-1001 237.85,-995 237.85,-989 237.85,-989 237.85,-971 237.85,-971 237.85,-965 243.85,-959 249.85,-959"/>
</g>
<g id="clust19" class="cluster">
<title>outer_cluster_Tensor&#45;10</title>
</g>
<g id="clust20" class="cluster">
<title>cluster_Tensor&#45;10</title>
<path fill="#bebada" stroke="black" stroke-dasharray="5,2" d="M106.85,-1038C106.85,-1038 272.85,-1038 272.85,-1038 278.85,-1038 284.85,-1044 284.85,-1050 284.85,-1050 284.85,-1068 284.85,-1068 284.85,-1074 278.85,-1080 272.85,-1080 272.85,-1080 106.85,-1080 106.85,-1080 100.85,-1080 94.85,-1074 94.85,-1068 94.85,-1068 94.85,-1050 94.85,-1050 94.85,-1044 100.85,-1038 106.85,-1038"/>
</g>
<g id="clust22" class="cluster">
<title>outer_cluster_Tensor&#45;0</title>
</g>
<g id="clust23" class="cluster">
<title>cluster_Tensor&#45;0</title>
<path fill="#bebada" stroke="black" stroke-dasharray="5,2" d="M103.85,-90C103.85,-90 187.85,-90 187.85,-90 193.85,-90 199.85,-96 199.85,-102 199.85,-102 199.85,-120 199.85,-120 199.85,-126 193.85,-132 187.85,-132 187.85,-132 103.85,-132 103.85,-132 97.85,-132 91.85,-126 91.85,-120 91.85,-120 91.85,-102 91.85,-102 91.85,-96 97.85,-90 103.85,-90"/>
</g>
<g id="clust25" class="cluster">
<title>outer_cluster_Tensor&#45;8</title>
</g>
<g id="clust26" class="cluster">
<title>cluster_Tensor&#45;8</title>
<path fill="#bebada" stroke="black" stroke-dasharray="5,2" d="M150.85,-801C150.85,-801 294.85,-801 294.85,-801 300.85,-801 306.85,-807 306.85,-813 306.85,-813 306.85,-831 306.85,-831 306.85,-837 300.85,-843 294.85,-843 294.85,-843 150.85,-843 150.85,-843 144.85,-843 138.85,-837 138.85,-831 138.85,-831 138.85,-813 138.85,-813 138.85,-807 144.85,-801 150.85,-801"/>
</g>
<g id="clust28" class="cluster">
<title>outer_cluster_Tensor&#45;20</title>
</g>
<g id="clust29" class="cluster">
<title>cluster_Tensor&#45;20</title>
<path fill="#bebada" stroke="black" stroke-dasharray="5,2" d="M28.85,-880C28.85,-880 94.85,-880 94.85,-880 100.85,-880 106.85,-886 106.85,-892 106.85,-892 106.85,-910 106.85,-910 106.85,-916 100.85,-922 94.85,-922 94.85,-922 28.85,-922 28.85,-922 22.85,-922 16.85,-916 16.85,-910 16.85,-910 16.85,-892 16.85,-892 16.85,-886 22.85,-880 28.85,-880"/>
</g>
<g id="clust31" class="cluster">
<title>outer_cluster_Tensor&#45;19</title>
</g>
<g id="clust32" class="cluster">
<title>cluster_Tensor&#45;19</title>
<path fill="#bebada" stroke="black" stroke-dasharray="5,2" d="M28.85,-801C28.85,-801 104.85,-801 104.85,-801 110.85,-801 116.85,-807 116.85,-813 116.85,-813 116.85,-831 116.85,-831 116.85,-837 110.85,-843 104.85,-843 104.85,-843 28.85,-843 28.85,-843 22.85,-843 16.85,-837 16.85,-831 16.85,-831 16.85,-813 16.85,-813 16.85,-807 22.85,-801 28.85,-801"/>
</g>
<g id="clust34" class="cluster">
<title>outer_cluster_Tensor&#45;13</title>
</g>
<g id="clust35" class="cluster">
<title>cluster_Tensor&#45;13</title>
<path fill="#bebada" stroke="black" stroke-dasharray="5,2" d="M146.85,-406C146.85,-406 214.85,-406 214.85,-406 220.85,-406 226.85,-412 226.85,-418 226.85,-418 226.85,-436 226.85,-436 226.85,-442 220.85,-448 214.85,-448 214.85,-448 146.85,-448 146.85,-448 140.85,-448 134.85,-442 134.85,-436 134.85,-436 134.85,-418 134.85,-418 134.85,-412 140.85,-406 146.85,-406"/>
</g>
<g id="clust37" class="cluster">
<title>outer_cluster_Tensor&#45;4</title>
</g>
<g id="clust38" class="cluster">
<title>cluster_Tensor&#45;4</title>
<path fill="#bebada" stroke="black" stroke-dasharray="5,2" d="M210.85,-327C210.85,-327 260.85,-327 260.85,-327 266.85,-327 272.85,-333 272.85,-339 272.85,-339 272.85,-357 272.85,-357 272.85,-363 266.85,-369 260.85,-369 260.85,-369 210.85,-369 210.85,-369 204.85,-369 198.85,-363 198.85,-357 198.85,-357 198.85,-339 198.85,-339 198.85,-333 204.85,-327 210.85,-327"/>
</g>
<g id="clust40" class="cluster">
<title>outer_cluster_Tensor&#45;9</title>
</g>
<g id="clust41" class="cluster">
<title>cluster_Tensor&#45;9</title>
<path fill="#bebada" stroke="black" stroke-dasharray="5,2" d="M190.85,-880C190.85,-880 367.85,-880 367.85,-880 373.85,-880 379.85,-886 379.85,-892 379.85,-892 379.85,-910 379.85,-910 379.85,-916 373.85,-922 367.85,-922 367.85,-922 190.85,-922 190.85,-922 184.85,-922 178.85,-916 178.85,-910 178.85,-910 178.85,-892 178.85,-892 178.85,-886 184.85,-880 190.85,-880"/>
</g>
<g id="clust43" class="cluster">
<title>outer_cluster_Tensor&#45;1</title>
</g>
<g id="clust44" class="cluster">
<title>cluster_Tensor&#45;1</title>
<path fill="#bebada" stroke="black" stroke-dasharray="5,2" d="M283.85,-90C283.85,-90 367.85,-90 367.85,-90 373.85,-90 379.85,-96 379.85,-102 379.85,-102 379.85,-120 379.85,-120 379.85,-126 373.85,-132 367.85,-132 367.85,-132 283.85,-132 283.85,-132 277.85,-132 271.85,-126 271.85,-120 271.85,-120 271.85,-102 271.85,-102 271.85,-96 277.85,-90 283.85,-90"/>
</g>
<g id="clust46" class="cluster">
<title>outer_cluster_Tensor&#45;18</title>
</g>
<g id="clust47" class="cluster">
<title>cluster_Tensor&#45;18</title>
<path fill="#bebada" stroke="black" stroke-dasharray="5,2" d="M38.85,-722C38.85,-722 136.85,-722 136.85,-722 142.85,-722 148.85,-728 148.85,-734 148.85,-734 148.85,-752 148.85,-752 148.85,-758 142.85,-764 136.85,-764 136.85,-764 38.85,-764 38.85,-764 32.85,-764 26.85,-758 26.85,-752 26.85,-752 26.85,-734 26.85,-734 26.85,-728 32.85,-722 38.85,-722"/>
</g>
<g id="clust49" class="cluster">
<title>outer_cluster_Tensor&#45;17</title>
</g>
<g id="clust50" class="cluster">
<title>cluster_Tensor&#45;17</title>
<path fill="#bebada" stroke="black" stroke-dasharray="5,2" d="M37.85,-643C37.85,-643 111.85,-643 111.85,-643 117.85,-643 123.85,-649 123.85,-655 123.85,-655 123.85,-673 123.85,-673 123.85,-679 117.85,-685 111.85,-685 111.85,-685 37.85,-685 37.85,-685 31.85,-685 25.85,-679 25.85,-673 25.85,-673 25.85,-655 25.85,-655 25.85,-649 31.85,-643 37.85,-643"/>
</g>
<g id="clust52" class="cluster">
<title>outer_cluster_Tensor&#45;11</title>
</g>
<g id="clust53" class="cluster">
<title>cluster_Tensor&#45;11</title>
<path fill="#bebada" stroke="black" stroke-dasharray="5,2" d="M119.85,-1196C119.85,-1196 263.85,-1196 263.85,-1196 269.85,-1196 275.85,-1202 275.85,-1208 275.85,-1208 275.85,-1226 275.85,-1226 275.85,-1232 269.85,-1238 263.85,-1238 263.85,-1238 119.85,-1238 119.85,-1238 113.85,-1238 107.85,-1232 107.85,-1226 107.85,-1226 107.85,-1208 107.85,-1208 107.85,-1202 113.85,-1196 119.85,-1196"/>
</g>
<g id="clust55" class="cluster">
<title>outer_cluster_Tensor&#45;14</title>
</g>
<g id="clust56" class="cluster">
<title>cluster_Tensor&#45;14</title>
<path fill="#bebada" stroke="black" stroke-dasharray="5,2" d="M166.85,-722C166.85,-722 232.85,-722 232.85,-722 238.85,-722 244.85,-728 244.85,-734 244.85,-734 244.85,-752 244.85,-752 244.85,-758 238.85,-764 232.85,-764 232.85,-764 166.85,-764 166.85,-764 160.85,-764 154.85,-758 154.85,-752 154.85,-752 154.85,-734 154.85,-734 154.85,-728 160.85,-722 166.85,-722"/>
</g>
<g id="clust58" class="cluster">
<title>outer_cluster_Tensor&#45;16</title>
</g>
<g id="clust59" class="cluster">
<title>cluster_Tensor&#45;16</title>
<path fill="#bebada" stroke="black" stroke-dasharray="5,2" d="M39.85,-564C39.85,-564 113.85,-564 113.85,-564 119.85,-564 125.85,-570 125.85,-576 125.85,-576 125.85,-594 125.85,-594 125.85,-600 119.85,-606 113.85,-606 113.85,-606 39.85,-606 39.85,-606 33.85,-606 27.85,-600 27.85,-594 27.85,-594 27.85,-576 27.85,-576 27.85,-570 33.85,-564 39.85,-564"/>
</g>
<g id="clust61" class="cluster">
<title>outer_cluster_Tensor&#45;3</title>
</g>
<g id="clust62" class="cluster">
<title>cluster_Tensor&#45;3</title>
<path fill="#bebada" stroke="black" stroke-dasharray="5,2" d="M135.85,-248C135.85,-248 339.85,-248 339.85,-248 345.85,-248 351.85,-254 351.85,-260 351.85,-260 351.85,-278 351.85,-278 351.85,-284 345.85,-290 339.85,-290 339.85,-290 135.85,-290 135.85,-290 129.85,-290 123.85,-284 123.85,-278 123.85,-278 123.85,-260 123.85,-260 123.85,-254 129.85,-248 135.85,-248"/>
</g>
<g id="clust64" class="cluster">
<title>outer_cluster_Tensor&#45;12</title>
</g>
<g id="clust65" class="cluster">
<title>cluster_Tensor&#45;12</title>
<path fill="#bebada" stroke="black" stroke-dasharray="5,2" d="M176.85,-169C176.85,-169 286.85,-169 286.85,-169 292.85,-169 298.85,-175 298.85,-181 298.85,-181 298.85,-199 298.85,-199 298.85,-205 292.85,-211 286.85,-211 286.85,-211 176.85,-211 176.85,-211 170.85,-211 164.85,-205 164.85,-199 164.85,-199 164.85,-181 164.85,-181 164.85,-175 170.85,-169 176.85,-169"/>
</g>
<g id="clust67" class="cluster">
<title>outer_cluster_Tensor&#45;15</title>
</g>
<g id="clust68" class="cluster">
<title>cluster_Tensor&#45;15</title>
<path fill="#bebada" stroke="black" stroke-dasharray="5,2" d="M200.85,-1117C200.85,-1117 266.85,-1117 266.85,-1117 272.85,-1117 278.85,-1123 278.85,-1129 278.85,-1129 278.85,-1147 278.85,-1147 278.85,-1153 272.85,-1159 266.85,-1159 266.85,-1159 200.85,-1159 200.85,-1159 194.85,-1159 188.85,-1153 188.85,-1147 188.85,-1147 188.85,-1129 188.85,-1129 188.85,-1123 194.85,-1117 200.85,-1117"/>
</g>
<g id="clust70" class="cluster">
<title>outer_cluster_Tensor&#45;2</title>
</g>
<g id="clust71" class="cluster">
<title>cluster_Tensor&#45;2</title>
<path fill="#bebada" stroke="black" stroke-dasharray="5,2" d="M116.85,-959C116.85,-959 200.85,-959 200.85,-959 206.85,-959 212.85,-965 212.85,-971 212.85,-971 212.85,-989 212.85,-989 212.85,-995 206.85,-1001 200.85,-1001 200.85,-1001 116.85,-1001 116.85,-1001 110.85,-1001 104.85,-995 104.85,-989 104.85,-989 104.85,-971 104.85,-971 104.85,-965 110.85,-959 116.85,-959"/>
</g>
<g id="clust73" class="cluster">
<title>outer_cluster_Tensor&#45;5</title>
</g>
<g id="clust74" class="cluster">
<title>cluster_Tensor&#45;5</title>
<path fill="#bebada" stroke="black" stroke-dasharray="5,2" d="M74.85,-485C74.85,-485 224.85,-485 224.85,-485 230.85,-485 236.85,-491 236.85,-497 236.85,-497 236.85,-515 236.85,-515 236.85,-521 230.85,-527 224.85,-527 224.85,-527 74.85,-527 74.85,-527 68.85,-527 62.85,-521 62.85,-515 62.85,-515 62.85,-497 62.85,-497 62.85,-491 68.85,-485 74.85,-485"/>
</g>
<g id="clust76" class="cluster">
<title>outer_cluster_i64&#45;1024</title>
</g>
<g id="clust77" class="cluster">
<title>cluster_i64&#45;1024</title>
<path fill="#fb8072" stroke="black" stroke-dasharray="5,2" d="M110.85,-11C110.85,-11 146.85,-11 146.85,-11 152.85,-11 158.85,-17 158.85,-23 158.85,-23 158.85,-41 158.85,-41 158.85,-47 152.85,-53 146.85,-53 146.85,-53 110.85,-53 110.85,-53 104.85,-53 98.85,-47 98.85,-41 98.85,-41 98.85,-23 98.85,-23 98.85,-17 104.85,-11 110.85,-11"/>
</g>
<g id="clust79" class="cluster">
<title>outer_cluster_i64&#45;4</title>
</g>
<g id="clust80" class="cluster">
<title>cluster_i64&#45;4</title>
<path fill="#fb8072" stroke="black" stroke-dasharray="5,2" d="M217.85,-90C217.85,-90 253.85,-90 253.85,-90 259.85,-90 265.85,-96 265.85,-102 265.85,-102 265.85,-120 265.85,-120 265.85,-126 259.85,-132 253.85,-132 253.85,-132 217.85,-132 217.85,-132 211.85,-132 205.85,-126 205.85,-120 205.85,-120 205.85,-102 205.85,-102 205.85,-96 211.85,-90 217.85,-90"/>
</g>
<g id="clust82" class="cluster">
<title>outer_cluster_i64&#45;64</title>
</g>
<g id="clust83" class="cluster">
<title>cluster_i64&#45;64</title>
<path fill="#fb8072" stroke="black" stroke-dasharray="5,2" d="M330.85,-11C330.85,-11 366.85,-11 366.85,-11 372.85,-11 378.85,-17 378.85,-23 378.85,-23 378.85,-41 378.85,-41 378.85,-47 372.85,-53 366.85,-53 366.85,-53 330.85,-53 330.85,-53 324.85,-53 318.85,-47 318.85,-41 318.85,-41 318.85,-23 318.85,-23 318.85,-17 324.85,-11 330.85,-11"/>
</g>
<!-- function&#45;0&#45;M_sub_mp&#45;&gt;function&#45;0&#45;R_add_e -->
<g id="edge1" class="edge">
<title>function&#45;0&#45;M_sub_mp:s&#45;&gt;function&#45;0&#45;R_add_e</title>
<path fill="none" stroke="black" d="M167.85,-569C167.85,-533.39 219.61,-560.59 237.85,-530 267.68,-479.96 253.26,-407.48 243.03,-371.3"/>
<polygon fill="black" stroke="black" points="245.73,-372.26 241.56,-369 242.78,-374.15 245.73,-372.26"/>
</g>
<!-- function&#45;0&#45;M_sub_mp&#45;&gt;function&#45;0&#45;R_max_m1 -->
<g id="edge2" class="edge">
<title>function&#45;0&#45;M_sub_mp:s&#45;&gt;function&#45;0&#45;R_max_m1</title>
<path fill="none" stroke="black" d="M209.85,-569C209.85,-555.31 205.56,-540.63 201.06,-529"/>
<polygon fill="black" stroke="black" points="203.82,-530.79 200.13,-527 200.65,-532.27 203.82,-530.79"/>
</g>
<!-- function&#45;0&#45;R_add_e&#45;&gt;function&#45;0&#45;M_mul_em1m0p -->
<g id="edge21" class="edge">
<title>function&#45;0&#45;R_add_e:s&#45;&gt;function&#45;0&#45;M_mul_em1m0p</title>
<path fill="none" stroke="black" d="M235.85,-332C235.85,-316.1 225.98,-301.63 215.38,-290.67"/>
<polygon fill="black" stroke="black" points="219.06,-290.32 213.77,-290 217.71,-293.54 219.06,-290.32"/>
</g>
<!-- function&#45;0&#45;R_max_m1&#45;&gt;function&#45;0&#45;R_max_m0 -->
<g id="edge48" class="edge">
<title>function&#45;0&#45;R_max_m1:s&#45;&gt;function&#45;0&#45;R_max_m0</title>
<path fill="none" stroke="black" d="M190.85,-490C190.85,-476.76 188.6,-462.14 186.23,-450.42"/>
<polygon fill="black" stroke="black" points="188.79,-451.84 185.15,-448 185.6,-453.28 188.79,-451.84"/>
</g>
<!-- function&#45;0&#45;M_sub_m1m0p&#45;&gt;function&#45;0&#45;R_add_e -->
<g id="edge3" class="edge">
<title>function&#45;0&#45;M_sub_m1m0p:s&#45;&gt;function&#45;0&#45;R_add_e</title>
<path fill="none" stroke="black" d="M263.85,-569C263.85,-495.09 267.88,-475.57 253.85,-403 251.77,-392.26 248.12,-380.71 244.65,-371.06"/>
<polygon fill="black" stroke="black" points="247.29,-373.04 243.86,-369 244.02,-374.3 247.29,-373.04"/>
</g>
<!-- function&#45;0&#45;M_sub_m1m0p&#45;&gt;function&#45;0&#45;R_max_m0 -->
<g id="edge4" class="edge">
<title>function&#45;0&#45;M_sub_m1m0p:s&#45;&gt;function&#45;0&#45;R_max_m0</title>
<path fill="none" stroke="black" d="M321.85,-569C321.85,-514.58 268.68,-473.83 227.65,-450.48"/>
<polygon fill="black" stroke="black" points="228.43,-448.91 223.21,-448 226.72,-451.97 228.43,-448.91"/>
</g>
<!-- function&#45;0&#45;R_max_m0&#45;&gt;function&#45;0&#45;R_add_e -->
<g id="edge20" class="edge">
<title>function&#45;0&#45;R_max_m0:s&#45;&gt;function&#45;0&#45;R_add_e</title>
<path fill="none" stroke="black" d="M180.85,-411C180.85,-394.31 192.14,-380.01 204.49,-369.37"/>
<polygon fill="black" stroke="black" points="201.46,-372.6 205.35,-369 200.06,-369.38 201.46,-372.6"/>
</g>
<!-- function&#45;0&#45;M_exp_mp&#45;&gt;function&#45;0&#45;M_sub_m1m0p -->
<g id="edge5" class="edge">
<title>function&#45;0&#45;M_exp_mp:s&#45;&gt;function&#45;0&#45;M_sub_m1m0p</title>
<path fill="none" stroke="black" d="M294.85,-648C294.85,-634.83 294.39,-620.1 293.91,-608.3"/>
<polygon fill="black" stroke="black" points="295.91,-610.81 293.7,-606 292.43,-611.14 295.91,-610.81"/>
</g>
<!-- function&#45;0&#45;M_exp_m1m0p&#45;&gt;function&#45;0&#45;M_sub_mp -->
<g id="edge6" class="edge">
<title>function&#45;0&#45;M_exp_m1m0p:s&#45;&gt;function&#45;0&#45;M_sub_mp</title>
<path fill="none" stroke="black" d="M190.85,-648C190.85,-634.83 190.39,-620.1 189.91,-608.3"/>
<polygon fill="black" stroke="black" points="191.91,-610.81 189.7,-606 188.43,-611.14 191.91,-610.81"/>
</g>
<!-- function&#45;0&#45;T_unsplit_m1m0_m&#45;&gt;function&#45;0&#45;M_div_m1m0p -->
<g id="edge7" class="edge">
<title>function&#45;0&#45;T_unsplit_m1m0_m:s&#45;&gt;function&#45;0&#45;M_div_m1m0p</title>
<path fill="none" stroke="black" d="M314.85,-964C314.85,-950.76 316.44,-936.02 318.11,-924.24"/>
<polygon fill="black" stroke="black" points="318.91,-927.3 318.88,-922 315.6,-926.16 318.91,-927.3"/>
</g>
<!-- function&#45;0&#45;M_div_m1m0p&#45;&gt;function&#45;0&#45;M_exp_mp -->
<g id="edge24" class="edge">
<title>function&#45;0&#45;M_div_m1m0p:s&#45;&gt;function&#45;0&#45;M_exp_mp</title>
<path fill="none" stroke="black" d="M294.85,-885C294.85,-864.65 313.3,-865.58 318.85,-846 334.22,-791.69 330.56,-774.21 318.85,-719 316.5,-707.96 311.74,-696.44 307.08,-686.89"/>
<polygon fill="black" stroke="black" points="310.05,-688.16 305.8,-685 307.15,-690.12 310.05,-688.16"/>
</g>
<!-- function&#45;0&#45;M_div_m1m0p&#45;&gt;function&#45;0&#45;R_add_m -->
<g id="edge25" class="edge">
<title>function&#45;0&#45;M_div_m1m0p:s&#45;&gt;function&#45;0&#45;R_add_m</title>
<path fill="none" stroke="black" d="M349.85,-885C349.85,-873.57 329.39,-858.21 308.79,-845.63"/>
<polygon fill="black" stroke="black" points="309.58,-844.07 304.39,-843 307.78,-847.07 309.58,-844.07"/>
</g>
<!-- function&#45;0&#45;M_mul_fmp&#45;&gt;function&#45;0&#45;M_div_mp -->
<g id="edge8" class="edge">
<title>function&#45;0&#45;M_mul_fmp:s&#45;&gt;function&#45;0&#45;M_div_mp</title>
<path fill="none" stroke="black" d="M214.85,-1043C214.85,-1001.18 217.96,-952.47 220.03,-924.63"/>
<polygon fill="black" stroke="black" points="221.41,-927.21 220.43,-922 217.95,-926.68 221.41,-927.21"/>
</g>
<!-- function&#45;0&#45;M_mul_fmp&#45;&gt;function&#45;2&#45;CreateTensor -->
<g id="edge9" class="edge">
<title>function&#45;0&#45;M_mul_fmp:s&#45;&gt;function&#45;2&#45;CreateTensor</title>
<path fill="none" stroke="black" d="M258.85,-1043C258.85,-1030.29 235.21,-1015.28 210.92,-1003.22"/>
<polygon fill="black" stroke="black" points="211.64,-1001.62 206.38,-1001 210.11,-1004.77 211.64,-1001.62"/>
</g>
<!-- function&#45;0&#45;M_div_mp&#45;&gt;function&#45;0&#45;M_exp_m1m0p -->
<g id="edge22" class="edge">
<title>function&#45;0&#45;M_div_mp:s&#45;&gt;function&#45;0&#45;M_exp_m1m0p</title>
<path fill="none" stroke="black" d="M201.85,-885C201.85,-834.8 279.13,-887.17 307.85,-846 320.05,-828.5 314.81,-818.16 307.85,-798 291.29,-750.07 247.52,-708.71 218.46,-685.34"/>
<polygon fill="black" stroke="black" points="222.58,-684.69 217.29,-685 221.62,-688.05 222.58,-684.69"/>
</g>
<!-- function&#45;0&#45;M_div_mp&#45;&gt;function&#45;0&#45;R_add_m1 -->
<g id="edge23" class="edge">
<title>function&#45;0&#45;M_div_mp:s&#45;&gt;function&#45;0&#45;R_add_m1</title>
<path fill="none" stroke="black" d="M241.85,-885C241.85,-868.04 230.12,-853.79 217.22,-843.25"/>
<polygon fill="black" stroke="black" points="221.46,-842.5 216.19,-843 220.62,-845.9 221.46,-842.5"/>
</g>
<!-- function&#45;2&#45;CreateTensor&#45;&gt;primitive&#45;String&#45;2 -->
<g id="edge46" class="edge">
<title>function&#45;2&#45;CreateTensor:s&#45;&gt;primitive&#45;String&#45;2</title>
<path fill="none" stroke="black" d="M196.85,-964C196.85,-947.46 185.78,-933.18 173.66,-922.52"/>
<polygon fill="black" stroke="black" points="176.8,-924.57 172.85,-921.04 173.74,-926.26 176.8,-924.57"/>
</g>
<!-- function&#45;2&#45;CreateTensor&#45;&gt;primitive&#45;i64&#45;64 -->
<g id="edge44" class="edge">
<title>function&#45;2&#45;CreateTensor:s&#45;&gt;primitive&#45;i64&#45;64</title>
<path fill="none" stroke="black" d="M133.85,-964C133.85,-908.43 343.12,-965.8 380.85,-925 411.72,-891.61 388.85,-868.47 388.85,-823 388.85,-823 388.85,-823 388.85,-189 388.85,-143.53 394.57,-130.35 380.85,-87 377.2,-75.47 370.7,-63.78 364.5,-54.25"/>
<polygon fill="black" stroke="black" points="367.8,-54.39 362.69,-53 365.81,-57.28 367.8,-54.39"/>
</g>
<!-- function&#45;2&#45;CreateTensor&#45;&gt;primitive&#45;i64&#45;1024 -->
<g id="edge45" class="edge">
<title>function&#45;2&#45;CreateTensor:s&#45;&gt;primitive&#45;i64&#45;1024</title>
<path fill="none" stroke="black" d="M171.85,-964C171.85,-892.53 62,-979.57 15.85,-925 -13.52,-890.28 7.85,-868.47 7.85,-823 7.85,-823 7.85,-823 7.85,-189 7.85,-130.04 62.47,-79.89 98.32,-53.32"/>
<polygon fill="black" stroke="black" points="98.3,-57.47 98.85,-52.2 95.13,-55.98 98.3,-57.47"/>
</g>
<!-- function&#45;1&#45;M_mul_fmp&#45;&gt;function&#45;0&#45;T_unsplit_m1m0_m -->
<g id="edge10" class="edge">
<title>function&#45;1&#45;M_mul_fmp:s&#45;&gt;function&#45;0&#45;T_unsplit_m1m0_m</title>
<path fill="none" stroke="black" d="M120.85,-1043C120.85,-1030.28 182.41,-1012.15 236,-998.78"/>
<polygon fill="black" stroke="black" points="234.73,-1001.78 237.85,-997.5 232.74,-998.91 234.73,-1001.78"/>
</g>
<!-- function&#45;1&#45;M_mul_fmp&#45;&gt;function&#45;2&#45;CreateTensor -->
<g id="edge11" class="edge">
<title>function&#45;1&#45;M_mul_fmp:s&#45;&gt;function&#45;2&#45;CreateTensor</title>
<path fill="none" stroke="black" d="M164.85,-1043C164.85,-1029.78 163.48,-1015.04 162.05,-1003.25"/>
<polygon fill="black" stroke="black" points="164.47,-1005.31 161.39,-1001 161.11,-1006.29 164.47,-1005.31"/>
</g>
<!-- function&#45;0&#45;CreateTensor&#45;&gt;primitive&#45;String&#45;0 -->
<g id="edge14" class="edge">
<title>function&#45;0&#45;CreateTensor:s&#45;&gt;primitive&#45;String&#45;0</title>
<path fill="none" stroke="black" d="M183.85,-95C183.85,-81.73 186.32,-67.1 188.92,-55.39"/>
<polygon fill="black" stroke="black" points="189.44,-58.25 190.12,-53 186.31,-56.69 189.44,-58.25"/>
</g>
<!-- function&#45;0&#45;CreateTensor&#45;&gt;primitive&#45;i64&#45;64 -->
<g id="edge12" class="edge">
<title>function&#45;0&#45;CreateTensor:s&#45;&gt;primitive&#45;i64&#45;64</title>
<path fill="none" stroke="black" d="M120.85,-95C120.85,-51.24 273.38,-72.65 313.85,-56 314.38,-55.78 314.92,-55.55 315.45,-55.31"/>
<polygon fill="black" stroke="black" points="316.51,-56.75 320.26,-53 314.99,-53.59 316.51,-56.75"/>
</g>
<!-- function&#45;0&#45;CreateTensor&#45;&gt;primitive&#45;i64&#45;1024 -->
<g id="edge13" class="edge">
<title>function&#45;0&#45;CreateTensor:s&#45;&gt;primitive&#45;i64&#45;1024</title>
<path fill="none" stroke="black" d="M158.85,-95C158.85,-80.54 152.15,-65.9 145.09,-54.48"/>
<polygon fill="black" stroke="black" points="148.25,-54.81 143.27,-53 146.03,-57.52 148.25,-54.81"/>
</g>
<!-- function&#45;0&#45;R_add_m&#45;&gt;function&#45;0&#45;M_exp_mp -->
<g id="edge15" class="edge">
<title>function&#45;0&#45;R_add_m:s&#45;&gt;function&#45;0&#45;M_exp_mp</title>
<path fill="none" stroke="black" d="M266.85,-806C266.85,-763.24 279.39,-714.56 287.69,-687.03"/>
<polygon fill="black" stroke="black" points="287.63,-690.07 289.18,-685 284.81,-687.99 287.63,-690.07"/>
</g>
<!-- function&#45;0&#45;R_add_m1&#45;&gt;function&#45;0&#45;R_add_m0 -->
<g id="edge16" class="edge">
<title>function&#45;0&#45;R_add_m1:s&#45;&gt;function&#45;0&#45;R_add_m0</title>
<path fill="none" stroke="black" d="M184.85,-806C184.85,-792.43 188.28,-777.65 191.86,-765.93"/>
<polygon fill="black" stroke="black" points="191.66,-769 193.4,-764 188.92,-766.82 191.66,-769"/>
</g>
<!-- function&#45;0&#45;R_add_m0&#45;&gt;function&#45;0&#45;M_exp_m1m0p -->
<g id="edge34" class="edge">
<title>function&#45;0&#45;R_add_m0:s&#45;&gt;function&#45;0&#45;M_exp_m1m0p</title>
<path fill="none" stroke="black" d="M200.85,-727C200.85,-713.76 198.6,-699.14 196.23,-687.42"/>
<polygon fill="black" stroke="black" points="198.79,-688.84 195.15,-685 195.6,-690.28 198.79,-688.84"/>
</g>
<!-- function&#45;2&#45;R_add_m1&#45;&gt;function&#45;0&#45;M_mul_m1p -->
<g id="edge17" class="edge">
<title>function&#45;2&#45;R_add_m1:s&#45;&gt;function&#45;0&#45;M_mul_m1p</title>
<path fill="none" stroke="black" d="M62.85,-885C62.85,-871.81 63.76,-857.08 64.71,-845.28"/>
<polygon fill="black" stroke="black" points="65.93,-848.24 65.15,-843 62.49,-847.58 65.93,-848.24"/>
</g>
<!-- function&#45;0&#45;M_mul_m1p&#45;&gt;function&#45;0&#45;R_add_m0 -->
<g id="edge18" class="edge">
<title>function&#45;0&#45;M_mul_m1p:s&#45;&gt;function&#45;0&#45;R_add_m0</title>
<path fill="none" stroke="black" d="M43.85,-806C43.85,-755.8 103.45,-786.17 149.85,-767 150.57,-766.7 151.31,-766.39 152.04,-766.09"/>
<polygon fill="black" stroke="black" points="153.03,-767.57 156.94,-764 151.66,-764.35 153.03,-767.57"/>
</g>
<!-- function&#45;0&#45;M_mul_m1p&#45;&gt;function&#45;0&#45;M_exp_m1p -->
<g id="edge19" class="edge">
<title>function&#45;0&#45;M_mul_m1p:s&#45;&gt;function&#45;0&#45;M_exp_m1p</title>
<path fill="none" stroke="black" d="M89.85,-806C89.85,-772.69 42.16,-796.04 25.85,-767 15.4,-748.4 18.16,-738.9 25.85,-719 30.71,-706.39 40.04,-694.91 49.27,-685.81"/>
<polygon fill="black" stroke="black" points="47.56,-689.59 50.2,-685 45.27,-686.95 47.56,-689.59"/>
</g>
<!-- function&#45;0&#45;M_exp_m1p&#45;&gt;function&#45;0&#45;M_sub_m1p -->
<g id="edge31" class="edge">
<title>function&#45;0&#45;M_exp_m1p:s&#45;&gt;function&#45;0&#45;M_sub_m1p</title>
<path fill="none" stroke="black" d="M75.85,-648C75.85,-634.84 76.08,-620.1 76.31,-608.3"/>
<polygon fill="black" stroke="black" points="77.93,-611.08 76.42,-606 74.44,-610.91 77.93,-611.08"/>
</g>
<!-- function&#45;0&#45;M_mul_em1m0p&#45;&gt;function&#45;0&#45;CreateTensor -->
<g id="edge39" class="edge">
<title>function&#45;0&#45;M_mul_em1m0p:s&#45;&gt;function&#45;0&#45;CreateTensor</title>
<path fill="none" stroke="black" d="M158.85,-253C158.85,-235.46 154.78,-231.43 152.85,-214 149.8,-186.51 147.87,-154.71 146.82,-134.02"/>
<polygon fill="black" stroke="black" points="148.92,-136.75 146.58,-132 145.45,-137.18 148.92,-136.75"/>
</g>
<!-- function&#45;0&#45;M_mul_em1m0p&#45;&gt;function&#45;0&#45;T_split_m_m1m0 -->
<g id="edge40" class="edge">
<title>function&#45;0&#45;M_mul_em1m0p:s&#45;&gt;function&#45;0&#45;T_split_m_m1m0</title>
<path fill="none" stroke="black" d="M220.85,-253C220.85,-239.73 223.32,-225.1 225.92,-213.39"/>
<polygon fill="black" stroke="black" points="226.44,-216.25 227.12,-211 223.31,-214.69 226.44,-216.25"/>
</g>
<!-- function&#45;1&#45;CreateTensor&#45;&gt;primitive&#45;String&#45;1 -->
<g id="edge28" class="edge">
<title>function&#45;1&#45;CreateTensor:s&#45;&gt;primitive&#45;String&#45;1</title>
<path fill="none" stroke="black" d="M363.85,-95C363.85,-91.6 334.74,-70 311.43,-53.24"/>
<polygon fill="black" stroke="black" points="315.39,-52.21 310.15,-53 314.74,-55.65 315.39,-52.21"/>
</g>
<!-- function&#45;1&#45;CreateTensor&#45;&gt;primitive&#45;i64&#45;64 -->
<g id="edge26" class="edge">
<title>function&#45;1&#45;CreateTensor:s&#45;&gt;primitive&#45;i64&#45;64</title>
<path fill="none" stroke="black" d="M300.85,-95C300.85,-78.98 310.99,-64.58 321.96,-53.71"/>
<polygon fill="black" stroke="black" points="319.72,-56.51 323.69,-53 318.4,-53.26 319.72,-56.51"/>
</g>
<!-- function&#45;1&#45;CreateTensor&#45;&gt;primitive&#45;i64&#45;1024 -->
<g id="edge27" class="edge">
<title>function&#45;1&#45;CreateTensor:s&#45;&gt;primitive&#45;i64&#45;1024</title>
<path fill="none" stroke="black" d="M338.85,-95C338.85,-55.16 200.54,-71.53 163.85,-56 163.32,-55.78 162.8,-55.55 162.27,-55.31"/>
<polygon fill="black" stroke="black" points="162.81,-53.63 157.55,-53 161.27,-56.77 162.81,-53.63"/>
</g>
<!-- function&#45;0&#45;M_mul_m1m0p&#45;&gt;function&#45;0&#45;M_exp_m1m0p -->
<g id="edge29" class="edge">
<title>function&#45;0&#45;M_mul_m1m0p:s&#45;&gt;function&#45;0&#45;M_exp_m1m0p</title>
<path fill="none" stroke="black" d="M58.85,-727C58.85,-718.28 97.08,-700.99 132.39,-686.88"/>
<polygon fill="black" stroke="black" points="133.12,-688.47 137.12,-685 131.83,-685.22 133.12,-688.47"/>
</g>
<!-- function&#45;0&#45;M_mul_m1m0p&#45;&gt;function&#45;0&#45;M_exp_m1p -->
<g id="edge30" class="edge">
<title>function&#45;0&#45;M_mul_m1m0p:s&#45;&gt;function&#45;0&#45;M_exp_m1p</title>
<path fill="none" stroke="black" d="M116.85,-727C116.85,-711.6 107.86,-697.18 98.19,-686.12"/>
<polygon fill="black" stroke="black" points="101.7,-686.48 96.62,-685 99.67,-689.33 101.7,-686.48"/>
</g>
<!-- function&#45;0&#45;M_sub_m1p&#45;&gt;function&#45;0&#45;R_max_m0 -->
<g id="edge35" class="edge">
<title>function&#45;0&#45;M_sub_m1p:s&#45;&gt;function&#45;0&#45;R_max_m0</title>
<path fill="none" stroke="black" d="M53.85,-569C53.85,-530.17 39.34,-513.64 61.85,-482 78.43,-458.69 107.55,-445.24 132.83,-437.59"/>
<polygon fill="black" stroke="black" points="131.81,-440.48 134.85,-436.14 129.77,-437.64 131.81,-440.48"/>
</g>
<!-- function&#45;0&#45;M_sub_m1p&#45;&gt;function&#45;0&#45;R_max_m -->
<g id="edge36" class="edge">
<title>function&#45;0&#45;M_sub_m1p:s&#45;&gt;function&#45;0&#45;R_max_m</title>
<path fill="none" stroke="black" d="M99.85,-569C99.85,-555.8 100.99,-541.06 102.18,-529.27"/>
<polygon fill="black" stroke="black" points="103.26,-532.27 102.73,-527 99.85,-531.45 103.26,-532.27"/>
</g>
<!-- function&#45;1&#45;R_add_m&#45;&gt;function&#45;1&#45;M_mul_fmp -->
<g id="edge32" class="edge">
<title>function&#45;1&#45;R_add_m:s&#45;&gt;function&#45;1&#45;M_mul_fmp</title>
<path fill="none" stroke="black" d="M147.85,-1201C147.85,-1159.21 145.63,-1110.49 144.14,-1082.64"/>
<polygon fill="black" stroke="black" points="146.14,-1084.78 143.86,-1080 142.66,-1085.16 146.14,-1084.78"/>
</g>
<!-- function&#45;1&#45;R_add_m1&#45;&gt;function&#45;1&#45;R_add_m0 -->
<g id="edge33" class="edge">
<title>function&#45;1&#45;R_add_m1:s&#45;&gt;function&#45;1&#45;R_add_m0</title>
<path fill="none" stroke="black" d="M231.85,-1201C231.85,-1187.83 232.3,-1173.1 232.78,-1161.3"/>
<polygon fill="black" stroke="black" points="234.27,-1164.14 233,-1159 230.78,-1163.81 234.27,-1164.14"/>
</g>
<!-- function&#45;1&#45;R_add_m0&#45;&gt;function&#45;0&#45;M_mul_fmp -->
<g id="edge43" class="edge">
<title>function&#45;1&#45;R_add_m0:s&#45;&gt;function&#45;0&#45;M_mul_fmp</title>
<path fill="none" stroke="black" d="M234.85,-1122C234.85,-1108.83 235.3,-1094.1 235.78,-1082.3"/>
<polygon fill="black" stroke="black" points="237.27,-1085.14 236,-1080 233.78,-1084.81 237.27,-1085.14"/>
</g>
<!-- function&#45;0&#45;R_max_m&#45;&gt;function&#45;0&#45;R_add_e -->
<g id="edge47" class="edge">
<title>function&#45;0&#45;R_max_m:s&#45;&gt;function&#45;0&#45;R_add_e</title>
<path fill="none" stroke="black" d="M105.85,-490C105.85,-433.07 192.51,-495.63 227.85,-451 245.61,-428.57 244.19,-393.98 240.69,-371.42"/>
<polygon fill="black" stroke="black" points="243.16,-373.11 239.82,-369 239.87,-374.3 243.16,-373.11"/>
</g>
<!-- function&#45;0&#45;M_mul_emp&#45;&gt;function&#45;0&#45;CreateTensor -->
<g id="edge37" class="edge">
<title>function&#45;0&#45;M_mul_emp:s&#45;&gt;function&#45;0&#45;CreateTensor</title>
<path fill="none" stroke="black" d="M279.85,-253C279.85,-198.61 199.32,-255.23 163.85,-214 153.79,-202.31 149.13,-160.48 147.15,-134.15"/>
<polygon fill="black" stroke="black" points="149.34,-136.64 146.79,-132 145.89,-137.22 149.34,-136.64"/>
</g>
<!-- function&#45;0&#45;M_mul_emp&#45;&gt;function&#45;1&#45;CreateTensor -->
<g id="edge38" class="edge">
<title>function&#45;0&#45;M_mul_emp:s&#45;&gt;function&#45;1&#45;CreateTensor</title>
<path fill="none" stroke="black" d="M325.85,-253C325.85,-211.23 325.85,-162.51 325.85,-134.65"/>
<polygon fill="black" stroke="black" points="327.6,-137 325.85,-132 324.1,-137 327.6,-137"/>
</g>
<!-- function&#45;0&#45;T_split_m_m1m0&#45;&gt;function&#45;1&#45;CreateTensor -->
<g id="edge41" class="edge">
<title>function&#45;0&#45;T_split_m_m1m0:s&#45;&gt;function&#45;1&#45;CreateTensor</title>
<path fill="none" stroke="black" d="M200.85,-174C200.85,-165.65 237.13,-148.3 270.6,-134.07"/>
<polygon fill="black" stroke="black" points="271.59,-135.56 275.51,-132 270.22,-132.33 271.59,-135.56"/>
</g>
<!-- function&#45;0&#45;T_split_m_m1m0&#45;&gt;primitive&#45;i64&#45;4 -->
<g id="edge42" class="edge">
<title>function&#45;0&#45;T_split_m_m1m0:s&#45;&gt;primitive&#45;i64&#45;4</title>
<path fill="none" stroke="black" d="M263.85,-174C263.85,-159.72 257.6,-145.09 251,-133.63"/>
<polygon fill="black" stroke="black" points="254.14,-134.3 249.37,-132 251.67,-136.78 254.14,-134.3"/>
</g>
<!-- primitive&#45;String&#45;0 -->
<g id="node1" class="node">
<title>primitive&#45;String&#45;0</title>
<g id="a_node1"><a xlink:title="String&#45;0: primitive&#45;String&#45;0">
<path fill="white" stroke="transparent" d="M188.01,-16C188.01,-16 201.68,-16 201.68,-16 207.01,-16 212.35,-21.33 212.35,-26.67 212.35,-26.67 212.35,-37.33 212.35,-37.33 212.35,-42.67 207.01,-48 201.68,-48 201.68,-48 188.01,-48 188.01,-48 182.68,-48 177.35,-42.67 177.35,-37.33 177.35,-37.33 177.35,-26.67 177.35,-26.67 177.35,-21.33 182.68,-16 188.01,-16"/>
<text text-anchor="start" x="182.85" y="-28.3" font-family="Helvetica,sans-Serif" font-size="14.00">&quot;Q&quot;</text>
<path fill="none" stroke="black" d="M188.01,-16C188.01,-16 201.68,-16 201.68,-16 207.01,-16 212.35,-21.33 212.35,-26.67 212.35,-26.67 212.35,-37.33 212.35,-37.33 212.35,-42.67 207.01,-48 201.68,-48 201.68,-48 188.01,-48 188.01,-48 182.68,-48 177.35,-42.67 177.35,-37.33 177.35,-37.33 177.35,-26.67 177.35,-26.67 177.35,-21.33 182.68,-16 188.01,-16"/>
</a>
</g>
</g>
<!-- primitive&#45;String&#45;2 -->
<g id="node2" class="node">
<title>primitive&#45;String&#45;2</title>
<g id="a_node2"><a xlink:title="String&#45;2: primitive&#45;String&#45;2">
<path fill="white" stroke="transparent" d="M136.51,-885C136.51,-885 149.18,-885 149.18,-885 154.51,-885 159.85,-890.33 159.85,-895.67 159.85,-895.67 159.85,-906.33 159.85,-906.33 159.85,-911.67 154.51,-917 149.18,-917 149.18,-917 136.51,-917 136.51,-917 131.18,-917 125.85,-911.67 125.85,-906.33 125.85,-906.33 125.85,-895.67 125.85,-895.67 125.85,-890.33 131.18,-885 136.51,-885"/>
<text text-anchor="start" x="130.85" y="-897.3" font-family="Helvetica,sans-Serif" font-size="14.00">&quot;V&quot;</text>
<path fill="none" stroke="black" d="M136.51,-885C136.51,-885 149.18,-885 149.18,-885 154.51,-885 159.85,-890.33 159.85,-895.67 159.85,-895.67 159.85,-906.33 159.85,-906.33 159.85,-911.67 154.51,-917 149.18,-917 149.18,-917 136.51,-917 136.51,-917 131.18,-917 125.85,-911.67 125.85,-906.33 125.85,-906.33 125.85,-895.67 125.85,-895.67 125.85,-890.33 131.18,-885 136.51,-885"/>
</a>
</g>
</g>
<!-- primitive&#45;String&#45;1 -->
<g id="node3" class="node">
<title>primitive&#45;String&#45;1</title>
<g id="a_node3"><a xlink:title="String&#45;1: primitive&#45;String&#45;1">
<path fill="white" stroke="transparent" d="M277.01,-16C277.01,-16 288.68,-16 288.68,-16 294.01,-16 299.35,-21.33 299.35,-26.67 299.35,-26.67 299.35,-37.33 299.35,-37.33 299.35,-42.67 294.01,-48 288.68,-48 288.68,-48 277.01,-48 277.01,-48 271.68,-48 266.35,-42.67 266.35,-37.33 266.35,-37.33 266.35,-26.67 266.35,-26.67 266.35,-21.33 271.68,-16 277.01,-16"/>
<text text-anchor="start" x="271.85" y="-28.3" font-family="Helvetica,sans-Serif" font-size="14.00">&quot;K&quot;</text>
<path fill="none" stroke="black" d="M277.01,-16C277.01,-16 288.68,-16 288.68,-16 294.01,-16 299.35,-21.33 299.35,-26.67 299.35,-26.67 299.35,-37.33 299.35,-37.33 299.35,-42.67 294.01,-48 288.68,-48 288.68,-48 277.01,-48 277.01,-48 271.68,-48 266.35,-42.67 266.35,-37.33 266.35,-37.33 266.35,-26.67 266.35,-26.67 266.35,-21.33 271.68,-16 277.01,-16"/>
</a>
</g>
</g>
<!-- function&#45;0&#45;M_sub_mp -->
<g id="node4" class="node">
<title>function&#45;0&#45;M_sub_mp</title>
<g id="a_node4"><a xlink:title="Tensor&#45;6: function&#45;0&#45;M_sub_mp">
<path fill="white" stroke="transparent" d="M157.51,-569C157.51,-569 220.18,-569 220.18,-569 225.51,-569 230.85,-574.33 230.85,-579.67 230.85,-579.67 230.85,-590.33 230.85,-590.33 230.85,-595.67 225.51,-601 220.18,-601 220.18,-601 157.51,-601 157.51,-601 152.18,-601 146.85,-595.67 146.85,-590.33 146.85,-590.33 146.85,-579.67 146.85,-579.67 146.85,-574.33 152.18,-569 157.51,-569"/>
<text text-anchor="start" x="151.85" y="-581.3" font-family="Helvetica,sans-Serif" font-size="14.00">M_sub_mp</text>
<path fill="none" stroke="black" d="M157.51,-569C157.51,-569 220.18,-569 220.18,-569 225.51,-569 230.85,-574.33 230.85,-579.67 230.85,-579.67 230.85,-590.33 230.85,-590.33 230.85,-595.67 225.51,-601 220.18,-601 220.18,-601 157.51,-601 157.51,-601 152.18,-601 146.85,-595.67 146.85,-590.33 146.85,-590.33 146.85,-579.67 146.85,-579.67 146.85,-574.33 152.18,-569 157.51,-569"/>
</a>
</g>
</g>
<!-- function&#45;0&#45;R_add_e -->
<g id="node5" class="node">
<title>function&#45;0&#45;R_add_e</title>
<g id="a_node5"><a xlink:title="Tensor&#45;4: function&#45;0&#45;R_add_e">
<path fill="white" stroke="transparent" d="M212.51,-332C212.51,-332 259.18,-332 259.18,-332 264.51,-332 269.85,-337.33 269.85,-342.67 269.85,-342.67 269.85,-353.33 269.85,-353.33 269.85,-358.67 264.51,-364 259.18,-364 259.18,-364 212.51,-364 212.51,-364 207.18,-364 201.85,-358.67 201.85,-353.33 201.85,-353.33 201.85,-342.67 201.85,-342.67 201.85,-337.33 207.18,-332 212.51,-332"/>
<text text-anchor="start" x="206.85" y="-344.3" font-family="Helvetica,sans-Serif" font-size="14.00">R_add_e</text>
<path fill="none" stroke="black" d="M212.51,-332C212.51,-332 259.18,-332 259.18,-332 264.51,-332 269.85,-337.33 269.85,-342.67 269.85,-342.67 269.85,-353.33 269.85,-353.33 269.85,-358.67 264.51,-364 259.18,-364 259.18,-364 212.51,-364 212.51,-364 207.18,-364 201.85,-358.67 201.85,-353.33 201.85,-353.33 201.85,-342.67 201.85,-342.67 201.85,-337.33 207.18,-332 212.51,-332"/>
</a>
</g>
</g>
<!-- function&#45;0&#45;R_max_m1 -->
<g id="node6" class="node">
<title>function&#45;0&#45;R_max_m1</title>
<g id="a_node6"><a xlink:title="Tensor&#45;5: function&#45;0&#45;R_max_m1">
<path fill="white" stroke="transparent" d="M158.51,-490C158.51,-490 223.18,-490 223.18,-490 228.51,-490 233.85,-495.33 233.85,-500.67 233.85,-500.67 233.85,-511.33 233.85,-511.33 233.85,-516.67 228.51,-522 223.18,-522 223.18,-522 158.51,-522 158.51,-522 153.18,-522 147.85,-516.67 147.85,-511.33 147.85,-511.33 147.85,-500.67 147.85,-500.67 147.85,-495.33 153.18,-490 158.51,-490"/>
<text text-anchor="start" x="152.85" y="-502.3" font-family="Helvetica,sans-Serif" font-size="14.00">R_max_m1</text>
<path fill="none" stroke="black" d="M158.51,-490C158.51,-490 223.18,-490 223.18,-490 228.51,-490 233.85,-495.33 233.85,-500.67 233.85,-500.67 233.85,-511.33 233.85,-511.33 233.85,-516.67 228.51,-522 223.18,-522 223.18,-522 158.51,-522 158.51,-522 153.18,-522 147.85,-516.67 147.85,-511.33 147.85,-511.33 147.85,-500.67 147.85,-500.67 147.85,-495.33 153.18,-490 158.51,-490"/>
</a>
</g>
</g>
<!-- function&#45;0&#45;M_sub_m1m0p -->
<g id="node7" class="node">
<title>function&#45;0&#45;M_sub_m1m0p</title>
<g id="a_node7"><a xlink:title="Tensor&#45;6: function&#45;0&#45;M_sub_m1m0p">
<path fill="white" stroke="transparent" d="M245.51,-569C245.51,-569 340.18,-569 340.18,-569 345.51,-569 350.85,-574.33 350.85,-579.67 350.85,-579.67 350.85,-590.33 350.85,-590.33 350.85,-595.67 345.51,-601 340.18,-601 340.18,-601 245.51,-601 245.51,-601 240.18,-601 234.85,-595.67 234.85,-590.33 234.85,-590.33 234.85,-579.67 234.85,-579.67 234.85,-574.33 240.18,-569 245.51,-569"/>
<text text-anchor="start" x="239.85" y="-581.3" font-family="Helvetica,sans-Serif" font-size="14.00">M_sub_m1m0p</text>
<path fill="none" stroke="black" d="M245.51,-569C245.51,-569 340.18,-569 340.18,-569 345.51,-569 350.85,-574.33 350.85,-579.67 350.85,-579.67 350.85,-590.33 350.85,-590.33 350.85,-595.67 345.51,-601 340.18,-601 340.18,-601 245.51,-601 245.51,-601 240.18,-601 234.85,-595.67 234.85,-590.33 234.85,-590.33 234.85,-579.67 234.85,-579.67 234.85,-574.33 240.18,-569 245.51,-569"/>
</a>
</g>
</g>
<!-- function&#45;0&#45;R_max_m0 -->
<g id="node8" class="node">
<title>function&#45;0&#45;R_max_m0</title>
<g id="a_node8"><a xlink:title="Tensor&#45;13: function&#45;0&#45;R_max_m0">
<path fill="white" stroke="transparent" d="M148.51,-411C148.51,-411 213.18,-411 213.18,-411 218.51,-411 223.85,-416.33 223.85,-421.67 223.85,-421.67 223.85,-432.33 223.85,-432.33 223.85,-437.67 218.51,-443 213.18,-443 213.18,-443 148.51,-443 148.51,-443 143.18,-443 137.85,-437.67 137.85,-432.33 137.85,-432.33 137.85,-421.67 137.85,-421.67 137.85,-416.33 143.18,-411 148.51,-411"/>
<text text-anchor="start" x="142.85" y="-423.3" font-family="Helvetica,sans-Serif" font-size="14.00">R_max_m0</text>
<path fill="none" stroke="black" d="M148.51,-411C148.51,-411 213.18,-411 213.18,-411 218.51,-411 223.85,-416.33 223.85,-421.67 223.85,-421.67 223.85,-432.33 223.85,-432.33 223.85,-437.67 218.51,-443 213.18,-443 213.18,-443 148.51,-443 148.51,-443 143.18,-443 137.85,-437.67 137.85,-432.33 137.85,-432.33 137.85,-421.67 137.85,-421.67 137.85,-416.33 143.18,-411 148.51,-411"/>
</a>
</g>
</g>
<!-- function&#45;0&#45;M_exp_mp -->
<g id="node9" class="node">
<title>function&#45;0&#45;M_exp_mp</title>
<g id="a_node9"><a xlink:title="Tensor&#45;7: function&#45;0&#45;M_exp_mp">
<path fill="white" stroke="transparent" d="M263.51,-648C263.51,-648 326.18,-648 326.18,-648 331.51,-648 336.85,-653.33 336.85,-658.67 336.85,-658.67 336.85,-669.33 336.85,-669.33 336.85,-674.67 331.51,-680 326.18,-680 326.18,-680 263.51,-680 263.51,-680 258.18,-680 252.85,-674.67 252.85,-669.33 252.85,-669.33 252.85,-658.67 252.85,-658.67 252.85,-653.33 258.18,-648 263.51,-648"/>
<text text-anchor="start" x="257.85" y="-660.3" font-family="Helvetica,sans-Serif" font-size="14.00">M_exp_mp</text>
<path fill="none" stroke="black" d="M263.51,-648C263.51,-648 326.18,-648 326.18,-648 331.51,-648 336.85,-653.33 336.85,-658.67 336.85,-658.67 336.85,-669.33 336.85,-669.33 336.85,-674.67 331.51,-680 326.18,-680 326.18,-680 263.51,-680 263.51,-680 258.18,-680 252.85,-674.67 252.85,-669.33 252.85,-669.33 252.85,-658.67 252.85,-658.67 252.85,-653.33 258.18,-648 263.51,-648"/>
</a>
</g>
</g>
<!-- function&#45;0&#45;M_exp_m1m0p -->
<g id="node10" class="node">
<title>function&#45;0&#45;M_exp_m1m0p</title>
<g id="a_node10"><a xlink:title="Tensor&#45;7: function&#45;0&#45;M_exp_m1m0p">
<path fill="white" stroke="transparent" d="M143.51,-648C143.51,-648 238.18,-648 238.18,-648 243.51,-648 248.85,-653.33 248.85,-658.67 248.85,-658.67 248.85,-669.33 248.85,-669.33 248.85,-674.67 243.51,-680 238.18,-680 238.18,-680 143.51,-680 143.51,-680 138.18,-680 132.85,-674.67 132.85,-669.33 132.85,-669.33 132.85,-658.67 132.85,-658.67 132.85,-653.33 138.18,-648 143.51,-648"/>
<text text-anchor="start" x="137.85" y="-660.3" font-family="Helvetica,sans-Serif" font-size="14.00">M_exp_m1m0p</text>
<path fill="none" stroke="black" d="M143.51,-648C143.51,-648 238.18,-648 238.18,-648 243.51,-648 248.85,-653.33 248.85,-658.67 248.85,-658.67 248.85,-669.33 248.85,-669.33 248.85,-674.67 243.51,-680 238.18,-680 238.18,-680 143.51,-680 143.51,-680 138.18,-680 132.85,-674.67 132.85,-669.33 132.85,-669.33 132.85,-658.67 132.85,-658.67 132.85,-653.33 138.18,-648 143.51,-648"/>
</a>
</g>
</g>
<!-- function&#45;0&#45;T_unsplit_m1m0_m -->
<g id="node11" class="node">
<title>function&#45;0&#45;T_unsplit_m1m0_m</title>
<g id="a_node11"><a xlink:title="Tensor&#45;21: function&#45;0&#45;T_unsplit_m1m0_m">
<path fill="white" stroke="transparent" d="M252.01,-964C252.01,-964 375.68,-964 375.68,-964 381.01,-964 386.35,-969.33 386.35,-974.67 386.35,-974.67 386.35,-985.33 386.35,-985.33 386.35,-990.67 381.01,-996 375.68,-996 375.68,-996 252.01,-996 252.01,-996 246.68,-996 241.35,-990.67 241.35,-985.33 241.35,-985.33 241.35,-974.67 241.35,-974.67 241.35,-969.33 246.68,-964 252.01,-964"/>
<text text-anchor="start" x="246.85" y="-976.3" font-family="Helvetica,sans-Serif" font-size="14.00">T_unsplit_m1m0_m</text>
<path fill="none" stroke="black" d="M252.01,-964C252.01,-964 375.68,-964 375.68,-964 381.01,-964 386.35,-969.33 386.35,-974.67 386.35,-974.67 386.35,-985.33 386.35,-985.33 386.35,-990.67 381.01,-996 375.68,-996 375.68,-996 252.01,-996 252.01,-996 246.68,-996 241.35,-990.67 241.35,-985.33 241.35,-985.33 241.35,-974.67 241.35,-974.67 241.35,-969.33 246.68,-964 252.01,-964"/>
</a>
</g>
</g>
<!-- function&#45;0&#45;M_div_m1m0p -->
<g id="node12" class="node">
<title>function&#45;0&#45;M_div_m1m0p</title>
<g id="a_node12"><a xlink:title="Tensor&#45;9: function&#45;0&#45;M_div_m1m0p">
<path fill="white" stroke="transparent" d="M277.01,-885C277.01,-885 366.68,-885 366.68,-885 372.01,-885 377.35,-890.33 377.35,-895.67 377.35,-895.67 377.35,-906.33 377.35,-906.33 377.35,-911.67 372.01,-917 366.68,-917 366.68,-917 277.01,-917 277.01,-917 271.68,-917 266.35,-911.67 266.35,-906.33 266.35,-906.33 266.35,-895.67 266.35,-895.67 266.35,-890.33 271.68,-885 277.01,-885"/>
<text text-anchor="start" x="271.85" y="-897.3" font-family="Helvetica,sans-Serif" font-size="14.00">M_div_m1m0p</text>
<path fill="none" stroke="black" d="M277.01,-885C277.01,-885 366.68,-885 366.68,-885 372.01,-885 377.35,-890.33 377.35,-895.67 377.35,-895.67 377.35,-906.33 377.35,-906.33 377.35,-911.67 372.01,-917 366.68,-917 366.68,-917 277.01,-917 277.01,-917 271.68,-917 266.35,-911.67 266.35,-906.33 266.35,-906.33 266.35,-895.67 266.35,-895.67 266.35,-890.33 271.68,-885 277.01,-885"/>
</a>
</g>
</g>
<!-- function&#45;0&#45;M_mul_fmp -->
<g id="node13" class="node">
<title>function&#45;0&#45;M_mul_fmp</title>
<g id="a_node13"><a xlink:title="Tensor&#45;10: function&#45;0&#45;M_mul_fmp">
<path fill="white" stroke="transparent" d="M202.51,-1043C202.51,-1043 271.18,-1043 271.18,-1043 276.51,-1043 281.85,-1048.33 281.85,-1053.67 281.85,-1053.67 281.85,-1064.33 281.85,-1064.33 281.85,-1069.67 276.51,-1075 271.18,-1075 271.18,-1075 202.51,-1075 202.51,-1075 197.18,-1075 191.85,-1069.67 191.85,-1064.33 191.85,-1064.33 191.85,-1053.67 191.85,-1053.67 191.85,-1048.33 197.18,-1043 202.51,-1043"/>
<text text-anchor="start" x="196.85" y="-1055.3" font-family="Helvetica,sans-Serif" font-size="14.00">M_mul_fmp</text>
<path fill="none" stroke="black" d="M202.51,-1043C202.51,-1043 271.18,-1043 271.18,-1043 276.51,-1043 281.85,-1048.33 281.85,-1053.67 281.85,-1053.67 281.85,-1064.33 281.85,-1064.33 281.85,-1069.67 276.51,-1075 271.18,-1075 271.18,-1075 202.51,-1075 202.51,-1075 197.18,-1075 191.85,-1069.67 191.85,-1064.33 191.85,-1064.33 191.85,-1053.67 191.85,-1053.67 191.85,-1048.33 197.18,-1043 202.51,-1043"/>
</a>
</g>
</g>
<!-- function&#45;0&#45;M_div_mp -->
<g id="node14" class="node">
<title>function&#45;0&#45;M_div_mp</title>
<g id="a_node14"><a xlink:title="Tensor&#45;9: function&#45;0&#45;M_div_mp">
<path fill="white" stroke="transparent" d="M192.51,-885C192.51,-885 251.18,-885 251.18,-885 256.51,-885 261.85,-890.33 261.85,-895.67 261.85,-895.67 261.85,-906.33 261.85,-906.33 261.85,-911.67 256.51,-917 251.18,-917 251.18,-917 192.51,-917 192.51,-917 187.18,-917 181.85,-911.67 181.85,-906.33 181.85,-906.33 181.85,-895.67 181.85,-895.67 181.85,-890.33 187.18,-885 192.51,-885"/>
<text text-anchor="start" x="186.85" y="-897.3" font-family="Helvetica,sans-Serif" font-size="14.00">M_div_mp</text>
<path fill="none" stroke="black" d="M192.51,-885C192.51,-885 251.18,-885 251.18,-885 256.51,-885 261.85,-890.33 261.85,-895.67 261.85,-895.67 261.85,-906.33 261.85,-906.33 261.85,-911.67 256.51,-917 251.18,-917 251.18,-917 192.51,-917 192.51,-917 187.18,-917 181.85,-911.67 181.85,-906.33 181.85,-906.33 181.85,-895.67 181.85,-895.67 181.85,-890.33 187.18,-885 192.51,-885"/>
</a>
</g>
</g>
<!-- function&#45;2&#45;CreateTensor -->
<g id="node15" class="node">
<title>function&#45;2&#45;CreateTensor</title>
<g id="a_node15"><a xlink:title="Tensor&#45;2: function&#45;2&#45;CreateTensor">
<path fill="white" stroke="transparent" d="M119.01,-964C119.01,-964 198.68,-964 198.68,-964 204.01,-964 209.35,-969.33 209.35,-974.67 209.35,-974.67 209.35,-985.33 209.35,-985.33 209.35,-990.67 204.01,-996 198.68,-996 198.68,-996 119.01,-996 119.01,-996 113.68,-996 108.35,-990.67 108.35,-985.33 108.35,-985.33 108.35,-974.67 108.35,-974.67 108.35,-969.33 113.68,-964 119.01,-964"/>
<text text-anchor="start" x="113.85" y="-976.3" font-family="Helvetica,sans-Serif" font-size="14.00">CreateTensor</text>
<path fill="none" stroke="black" d="M119.01,-964C119.01,-964 198.68,-964 198.68,-964 204.01,-964 209.35,-969.33 209.35,-974.67 209.35,-974.67 209.35,-985.33 209.35,-985.33 209.35,-990.67 204.01,-996 198.68,-996 198.68,-996 119.01,-996 119.01,-996 113.68,-996 108.35,-990.67 108.35,-985.33 108.35,-985.33 108.35,-974.67 108.35,-974.67 108.35,-969.33 113.68,-964 119.01,-964"/>
</a>
</g>
</g>
<!-- function&#45;1&#45;M_mul_fmp -->
<g id="node16" class="node">
<title>function&#45;1&#45;M_mul_fmp</title>
<g id="a_node16"><a xlink:title="Tensor&#45;10: function&#45;1&#45;M_mul_fmp">
<path fill="white" stroke="transparent" d="M108.51,-1043C108.51,-1043 177.18,-1043 177.18,-1043 182.51,-1043 187.85,-1048.33 187.85,-1053.67 187.85,-1053.67 187.85,-1064.33 187.85,-1064.33 187.85,-1069.67 182.51,-1075 177.18,-1075 177.18,-1075 108.51,-1075 108.51,-1075 103.18,-1075 97.85,-1069.67 97.85,-1064.33 97.85,-1064.33 97.85,-1053.67 97.85,-1053.67 97.85,-1048.33 103.18,-1043 108.51,-1043"/>
<text text-anchor="start" x="102.85" y="-1055.3" font-family="Helvetica,sans-Serif" font-size="14.00">M_mul_fmp</text>
<path fill="none" stroke="black" d="M108.51,-1043C108.51,-1043 177.18,-1043 177.18,-1043 182.51,-1043 187.85,-1048.33 187.85,-1053.67 187.85,-1053.67 187.85,-1064.33 187.85,-1064.33 187.85,-1069.67 182.51,-1075 177.18,-1075 177.18,-1075 108.51,-1075 108.51,-1075 103.18,-1075 97.85,-1069.67 97.85,-1064.33 97.85,-1064.33 97.85,-1053.67 97.85,-1053.67 97.85,-1048.33 103.18,-1043 108.51,-1043"/>
</a>
</g>
</g>
<!-- function&#45;0&#45;CreateTensor -->
<g id="node17" class="node">
<title>function&#45;0&#45;CreateTensor</title>
<g id="a_node17"><a xlink:title="Tensor&#45;0: function&#45;0&#45;CreateTensor">
<path fill="white" stroke="transparent" d="M106.01,-95C106.01,-95 185.68,-95 185.68,-95 191.01,-95 196.35,-100.33 196.35,-105.67 196.35,-105.67 196.35,-116.33 196.35,-116.33 196.35,-121.67 191.01,-127 185.68,-127 185.68,-127 106.01,-127 106.01,-127 100.68,-127 95.35,-121.67 95.35,-116.33 95.35,-116.33 95.35,-105.67 95.35,-105.67 95.35,-100.33 100.68,-95 106.01,-95"/>
<text text-anchor="start" x="100.85" y="-107.3" font-family="Helvetica,sans-Serif" font-size="14.00">CreateTensor</text>
<path fill="none" stroke="black" d="M106.01,-95C106.01,-95 185.68,-95 185.68,-95 191.01,-95 196.35,-100.33 196.35,-105.67 196.35,-105.67 196.35,-116.33 196.35,-116.33 196.35,-121.67 191.01,-127 185.68,-127 185.68,-127 106.01,-127 106.01,-127 100.68,-127 95.35,-121.67 95.35,-116.33 95.35,-116.33 95.35,-105.67 95.35,-105.67 95.35,-100.33 100.68,-95 106.01,-95"/>
</a>
</g>
</g>
<!-- primitive&#45;i64&#45;64 -->
<g id="node18" class="node">
<title>primitive&#45;i64&#45;64</title>
<g id="a_node18"><a xlink:title="i64&#45;64: primitive&#45;i64&#45;64">
<path fill="white" stroke="transparent" d="M343.51,-16C343.51,-16 354.18,-16 354.18,-16 359.51,-16 364.85,-21.33 364.85,-26.67 364.85,-26.67 364.85,-37.33 364.85,-37.33 364.85,-42.67 359.51,-48 354.18,-48 354.18,-48 343.51,-48 343.51,-48 338.18,-48 332.85,-42.67 332.85,-37.33 332.85,-37.33 332.85,-26.67 332.85,-26.67 332.85,-21.33 338.18,-16 343.51,-16"/>
<text text-anchor="start" x="339.35" y="-28.3" font-family="Helvetica,sans-Serif" font-size="14.00">64</text>
<path fill="none" stroke="black" d="M343.51,-16C343.51,-16 354.18,-16 354.18,-16 359.51,-16 364.85,-21.33 364.85,-26.67 364.85,-26.67 364.85,-37.33 364.85,-37.33 364.85,-42.67 359.51,-48 354.18,-48 354.18,-48 343.51,-48 343.51,-48 338.18,-48 332.85,-42.67 332.85,-37.33 332.85,-37.33 332.85,-26.67 332.85,-26.67 332.85,-21.33 338.18,-16 343.51,-16"/>
</a>
</g>
</g>
<!-- primitive&#45;i64&#45;1024 -->
<g id="node19" class="node">
<title>primitive&#45;i64&#45;1024</title>
<g id="a_node19"><a xlink:title="i64&#45;1024: primitive&#45;i64&#45;1024">
<path fill="white" stroke="transparent" d="M116.01,-16C116.01,-16 141.68,-16 141.68,-16 147.01,-16 152.35,-21.33 152.35,-26.67 152.35,-26.67 152.35,-37.33 152.35,-37.33 152.35,-42.67 147.01,-48 141.68,-48 141.68,-48 116.01,-48 116.01,-48 110.68,-48 105.35,-42.67 105.35,-37.33 105.35,-37.33 105.35,-26.67 105.35,-26.67 105.35,-21.33 110.68,-16 116.01,-16"/>
<text text-anchor="start" x="110.85" y="-28.3" font-family="Helvetica,sans-Serif" font-size="14.00">1024</text>
<path fill="none" stroke="black" d="M116.01,-16C116.01,-16 141.68,-16 141.68,-16 147.01,-16 152.35,-21.33 152.35,-26.67 152.35,-26.67 152.35,-37.33 152.35,-37.33 152.35,-42.67 147.01,-48 141.68,-48 141.68,-48 116.01,-48 116.01,-48 110.68,-48 105.35,-42.67 105.35,-37.33 105.35,-37.33 105.35,-26.67 105.35,-26.67 105.35,-21.33 110.68,-16 116.01,-16"/>
</a>
</g>
</g>
<!-- function&#45;0&#45;R_add_m -->
<g id="node20" class="node">
<title>function&#45;0&#45;R_add_m</title>
<g id="a_node20"><a xlink:title="Tensor&#45;8: function&#45;0&#45;R_add_m">
<path fill="white" stroke="transparent" d="M240.51,-806C240.51,-806 293.18,-806 293.18,-806 298.51,-806 303.85,-811.33 303.85,-816.67 303.85,-816.67 303.85,-827.33 303.85,-827.33 303.85,-832.67 298.51,-838 293.18,-838 293.18,-838 240.51,-838 240.51,-838 235.18,-838 229.85,-832.67 229.85,-827.33 229.85,-827.33 229.85,-816.67 229.85,-816.67 229.85,-811.33 235.18,-806 240.51,-806"/>
<text text-anchor="start" x="234.85" y="-818.3" font-family="Helvetica,sans-Serif" font-size="14.00">R_add_m</text>
<path fill="none" stroke="black" d="M240.51,-806C240.51,-806 293.18,-806 293.18,-806 298.51,-806 303.85,-811.33 303.85,-816.67 303.85,-816.67 303.85,-827.33 303.85,-827.33 303.85,-832.67 298.51,-838 293.18,-838 293.18,-838 240.51,-838 240.51,-838 235.18,-838 229.85,-832.67 229.85,-827.33 229.85,-827.33 229.85,-816.67 229.85,-816.67 229.85,-811.33 235.18,-806 240.51,-806"/>
</a>
</g>
</g>
<!-- function&#45;0&#45;R_add_m1 -->
<g id="node21" class="node">
<title>function&#45;0&#45;R_add_m1</title>
<g id="a_node21"><a xlink:title="Tensor&#45;8: function&#45;0&#45;R_add_m1">
<path fill="white" stroke="transparent" d="M153.01,-806C153.01,-806 214.68,-806 214.68,-806 220.01,-806 225.35,-811.33 225.35,-816.67 225.35,-816.67 225.35,-827.33 225.35,-827.33 225.35,-832.67 220.01,-838 214.68,-838 214.68,-838 153.01,-838 153.01,-838 147.68,-838 142.35,-832.67 142.35,-827.33 142.35,-827.33 142.35,-816.67 142.35,-816.67 142.35,-811.33 147.68,-806 153.01,-806"/>
<text text-anchor="start" x="147.85" y="-818.3" font-family="Helvetica,sans-Serif" font-size="14.00">R_add_m1</text>
<path fill="none" stroke="black" d="M153.01,-806C153.01,-806 214.68,-806 214.68,-806 220.01,-806 225.35,-811.33 225.35,-816.67 225.35,-816.67 225.35,-827.33 225.35,-827.33 225.35,-832.67 220.01,-838 214.68,-838 214.68,-838 153.01,-838 153.01,-838 147.68,-838 142.35,-832.67 142.35,-827.33 142.35,-827.33 142.35,-816.67 142.35,-816.67 142.35,-811.33 147.68,-806 153.01,-806"/>
</a>
</g>
</g>
<!-- function&#45;0&#45;R_add_m0 -->
<g id="node22" class="node">
<title>function&#45;0&#45;R_add_m0</title>
<g id="a_node22"><a xlink:title="Tensor&#45;14: function&#45;0&#45;R_add_m0">
<path fill="white" stroke="transparent" d="M169.01,-727C169.01,-727 230.68,-727 230.68,-727 236.01,-727 241.35,-732.33 241.35,-737.67 241.35,-737.67 241.35,-748.33 241.35,-748.33 241.35,-753.67 236.01,-759 230.68,-759 230.68,-759 169.01,-759 169.01,-759 163.68,-759 158.35,-753.67 158.35,-748.33 158.35,-748.33 158.35,-737.67 158.35,-737.67 158.35,-732.33 163.68,-727 169.01,-727"/>
<text text-anchor="start" x="163.85" y="-739.3" font-family="Helvetica,sans-Serif" font-size="14.00">R_add_m0</text>
<path fill="none" stroke="black" d="M169.01,-727C169.01,-727 230.68,-727 230.68,-727 236.01,-727 241.35,-732.33 241.35,-737.67 241.35,-737.67 241.35,-748.33 241.35,-748.33 241.35,-753.67 236.01,-759 230.68,-759 230.68,-759 169.01,-759 169.01,-759 163.68,-759 158.35,-753.67 158.35,-748.33 158.35,-748.33 158.35,-737.67 158.35,-737.67 158.35,-732.33 163.68,-727 169.01,-727"/>
</a>
</g>
</g>
<!-- function&#45;2&#45;R_add_m1 -->
<g id="node23" class="node">
<title>function&#45;2&#45;R_add_m1</title>
<g id="a_node23"><a xlink:title="Tensor&#45;20: function&#45;2&#45;R_add_m1">
<path fill="white" stroke="transparent" d="M31.01,-885C31.01,-885 92.68,-885 92.68,-885 98.01,-885 103.35,-890.33 103.35,-895.67 103.35,-895.67 103.35,-906.33 103.35,-906.33 103.35,-911.67 98.01,-917 92.68,-917 92.68,-917 31.01,-917 31.01,-917 25.68,-917 20.35,-911.67 20.35,-906.33 20.35,-906.33 20.35,-895.67 20.35,-895.67 20.35,-890.33 25.68,-885 31.01,-885"/>
<text text-anchor="start" x="25.85" y="-897.3" font-family="Helvetica,sans-Serif" font-size="14.00">R_add_m1</text>
<path fill="none" stroke="black" d="M31.01,-885C31.01,-885 92.68,-885 92.68,-885 98.01,-885 103.35,-890.33 103.35,-895.67 103.35,-895.67 103.35,-906.33 103.35,-906.33 103.35,-911.67 98.01,-917 92.68,-917 92.68,-917 31.01,-917 31.01,-917 25.68,-917 20.35,-911.67 20.35,-906.33 20.35,-906.33 20.35,-895.67 20.35,-895.67 20.35,-890.33 25.68,-885 31.01,-885"/>
</a>
</g>
</g>
<!-- function&#45;0&#45;M_mul_m1p -->
<g id="node24" class="node">
<title>function&#45;0&#45;M_mul_m1p</title>
<g id="a_node24"><a xlink:title="Tensor&#45;19: function&#45;0&#45;M_mul_m1p">
<path fill="white" stroke="transparent" d="M30.51,-806C30.51,-806 103.18,-806 103.18,-806 108.51,-806 113.85,-811.33 113.85,-816.67 113.85,-816.67 113.85,-827.33 113.85,-827.33 113.85,-832.67 108.51,-838 103.18,-838 103.18,-838 30.51,-838 30.51,-838 25.18,-838 19.85,-832.67 19.85,-827.33 19.85,-827.33 19.85,-816.67 19.85,-816.67 19.85,-811.33 25.18,-806 30.51,-806"/>
<text text-anchor="start" x="24.85" y="-818.3" font-family="Helvetica,sans-Serif" font-size="14.00">M_mul_m1p</text>
<path fill="none" stroke="black" d="M30.51,-806C30.51,-806 103.18,-806 103.18,-806 108.51,-806 113.85,-811.33 113.85,-816.67 113.85,-816.67 113.85,-827.33 113.85,-827.33 113.85,-832.67 108.51,-838 103.18,-838 103.18,-838 30.51,-838 30.51,-838 25.18,-838 19.85,-832.67 19.85,-827.33 19.85,-827.33 19.85,-816.67 19.85,-816.67 19.85,-811.33 25.18,-806 30.51,-806"/>
</a>
</g>
</g>
<!-- function&#45;0&#45;M_exp_m1p -->
<g id="node25" class="node">
<title>function&#45;0&#45;M_exp_m1p</title>
<g id="a_node25"><a xlink:title="Tensor&#45;17: function&#45;0&#45;M_exp_m1p">
<path fill="white" stroke="transparent" d="M39.01,-648C39.01,-648 110.68,-648 110.68,-648 116.01,-648 121.35,-653.33 121.35,-658.67 121.35,-658.67 121.35,-669.33 121.35,-669.33 121.35,-674.67 116.01,-680 110.68,-680 110.68,-680 39.01,-680 39.01,-680 33.68,-680 28.35,-674.67 28.35,-669.33 28.35,-669.33 28.35,-658.67 28.35,-658.67 28.35,-653.33 33.68,-648 39.01,-648"/>
<text text-anchor="start" x="33.85" y="-660.3" font-family="Helvetica,sans-Serif" font-size="14.00">M_exp_m1p</text>
<path fill="none" stroke="black" d="M39.01,-648C39.01,-648 110.68,-648 110.68,-648 116.01,-648 121.35,-653.33 121.35,-658.67 121.35,-658.67 121.35,-669.33 121.35,-669.33 121.35,-674.67 116.01,-680 110.68,-680 110.68,-680 39.01,-680 39.01,-680 33.68,-680 28.35,-674.67 28.35,-669.33 28.35,-669.33 28.35,-658.67 28.35,-658.67 28.35,-653.33 33.68,-648 39.01,-648"/>
</a>
</g>
</g>
<!-- function&#45;0&#45;M_mul_em1m0p -->
<g id="node26" class="node">
<title>function&#45;0&#45;M_mul_em1m0p</title>
<g id="a_node26"><a xlink:title="Tensor&#45;3: function&#45;0&#45;M_mul_em1m0p">
<path fill="white" stroke="transparent" d="M138.01,-253C138.01,-253 241.68,-253 241.68,-253 247.01,-253 252.35,-258.33 252.35,-263.67 252.35,-263.67 252.35,-274.33 252.35,-274.33 252.35,-279.67 247.01,-285 241.68,-285 241.68,-285 138.01,-285 138.01,-285 132.68,-285 127.35,-279.67 127.35,-274.33 127.35,-274.33 127.35,-263.67 127.35,-263.67 127.35,-258.33 132.68,-253 138.01,-253"/>
<text text-anchor="start" x="132.85" y="-265.3" font-family="Helvetica,sans-Serif" font-size="14.00">M_mul_em1m0p</text>
<path fill="none" stroke="black" d="M138.01,-253C138.01,-253 241.68,-253 241.68,-253 247.01,-253 252.35,-258.33 252.35,-263.67 252.35,-263.67 252.35,-274.33 252.35,-274.33 252.35,-279.67 247.01,-285 241.68,-285 241.68,-285 138.01,-285 138.01,-285 132.68,-285 127.35,-279.67 127.35,-274.33 127.35,-274.33 127.35,-263.67 127.35,-263.67 127.35,-258.33 132.68,-253 138.01,-253"/>
</a>
</g>
</g>
<!-- function&#45;1&#45;CreateTensor -->
<g id="node27" class="node">
<title>function&#45;1&#45;CreateTensor</title>
<g id="a_node27"><a xlink:title="Tensor&#45;1: function&#45;1&#45;CreateTensor">
<path fill="white" stroke="transparent" d="M286.01,-95C286.01,-95 365.68,-95 365.68,-95 371.01,-95 376.35,-100.33 376.35,-105.67 376.35,-105.67 376.35,-116.33 376.35,-116.33 376.35,-121.67 371.01,-127 365.68,-127 365.68,-127 286.01,-127 286.01,-127 280.68,-127 275.35,-121.67 275.35,-116.33 275.35,-116.33 275.35,-105.67 275.35,-105.67 275.35,-100.33 280.68,-95 286.01,-95"/>
<text text-anchor="start" x="280.85" y="-107.3" font-family="Helvetica,sans-Serif" font-size="14.00">CreateTensor</text>
<path fill="none" stroke="black" d="M286.01,-95C286.01,-95 365.68,-95 365.68,-95 371.01,-95 376.35,-100.33 376.35,-105.67 376.35,-105.67 376.35,-116.33 376.35,-116.33 376.35,-121.67 371.01,-127 365.68,-127 365.68,-127 286.01,-127 286.01,-127 280.68,-127 275.35,-121.67 275.35,-116.33 275.35,-116.33 275.35,-105.67 275.35,-105.67 275.35,-100.33 280.68,-95 286.01,-95"/>
</a>
</g>
</g>
<!-- function&#45;0&#45;M_mul_m1m0p -->
<g id="node28" class="node">
<title>function&#45;0&#45;M_mul_m1m0p</title>
<g id="a_node28"><a xlink:title="Tensor&#45;18: function&#45;0&#45;M_mul_m1m0p">
<path fill="white" stroke="transparent" d="M40.51,-727C40.51,-727 135.18,-727 135.18,-727 140.51,-727 145.85,-732.33 145.85,-737.67 145.85,-737.67 145.85,-748.33 145.85,-748.33 145.85,-753.67 140.51,-759 135.18,-759 135.18,-759 40.51,-759 40.51,-759 35.18,-759 29.85,-753.67 29.85,-748.33 29.85,-748.33 29.85,-737.67 29.85,-737.67 29.85,-732.33 35.18,-727 40.51,-727"/>
<text text-anchor="start" x="34.85" y="-739.3" font-family="Helvetica,sans-Serif" font-size="14.00">M_mul_m1m0p</text>
<path fill="none" stroke="black" d="M40.51,-727C40.51,-727 135.18,-727 135.18,-727 140.51,-727 145.85,-732.33 145.85,-737.67 145.85,-737.67 145.85,-748.33 145.85,-748.33 145.85,-753.67 140.51,-759 135.18,-759 135.18,-759 40.51,-759 40.51,-759 35.18,-759 29.85,-753.67 29.85,-748.33 29.85,-748.33 29.85,-737.67 29.85,-737.67 29.85,-732.33 35.18,-727 40.51,-727"/>
</a>
</g>
</g>
<!-- function&#45;0&#45;M_sub_m1p -->
<g id="node29" class="node">
<title>function&#45;0&#45;M_sub_m1p</title>
<g id="a_node29"><a xlink:title="Tensor&#45;16: function&#45;0&#45;M_sub_m1p">
<path fill="white" stroke="transparent" d="M41.01,-569C41.01,-569 112.68,-569 112.68,-569 118.01,-569 123.35,-574.33 123.35,-579.67 123.35,-579.67 123.35,-590.33 123.35,-590.33 123.35,-595.67 118.01,-601 112.68,-601 112.68,-601 41.01,-601 41.01,-601 35.68,-601 30.35,-595.67 30.35,-590.33 30.35,-590.33 30.35,-579.67 30.35,-579.67 30.35,-574.33 35.68,-569 41.01,-569"/>
<text text-anchor="start" x="35.85" y="-581.3" font-family="Helvetica,sans-Serif" font-size="14.00">M_sub_m1p</text>
<path fill="none" stroke="black" d="M41.01,-569C41.01,-569 112.68,-569 112.68,-569 118.01,-569 123.35,-574.33 123.35,-579.67 123.35,-579.67 123.35,-590.33 123.35,-590.33 123.35,-595.67 118.01,-601 112.68,-601 112.68,-601 41.01,-601 41.01,-601 35.68,-601 30.35,-595.67 30.35,-590.33 30.35,-590.33 30.35,-579.67 30.35,-579.67 30.35,-574.33 35.68,-569 41.01,-569"/>
</a>
</g>
</g>
<!-- function&#45;1&#45;R_add_m -->
<g id="node30" class="node">
<title>function&#45;1&#45;R_add_m</title>
<g id="a_node30"><a xlink:title="Tensor&#45;11: function&#45;1&#45;R_add_m">
<path fill="white" stroke="transparent" d="M121.51,-1201C121.51,-1201 174.18,-1201 174.18,-1201 179.51,-1201 184.85,-1206.33 184.85,-1211.67 184.85,-1211.67 184.85,-1222.33 184.85,-1222.33 184.85,-1227.67 179.51,-1233 174.18,-1233 174.18,-1233 121.51,-1233 121.51,-1233 116.18,-1233 110.85,-1227.67 110.85,-1222.33 110.85,-1222.33 110.85,-1211.67 110.85,-1211.67 110.85,-1206.33 116.18,-1201 121.51,-1201"/>
<text text-anchor="start" x="115.85" y="-1213.3" font-family="Helvetica,sans-Serif" font-size="14.00">R_add_m</text>
<path fill="none" stroke="black" d="M121.51,-1201C121.51,-1201 174.18,-1201 174.18,-1201 179.51,-1201 184.85,-1206.33 184.85,-1211.67 184.85,-1211.67 184.85,-1222.33 184.85,-1222.33 184.85,-1227.67 179.51,-1233 174.18,-1233 174.18,-1233 121.51,-1233 121.51,-1233 116.18,-1233 110.85,-1227.67 110.85,-1222.33 110.85,-1222.33 110.85,-1211.67 110.85,-1211.67 110.85,-1206.33 116.18,-1201 121.51,-1201"/>
</a>
</g>
</g>
<!-- function&#45;1&#45;R_add_m1 -->
<g id="node31" class="node">
<title>function&#45;1&#45;R_add_m1</title>
<g id="a_node31"><a xlink:title="Tensor&#45;11: function&#45;1&#45;R_add_m1">
<path fill="white" stroke="transparent" d="M200.01,-1201C200.01,-1201 261.68,-1201 261.68,-1201 267.01,-1201 272.35,-1206.33 272.35,-1211.67 272.35,-1211.67 272.35,-1222.33 272.35,-1222.33 272.35,-1227.67 267.01,-1233 261.68,-1233 261.68,-1233 200.01,-1233 200.01,-1233 194.68,-1233 189.35,-1227.67 189.35,-1222.33 189.35,-1222.33 189.35,-1211.67 189.35,-1211.67 189.35,-1206.33 194.68,-1201 200.01,-1201"/>
<text text-anchor="start" x="194.85" y="-1213.3" font-family="Helvetica,sans-Serif" font-size="14.00">R_add_m1</text>
<path fill="none" stroke="black" d="M200.01,-1201C200.01,-1201 261.68,-1201 261.68,-1201 267.01,-1201 272.35,-1206.33 272.35,-1211.67 272.35,-1211.67 272.35,-1222.33 272.35,-1222.33 272.35,-1227.67 267.01,-1233 261.68,-1233 261.68,-1233 200.01,-1233 200.01,-1233 194.68,-1233 189.35,-1227.67 189.35,-1222.33 189.35,-1222.33 189.35,-1211.67 189.35,-1211.67 189.35,-1206.33 194.68,-1201 200.01,-1201"/>
</a>
</g>
</g>
<!-- function&#45;1&#45;R_add_m0 -->
<g id="node32" class="node">
<title>function&#45;1&#45;R_add_m0</title>
<g id="a_node32"><a xlink:title="Tensor&#45;15: function&#45;1&#45;R_add_m0">
<path fill="white" stroke="transparent" d="M203.01,-1122C203.01,-1122 264.68,-1122 264.68,-1122 270.01,-1122 275.35,-1127.33 275.35,-1132.67 275.35,-1132.67 275.35,-1143.33 275.35,-1143.33 275.35,-1148.67 270.01,-1154 264.68,-1154 264.68,-1154 203.01,-1154 203.01,-1154 197.68,-1154 192.35,-1148.67 192.35,-1143.33 192.35,-1143.33 192.35,-1132.67 192.35,-1132.67 192.35,-1127.33 197.68,-1122 203.01,-1122"/>
<text text-anchor="start" x="197.85" y="-1134.3" font-family="Helvetica,sans-Serif" font-size="14.00">R_add_m0</text>
<path fill="none" stroke="black" d="M203.01,-1122C203.01,-1122 264.68,-1122 264.68,-1122 270.01,-1122 275.35,-1127.33 275.35,-1132.67 275.35,-1132.67 275.35,-1143.33 275.35,-1143.33 275.35,-1148.67 270.01,-1154 264.68,-1154 264.68,-1154 203.01,-1154 203.01,-1154 197.68,-1154 192.35,-1148.67 192.35,-1143.33 192.35,-1143.33 192.35,-1132.67 192.35,-1132.67 192.35,-1127.33 197.68,-1122 203.01,-1122"/>
</a>
</g>
</g>
<!-- function&#45;0&#45;R_max_m -->
<g id="node33" class="node">
<title>function&#45;0&#45;R_max_m</title>
<g id="a_node33"><a xlink:title="Tensor&#45;5: function&#45;0&#45;R_max_m">
<path fill="white" stroke="transparent" d="M77.01,-490C77.01,-490 132.68,-490 132.68,-490 138.01,-490 143.35,-495.33 143.35,-500.67 143.35,-500.67 143.35,-511.33 143.35,-511.33 143.35,-516.67 138.01,-522 132.68,-522 132.68,-522 77.01,-522 77.01,-522 71.68,-522 66.35,-516.67 66.35,-511.33 66.35,-511.33 66.35,-500.67 66.35,-500.67 66.35,-495.33 71.68,-490 77.01,-490"/>
<text text-anchor="start" x="71.85" y="-502.3" font-family="Helvetica,sans-Serif" font-size="14.00">R_max_m</text>
<path fill="none" stroke="black" d="M77.01,-490C77.01,-490 132.68,-490 132.68,-490 138.01,-490 143.35,-495.33 143.35,-500.67 143.35,-500.67 143.35,-511.33 143.35,-511.33 143.35,-516.67 138.01,-522 132.68,-522 132.68,-522 77.01,-522 77.01,-522 71.68,-522 66.35,-516.67 66.35,-511.33 66.35,-511.33 66.35,-500.67 66.35,-500.67 66.35,-495.33 71.68,-490 77.01,-490"/>
</a>
</g>
</g>
<!-- function&#45;0&#45;M_mul_emp -->
<g id="node34" class="node">
<title>function&#45;0&#45;M_mul_emp</title>
<g id="a_node34"><a xlink:title="Tensor&#45;3: function&#45;0&#45;M_mul_emp">
<path fill="white" stroke="transparent" d="M267.01,-253C267.01,-253 338.68,-253 338.68,-253 344.01,-253 349.35,-258.33 349.35,-263.67 349.35,-263.67 349.35,-274.33 349.35,-274.33 349.35,-279.67 344.01,-285 338.68,-285 338.68,-285 267.01,-285 267.01,-285 261.68,-285 256.35,-279.67 256.35,-274.33 256.35,-274.33 256.35,-263.67 256.35,-263.67 256.35,-258.33 261.68,-253 267.01,-253"/>
<text text-anchor="start" x="261.85" y="-265.3" font-family="Helvetica,sans-Serif" font-size="14.00">M_mul_emp</text>
<path fill="none" stroke="black" d="M267.01,-253C267.01,-253 338.68,-253 338.68,-253 344.01,-253 349.35,-258.33 349.35,-263.67 349.35,-263.67 349.35,-274.33 349.35,-274.33 349.35,-279.67 344.01,-285 338.68,-285 338.68,-285 267.01,-285 267.01,-285 261.68,-285 256.35,-279.67 256.35,-274.33 256.35,-274.33 256.35,-263.67 256.35,-263.67 256.35,-258.33 261.68,-253 267.01,-253"/>
</a>
</g>
</g>
<!-- function&#45;0&#45;T_split_m_m1m0 -->
<g id="node35" class="node">
<title>function&#45;0&#45;T_split_m_m1m0</title>
<g id="a_node35"><a xlink:title="Tensor&#45;12: function&#45;0&#45;T_split_m_m1m0">
<path fill="white" stroke="transparent" d="M179.01,-174C179.01,-174 284.68,-174 284.68,-174 290.01,-174 295.35,-179.33 295.35,-184.67 295.35,-184.67 295.35,-195.33 295.35,-195.33 295.35,-200.67 290.01,-206 284.68,-206 284.68,-206 179.01,-206 179.01,-206 173.68,-206 168.35,-200.67 168.35,-195.33 168.35,-195.33 168.35,-184.67 168.35,-184.67 168.35,-179.33 173.68,-174 179.01,-174"/>
<text text-anchor="start" x="173.85" y="-186.3" font-family="Helvetica,sans-Serif" font-size="14.00">T_split_m_m1m0</text>
<path fill="none" stroke="black" d="M179.01,-174C179.01,-174 284.68,-174 284.68,-174 290.01,-174 295.35,-179.33 295.35,-184.67 295.35,-184.67 295.35,-195.33 295.35,-195.33 295.35,-200.67 290.01,-206 284.68,-206 284.68,-206 179.01,-206 179.01,-206 173.68,-206 168.35,-200.67 168.35,-195.33 168.35,-195.33 168.35,-184.67 168.35,-184.67 168.35,-179.33 173.68,-174 179.01,-174"/>
</a>
</g>
</g>
<!-- primitive&#45;i64&#45;4 -->
<g id="node36" class="node">
<title>primitive&#45;i64&#45;4</title>
<g id="a_node36"><a xlink:title="i64&#45;4: primitive&#45;i64&#45;4">
<path fill="white" stroke="transparent" d="M230.51,-95C230.51,-95 241.18,-95 241.18,-95 246.51,-95 251.85,-100.33 251.85,-105.67 251.85,-105.67 251.85,-116.33 251.85,-116.33 251.85,-121.67 246.51,-127 241.18,-127 241.18,-127 230.51,-127 230.51,-127 225.18,-127 219.85,-121.67 219.85,-116.33 219.85,-116.33 219.85,-105.67 219.85,-105.67 219.85,-100.33 225.18,-95 230.51,-95"/>
<text text-anchor="start" x="230.85" y="-107.3" font-family="Helvetica,sans-Serif" font-size="14.00">4</text>
<path fill="none" stroke="black" d="M230.51,-95C230.51,-95 241.18,-95 241.18,-95 246.51,-95 251.85,-100.33 251.85,-105.67 251.85,-105.67 251.85,-116.33 251.85,-116.33 251.85,-121.67 246.51,-127 241.18,-127 241.18,-127 230.51,-127 230.51,-127 225.18,-127 219.85,-121.67 219.85,-116.33 219.85,-116.33 219.85,-105.67 219.85,-105.67 219.85,-100.33 225.18,-95 230.51,-95"/>
</a>
</g>
</g>
</g>
</svg>
