<?xml version="1.0" encoding="UTF-8" standalone="no"?>
<!DOCTYPE svg PUBLIC "-//W3C//DTD SVG 1.1//EN"
 "http://www.w3.org/Graphics/SVG/1.1/DTD/svg11.dtd">
<!-- Generated by graphviz version 2.43.0 (0)
 -->
<!-- Title: %3 Pages: 1 -->
<svg width="207pt" height="625pt"
 viewBox="0.00 0.00 207.00 625.00" xmlns="http://www.w3.org/2000/svg" xmlns:xlink="http://www.w3.org/1999/xlink">
<g id="graph0" class="graph" transform="scale(1 1) rotate(0) translate(4 621)">
<title>%3</title>
<polygon fill="white" stroke="#000000" points="-4,4 -4,-621 203,-621 203,4 -4,4"/>
<g id="clust1" class="cluster">
<title>outer_cluster_Tensor&#45;6</title>
</g>
<g id="clust2" class="cluster">
<title>cluster_Tensor&#45;6</title>
<path fill="#ffffb3" stroke="black" stroke-dasharray="5,2" d="M69,-564C69,-564 157,-564 157,-564 163,-564 169,-570 169,-576 169,-576 169,-594 169,-594 169,-600 163,-606 157,-606 157,-606 69,-606 69,-606 63,-606 57,-600 57,-594 57,-594 57,-576 57,-576 57,-570 63,-564 69,-564"/>
</g>
<g id="clust4" class="cluster">
<title>outer_cluster_Tensor&#45;2</title>
</g>
<g id="clust5" class="cluster">
<title>cluster_Tensor&#45;2</title>
<path fill="#ffffb3" stroke="black" stroke-dasharray="5,2" d="M28,-248C28,-248 128,-248 128,-248 134,-248 140,-254 140,-260 140,-260 140,-278 140,-278 140,-284 134,-290 128,-290 128,-290 28,-290 28,-290 22,-290 16,-284 16,-278 16,-278 16,-260 16,-260 16,-254 22,-248 28,-248"/>
</g>
<g id="clust7" class="cluster">
<title>outer_cluster_Tensor&#45;3</title>
</g>
<g id="clust8" class="cluster">
<title>cluster_Tensor&#45;3</title>
<path fill="#ffffb3" stroke="black" stroke-dasharray="5,2" d="M23,-327C23,-327 143,-327 143,-327 149,-327 155,-333 155,-339 155,-339 155,-357 155,-357 155,-363 149,-369 143,-369 143,-369 23,-369 23,-369 17,-369 11,-363 11,-357 11,-357 11,-339 11,-339 11,-333 17,-327 23,-327"/>
</g>
<g id="clust10" class="cluster">
<title>outer_cluster_Tensor&#45;4</title>
</g>
<g id="clust11" class="cluster">
<title>cluster_Tensor&#45;4</title>
<path fill="#ffffb3" stroke="black" stroke-dasharray="5,2" d="M47,-406C47,-406 143,-406 143,-406 149,-406 155,-412 155,-418 155,-418 155,-436 155,-436 155,-442 149,-448 143,-448 143,-448 47,-448 47,-448 41,-448 35,-442 35,-436 35,-436 35,-418 35,-418 35,-412 41,-406 47,-406"/>
</g>
<g id="clust13" class="cluster">
<title>outer_cluster_Tensor&#45;1</title>
</g>
<g id="clust14" class="cluster">
<title>cluster_Tensor&#45;1</title>
<path fill="#ffffb3" stroke="black" stroke-dasharray="5,2" d="M55,-169C55,-169 143,-169 143,-169 149,-169 155,-175 155,-181 155,-181 155,-199 155,-199 155,-205 149,-211 143,-211 143,-211 55,-211 55,-211 49,-211 43,-205 43,-199 43,-199 43,-181 43,-181 43,-175 49,-169 55,-169"/>
</g>
<g id="clust16" class="cluster">
<title>outer_cluster_Tensor&#45;0</title>
</g>
<g id="clust17" class="cluster">
<title>cluster_Tensor&#45;0</title>
<path fill="#ffffb3" stroke="black" stroke-dasharray="5,2" d="M83,-90C83,-90 167,-90 167,-90 173,-90 179,-96 179,-102 179,-102 179,-120 179,-120 179,-126 173,-132 167,-132 167,-132 83,-132 83,-132 77,-132 71,-126 71,-120 71,-120 71,-102 71,-102 71,-96 77,-90 83,-90"/>
</g>
<g id="clust19" class="cluster">
<title>outer_cluster_Tensor&#45;5</title>
</g>
<g id="clust20" class="cluster">
<title>cluster_Tensor&#45;5</title>
<path fill="#ffffb3" stroke="black" stroke-dasharray="5,2" d="M23,-485C23,-485 113,-485 113,-485 119,-485 125,-491 125,-497 125,-497 125,-515 125,-515 125,-521 119,-527 113,-527 113,-527 23,-527 23,-527 17,-527 11,-521 11,-515 11,-515 11,-497 11,-497 11,-491 17,-485 23,-485"/>
</g>
<g id="clust22" class="cluster">
<title>outer_cluster_i64&#45;64</title>
</g>
<g id="clust23" class="cluster">
<title>cluster_i64&#45;64</title>
<path fill="#bebada" stroke="black" stroke-dasharray="5,2" d="M74,-11C74,-11 110,-11 110,-11 116,-11 122,-17 122,-23 122,-23 122,-41 122,-41 122,-47 116,-53 110,-53 110,-53 74,-53 74,-53 68,-53 62,-47 62,-41 62,-41 62,-23 62,-23 62,-17 68,-11 74,-11"/>
</g>
<g id="clust25" class="cluster">
<title>outer_cluster_i64&#45;1024</title>
</g>
<g id="clust26" class="cluster">
<title>cluster_i64&#45;1024</title>
<path fill="#bebada" stroke="black" stroke-dasharray="5,2" d="M140,-11C140,-11 176,-11 176,-11 182,-11 188,-17 188,-23 188,-23 188,-41 188,-41 188,-47 182,-53 176,-53 176,-53 140,-53 140,-53 134,-53 128,-47 128,-41 128,-41 128,-23 128,-23 128,-17 134,-11 140,-11"/>
</g>
<!-- function&#45;1&#45;M_mul_R_add&#45;&gt;function&#45;0&#45;M_div_R_none -->
<g id="edge1" class="edge">
<title>function&#45;1&#45;M_mul_R_add:s&#45;&gt;function&#45;0&#45;M_div_R_none</title>
<path fill="none" stroke="black" d="M87,-569C87,-555.31 82.71,-540.63 78.21,-529"/>
<polygon fill="black" stroke="black" points="80.98,-530.79 77.28,-527 77.81,-532.27 80.98,-530.79"/>
</g>
<!-- function&#45;1&#45;M_mul_R_add&#45;&gt;function&#45;0&#45;CreateTensor -->
<g id="edge2" class="edge">
<title>function&#45;1&#45;M_mul_R_add:s&#45;&gt;function&#45;0&#45;CreateTensor</title>
<path fill="none" stroke="black" d="M139,-569C139,-505.36 164,-491.64 164,-428 164,-428 164,-428 164,-268 164,-222.53 169.43,-209.45 156,-166 152.46,-154.54 146.16,-142.86 140.16,-133.31"/>
<polygon fill="black" stroke="black" points="143.47,-133.64 138.44,-132 141.35,-136.42 143.47,-133.64"/>
</g>
<!-- function&#45;0&#45;M_div_R_none&#45;&gt;function&#45;0&#45;M_subexp_R_none -->
<g id="edge11" class="edge">
<title>function&#45;0&#45;M_div_R_none:s&#45;&gt;function&#45;0&#45;M_subexp_R_none</title>
<path fill="none" stroke="black" d="M41,-490C41,-451.21 20.03,-439.19 34,-403 38.87,-390.39 48.2,-378.91 57.42,-369.81"/>
<polygon fill="black" stroke="black" points="55.71,-373.59 58.35,-369 53.42,-370.95 55.71,-373.59"/>
</g>
<!-- function&#45;0&#45;M_div_R_none&#45;&gt;function&#45;0&#45;M_none_R_add -->
<g id="edge12" class="edge">
<title>function&#45;0&#45;M_div_R_none:s&#45;&gt;function&#45;0&#45;M_none_R_add</title>
<path fill="none" stroke="black" d="M95,-490C95,-476.84 95,-462.11 95,-450.3"/>
<polygon fill="black" stroke="black" points="96.75,-453 95,-448 93.25,-453 96.75,-453"/>
</g>
<!-- function&#45;0&#45;CreateTensor&#45;&gt;primitive&#45;i64&#45;64 -->
<g id="edge9" class="edge">
<title>function&#45;0&#45;CreateTensor:s&#45;&gt;primitive&#45;i64&#45;64</title>
<path fill="none" stroke="black" d="M100,-95C100,-81.73 98.17,-66.99 96.27,-55.22"/>
<polygon fill="black" stroke="black" points="98.86,-57.01 95.39,-53 95.6,-58.29 98.86,-57.01"/>
</g>
<!-- function&#45;0&#45;CreateTensor&#45;&gt;primitive&#45;i64&#45;1024 -->
<g id="edge10" class="edge">
<title>function&#45;0&#45;CreateTensor:s&#45;&gt;primitive&#45;i64&#45;1024</title>
<path fill="none" stroke="black" d="M150,-95C150,-81.73 151.83,-66.99 153.73,-55.22"/>
<polygon fill="black" stroke="black" points="154.4,-58.29 154.61,-53 151.14,-57.01 154.4,-58.29"/>
</g>
<!-- function&#45;0&#45;M_none_R_max&#45;&gt;function&#45;0&#45;M_mul_R_add -->
<g id="edge3" class="edge">
<title>function&#45;0&#45;M_none_R_max:s&#45;&gt;function&#45;0&#45;M_mul_R_add</title>
<path fill="none" stroke="black" d="M79,-253C79,-239.24 83.51,-224.56 88.25,-212.94"/>
<polygon fill="black" stroke="black" points="88.49,-216.24 89.29,-211 85.4,-214.6 88.49,-216.24"/>
</g>
<!-- function&#45;0&#45;M_mul_R_add&#45;&gt;function&#45;0&#45;CreateTensor -->
<g id="edge7" class="edge">
<title>function&#45;0&#45;M_mul_R_add:s&#45;&gt;function&#45;0&#45;CreateTensor</title>
<path fill="none" stroke="black" d="M73,-174C73,-157.59 83.82,-143.25 95.6,-132.5"/>
<polygon fill="black" stroke="black" points="92.91,-135.8 96.61,-132 91.35,-132.66 92.91,-135.8"/>
</g>
<!-- function&#45;0&#45;M_mul_R_add&#45;&gt;function&#45;0&#45;CreateTensor -->
<g id="edge8" class="edge">
<title>function&#45;0&#45;M_mul_R_add:s&#45;&gt;function&#45;0&#45;CreateTensor</title>
<path fill="none" stroke="black" d="M125,-174C125,-160.84 125,-146.11 125,-134.3"/>
<polygon fill="black" stroke="black" points="126.75,-137 125,-132 123.25,-137 126.75,-137"/>
</g>
<!-- function&#45;0&#45;M_subexp_R_none&#45;&gt;function&#45;0&#45;M_none_R_max -->
<g id="edge5" class="edge">
<title>function&#45;0&#45;M_subexp_R_none:s&#45;&gt;function&#45;0&#45;M_none_R_max</title>
<path fill="none" stroke="black" d="M117,-332C117,-316.82 108.52,-302.32 99.48,-291.17"/>
<polygon fill="black" stroke="black" points="103.05,-291.95 98.13,-290 100.76,-294.6 103.05,-291.95"/>
</g>
<!-- function&#45;0&#45;M_subexp_R_none&#45;&gt;function&#45;0&#45;M_mul_R_add -->
<g id="edge4" class="edge">
<title>function&#45;0&#45;M_subexp_R_none:s&#45;&gt;function&#45;0&#45;M_mul_R_add</title>
<path fill="none" stroke="black" d="M49,-332C49,-287.59 116.48,-330.03 141,-293 152.78,-275.21 147.92,-265.18 141,-245 136.82,-232.81 128.64,-221.25 120.6,-211.98"/>
<polygon fill="black" stroke="black" points="124.28,-212.4 119.17,-211 122.29,-215.28 124.28,-212.4"/>
</g>
<!-- function&#45;0&#45;M_none_R_add&#45;&gt;function&#45;0&#45;M_subexp_R_none -->
<g id="edge6" class="edge">
<title>function&#45;0&#45;M_none_R_add:s&#45;&gt;function&#45;0&#45;M_subexp_R_none</title>
<path fill="none" stroke="black" d="M96,-411C96,-397.53 93.02,-382.75 89.92,-371.01"/>
<polygon fill="black" stroke="black" points="92.81,-372.2 88.59,-369 89.89,-374.13 92.81,-372.2"/>
</g>
<!-- function&#45;1&#45;M_mul_R_add -->
<g id="node1" class="node">
<title>function&#45;1&#45;M_mul_R_add</title>
<g id="a_node1"><a xlink:title="Tensor&#45;6: function&#45;1&#45;M_mul_R_add">
<path fill="white" stroke="transparent" d="M71.17,-569C71.17,-569 154.83,-569 154.83,-569 160.17,-569 165.5,-574.33 165.5,-579.67 165.5,-579.67 165.5,-590.33 165.5,-590.33 165.5,-595.67 160.17,-601 154.83,-601 154.83,-601 71.17,-601 71.17,-601 65.83,-601 60.5,-595.67 60.5,-590.33 60.5,-590.33 60.5,-579.67 60.5,-579.67 60.5,-574.33 65.83,-569 71.17,-569"/>
<text text-anchor="start" x="66" y="-581.3" font-family="Helvetica,sans-Serif" font-size="14.00">M_mul_R_add</text>
<path fill="none" stroke="black" d="M71.17,-569C71.17,-569 154.83,-569 154.83,-569 160.17,-569 165.5,-574.33 165.5,-579.67 165.5,-579.67 165.5,-590.33 165.5,-590.33 165.5,-595.67 160.17,-601 154.83,-601 154.83,-601 71.17,-601 71.17,-601 65.83,-601 60.5,-595.67 60.5,-590.33 60.5,-590.33 60.5,-579.67 60.5,-579.67 60.5,-574.33 65.83,-569 71.17,-569"/>
</a>
</g>
</g>
<!-- function&#45;0&#45;M_div_R_none -->
<g id="node2" class="node">
<title>function&#45;0&#45;M_div_R_none</title>
<g id="a_node2"><a xlink:title="Tensor&#45;5: function&#45;0&#45;M_div_R_none">
<path fill="white" stroke="transparent" d="M24.67,-490C24.67,-490 111.33,-490 111.33,-490 116.67,-490 122,-495.33 122,-500.67 122,-500.67 122,-511.33 122,-511.33 122,-516.67 116.67,-522 111.33,-522 111.33,-522 24.67,-522 24.67,-522 19.33,-522 14,-516.67 14,-511.33 14,-511.33 14,-500.67 14,-500.67 14,-495.33 19.33,-490 24.67,-490"/>
<text text-anchor="start" x="19" y="-502.3" font-family="Helvetica,sans-Serif" font-size="14.00">M_div_R_none</text>
<path fill="none" stroke="black" d="M24.67,-490C24.67,-490 111.33,-490 111.33,-490 116.67,-490 122,-495.33 122,-500.67 122,-500.67 122,-511.33 122,-511.33 122,-516.67 116.67,-522 111.33,-522 111.33,-522 24.67,-522 24.67,-522 19.33,-522 14,-516.67 14,-511.33 14,-511.33 14,-500.67 14,-500.67 14,-495.33 19.33,-490 24.67,-490"/>
</a>
</g>
</g>
<!-- function&#45;0&#45;CreateTensor -->
<g id="node3" class="node">
<title>function&#45;0&#45;CreateTensor</title>
<g id="a_node3"><a xlink:title="Tensor&#45;0: function&#45;0&#45;CreateTensor">
<path fill="white" stroke="transparent" d="M85.17,-95C85.17,-95 164.83,-95 164.83,-95 170.17,-95 175.5,-100.33 175.5,-105.67 175.5,-105.67 175.5,-116.33 175.5,-116.33 175.5,-121.67 170.17,-127 164.83,-127 164.83,-127 85.17,-127 85.17,-127 79.83,-127 74.5,-121.67 74.5,-116.33 74.5,-116.33 74.5,-105.67 74.5,-105.67 74.5,-100.33 79.83,-95 85.17,-95"/>
<text text-anchor="start" x="80" y="-107.3" font-family="Helvetica,sans-Serif" font-size="14.00">CreateTensor</text>
<path fill="none" stroke="black" d="M85.17,-95C85.17,-95 164.83,-95 164.83,-95 170.17,-95 175.5,-100.33 175.5,-105.67 175.5,-105.67 175.5,-116.33 175.5,-116.33 175.5,-121.67 170.17,-127 164.83,-127 164.83,-127 85.17,-127 85.17,-127 79.83,-127 74.5,-121.67 74.5,-116.33 74.5,-116.33 74.5,-105.67 74.5,-105.67 74.5,-100.33 79.83,-95 85.17,-95"/>
</a>
</g>
</g>
<!-- function&#45;0&#45;M_none_R_max -->
<g id="node4" class="node">
<title>function&#45;0&#45;M_none_R_max</title>
<g id="a_node4"><a xlink:title="Tensor&#45;2: function&#45;0&#45;M_none_R_max">
<path fill="white" stroke="transparent" d="M30.17,-253C30.17,-253 125.83,-253 125.83,-253 131.17,-253 136.5,-258.33 136.5,-263.67 136.5,-263.67 136.5,-274.33 136.5,-274.33 136.5,-279.67 131.17,-285 125.83,-285 125.83,-285 30.17,-285 30.17,-285 24.83,-285 19.5,-279.67 19.5,-274.33 19.5,-274.33 19.5,-263.67 19.5,-263.67 19.5,-258.33 24.83,-253 30.17,-253"/>
<text text-anchor="start" x="25" y="-265.3" font-family="Helvetica,sans-Serif" font-size="14.00">M_none_R_max</text>
<path fill="none" stroke="black" d="M30.17,-253C30.17,-253 125.83,-253 125.83,-253 131.17,-253 136.5,-258.33 136.5,-263.67 136.5,-263.67 136.5,-274.33 136.5,-274.33 136.5,-279.67 131.17,-285 125.83,-285 125.83,-285 30.17,-285 30.17,-285 24.83,-285 19.5,-279.67 19.5,-274.33 19.5,-274.33 19.5,-263.67 19.5,-263.67 19.5,-258.33 24.83,-253 30.17,-253"/>
</a>
</g>
</g>
<!-- function&#45;0&#45;M_mul_R_add -->
<g id="node5" class="node">
<title>function&#45;0&#45;M_mul_R_add</title>
<g id="a_node5"><a xlink:title="Tensor&#45;1: function&#45;0&#45;M_mul_R_add">
<path fill="white" stroke="transparent" d="M57.17,-174C57.17,-174 140.83,-174 140.83,-174 146.17,-174 151.5,-179.33 151.5,-184.67 151.5,-184.67 151.5,-195.33 151.5,-195.33 151.5,-200.67 146.17,-206 140.83,-206 140.83,-206 57.17,-206 57.17,-206 51.83,-206 46.5,-200.67 46.5,-195.33 46.5,-195.33 46.5,-184.67 46.5,-184.67 46.5,-179.33 51.83,-174 57.17,-174"/>
<text text-anchor="start" x="52" y="-186.3" font-family="Helvetica,sans-Serif" font-size="14.00">M_mul_R_add</text>
<path fill="none" stroke="black" d="M57.17,-174C57.17,-174 140.83,-174 140.83,-174 146.17,-174 151.5,-179.33 151.5,-184.67 151.5,-184.67 151.5,-195.33 151.5,-195.33 151.5,-200.67 146.17,-206 140.83,-206 140.83,-206 57.17,-206 57.17,-206 51.83,-206 46.5,-200.67 46.5,-195.33 46.5,-195.33 46.5,-184.67 46.5,-184.67 46.5,-179.33 51.83,-174 57.17,-174"/>
</a>
</g>
</g>
<!-- function&#45;0&#45;M_subexp_R_none -->
<g id="node6" class="node">
<title>function&#45;0&#45;M_subexp_R_none</title>
<g id="a_node6"><a xlink:title="Tensor&#45;3: function&#45;0&#45;M_subexp_R_none">
<path fill="white" stroke="transparent" d="M24.67,-332C24.67,-332 141.33,-332 141.33,-332 146.67,-332 152,-337.33 152,-342.67 152,-342.67 152,-353.33 152,-353.33 152,-358.67 146.67,-364 141.33,-364 141.33,-364 24.67,-364 24.67,-364 19.33,-364 14,-358.67 14,-353.33 14,-353.33 14,-342.67 14,-342.67 14,-337.33 19.33,-332 24.67,-332"/>
<text text-anchor="start" x="19" y="-344.3" font-family="Helvetica,sans-Serif" font-size="14.00">M_subexp_R_none</text>
<path fill="none" stroke="black" d="M24.67,-332C24.67,-332 141.33,-332 141.33,-332 146.67,-332 152,-337.33 152,-342.67 152,-342.67 152,-353.33 152,-353.33 152,-358.67 146.67,-364 141.33,-364 141.33,-364 24.67,-364 24.67,-364 19.33,-364 14,-358.67 14,-353.33 14,-353.33 14,-342.67 14,-342.67 14,-337.33 19.33,-332 24.67,-332"/>
</a>
</g>
</g>
<!-- function&#45;0&#45;M_none_R_add -->
<g id="node7" class="node">
<title>function&#45;0&#45;M_none_R_add</title>
<g id="a_node7"><a xlink:title="Tensor&#45;4: function&#45;0&#45;M_none_R_add">
<path fill="white" stroke="transparent" d="M49.17,-411C49.17,-411 140.83,-411 140.83,-411 146.17,-411 151.5,-416.33 151.5,-421.67 151.5,-421.67 151.5,-432.33 151.5,-432.33 151.5,-437.67 146.17,-443 140.83,-443 140.83,-443 49.17,-443 49.17,-443 43.83,-443 38.5,-437.67 38.5,-432.33 38.5,-432.33 38.5,-421.67 38.5,-421.67 38.5,-416.33 43.83,-411 49.17,-411"/>
<text text-anchor="start" x="44" y="-423.3" font-family="Helvetica,sans-Serif" font-size="14.00">M_none_R_add</text>
<path fill="none" stroke="black" d="M49.17,-411C49.17,-411 140.83,-411 140.83,-411 146.17,-411 151.5,-416.33 151.5,-421.67 151.5,-421.67 151.5,-432.33 151.5,-432.33 151.5,-437.67 146.17,-443 140.83,-443 140.83,-443 49.17,-443 49.17,-443 43.83,-443 38.5,-437.67 38.5,-432.33 38.5,-432.33 38.5,-421.67 38.5,-421.67 38.5,-416.33 43.83,-411 49.17,-411"/>
</a>
</g>
</g>
<!-- primitive&#45;i64&#45;64 -->
<g id="node8" class="node">
<title>primitive&#45;i64&#45;64</title>
<g id="a_node8"><a xlink:title="i64&#45;64: primitive&#45;i64&#45;64">
<path fill="white" stroke="transparent" d="M86.67,-16C86.67,-16 97.33,-16 97.33,-16 102.67,-16 108,-21.33 108,-26.67 108,-26.67 108,-37.33 108,-37.33 108,-42.67 102.67,-48 97.33,-48 97.33,-48 86.67,-48 86.67,-48 81.33,-48 76,-42.67 76,-37.33 76,-37.33 76,-26.67 76,-26.67 76,-21.33 81.33,-16 86.67,-16"/>
<text text-anchor="start" x="82.5" y="-28.3" font-family="Helvetica,sans-Serif" font-size="14.00">64</text>
<path fill="none" stroke="black" d="M86.67,-16C86.67,-16 97.33,-16 97.33,-16 102.67,-16 108,-21.33 108,-26.67 108,-26.67 108,-37.33 108,-37.33 108,-42.67 102.67,-48 97.33,-48 97.33,-48 86.67,-48 86.67,-48 81.33,-48 76,-42.67 76,-37.33 76,-37.33 76,-26.67 76,-26.67 76,-21.33 81.33,-16 86.67,-16"/>
</a>
</g>
</g>
<!-- primitive&#45;i64&#45;1024 -->
<g id="node9" class="node">
<title>primitive&#45;i64&#45;1024</title>
<g id="a_node9"><a xlink:title="i64&#45;1024: primitive&#45;i64&#45;1024">
<path fill="white" stroke="transparent" d="M145.17,-16C145.17,-16 170.83,-16 170.83,-16 176.17,-16 181.5,-21.33 181.5,-26.67 181.5,-26.67 181.5,-37.33 181.5,-37.33 181.5,-42.67 176.17,-48 170.83,-48 170.83,-48 145.17,-48 145.17,-48 139.83,-48 134.5,-42.67 134.5,-37.33 134.5,-37.33 134.5,-26.67 134.5,-26.67 134.5,-21.33 139.83,-16 145.17,-16"/>
<text text-anchor="start" x="140" y="-28.3" font-family="Helvetica,sans-Serif" font-size="14.00">1024</text>
<path fill="none" stroke="black" d="M145.17,-16C145.17,-16 170.83,-16 170.83,-16 176.17,-16 181.5,-21.33 181.5,-26.67 181.5,-26.67 181.5,-37.33 181.5,-37.33 181.5,-42.67 176.17,-48 170.83,-48 170.83,-48 145.17,-48 145.17,-48 139.83,-48 134.5,-42.67 134.5,-37.33 134.5,-37.33 134.5,-26.67 134.5,-26.67 134.5,-21.33 139.83,-16 145.17,-16"/>
</a>
</g>
</g>
</g>
</svg>
