<?xml version="1.0" encoding="UTF-8" standalone="no"?>
<!DOCTYPE svg PUBLIC "-//W3C//DTD SVG 1.1//EN"
 "http://www.w3.org/Graphics/SVG/1.1/DTD/svg11.dtd">
<!-- Generated by graphviz version 2.43.0 (0)
 -->
<!-- Title: %3 Pages: 1 -->
<svg width="454pt" height="1178pt"
 viewBox="0.00 0.00 454.00 1178.00" xmlns="http://www.w3.org/2000/svg" xmlns:xlink="http://www.w3.org/1999/xlink">
<g id="graph0" class="graph" transform="scale(1 1) rotate(0) translate(4 1174)">
<title>%3</title>
<polygon fill="white" stroke="#000000" points="-4,4 -4,-1174 450,-1174 450,4 -4,4"/>
<g id="clust1" class="cluster">
<title>outer_cluster_String&#45;2</title>
</g>
<g id="clust2" class="cluster">
<title>cluster_String&#45;2</title>
<path fill="#ffffb3" stroke="black" stroke-dasharray="5,2" d="M64,-11C64,-11 100,-11 100,-11 106,-11 112,-17 112,-23 112,-23 112,-41 112,-41 112,-47 106,-53 100,-53 100,-53 64,-53 64,-53 58,-53 52,-47 52,-41 52,-41 52,-23 52,-23 52,-17 58,-11 64,-11"/>
</g>
<g id="clust4" class="cluster">
<title>outer_cluster_String&#45;0</title>
</g>
<g id="clust5" class="cluster">
<title>cluster_String&#45;0</title>
<path fill="#ffffb3" stroke="black" stroke-dasharray="5,2" d="M387,-11C387,-11 423,-11 423,-11 429,-11 435,-17 435,-23 435,-23 435,-41 435,-41 435,-47 429,-53 423,-53 423,-53 387,-53 387,-53 381,-53 375,-47 375,-41 375,-41 375,-23 375,-23 375,-17 381,-11 387,-11"/>
</g>
<g id="clust7" class="cluster">
<title>outer_cluster_String&#45;1</title>
</g>
<g id="clust8" class="cluster">
<title>cluster_String&#45;1</title>
<path fill="#ffffb3" stroke="black" stroke-dasharray="5,2" d="M262,-11C262,-11 298,-11 298,-11 304,-11 310,-17 310,-23 310,-23 310,-41 310,-41 310,-47 304,-53 298,-53 298,-53 262,-53 262,-53 256,-53 250,-47 250,-41 250,-41 250,-23 250,-23 250,-17 256,-11 262,-11"/>
</g>
<g id="clust10" class="cluster">
<title>outer_cluster_Tensor&#45;5</title>
</g>
<g id="clust11" class="cluster">
<title>cluster_Tensor&#45;5</title>
<path fill="#bebada" stroke="black" stroke-dasharray="5,2" d="M205,-327C205,-327 255,-327 255,-327 261,-327 267,-333 267,-339 267,-339 267,-357 267,-357 267,-363 261,-369 255,-369 255,-369 205,-369 205,-369 199,-369 193,-363 193,-357 193,-357 193,-339 193,-339 193,-333 199,-327 205,-327"/>
</g>
<g id="clust13" class="cluster">
<title>outer_cluster_Tensor&#45;14</title>
</g>
<g id="clust14" class="cluster">
<title>cluster_Tensor&#45;14</title>
<path fill="#bebada" stroke="black" stroke-dasharray="5,2" d="M138,-722C138,-722 214,-722 214,-722 220,-722 226,-728 226,-734 226,-734 226,-752 226,-752 226,-758 220,-764 214,-764 214,-764 138,-764 138,-764 132,-764 126,-758 126,-752 126,-752 126,-734 126,-734 126,-728 132,-722 138,-722"/>
</g>
<g id="clust16" class="cluster">
<title>outer_cluster_Tensor&#45;0</title>
</g>
<g id="clust17" class="cluster">
<title>cluster_Tensor&#45;0</title>
<path fill="#bebada" stroke="black" stroke-dasharray="5,2" d="M325,-90C325,-90 409,-90 409,-90 415,-90 421,-96 421,-102 421,-102 421,-120 421,-120 421,-126 415,-132 409,-132 409,-132 325,-132 325,-132 319,-132 313,-126 313,-120 313,-120 313,-102 313,-102 313,-96 319,-90 325,-90"/>
</g>
<g id="clust19" class="cluster">
<title>outer_cluster_Tensor&#45;16</title>
</g>
<g id="clust20" class="cluster">
<title>cluster_Tensor&#45;16</title>
<path fill="#bebada" stroke="black" stroke-dasharray="5,2" d="M113,-880C113,-880 205,-880 205,-880 211,-880 217,-886 217,-892 217,-892 217,-910 217,-910 217,-916 211,-922 205,-922 205,-922 113,-922 113,-922 107,-922 101,-916 101,-910 101,-910 101,-892 101,-892 101,-886 107,-880 113,-880"/>
</g>
<g id="clust22" class="cluster">
<title>outer_cluster_Tensor&#45;3</title>
</g>
<g id="clust23" class="cluster">
<title>cluster_Tensor&#45;3</title>
<path fill="#bebada" stroke="black" stroke-dasharray="5,2" d="M190,-169C190,-169 300,-169 300,-169 306,-169 312,-175 312,-181 312,-181 312,-199 312,-199 312,-205 306,-211 300,-211 300,-211 190,-211 190,-211 184,-211 178,-205 178,-199 178,-199 178,-181 178,-181 178,-175 184,-169 190,-169"/>
</g>
<g id="clust25" class="cluster">
<title>outer_cluster_Tensor&#45;8</title>
</g>
<g id="clust26" class="cluster">
<title>cluster_Tensor&#45;8</title>
<path fill="#bebada" stroke="black" stroke-dasharray="5,2" d="M103,-485C103,-485 201,-485 201,-485 207,-485 213,-491 213,-497 213,-497 213,-515 213,-515 213,-521 207,-527 201,-527 201,-527 103,-527 103,-527 97,-527 91,-521 91,-515 91,-515 91,-497 91,-497 91,-491 97,-485 103,-485"/>
</g>
<g id="clust28" class="cluster">
<title>outer_cluster_Tensor&#45;2</title>
</g>
<g id="clust29" class="cluster">
<title>cluster_Tensor&#45;2</title>
<path fill="#bebada" stroke="black" stroke-dasharray="5,2" d="M31,-90C31,-90 115,-90 115,-90 121,-90 127,-96 127,-102 127,-102 127,-120 127,-120 127,-126 121,-132 115,-132 115,-132 31,-132 31,-132 25,-132 19,-126 19,-120 19,-120 19,-102 19,-102 19,-96 25,-90 31,-90"/>
</g>
<g id="clust31" class="cluster">
<title>outer_cluster_Tensor&#45;6</title>
</g>
<g id="clust32" class="cluster">
<title>cluster_Tensor&#45;6</title>
<path fill="#bebada" stroke="black" stroke-dasharray="5,2" d="M228,-406C228,-406 296,-406 296,-406 302,-406 308,-412 308,-418 308,-418 308,-436 308,-436 308,-442 302,-448 296,-448 296,-448 228,-448 228,-448 222,-448 216,-442 216,-436 216,-436 216,-418 216,-418 216,-412 222,-406 228,-406"/>
</g>
<g id="clust34" class="cluster">
<title>outer_cluster_Tensor&#45;4</title>
</g>
<g id="clust35" class="cluster">
<title>cluster_Tensor&#45;4</title>
<path fill="#bebada" stroke="black" stroke-dasharray="5,2" d="M176,-248C176,-248 284,-248 284,-248 290,-248 296,-254 296,-260 296,-260 296,-278 296,-278 296,-284 290,-290 284,-290 284,-290 176,-290 176,-290 170,-290 164,-284 164,-278 164,-278 164,-260 164,-260 164,-254 170,-248 176,-248"/>
</g>
<g id="clust37" class="cluster">
<title>outer_cluster_Tensor&#45;12</title>
</g>
<g id="clust38" class="cluster">
<title>cluster_Tensor&#45;12</title>
<path fill="#bebada" stroke="black" stroke-dasharray="5,2" d="M214,-643C214,-643 288,-643 288,-643 294,-643 300,-649 300,-655 300,-655 300,-673 300,-673 300,-679 294,-685 288,-685 288,-685 214,-685 214,-685 208,-685 202,-679 202,-673 202,-673 202,-655 202,-655 202,-649 208,-643 214,-643"/>
</g>
<g id="clust40" class="cluster">
<title>outer_cluster_Tensor&#45;13</title>
</g>
<g id="clust41" class="cluster">
<title>cluster_Tensor&#45;13</title>
<path fill="#bebada" stroke="black" stroke-dasharray="5,2" d="M244,-722C244,-722 342,-722 342,-722 348,-722 354,-728 354,-734 354,-734 354,-752 354,-752 354,-758 348,-764 342,-764 342,-764 244,-764 244,-764 238,-764 232,-758 232,-752 232,-752 232,-734 232,-734 232,-728 238,-722 244,-722"/>
</g>
<g id="clust43" class="cluster">
<title>outer_cluster_Tensor&#45;9</title>
</g>
<g id="clust44" class="cluster">
<title>cluster_Tensor&#45;9</title>
<path fill="#bebada" stroke="black" stroke-dasharray="5,2" d="M103,-564C103,-564 201,-564 201,-564 207,-564 213,-570 213,-576 213,-576 213,-594 213,-594 213,-600 207,-606 201,-606 201,-606 103,-606 103,-606 97,-606 91,-600 91,-594 91,-594 91,-576 91,-576 91,-570 97,-564 103,-564"/>
</g>
<g id="clust46" class="cluster">
<title>outer_cluster_Tensor&#45;7</title>
</g>
<g id="clust47" class="cluster">
<title>cluster_Tensor&#45;7</title>
<path fill="#bebada" stroke="black" stroke-dasharray="5,2" d="M231,-485C231,-485 299,-485 299,-485 305,-485 311,-491 311,-497 311,-497 311,-515 311,-515 311,-521 305,-527 299,-527 299,-527 231,-527 231,-527 225,-527 219,-521 219,-515 219,-515 219,-497 219,-497 219,-491 225,-485 231,-485"/>
</g>
<g id="clust49" class="cluster">
<title>outer_cluster_Tensor&#45;19</title>
</g>
<g id="clust50" class="cluster">
<title>cluster_Tensor&#45;19</title>
<path fill="#bebada" stroke="black" stroke-dasharray="5,2" d="M31,-1117C31,-1117 87,-1117 87,-1117 93,-1117 99,-1123 99,-1129 99,-1129 99,-1147 99,-1147 99,-1153 93,-1159 87,-1159 87,-1159 31,-1159 31,-1159 25,-1159 19,-1153 19,-1147 19,-1147 19,-1129 19,-1129 19,-1123 25,-1117 31,-1117"/>
</g>
<g id="clust52" class="cluster">
<title>outer_cluster_Tensor&#45;17</title>
</g>
<g id="clust53" class="cluster">
<title>cluster_Tensor&#45;17</title>
<path fill="#bebada" stroke="black" stroke-dasharray="5,2" d="M94,-959C94,-959 222,-959 222,-959 228,-959 234,-965 234,-971 234,-971 234,-989 234,-989 234,-995 228,-1001 222,-1001 222,-1001 94,-1001 94,-1001 88,-1001 82,-995 82,-989 82,-989 82,-971 82,-971 82,-965 88,-959 94,-959"/>
</g>
<g id="clust55" class="cluster">
<title>outer_cluster_Tensor&#45;11</title>
</g>
<g id="clust56" class="cluster">
<title>cluster_Tensor&#45;11</title>
<path fill="#bebada" stroke="black" stroke-dasharray="5,2" d="M231,-564C231,-564 305,-564 305,-564 311,-564 317,-570 317,-576 317,-576 317,-594 317,-594 317,-600 311,-606 305,-606 305,-606 231,-606 231,-606 225,-606 219,-600 219,-594 219,-594 219,-576 219,-576 219,-570 225,-564 231,-564"/>
</g>
<g id="clust58" class="cluster">
<title>outer_cluster_Tensor&#45;18</title>
</g>
<g id="clust59" class="cluster">
<title>cluster_Tensor&#45;18</title>
<path fill="#bebada" stroke="black" stroke-dasharray="5,2" d="M23,-1038C23,-1038 95,-1038 95,-1038 101,-1038 107,-1044 107,-1050 107,-1050 107,-1068 107,-1068 107,-1074 101,-1080 95,-1080 95,-1080 23,-1080 23,-1080 17,-1080 11,-1074 11,-1068 11,-1068 11,-1050 11,-1050 11,-1044 17,-1038 23,-1038"/>
</g>
<g id="clust61" class="cluster">
<title>outer_cluster_Tensor&#45;10</title>
</g>
<g id="clust62" class="cluster">
<title>cluster_Tensor&#45;10</title>
<path fill="#bebada" stroke="black" stroke-dasharray="5,2" d="M118,-643C118,-643 184,-643 184,-643 190,-643 196,-649 196,-655 196,-655 196,-673 196,-673 196,-679 190,-685 184,-685 184,-685 118,-685 118,-685 112,-685 106,-679 106,-673 106,-673 106,-655 106,-655 106,-649 112,-643 118,-643"/>
</g>
<g id="clust64" class="cluster">
<title>outer_cluster_Tensor&#45;1</title>
</g>
<g id="clust65" class="cluster">
<title>cluster_Tensor&#45;1</title>
<path fill="#bebada" stroke="black" stroke-dasharray="5,2" d="M145,-90C145,-90 229,-90 229,-90 235,-90 241,-96 241,-102 241,-102 241,-120 241,-120 241,-126 235,-132 229,-132 229,-132 145,-132 145,-132 139,-132 133,-126 133,-120 133,-120 133,-102 133,-102 133,-96 139,-90 145,-90"/>
</g>
<g id="clust67" class="cluster">
<title>outer_cluster_Tensor&#45;15</title>
</g>
<g id="clust68" class="cluster">
<title>cluster_Tensor&#45;15</title>
<path fill="#bebada" stroke="black" stroke-dasharray="5,2" d="M150,-801C150,-801 216,-801 216,-801 222,-801 228,-807 228,-813 228,-813 228,-831 228,-831 228,-837 222,-843 216,-843 216,-843 150,-843 150,-843 144,-843 138,-837 138,-831 138,-831 138,-813 138,-813 138,-807 144,-801 150,-801"/>
</g>
<g id="clust70" class="cluster">
<title>outer_cluster_i64&#45;4</title>
</g>
<g id="clust71" class="cluster">
<title>cluster_i64&#45;4</title>
<path fill="#fb8072" stroke="black" stroke-dasharray="5,2" d="M259,-90C259,-90 295,-90 295,-90 301,-90 307,-96 307,-102 307,-102 307,-120 307,-120 307,-126 301,-132 295,-132 295,-132 259,-132 259,-132 253,-132 247,-126 247,-120 247,-120 247,-102 247,-102 247,-96 253,-90 259,-90"/>
</g>
<g id="clust73" class="cluster">
<title>outer_cluster_i64&#45;64</title>
</g>
<g id="clust74" class="cluster">
<title>cluster_i64&#45;64</title>
<path fill="#fb8072" stroke="black" stroke-dasharray="5,2" d="M130,-11C130,-11 166,-11 166,-11 172,-11 178,-17 178,-23 178,-23 178,-41 178,-41 178,-47 172,-53 166,-53 166,-53 130,-53 130,-53 124,-53 118,-47 118,-41 118,-41 118,-23 118,-23 118,-17 124,-11 130,-11"/>
</g>
<g id="clust76" class="cluster">
<title>outer_cluster_i64&#45;1024</title>
</g>
<g id="clust77" class="cluster">
<title>cluster_i64&#45;1024</title>
<path fill="#fb8072" stroke="black" stroke-dasharray="5,2" d="M196,-11C196,-11 232,-11 232,-11 238,-11 244,-17 244,-23 244,-23 244,-41 244,-41 244,-47 238,-53 232,-53 232,-53 196,-53 196,-53 190,-53 184,-47 184,-41 184,-41 184,-23 184,-23 184,-17 190,-11 196,-11"/>
</g>
<!-- function&#45;0&#45;R_add_e&#45;&gt;function&#45;0&#45;M_mul_em1m0p -->
<g id="edge1" class="edge">
<title>function&#45;0&#45;R_add_e:s&#45;&gt;function&#45;0&#45;M_mul_em1m0p</title>
<path fill="none" stroke="black" d="M230,-332C230,-318.84 230,-304.11 230,-292.3"/>
<polygon fill="black" stroke="black" points="231.75,-295 230,-290 228.25,-295 231.75,-295"/>
</g>
<!-- function&#45;0&#45;M_mul_em1m0p&#45;&gt;function&#45;0&#45;CreateTensor -->
<g id="edge17" class="edge">
<title>function&#45;0&#45;M_mul_em1m0p:s&#45;&gt;function&#45;0&#45;CreateTensor</title>
<path fill="none" stroke="black" d="M199,-253C199,-199.45 272.28,-248.77 313,-214 337.79,-192.83 352.88,-157.37 360.59,-134.34"/>
<polygon fill="black" stroke="black" points="360.8,-137.1 362.21,-132 357.92,-135.11 360.8,-137.1"/>
</g>
<!-- function&#45;0&#45;M_mul_em1m0p&#45;&gt;function&#45;0&#45;T_split_m_m1m0 -->
<g id="edge18" class="edge">
<title>function&#45;0&#45;M_mul_em1m0p:s&#45;&gt;function&#45;0&#45;T_split_m_m1m0</title>
<path fill="none" stroke="black" d="M261,-253C261,-239.38 257.34,-224.6 253.52,-212.89"/>
<polygon fill="black" stroke="black" points="256.48,-213.63 251.88,-211 253.83,-215.92 256.48,-213.63"/>
</g>
<!-- function&#45;0&#45;M_mul_m1p&#45;&gt;function&#45;0&#45;R_add_m0 -->
<g id="edge2" class="edge">
<title>function&#45;0&#45;M_mul_m1p:s&#45;&gt;function&#45;0&#45;R_add_m0</title>
<path fill="none" stroke="black" d="M153,-727C153,-713.83 152.54,-699.1 152.07,-687.3"/>
<polygon fill="black" stroke="black" points="154.06,-689.81 151.85,-685 150.58,-690.14 154.06,-689.81"/>
</g>
<!-- function&#45;0&#45;M_mul_m1p&#45;&gt;function&#45;0&#45;M_exp_m1p -->
<g id="edge3" class="edge">
<title>function&#45;0&#45;M_mul_m1p:s&#45;&gt;function&#45;0&#45;M_exp_m1p</title>
<path fill="none" stroke="black" d="M199,-727C199,-710.59 209.82,-696.25 221.6,-685.5"/>
<polygon fill="black" stroke="black" points="218.91,-688.8 222.61,-685 217.35,-685.66 218.91,-688.8"/>
</g>
<!-- function&#45;0&#45;R_add_m0&#45;&gt;function&#45;0&#45;M_exp_m1m0p -->
<g id="edge30" class="edge">
<title>function&#45;0&#45;R_add_m0:s&#45;&gt;function&#45;0&#45;M_exp_m1m0p</title>
<path fill="none" stroke="black" d="M152,-648C152,-634.84 152,-620.11 152,-608.3"/>
<polygon fill="black" stroke="black" points="153.75,-611 152,-606 150.25,-611 153.75,-611"/>
</g>
<!-- function&#45;0&#45;M_exp_m1p&#45;&gt;function&#45;0&#45;M_sub_m1p -->
<g id="edge19" class="edge">
<title>function&#45;0&#45;M_exp_m1p:s&#45;&gt;function&#45;0&#45;M_sub_m1p</title>
<path fill="none" stroke="black" d="M252,-648C252,-634.38 255.66,-619.6 259.48,-607.89"/>
<polygon fill="black" stroke="black" points="259.17,-610.92 261.12,-606 256.52,-608.63 259.17,-610.92"/>
</g>
<!-- function&#45;0&#45;CreateTensor&#45;&gt;primitive&#45;String&#45;0 -->
<g id="edge6" class="edge">
<title>function&#45;0&#45;CreateTensor:s&#45;&gt;primitive&#45;String&#45;0</title>
<path fill="none" stroke="black" d="M405,-95C405,-81.84 405,-67.11 405,-55.3"/>
<polygon fill="black" stroke="black" points="406.75,-58 405,-53 403.25,-58 406.75,-58"/>
</g>
<!-- function&#45;0&#45;CreateTensor&#45;&gt;primitive&#45;i64&#45;64 -->
<g id="edge4" class="edge">
<title>function&#45;0&#45;CreateTensor:s&#45;&gt;primitive&#45;i64&#45;64</title>
<path fill="none" stroke="black" d="M342,-95C342,-22.24 249.7,-85.07 183,-56 182.49,-55.78 181.97,-55.54 181.46,-55.31"/>
<polygon fill="black" stroke="black" points="182.08,-53.66 176.83,-53 180.52,-56.8 182.08,-53.66"/>
</g>
<!-- function&#45;0&#45;CreateTensor&#45;&gt;primitive&#45;i64&#45;1024 -->
<g id="edge5" class="edge">
<title>function&#45;0&#45;CreateTensor:s&#45;&gt;primitive&#45;i64&#45;1024</title>
<path fill="none" stroke="black" d="M380,-95C380,-34.25 304.08,-81.62 249,-56 248.63,-55.83 248.26,-55.65 247.89,-55.48"/>
<polygon fill="black" stroke="black" points="248.33,-53.73 243.08,-53 246.73,-56.84 248.33,-53.73"/>
</g>
<!-- function&#45;0&#45;M_div_m1m0p&#45;&gt;function&#45;0&#45;M_mul_m1m0p -->
<g id="edge7" class="edge">
<title>function&#45;0&#45;M_div_m1m0p:s&#45;&gt;function&#45;0&#45;M_mul_m1m0p</title>
<path fill="none" stroke="black" d="M132,-885C132,-838.53 193.35,-875.8 229,-846 255.2,-824.09 274.03,-788.6 284.22,-765.79"/>
<polygon fill="black" stroke="black" points="284.26,-769.2 285.26,-764 281.23,-767.44 284.26,-769.2"/>
</g>
<!-- function&#45;0&#45;M_div_m1m0p&#45;&gt;function&#45;0&#45;R_add_m1 -->
<g id="edge8" class="edge">
<title>function&#45;0&#45;M_div_m1m0p:s&#45;&gt;function&#45;0&#45;R_add_m1</title>
<path fill="none" stroke="black" d="M187,-885C187,-871.81 186.09,-857.08 185.13,-845.28"/>
<polygon fill="black" stroke="black" points="187.36,-847.58 184.7,-843 183.92,-848.24 187.36,-847.58"/>
</g>
<!-- function&#45;0&#45;M_mul_m1m0p&#45;&gt;function&#45;0&#45;M_exp_m1p -->
<g id="edge21" class="edge">
<title>function&#45;0&#45;M_mul_m1m0p:s&#45;&gt;function&#45;0&#45;M_exp_m1p</title>
<path fill="none" stroke="black" d="M322,-727C322,-710.72 311.28,-697.73 298.17,-687.93"/>
<polygon fill="black" stroke="black" points="299.12,-686.47 294.03,-685 297.1,-689.32 299.12,-686.47"/>
</g>
<!-- function&#45;0&#45;M_mul_m1m0p&#45;&gt;function&#45;0&#45;M_exp_m1m0p -->
<g id="edge20" class="edge">
<title>function&#45;0&#45;M_mul_m1m0p:s&#45;&gt;function&#45;0&#45;M_exp_m1m0p</title>
<path fill="none" stroke="black" d="M264,-727C264,-703.11 292.15,-710.19 301,-688 308.9,-668.18 313.25,-657.47 301,-640 300.3,-639 254.04,-622.32 213.26,-607.76"/>
<polygon fill="black" stroke="black" points="213.62,-606.03 208.32,-606 212.44,-609.33 213.62,-606.03"/>
</g>
<!-- function&#45;0&#45;R_add_m1&#45;&gt;function&#45;0&#45;M_mul_m1p -->
<g id="edge34" class="edge">
<title>function&#45;0&#45;R_add_m1:s&#45;&gt;function&#45;0&#45;M_mul_m1p</title>
<path fill="none" stroke="black" d="M184,-806C184,-792.73 182.17,-777.99 180.27,-766.22"/>
<polygon fill="black" stroke="black" points="182.86,-768.01 179.39,-764 179.6,-769.29 182.86,-768.01"/>
</g>
<!-- function&#45;0&#45;T_split_m_m1m0&#45;&gt;function&#45;1&#45;CreateTensor -->
<g id="edge9" class="edge">
<title>function&#45;0&#45;T_split_m_m1m0:s&#45;&gt;function&#45;1&#45;CreateTensor</title>
<path fill="none" stroke="black" d="M214,-174C214,-159.7 207.89,-144.97 201.48,-133.45"/>
<polygon fill="black" stroke="black" points="204.77,-134.14 199.92,-132 202.38,-136.69 204.77,-134.14"/>
</g>
<!-- function&#45;0&#45;T_split_m_m1m0&#45;&gt;primitive&#45;i64&#45;4 -->
<g id="edge10" class="edge">
<title>function&#45;0&#45;T_split_m_m1m0:s&#45;&gt;primitive&#45;i64&#45;4</title>
<path fill="none" stroke="black" d="M277,-174C277,-160.84 277,-146.11 277,-134.3"/>
<polygon fill="black" stroke="black" points="278.75,-137 277,-132 275.25,-137 278.75,-137"/>
</g>
<!-- function&#45;1&#45;CreateTensor&#45;&gt;primitive&#45;String&#45;1 -->
<g id="edge33" class="edge">
<title>function&#45;1&#45;CreateTensor:s&#45;&gt;primitive&#45;String&#45;1</title>
<path fill="none" stroke="black" d="M225,-95C225,-78.18 236.47,-63.79 248.93,-53.12"/>
<polygon fill="black" stroke="black" points="247.97,-56.82 250,-51.93 245.36,-54.49 247.97,-56.82"/>
</g>
<!-- function&#45;1&#45;CreateTensor&#45;&gt;primitive&#45;i64&#45;64 -->
<g id="edge31" class="edge">
<title>function&#45;1&#45;CreateTensor:s&#45;&gt;primitive&#45;i64&#45;64</title>
<path fill="none" stroke="black" d="M162,-95C162,-81.48 158.79,-66.7 155.45,-54.97"/>
<polygon fill="black" stroke="black" points="158.38,-56.01 154.02,-53 155.55,-58.07 158.38,-56.01"/>
</g>
<!-- function&#45;1&#45;CreateTensor&#45;&gt;primitive&#45;i64&#45;1024 -->
<g id="edge32" class="edge">
<title>function&#45;1&#45;CreateTensor:s&#45;&gt;primitive&#45;i64&#45;1024</title>
<path fill="none" stroke="black" d="M200,-95C200,-81.48 203.21,-66.7 206.55,-54.97"/>
<polygon fill="black" stroke="black" points="206.45,-58.07 207.98,-53 203.62,-56.01 206.45,-58.07"/>
</g>
<!-- function&#45;0&#45;M_sub_m1m0p&#45;&gt;function&#45;0&#45;R_add_e -->
<g id="edge11" class="edge">
<title>function&#45;0&#45;M_sub_m1m0p:s&#45;&gt;function&#45;0&#45;R_add_e</title>
<path fill="none" stroke="black" d="M123,-490C123,-438.39 169.06,-393.81 200.74,-369.25"/>
<polygon fill="black" stroke="black" points="197.38,-371.74 201.91,-369 196.66,-368.31 197.38,-371.74"/>
</g>
<!-- function&#45;0&#45;M_sub_m1m0p&#45;&gt;function&#45;0&#45;R_max_m0 -->
<g id="edge12" class="edge">
<title>function&#45;0&#45;M_sub_m1m0p:s&#45;&gt;function&#45;0&#45;R_max_m0</title>
<path fill="none" stroke="black" d="M181,-490C181,-470.08 196.63,-455.7 214.16,-445.83"/>
<polygon fill="black" stroke="black" points="213.1,-448.86 216,-444.42 210.97,-446.08 213.1,-448.86"/>
</g>
<!-- function&#45;0&#45;R_max_m0&#45;&gt;function&#45;0&#45;R_add_e -->
<g id="edge16" class="edge">
<title>function&#45;0&#45;R_max_m0:s&#45;&gt;function&#45;0&#45;R_add_e</title>
<path fill="none" stroke="black" d="M262,-411C262,-396.46 254.96,-381.92 247.49,-370.58"/>
<polygon fill="black" stroke="black" points="250.5,-370.74 245.5,-369 248.33,-373.48 250.5,-370.74"/>
</g>
<!-- function&#45;2&#45;CreateTensor&#45;&gt;primitive&#45;String&#45;2 -->
<g id="edge15" class="edge">
<title>function&#45;2&#45;CreateTensor:s&#45;&gt;primitive&#45;String&#45;2</title>
<path fill="none" stroke="black" d="M111,-95C111,-80.63 104.53,-66 97.7,-54.56"/>
<polygon fill="black" stroke="black" points="100.85,-55.06 95.97,-53 98.51,-57.65 100.85,-55.06"/>
</g>
<!-- function&#45;2&#45;CreateTensor&#45;&gt;primitive&#45;i64&#45;64 -->
<g id="edge13" class="edge">
<title>function&#45;2&#45;CreateTensor:s&#45;&gt;primitive&#45;i64&#45;64</title>
<path fill="none" stroke="black" d="M48,-95C48,-61.31 84.47,-73.92 113,-56 114.57,-55.01 116.17,-54 117.79,-52.96"/>
<polygon fill="black" stroke="black" points="118.36,-57.49 118,-52.2 114.99,-56.56 118.36,-57.49"/>
</g>
<!-- function&#45;2&#45;CreateTensor&#45;&gt;primitive&#45;i64&#45;1024 -->
<g id="edge14" class="edge">
<title>function&#45;2&#45;CreateTensor:s&#45;&gt;primitive&#45;i64&#45;1024</title>
<path fill="none" stroke="black" d="M86,-95C86,-50.18 139.44,-77.06 179,-56 179.33,-55.82 179.67,-55.64 180,-55.46"/>
<polygon fill="black" stroke="black" points="180.88,-56.98 184.37,-53 179.16,-53.93 180.88,-56.98"/>
</g>
<!-- function&#45;0&#45;M_sub_m1p&#45;&gt;function&#45;0&#45;R_max_m0 -->
<g id="edge26" class="edge">
<title>function&#45;0&#45;M_sub_m1p:s&#45;&gt;function&#45;0&#45;R_max_m0</title>
<path fill="none" stroke="black" d="M245,-569C245,-534.54 294.83,-559.87 312,-530 322.63,-511.51 319.78,-501.86 312,-482 307.06,-469.41 297.66,-457.99 288.33,-448.94"/>
<polygon fill="black" stroke="black" points="291.61,-448.55 286.34,-448 290.12,-451.72 291.61,-448.55"/>
</g>
<!-- function&#45;0&#45;M_sub_m1p&#45;&gt;function&#45;0&#45;R_max_m1 -->
<g id="edge27" class="edge">
<title>function&#45;0&#45;M_sub_m1p:s&#45;&gt;function&#45;0&#45;R_max_m1</title>
<path fill="none" stroke="black" d="M291,-569C291,-554.78 285.11,-540.05 278.94,-528.52"/>
<polygon fill="black" stroke="black" points="282.2,-529.4 277.48,-527 279.68,-531.82 282.2,-529.4"/>
</g>
<!-- function&#45;0&#45;M_exp_m1m0p&#45;&gt;function&#45;0&#45;M_sub_m1m0p -->
<g id="edge22" class="edge">
<title>function&#45;0&#45;M_exp_m1m0p:s&#45;&gt;function&#45;0&#45;M_sub_m1m0p</title>
<path fill="none" stroke="black" d="M152,-569C152,-555.84 152,-541.11 152,-529.3"/>
<polygon fill="black" stroke="black" points="153.75,-532 152,-527 150.25,-532 153.75,-532"/>
</g>
<!-- function&#45;0&#45;R_max_m1&#45;&gt;function&#45;0&#45;R_max_m0 -->
<g id="edge23" class="edge">
<title>function&#45;0&#45;R_max_m1:s&#45;&gt;function&#45;0&#45;R_max_m0</title>
<path fill="none" stroke="black" d="M265,-490C265,-476.82 264.32,-462.09 263.6,-450.29"/>
<polygon fill="black" stroke="black" points="265.71,-452.7 263.27,-448 262.25,-453.2 265.71,-452.7"/>
</g>
<!-- function&#45;0&#45;R_add_m&#45;&gt;function&#45;0&#45;M_mul_fmp -->
<g id="edge24" class="edge">
<title>function&#45;0&#45;R_add_m:s&#45;&gt;function&#45;0&#45;M_mul_fmp</title>
<path fill="none" stroke="black" d="M59,-1122C59,-1108.84 59,-1094.11 59,-1082.3"/>
<polygon fill="black" stroke="black" points="60.75,-1085 59,-1080 57.25,-1085 60.75,-1085"/>
</g>
<!-- function&#45;0&#45;M_mul_fmp&#45;&gt;function&#45;2&#45;CreateTensor -->
<g id="edge29" class="edge">
<title>function&#45;0&#45;M_mul_fmp:s&#45;&gt;function&#45;2&#45;CreateTensor</title>
<path fill="none" stroke="black" d="M81,-1043C81,-980.23 73,-964.77 73,-902 73,-902 73,-902 73,-268 73,-220.58 73,-165.04 73,-134.68"/>
<polygon fill="black" stroke="black" points="74.75,-137 73,-132 71.25,-137 74.75,-137"/>
</g>
<!-- function&#45;0&#45;M_mul_fmp&#45;&gt;function&#45;0&#45;T_unsplit_m1m0_m -->
<g id="edge28" class="edge">
<title>function&#45;0&#45;M_mul_fmp:s&#45;&gt;function&#45;0&#45;T_unsplit_m1m0_m</title>
<path fill="none" stroke="black" d="M37,-1043C37,-1028.85 63.53,-1014.36 91.74,-1002.95"/>
<polygon fill="black" stroke="black" points="92.65,-1004.47 96.65,-1001 91.36,-1001.22 92.65,-1004.47"/>
</g>
<!-- function&#45;0&#45;T_unsplit_m1m0_m&#45;&gt;function&#45;0&#45;M_div_m1m0p -->
<g id="edge25" class="edge">
<title>function&#45;0&#45;T_unsplit_m1m0_m:s&#45;&gt;function&#45;0&#45;M_div_m1m0p</title>
<path fill="none" stroke="black" d="M159,-964C159,-950.84 159,-936.11 159,-924.3"/>
<polygon fill="black" stroke="black" points="160.75,-927 159,-922 157.25,-927 160.75,-927"/>
</g>
<!-- primitive&#45;String&#45;2 -->
<g id="node1" class="node">
<title>primitive&#45;String&#45;2</title>
<g id="a_node1"><a xlink:title="String&#45;2: primitive&#45;String&#45;2">
<path fill="white" stroke="transparent" d="M75.67,-16C75.67,-16 88.33,-16 88.33,-16 93.67,-16 99,-21.33 99,-26.67 99,-26.67 99,-37.33 99,-37.33 99,-42.67 93.67,-48 88.33,-48 88.33,-48 75.67,-48 75.67,-48 70.33,-48 65,-42.67 65,-37.33 65,-37.33 65,-26.67 65,-26.67 65,-21.33 70.33,-16 75.67,-16"/>
<text text-anchor="start" x="70" y="-28.3" font-family="Helvetica,sans-Serif" font-size="14.00">&quot;V&quot;</text>
<path fill="none" stroke="black" d="M75.67,-16C75.67,-16 88.33,-16 88.33,-16 93.67,-16 99,-21.33 99,-26.67 99,-26.67 99,-37.33 99,-37.33 99,-42.67 93.67,-48 88.33,-48 88.33,-48 75.67,-48 75.67,-48 70.33,-48 65,-42.67 65,-37.33 65,-37.33 65,-26.67 65,-26.67 65,-21.33 70.33,-16 75.67,-16"/>
</a>
</g>
</g>
<!-- primitive&#45;String&#45;0 -->
<g id="node2" class="node">
<title>primitive&#45;String&#45;0</title>
<g id="a_node2"><a xlink:title="String&#45;0: primitive&#45;String&#45;0">
<path fill="white" stroke="transparent" d="M398.17,-16C398.17,-16 411.83,-16 411.83,-16 417.17,-16 422.5,-21.33 422.5,-26.67 422.5,-26.67 422.5,-37.33 422.5,-37.33 422.5,-42.67 417.17,-48 411.83,-48 411.83,-48 398.17,-48 398.17,-48 392.83,-48 387.5,-42.67 387.5,-37.33 387.5,-37.33 387.5,-26.67 387.5,-26.67 387.5,-21.33 392.83,-16 398.17,-16"/>
<text text-anchor="start" x="393" y="-28.3" font-family="Helvetica,sans-Serif" font-size="14.00">&quot;Q&quot;</text>
<path fill="none" stroke="black" d="M398.17,-16C398.17,-16 411.83,-16 411.83,-16 417.17,-16 422.5,-21.33 422.5,-26.67 422.5,-26.67 422.5,-37.33 422.5,-37.33 422.5,-42.67 417.17,-48 411.83,-48 411.83,-48 398.17,-48 398.17,-48 392.83,-48 387.5,-42.67 387.5,-37.33 387.5,-37.33 387.5,-26.67 387.5,-26.67 387.5,-21.33 392.83,-16 398.17,-16"/>
</a>
</g>
</g>
<!-- primitive&#45;String&#45;1 -->
<g id="node3" class="node">
<title>primitive&#45;String&#45;1</title>
<g id="a_node3"><a xlink:title="String&#45;1: primitive&#45;String&#45;1">
<path fill="white" stroke="transparent" d="M274.17,-16C274.17,-16 285.83,-16 285.83,-16 291.17,-16 296.5,-21.33 296.5,-26.67 296.5,-26.67 296.5,-37.33 296.5,-37.33 296.5,-42.67 291.17,-48 285.83,-48 285.83,-48 274.17,-48 274.17,-48 268.83,-48 263.5,-42.67 263.5,-37.33 263.5,-37.33 263.5,-26.67 263.5,-26.67 263.5,-21.33 268.83,-16 274.17,-16"/>
<text text-anchor="start" x="269" y="-28.3" font-family="Helvetica,sans-Serif" font-size="14.00">&quot;K&quot;</text>
<path fill="none" stroke="black" d="M274.17,-16C274.17,-16 285.83,-16 285.83,-16 291.17,-16 296.5,-21.33 296.5,-26.67 296.5,-26.67 296.5,-37.33 296.5,-37.33 296.5,-42.67 291.17,-48 285.83,-48 285.83,-48 274.17,-48 274.17,-48 268.83,-48 263.5,-42.67 263.5,-37.33 263.5,-37.33 263.5,-26.67 263.5,-26.67 263.5,-21.33 268.83,-16 274.17,-16"/>
</a>
</g>
</g>
<!-- function&#45;0&#45;R_add_e -->
<g id="node4" class="node">
<title>function&#45;0&#45;R_add_e</title>
<g id="a_node4"><a xlink:title="Tensor&#45;5: function&#45;0&#45;R_add_e">
<path fill="white" stroke="transparent" d="M206.67,-332C206.67,-332 253.33,-332 253.33,-332 258.67,-332 264,-337.33 264,-342.67 264,-342.67 264,-353.33 264,-353.33 264,-358.67 258.67,-364 253.33,-364 253.33,-364 206.67,-364 206.67,-364 201.33,-364 196,-358.67 196,-353.33 196,-353.33 196,-342.67 196,-342.67 196,-337.33 201.33,-332 206.67,-332"/>
<text text-anchor="start" x="201" y="-344.3" font-family="Helvetica,sans-Serif" font-size="14.00">R_add_e</text>
<path fill="none" stroke="black" d="M206.67,-332C206.67,-332 253.33,-332 253.33,-332 258.67,-332 264,-337.33 264,-342.67 264,-342.67 264,-353.33 264,-353.33 264,-358.67 258.67,-364 253.33,-364 253.33,-364 206.67,-364 206.67,-364 201.33,-364 196,-358.67 196,-353.33 196,-353.33 196,-342.67 196,-342.67 196,-337.33 201.33,-332 206.67,-332"/>
</a>
</g>
</g>
<!-- function&#45;0&#45;M_mul_em1m0p -->
<g id="node5" class="node">
<title>function&#45;0&#45;M_mul_em1m0p</title>
<g id="a_node5"><a xlink:title="Tensor&#45;4: function&#45;0&#45;M_mul_em1m0p">
<path fill="white" stroke="transparent" d="M178.17,-253C178.17,-253 281.83,-253 281.83,-253 287.17,-253 292.5,-258.33 292.5,-263.67 292.5,-263.67 292.5,-274.33 292.5,-274.33 292.5,-279.67 287.17,-285 281.83,-285 281.83,-285 178.17,-285 178.17,-285 172.83,-285 167.5,-279.67 167.5,-274.33 167.5,-274.33 167.5,-263.67 167.5,-263.67 167.5,-258.33 172.83,-253 178.17,-253"/>
<text text-anchor="start" x="173" y="-265.3" font-family="Helvetica,sans-Serif" font-size="14.00">M_mul_em1m0p</text>
<path fill="none" stroke="black" d="M178.17,-253C178.17,-253 281.83,-253 281.83,-253 287.17,-253 292.5,-258.33 292.5,-263.67 292.5,-263.67 292.5,-274.33 292.5,-274.33 292.5,-279.67 287.17,-285 281.83,-285 281.83,-285 178.17,-285 178.17,-285 172.83,-285 167.5,-279.67 167.5,-274.33 167.5,-274.33 167.5,-263.67 167.5,-263.67 167.5,-258.33 172.83,-253 178.17,-253"/>
</a>
</g>
</g>
<!-- function&#45;0&#45;M_mul_m1p -->
<g id="node6" class="node">
<title>function&#45;0&#45;M_mul_m1p</title>
<g id="a_node6"><a xlink:title="Tensor&#45;14: function&#45;0&#45;M_mul_m1p">
<path fill="white" stroke="transparent" d="M139.67,-727C139.67,-727 212.33,-727 212.33,-727 217.67,-727 223,-732.33 223,-737.67 223,-737.67 223,-748.33 223,-748.33 223,-753.67 217.67,-759 212.33,-759 212.33,-759 139.67,-759 139.67,-759 134.33,-759 129,-753.67 129,-748.33 129,-748.33 129,-737.67 129,-737.67 129,-732.33 134.33,-727 139.67,-727"/>
<text text-anchor="start" x="134" y="-739.3" font-family="Helvetica,sans-Serif" font-size="14.00">M_mul_m1p</text>
<path fill="none" stroke="black" d="M139.67,-727C139.67,-727 212.33,-727 212.33,-727 217.67,-727 223,-732.33 223,-737.67 223,-737.67 223,-748.33 223,-748.33 223,-753.67 217.67,-759 212.33,-759 212.33,-759 139.67,-759 139.67,-759 134.33,-759 129,-753.67 129,-748.33 129,-748.33 129,-737.67 129,-737.67 129,-732.33 134.33,-727 139.67,-727"/>
</a>
</g>
</g>
<!-- function&#45;0&#45;R_add_m0 -->
<g id="node7" class="node">
<title>function&#45;0&#45;R_add_m0</title>
<g id="a_node7"><a xlink:title="Tensor&#45;10: function&#45;0&#45;R_add_m0">
<path fill="white" stroke="transparent" d="M120.17,-648C120.17,-648 181.83,-648 181.83,-648 187.17,-648 192.5,-653.33 192.5,-658.67 192.5,-658.67 192.5,-669.33 192.5,-669.33 192.5,-674.67 187.17,-680 181.83,-680 181.83,-680 120.17,-680 120.17,-680 114.83,-680 109.5,-674.67 109.5,-669.33 109.5,-669.33 109.5,-658.67 109.5,-658.67 109.5,-653.33 114.83,-648 120.17,-648"/>
<text text-anchor="start" x="115" y="-660.3" font-family="Helvetica,sans-Serif" font-size="14.00">R_add_m0</text>
<path fill="none" stroke="black" d="M120.17,-648C120.17,-648 181.83,-648 181.83,-648 187.17,-648 192.5,-653.33 192.5,-658.67 192.5,-658.67 192.5,-669.33 192.5,-669.33 192.5,-674.67 187.17,-680 181.83,-680 181.83,-680 120.17,-680 120.17,-680 114.83,-680 109.5,-674.67 109.5,-669.33 109.5,-669.33 109.5,-658.67 109.5,-658.67 109.5,-653.33 114.83,-648 120.17,-648"/>
</a>
</g>
</g>
<!-- function&#45;0&#45;M_exp_m1p -->
<g id="node8" class="node">
<title>function&#45;0&#45;M_exp_m1p</title>
<g id="a_node8"><a xlink:title="Tensor&#45;12: function&#45;0&#45;M_exp_m1p">
<path fill="white" stroke="transparent" d="M215.17,-648C215.17,-648 286.83,-648 286.83,-648 292.17,-648 297.5,-653.33 297.5,-658.67 297.5,-658.67 297.5,-669.33 297.5,-669.33 297.5,-674.67 292.17,-680 286.83,-680 286.83,-680 215.17,-680 215.17,-680 209.83,-680 204.5,-674.67 204.5,-669.33 204.5,-669.33 204.5,-658.67 204.5,-658.67 204.5,-653.33 209.83,-648 215.17,-648"/>
<text text-anchor="start" x="210" y="-660.3" font-family="Helvetica,sans-Serif" font-size="14.00">M_exp_m1p</text>
<path fill="none" stroke="black" d="M215.17,-648C215.17,-648 286.83,-648 286.83,-648 292.17,-648 297.5,-653.33 297.5,-658.67 297.5,-658.67 297.5,-669.33 297.5,-669.33 297.5,-674.67 292.17,-680 286.83,-680 286.83,-680 215.17,-680 215.17,-680 209.83,-680 204.5,-674.67 204.5,-669.33 204.5,-669.33 204.5,-658.67 204.5,-658.67 204.5,-653.33 209.83,-648 215.17,-648"/>
</a>
</g>
</g>
<!-- function&#45;0&#45;CreateTensor -->
<g id="node9" class="node">
<title>function&#45;0&#45;CreateTensor</title>
<g id="a_node9"><a xlink:title="Tensor&#45;0: function&#45;0&#45;CreateTensor">
<path fill="white" stroke="transparent" d="M327.17,-95C327.17,-95 406.83,-95 406.83,-95 412.17,-95 417.5,-100.33 417.5,-105.67 417.5,-105.67 417.5,-116.33 417.5,-116.33 417.5,-121.67 412.17,-127 406.83,-127 406.83,-127 327.17,-127 327.17,-127 321.83,-127 316.5,-121.67 316.5,-116.33 316.5,-116.33 316.5,-105.67 316.5,-105.67 316.5,-100.33 321.83,-95 327.17,-95"/>
<text text-anchor="start" x="322" y="-107.3" font-family="Helvetica,sans-Serif" font-size="14.00">CreateTensor</text>
<path fill="none" stroke="black" d="M327.17,-95C327.17,-95 406.83,-95 406.83,-95 412.17,-95 417.5,-100.33 417.5,-105.67 417.5,-105.67 417.5,-116.33 417.5,-116.33 417.5,-121.67 412.17,-127 406.83,-127 406.83,-127 327.17,-127 327.17,-127 321.83,-127 316.5,-121.67 316.5,-116.33 316.5,-116.33 316.5,-105.67 316.5,-105.67 316.5,-100.33 321.83,-95 327.17,-95"/>
</a>
</g>
</g>
<!-- primitive&#45;i64&#45;64 -->
<g id="node10" class="node">
<title>primitive&#45;i64&#45;64</title>
<g id="a_node10"><a xlink:title="i64&#45;64: primitive&#45;i64&#45;64">
<path fill="white" stroke="transparent" d="M142.67,-16C142.67,-16 153.33,-16 153.33,-16 158.67,-16 164,-21.33 164,-26.67 164,-26.67 164,-37.33 164,-37.33 164,-42.67 158.67,-48 153.33,-48 153.33,-48 142.67,-48 142.67,-48 137.33,-48 132,-42.67 132,-37.33 132,-37.33 132,-26.67 132,-26.67 132,-21.33 137.33,-16 142.67,-16"/>
<text text-anchor="start" x="138.5" y="-28.3" font-family="Helvetica,sans-Serif" font-size="14.00">64</text>
<path fill="none" stroke="black" d="M142.67,-16C142.67,-16 153.33,-16 153.33,-16 158.67,-16 164,-21.33 164,-26.67 164,-26.67 164,-37.33 164,-37.33 164,-42.67 158.67,-48 153.33,-48 153.33,-48 142.67,-48 142.67,-48 137.33,-48 132,-42.67 132,-37.33 132,-37.33 132,-26.67 132,-26.67 132,-21.33 137.33,-16 142.67,-16"/>
</a>
</g>
</g>
<!-- primitive&#45;i64&#45;1024 -->
<g id="node11" class="node">
<title>primitive&#45;i64&#45;1024</title>
<g id="a_node11"><a xlink:title="i64&#45;1024: primitive&#45;i64&#45;1024">
<path fill="white" stroke="transparent" d="M201.17,-16C201.17,-16 226.83,-16 226.83,-16 232.17,-16 237.5,-21.33 237.5,-26.67 237.5,-26.67 237.5,-37.33 237.5,-37.33 237.5,-42.67 232.17,-48 226.83,-48 226.83,-48 201.17,-48 201.17,-48 195.83,-48 190.5,-42.67 190.5,-37.33 190.5,-37.33 190.5,-26.67 190.5,-26.67 190.5,-21.33 195.83,-16 201.17,-16"/>
<text text-anchor="start" x="196" y="-28.3" font-family="Helvetica,sans-Serif" font-size="14.00">1024</text>
<path fill="none" stroke="black" d="M201.17,-16C201.17,-16 226.83,-16 226.83,-16 232.17,-16 237.5,-21.33 237.5,-26.67 237.5,-26.67 237.5,-37.33 237.5,-37.33 237.5,-42.67 232.17,-48 226.83,-48 226.83,-48 201.17,-48 201.17,-48 195.83,-48 190.5,-42.67 190.5,-37.33 190.5,-37.33 190.5,-26.67 190.5,-26.67 190.5,-21.33 195.83,-16 201.17,-16"/>
</a>
</g>
</g>
<!-- function&#45;0&#45;M_div_m1m0p -->
<g id="node12" class="node">
<title>function&#45;0&#45;M_div_m1m0p</title>
<g id="a_node12"><a xlink:title="Tensor&#45;16: function&#45;0&#45;M_div_m1m0p">
<path fill="white" stroke="transparent" d="M114.17,-885C114.17,-885 203.83,-885 203.83,-885 209.17,-885 214.5,-890.33 214.5,-895.67 214.5,-895.67 214.5,-906.33 214.5,-906.33 214.5,-911.67 209.17,-917 203.83,-917 203.83,-917 114.17,-917 114.17,-917 108.83,-917 103.5,-911.67 103.5,-906.33 103.5,-906.33 103.5,-895.67 103.5,-895.67 103.5,-890.33 108.83,-885 114.17,-885"/>
<text text-anchor="start" x="109" y="-897.3" font-family="Helvetica,sans-Serif" font-size="14.00">M_div_m1m0p</text>
<path fill="none" stroke="black" d="M114.17,-885C114.17,-885 203.83,-885 203.83,-885 209.17,-885 214.5,-890.33 214.5,-895.67 214.5,-895.67 214.5,-906.33 214.5,-906.33 214.5,-911.67 209.17,-917 203.83,-917 203.83,-917 114.17,-917 114.17,-917 108.83,-917 103.5,-911.67 103.5,-906.33 103.5,-906.33 103.5,-895.67 103.5,-895.67 103.5,-890.33 108.83,-885 114.17,-885"/>
</a>
</g>
</g>
<!-- function&#45;0&#45;M_mul_m1m0p -->
<g id="node13" class="node">
<title>function&#45;0&#45;M_mul_m1m0p</title>
<g id="a_node13"><a xlink:title="Tensor&#45;13: function&#45;0&#45;M_mul_m1m0p">
<path fill="white" stroke="transparent" d="M245.67,-727C245.67,-727 340.33,-727 340.33,-727 345.67,-727 351,-732.33 351,-737.67 351,-737.67 351,-748.33 351,-748.33 351,-753.67 345.67,-759 340.33,-759 340.33,-759 245.67,-759 245.67,-759 240.33,-759 235,-753.67 235,-748.33 235,-748.33 235,-737.67 235,-737.67 235,-732.33 240.33,-727 245.67,-727"/>
<text text-anchor="start" x="240" y="-739.3" font-family="Helvetica,sans-Serif" font-size="14.00">M_mul_m1m0p</text>
<path fill="none" stroke="black" d="M245.67,-727C245.67,-727 340.33,-727 340.33,-727 345.67,-727 351,-732.33 351,-737.67 351,-737.67 351,-748.33 351,-748.33 351,-753.67 345.67,-759 340.33,-759 340.33,-759 245.67,-759 245.67,-759 240.33,-759 235,-753.67 235,-748.33 235,-748.33 235,-737.67 235,-737.67 235,-732.33 240.33,-727 245.67,-727"/>
</a>
</g>
</g>
<!-- function&#45;0&#45;R_add_m1 -->
<g id="node14" class="node">
<title>function&#45;0&#45;R_add_m1</title>
<g id="a_node14"><a xlink:title="Tensor&#45;15: function&#45;0&#45;R_add_m1">
<path fill="white" stroke="transparent" d="M152.17,-806C152.17,-806 213.83,-806 213.83,-806 219.17,-806 224.5,-811.33 224.5,-816.67 224.5,-816.67 224.5,-827.33 224.5,-827.33 224.5,-832.67 219.17,-838 213.83,-838 213.83,-838 152.17,-838 152.17,-838 146.83,-838 141.5,-832.67 141.5,-827.33 141.5,-827.33 141.5,-816.67 141.5,-816.67 141.5,-811.33 146.83,-806 152.17,-806"/>
<text text-anchor="start" x="147" y="-818.3" font-family="Helvetica,sans-Serif" font-size="14.00">R_add_m1</text>
<path fill="none" stroke="black" d="M152.17,-806C152.17,-806 213.83,-806 213.83,-806 219.17,-806 224.5,-811.33 224.5,-816.67 224.5,-816.67 224.5,-827.33 224.5,-827.33 224.5,-832.67 219.17,-838 213.83,-838 213.83,-838 152.17,-838 152.17,-838 146.83,-838 141.5,-832.67 141.5,-827.33 141.5,-827.33 141.5,-816.67 141.5,-816.67 141.5,-811.33 146.83,-806 152.17,-806"/>
</a>
</g>
</g>
<!-- function&#45;0&#45;T_split_m_m1m0 -->
<g id="node15" class="node">
<title>function&#45;0&#45;T_split_m_m1m0</title>
<g id="a_node15"><a xlink:title="Tensor&#45;3: function&#45;0&#45;T_split_m_m1m0">
<path fill="white" stroke="transparent" d="M192.17,-174C192.17,-174 297.83,-174 297.83,-174 303.17,-174 308.5,-179.33 308.5,-184.67 308.5,-184.67 308.5,-195.33 308.5,-195.33 308.5,-200.67 303.17,-206 297.83,-206 297.83,-206 192.17,-206 192.17,-206 186.83,-206 181.5,-200.67 181.5,-195.33 181.5,-195.33 181.5,-184.67 181.5,-184.67 181.5,-179.33 186.83,-174 192.17,-174"/>
<text text-anchor="start" x="187" y="-186.3" font-family="Helvetica,sans-Serif" font-size="14.00">T_split_m_m1m0</text>
<path fill="none" stroke="black" d="M192.17,-174C192.17,-174 297.83,-174 297.83,-174 303.17,-174 308.5,-179.33 308.5,-184.67 308.5,-184.67 308.5,-195.33 308.5,-195.33 308.5,-200.67 303.17,-206 297.83,-206 297.83,-206 192.17,-206 192.17,-206 186.83,-206 181.5,-200.67 181.5,-195.33 181.5,-195.33 181.5,-184.67 181.5,-184.67 181.5,-179.33 186.83,-174 192.17,-174"/>
</a>
</g>
</g>
<!-- function&#45;1&#45;CreateTensor -->
<g id="node16" class="node">
<title>function&#45;1&#45;CreateTensor</title>
<g id="a_node16"><a xlink:title="Tensor&#45;1: function&#45;1&#45;CreateTensor">
<path fill="white" stroke="transparent" d="M147.17,-95C147.17,-95 226.83,-95 226.83,-95 232.17,-95 237.5,-100.33 237.5,-105.67 237.5,-105.67 237.5,-116.33 237.5,-116.33 237.5,-121.67 232.17,-127 226.83,-127 226.83,-127 147.17,-127 147.17,-127 141.83,-127 136.5,-121.67 136.5,-116.33 136.5,-116.33 136.5,-105.67 136.5,-105.67 136.5,-100.33 141.83,-95 147.17,-95"/>
<text text-anchor="start" x="142" y="-107.3" font-family="Helvetica,sans-Serif" font-size="14.00">CreateTensor</text>
<path fill="none" stroke="black" d="M147.17,-95C147.17,-95 226.83,-95 226.83,-95 232.17,-95 237.5,-100.33 237.5,-105.67 237.5,-105.67 237.5,-116.33 237.5,-116.33 237.5,-121.67 232.17,-127 226.83,-127 226.83,-127 147.17,-127 147.17,-127 141.83,-127 136.5,-121.67 136.5,-116.33 136.5,-116.33 136.5,-105.67 136.5,-105.67 136.5,-100.33 141.83,-95 147.17,-95"/>
</a>
</g>
</g>
<!-- primitive&#45;i64&#45;4 -->
<g id="node17" class="node">
<title>primitive&#45;i64&#45;4</title>
<g id="a_node17"><a xlink:title="i64&#45;4: primitive&#45;i64&#45;4">
<path fill="white" stroke="transparent" d="M271.67,-95C271.67,-95 282.33,-95 282.33,-95 287.67,-95 293,-100.33 293,-105.67 293,-105.67 293,-116.33 293,-116.33 293,-121.67 287.67,-127 282.33,-127 282.33,-127 271.67,-127 271.67,-127 266.33,-127 261,-121.67 261,-116.33 261,-116.33 261,-105.67 261,-105.67 261,-100.33 266.33,-95 271.67,-95"/>
<text text-anchor="start" x="272" y="-107.3" font-family="Helvetica,sans-Serif" font-size="14.00">4</text>
<path fill="none" stroke="black" d="M271.67,-95C271.67,-95 282.33,-95 282.33,-95 287.67,-95 293,-100.33 293,-105.67 293,-105.67 293,-116.33 293,-116.33 293,-121.67 287.67,-127 282.33,-127 282.33,-127 271.67,-127 271.67,-127 266.33,-127 261,-121.67 261,-116.33 261,-116.33 261,-105.67 261,-105.67 261,-100.33 266.33,-95 271.67,-95"/>
</a>
</g>
</g>
<!-- function&#45;0&#45;M_sub_m1m0p -->
<g id="node18" class="node">
<title>function&#45;0&#45;M_sub_m1m0p</title>
<g id="a_node18"><a xlink:title="Tensor&#45;8: function&#45;0&#45;M_sub_m1m0p">
<path fill="white" stroke="transparent" d="M104.67,-490C104.67,-490 199.33,-490 199.33,-490 204.67,-490 210,-495.33 210,-500.67 210,-500.67 210,-511.33 210,-511.33 210,-516.67 204.67,-522 199.33,-522 199.33,-522 104.67,-522 104.67,-522 99.33,-522 94,-516.67 94,-511.33 94,-511.33 94,-500.67 94,-500.67 94,-495.33 99.33,-490 104.67,-490"/>
<text text-anchor="start" x="99" y="-502.3" font-family="Helvetica,sans-Serif" font-size="14.00">M_sub_m1m0p</text>
<path fill="none" stroke="black" d="M104.67,-490C104.67,-490 199.33,-490 199.33,-490 204.67,-490 210,-495.33 210,-500.67 210,-500.67 210,-511.33 210,-511.33 210,-516.67 204.67,-522 199.33,-522 199.33,-522 104.67,-522 104.67,-522 99.33,-522 94,-516.67 94,-511.33 94,-511.33 94,-500.67 94,-500.67 94,-495.33 99.33,-490 104.67,-490"/>
</a>
</g>
</g>
<!-- function&#45;0&#45;R_max_m0 -->
<g id="node19" class="node">
<title>function&#45;0&#45;R_max_m0</title>
<g id="a_node19"><a xlink:title="Tensor&#45;6: function&#45;0&#45;R_max_m0">
<path fill="white" stroke="transparent" d="M229.67,-411C229.67,-411 294.33,-411 294.33,-411 299.67,-411 305,-416.33 305,-421.67 305,-421.67 305,-432.33 305,-432.33 305,-437.67 299.67,-443 294.33,-443 294.33,-443 229.67,-443 229.67,-443 224.33,-443 219,-437.67 219,-432.33 219,-432.33 219,-421.67 219,-421.67 219,-416.33 224.33,-411 229.67,-411"/>
<text text-anchor="start" x="224" y="-423.3" font-family="Helvetica,sans-Serif" font-size="14.00">R_max_m0</text>
<path fill="none" stroke="black" d="M229.67,-411C229.67,-411 294.33,-411 294.33,-411 299.67,-411 305,-416.33 305,-421.67 305,-421.67 305,-432.33 305,-432.33 305,-437.67 299.67,-443 294.33,-443 294.33,-443 229.67,-443 229.67,-443 224.33,-443 219,-437.67 219,-432.33 219,-432.33 219,-421.67 219,-421.67 219,-416.33 224.33,-411 229.67,-411"/>
</a>
</g>
</g>
<!-- function&#45;2&#45;CreateTensor -->
<g id="node20" class="node">
<title>function&#45;2&#45;CreateTensor</title>
<g id="a_node20"><a xlink:title="Tensor&#45;2: function&#45;2&#45;CreateTensor">
<path fill="white" stroke="transparent" d="M33.17,-95C33.17,-95 112.83,-95 112.83,-95 118.17,-95 123.5,-100.33 123.5,-105.67 123.5,-105.67 123.5,-116.33 123.5,-116.33 123.5,-121.67 118.17,-127 112.83,-127 112.83,-127 33.17,-127 33.17,-127 27.83,-127 22.5,-121.67 22.5,-116.33 22.5,-116.33 22.5,-105.67 22.5,-105.67 22.5,-100.33 27.83,-95 33.17,-95"/>
<text text-anchor="start" x="28" y="-107.3" font-family="Helvetica,sans-Serif" font-size="14.00">CreateTensor</text>
<path fill="none" stroke="black" d="M33.17,-95C33.17,-95 112.83,-95 112.83,-95 118.17,-95 123.5,-100.33 123.5,-105.67 123.5,-105.67 123.5,-116.33 123.5,-116.33 123.5,-121.67 118.17,-127 112.83,-127 112.83,-127 33.17,-127 33.17,-127 27.83,-127 22.5,-121.67 22.5,-116.33 22.5,-116.33 22.5,-105.67 22.5,-105.67 22.5,-100.33 27.83,-95 33.17,-95"/>
</a>
</g>
</g>
<!-- function&#45;0&#45;M_sub_m1p -->
<g id="node21" class="node">
<title>function&#45;0&#45;M_sub_m1p</title>
<g id="a_node21"><a xlink:title="Tensor&#45;11: function&#45;0&#45;M_sub_m1p">
<path fill="white" stroke="transparent" d="M232.17,-569C232.17,-569 303.83,-569 303.83,-569 309.17,-569 314.5,-574.33 314.5,-579.67 314.5,-579.67 314.5,-590.33 314.5,-590.33 314.5,-595.67 309.17,-601 303.83,-601 303.83,-601 232.17,-601 232.17,-601 226.83,-601 221.5,-595.67 221.5,-590.33 221.5,-590.33 221.5,-579.67 221.5,-579.67 221.5,-574.33 226.83,-569 232.17,-569"/>
<text text-anchor="start" x="227" y="-581.3" font-family="Helvetica,sans-Serif" font-size="14.00">M_sub_m1p</text>
<path fill="none" stroke="black" d="M232.17,-569C232.17,-569 303.83,-569 303.83,-569 309.17,-569 314.5,-574.33 314.5,-579.67 314.5,-579.67 314.5,-590.33 314.5,-590.33 314.5,-595.67 309.17,-601 303.83,-601 303.83,-601 232.17,-601 232.17,-601 226.83,-601 221.5,-595.67 221.5,-590.33 221.5,-590.33 221.5,-579.67 221.5,-579.67 221.5,-574.33 226.83,-569 232.17,-569"/>
</a>
</g>
</g>
<!-- function&#45;0&#45;M_exp_m1m0p -->
<g id="node22" class="node">
<title>function&#45;0&#45;M_exp_m1m0p</title>
<g id="a_node22"><a xlink:title="Tensor&#45;9: function&#45;0&#45;M_exp_m1m0p">
<path fill="white" stroke="transparent" d="M104.67,-569C104.67,-569 199.33,-569 199.33,-569 204.67,-569 210,-574.33 210,-579.67 210,-579.67 210,-590.33 210,-590.33 210,-595.67 204.67,-601 199.33,-601 199.33,-601 104.67,-601 104.67,-601 99.33,-601 94,-595.67 94,-590.33 94,-590.33 94,-579.67 94,-579.67 94,-574.33 99.33,-569 104.67,-569"/>
<text text-anchor="start" x="99" y="-581.3" font-family="Helvetica,sans-Serif" font-size="14.00">M_exp_m1m0p</text>
<path fill="none" stroke="black" d="M104.67,-569C104.67,-569 199.33,-569 199.33,-569 204.67,-569 210,-574.33 210,-579.67 210,-579.67 210,-590.33 210,-590.33 210,-595.67 204.67,-601 199.33,-601 199.33,-601 104.67,-601 104.67,-601 99.33,-601 94,-595.67 94,-590.33 94,-590.33 94,-579.67 94,-579.67 94,-574.33 99.33,-569 104.67,-569"/>
</a>
</g>
</g>
<!-- function&#45;0&#45;R_max_m1 -->
<g id="node23" class="node">
<title>function&#45;0&#45;R_max_m1</title>
<g id="a_node23"><a xlink:title="Tensor&#45;7: function&#45;0&#45;R_max_m1">
<path fill="white" stroke="transparent" d="M232.67,-490C232.67,-490 297.33,-490 297.33,-490 302.67,-490 308,-495.33 308,-500.67 308,-500.67 308,-511.33 308,-511.33 308,-516.67 302.67,-522 297.33,-522 297.33,-522 232.67,-522 232.67,-522 227.33,-522 222,-516.67 222,-511.33 222,-511.33 222,-500.67 222,-500.67 222,-495.33 227.33,-490 232.67,-490"/>
<text text-anchor="start" x="227" y="-502.3" font-family="Helvetica,sans-Serif" font-size="14.00">R_max_m1</text>
<path fill="none" stroke="black" d="M232.67,-490C232.67,-490 297.33,-490 297.33,-490 302.67,-490 308,-495.33 308,-500.67 308,-500.67 308,-511.33 308,-511.33 308,-516.67 302.67,-522 297.33,-522 297.33,-522 232.67,-522 232.67,-522 227.33,-522 222,-516.67 222,-511.33 222,-511.33 222,-500.67 222,-500.67 222,-495.33 227.33,-490 232.67,-490"/>
</a>
</g>
</g>
<!-- function&#45;0&#45;R_add_m -->
<g id="node24" class="node">
<title>function&#45;0&#45;R_add_m</title>
<g id="a_node24"><a xlink:title="Tensor&#45;19: function&#45;0&#45;R_add_m">
<path fill="white" stroke="transparent" d="M32.67,-1122C32.67,-1122 85.33,-1122 85.33,-1122 90.67,-1122 96,-1127.33 96,-1132.67 96,-1132.67 96,-1143.33 96,-1143.33 96,-1148.67 90.67,-1154 85.33,-1154 85.33,-1154 32.67,-1154 32.67,-1154 27.33,-1154 22,-1148.67 22,-1143.33 22,-1143.33 22,-1132.67 22,-1132.67 22,-1127.33 27.33,-1122 32.67,-1122"/>
<text text-anchor="start" x="27" y="-1134.3" font-family="Helvetica,sans-Serif" font-size="14.00">R_add_m</text>
<path fill="none" stroke="black" d="M32.67,-1122C32.67,-1122 85.33,-1122 85.33,-1122 90.67,-1122 96,-1127.33 96,-1132.67 96,-1132.67 96,-1143.33 96,-1143.33 96,-1148.67 90.67,-1154 85.33,-1154 85.33,-1154 32.67,-1154 32.67,-1154 27.33,-1154 22,-1148.67 22,-1143.33 22,-1143.33 22,-1132.67 22,-1132.67 22,-1127.33 27.33,-1122 32.67,-1122"/>
</a>
</g>
</g>
<!-- function&#45;0&#45;M_mul_fmp -->
<g id="node25" class="node">
<title>function&#45;0&#45;M_mul_fmp</title>
<g id="a_node25"><a xlink:title="Tensor&#45;18: function&#45;0&#45;M_mul_fmp">
<path fill="white" stroke="transparent" d="M24.67,-1043C24.67,-1043 93.33,-1043 93.33,-1043 98.67,-1043 104,-1048.33 104,-1053.67 104,-1053.67 104,-1064.33 104,-1064.33 104,-1069.67 98.67,-1075 93.33,-1075 93.33,-1075 24.67,-1075 24.67,-1075 19.33,-1075 14,-1069.67 14,-1064.33 14,-1064.33 14,-1053.67 14,-1053.67 14,-1048.33 19.33,-1043 24.67,-1043"/>
<text text-anchor="start" x="19" y="-1055.3" font-family="Helvetica,sans-Serif" font-size="14.00">M_mul_fmp</text>
<path fill="none" stroke="black" d="M24.67,-1043C24.67,-1043 93.33,-1043 93.33,-1043 98.67,-1043 104,-1048.33 104,-1053.67 104,-1053.67 104,-1064.33 104,-1064.33 104,-1069.67 98.67,-1075 93.33,-1075 93.33,-1075 24.67,-1075 24.67,-1075 19.33,-1075 14,-1069.67 14,-1064.33 14,-1064.33 14,-1053.67 14,-1053.67 14,-1048.33 19.33,-1043 24.67,-1043"/>
</a>
</g>
</g>
<!-- function&#45;0&#45;T_unsplit_m1m0_m -->
<g id="node26" class="node">
<title>function&#45;0&#45;T_unsplit_m1m0_m</title>
<g id="a_node26"><a xlink:title="Tensor&#45;17: function&#45;0&#45;T_unsplit_m1m0_m">
<path fill="white" stroke="transparent" d="M96.17,-964C96.17,-964 219.83,-964 219.83,-964 225.17,-964 230.5,-969.33 230.5,-974.67 230.5,-974.67 230.5,-985.33 230.5,-985.33 230.5,-990.67 225.17,-996 219.83,-996 219.83,-996 96.17,-996 96.17,-996 90.83,-996 85.5,-990.67 85.5,-985.33 85.5,-985.33 85.5,-974.67 85.5,-974.67 85.5,-969.33 90.83,-964 96.17,-964"/>
<text text-anchor="start" x="91" y="-976.3" font-family="Helvetica,sans-Serif" font-size="14.00">T_unsplit_m1m0_m</text>
<path fill="none" stroke="black" d="M96.17,-964C96.17,-964 219.83,-964 219.83,-964 225.17,-964 230.5,-969.33 230.5,-974.67 230.5,-974.67 230.5,-985.33 230.5,-985.33 230.5,-990.67 225.17,-996 219.83,-996 219.83,-996 96.17,-996 96.17,-996 90.83,-996 85.5,-990.67 85.5,-985.33 85.5,-985.33 85.5,-974.67 85.5,-974.67 85.5,-969.33 90.83,-964 96.17,-964"/>
</a>
</g>
</g>
</g>
</svg>
