<?xml version="1.0" encoding="UTF-8" standalone="no"?>
<!DOCTYPE svg PUBLIC "-//W3C//DTD SVG 1.1//EN"
 "http://www.w3.org/Graphics/SVG/1.1/DTD/svg11.dtd">
<!-- Generated by graphviz version 2.43.0 (0)
 -->
<!-- Title: %3 Pages: 1 -->
<svg width="380pt" height="862pt"
 viewBox="0.00 0.00 380.00 862.00" xmlns="http://www.w3.org/2000/svg" xmlns:xlink="http://www.w3.org/1999/xlink">
<g id="graph0" class="graph" transform="scale(1 1) rotate(0) translate(4 858)">
<title>%3</title>
<polygon fill="white" stroke="#000000" points="-4,4 -4,-858 376,-858 376,4 -4,4"/>
<g id="clust1" class="cluster">
<title>outer_cluster_String&#45;0</title>
</g>
<g id="clust2" class="cluster">
<title>cluster_String&#45;0</title>
<path fill="#ffffb3" stroke="black" stroke-dasharray="5,2" d="M243,-11C243,-11 279,-11 279,-11 285,-11 291,-17 291,-23 291,-23 291,-41 291,-41 291,-47 285,-53 279,-53 279,-53 243,-53 243,-53 237,-53 231,-47 231,-41 231,-41 231,-23 231,-23 231,-17 237,-11 243,-11"/>
</g>
<g id="clust4" class="cluster">
<title>outer_cluster_String&#45;1</title>
</g>
<g id="clust5" class="cluster">
<title>cluster_String&#45;1</title>
<path fill="#ffffb3" stroke="black" stroke-dasharray="5,2" d="M45,-11C45,-11 81,-11 81,-11 87,-11 93,-17 93,-23 93,-23 93,-41 93,-41 93,-47 87,-53 81,-53 81,-53 45,-53 45,-53 39,-53 33,-47 33,-41 33,-41 33,-23 33,-23 33,-17 39,-11 45,-11"/>
</g>
<g id="clust7" class="cluster">
<title>outer_cluster_String&#45;2</title>
</g>
<g id="clust8" class="cluster">
<title>cluster_String&#45;2</title>
<path fill="#ffffb3" stroke="black" stroke-dasharray="5,2" d="M313,-11C313,-11 349,-11 349,-11 355,-11 361,-17 361,-23 361,-23 361,-41 361,-41 361,-47 355,-53 349,-53 349,-53 313,-53 313,-53 307,-53 301,-47 301,-41 301,-41 301,-23 301,-23 301,-17 307,-11 313,-11"/>
</g>
<g id="clust10" class="cluster">
<title>outer_cluster_Tensor&#45;5</title>
</g>
<g id="clust11" class="cluster">
<title>cluster_Tensor&#45;5</title>
<path fill="#bebada" stroke="black" stroke-dasharray="5,2" d="M145,-327C145,-327 205,-327 205,-327 211,-327 217,-333 217,-339 217,-339 217,-357 217,-357 217,-363 211,-369 205,-369 205,-369 145,-369 145,-369 139,-369 133,-363 133,-357 133,-357 133,-339 133,-339 133,-333 139,-327 145,-327"/>
</g>
<g id="clust13" class="cluster">
<title>outer_cluster_Tensor&#45;11</title>
</g>
<g id="clust14" class="cluster">
<title>cluster_Tensor&#45;11</title>
<path fill="#bebada" stroke="black" stroke-dasharray="5,2" d="M239,-801C239,-801 295,-801 295,-801 301,-801 307,-807 307,-813 307,-813 307,-831 307,-831 307,-837 301,-843 295,-843 295,-843 239,-843 239,-843 233,-843 227,-837 227,-831 227,-831 227,-813 227,-813 227,-807 233,-801 239,-801"/>
</g>
<g id="clust16" class="cluster">
<title>outer_cluster_Tensor&#45;8</title>
</g>
<g id="clust17" class="cluster">
<title>cluster_Tensor&#45;8</title>
<path fill="#bebada" stroke="black" stroke-dasharray="5,2" d="M146,-564C146,-564 202,-564 202,-564 208,-564 214,-570 214,-576 214,-576 214,-594 214,-594 214,-600 208,-606 202,-606 202,-606 146,-606 146,-606 140,-606 134,-600 134,-594 134,-594 134,-576 134,-576 134,-570 140,-564 146,-564"/>
</g>
<g id="clust19" class="cluster">
<title>outer_cluster_Tensor&#45;3</title>
</g>
<g id="clust20" class="cluster">
<title>cluster_Tensor&#45;3</title>
<path fill="#bebada" stroke="black" stroke-dasharray="5,2" d="M152,-169C152,-169 226,-169 226,-169 232,-169 238,-175 238,-181 238,-181 238,-199 238,-199 238,-205 232,-211 226,-211 226,-211 152,-211 152,-211 146,-211 140,-205 140,-199 140,-199 140,-181 140,-181 140,-175 146,-169 152,-169"/>
</g>
<g id="clust22" class="cluster">
<title>outer_cluster_Tensor&#45;7</title>
</g>
<g id="clust23" class="cluster">
<title>cluster_Tensor&#45;7</title>
<path fill="#bebada" stroke="black" stroke-dasharray="5,2" d="M145,-485C145,-485 211,-485 211,-485 217,-485 223,-491 223,-497 223,-497 223,-515 223,-515 223,-521 217,-527 211,-527 211,-527 145,-527 145,-527 139,-527 133,-521 133,-515 133,-515 133,-497 133,-497 133,-491 139,-485 145,-485"/>
</g>
<g id="clust25" class="cluster">
<title>outer_cluster_Tensor&#45;9</title>
</g>
<g id="clust26" class="cluster">
<title>cluster_Tensor&#45;9</title>
<path fill="#bebada" stroke="black" stroke-dasharray="5,2" d="M210,-643C210,-643 272,-643 272,-643 278,-643 284,-649 284,-655 284,-655 284,-673 284,-673 284,-679 278,-685 272,-685 272,-685 210,-685 210,-685 204,-685 198,-679 198,-673 198,-673 198,-655 198,-655 198,-649 204,-643 210,-643"/>
</g>
<g id="clust28" class="cluster">
<title>outer_cluster_Tensor&#45;0</title>
</g>
<g id="clust29" class="cluster">
<title>cluster_Tensor&#45;0</title>
<path fill="#bebada" stroke="black" stroke-dasharray="5,2" d="M137,-90C137,-90 221,-90 221,-90 227,-90 233,-96 233,-102 233,-102 233,-120 233,-120 233,-126 227,-132 221,-132 221,-132 137,-132 137,-132 131,-132 125,-126 125,-120 125,-120 125,-102 125,-102 125,-96 131,-90 137,-90"/>
</g>
<g id="clust31" class="cluster">
<title>outer_cluster_Tensor&#45;6</title>
</g>
<g id="clust32" class="cluster">
<title>cluster_Tensor&#45;6</title>
<path fill="#bebada" stroke="black" stroke-dasharray="5,2" d="M145,-406C145,-406 211,-406 211,-406 217,-406 223,-412 223,-418 223,-418 223,-436 223,-436 223,-442 217,-448 211,-448 211,-448 145,-448 145,-448 139,-448 133,-442 133,-436 133,-436 133,-418 133,-418 133,-412 139,-406 145,-406"/>
</g>
<g id="clust34" class="cluster">
<title>outer_cluster_Tensor&#45;2</title>
</g>
<g id="clust35" class="cluster">
<title>cluster_Tensor&#45;2</title>
<path fill="#bebada" stroke="black" stroke-dasharray="5,2" d="M251,-90C251,-90 335,-90 335,-90 341,-90 347,-96 347,-102 347,-102 347,-120 347,-120 347,-126 341,-132 335,-132 335,-132 251,-132 251,-132 245,-132 239,-126 239,-120 239,-120 239,-102 239,-102 239,-96 245,-90 251,-90"/>
</g>
<g id="clust37" class="cluster">
<title>outer_cluster_Tensor&#45;1</title>
</g>
<g id="clust38" class="cluster">
<title>cluster_Tensor&#45;1</title>
<path fill="#bebada" stroke="black" stroke-dasharray="5,2" d="M23,-90C23,-90 107,-90 107,-90 113,-90 119,-96 119,-102 119,-102 119,-120 119,-120 119,-126 113,-132 107,-132 107,-132 23,-132 23,-132 17,-132 11,-126 11,-120 11,-120 11,-102 11,-102 11,-96 17,-90 23,-90"/>
</g>
<g id="clust40" class="cluster">
<title>outer_cluster_Tensor&#45;10</title>
</g>
<g id="clust41" class="cluster">
<title>cluster_Tensor&#45;10</title>
<path fill="#bebada" stroke="black" stroke-dasharray="5,2" d="M231,-722C231,-722 303,-722 303,-722 309,-722 315,-728 315,-734 315,-734 315,-752 315,-752 315,-758 309,-764 303,-764 303,-764 231,-764 231,-764 225,-764 219,-758 219,-752 219,-752 219,-734 219,-734 219,-728 225,-722 231,-722"/>
</g>
<g id="clust43" class="cluster">
<title>outer_cluster_Tensor&#45;4</title>
</g>
<g id="clust44" class="cluster">
<title>cluster_Tensor&#45;4</title>
<path fill="#bebada" stroke="black" stroke-dasharray="5,2" d="M164,-248C164,-248 214,-248 214,-248 220,-248 226,-254 226,-260 226,-260 226,-278 226,-278 226,-284 220,-290 214,-290 214,-290 164,-290 164,-290 158,-290 152,-284 152,-278 152,-278 152,-260 152,-260 152,-254 158,-248 164,-248"/>
</g>
<g id="clust46" class="cluster">
<title>outer_cluster_i64&#45;64</title>
</g>
<g id="clust47" class="cluster">
<title>cluster_i64&#45;64</title>
<path fill="#fb8072" stroke="black" stroke-dasharray="5,2" d="M111,-11C111,-11 147,-11 147,-11 153,-11 159,-17 159,-23 159,-23 159,-41 159,-41 159,-47 153,-53 147,-53 147,-53 111,-53 111,-53 105,-53 99,-47 99,-41 99,-41 99,-23 99,-23 99,-17 105,-11 111,-11"/>
</g>
<g id="clust49" class="cluster">
<title>outer_cluster_i64&#45;1024</title>
</g>
<g id="clust50" class="cluster">
<title>cluster_i64&#45;1024</title>
<path fill="#fb8072" stroke="black" stroke-dasharray="5,2" d="M177,-11C177,-11 213,-11 213,-11 219,-11 225,-17 225,-23 225,-23 225,-41 225,-41 225,-47 219,-53 213,-53 213,-53 177,-53 177,-53 171,-53 165,-47 165,-41 165,-41 165,-23 165,-23 165,-17 171,-11 177,-11"/>
</g>
<!-- function&#45;0&#45;R_max_m&#45;&gt;function&#45;0&#45;R_add_e -->
<g id="edge1" class="edge">
<title>function&#45;0&#45;R_max_m:s&#45;&gt;function&#45;0&#45;R_add_e</title>
<path fill="none" stroke="black" d="M176,-332C176,-318.53 178.98,-303.75 182.08,-292.01"/>
<polygon fill="black" stroke="black" points="182.11,-295.13 183.41,-290 179.19,-293.2 182.11,-295.13"/>
</g>
<!-- function&#45;0&#45;R_add_e&#45;&gt;function&#45;0&#45;M_mul_emp -->
<g id="edge22" class="edge">
<title>function&#45;0&#45;R_add_e:s&#45;&gt;function&#45;0&#45;M_mul_emp</title>
<path fill="none" stroke="black" d="M189,-253C189,-239.84 189,-225.11 189,-213.3"/>
<polygon fill="black" stroke="black" points="190.75,-216 189,-211 187.25,-216 190.75,-216"/>
</g>
<!-- function&#45;1&#45;R_add_m&#45;&gt;function&#45;0&#45;M_mul_fmp -->
<g id="edge2" class="edge">
<title>function&#45;1&#45;R_add_m:s&#45;&gt;function&#45;0&#45;M_mul_fmp</title>
<path fill="none" stroke="black" d="M267,-806C267,-792.84 267,-778.11 267,-766.3"/>
<polygon fill="black" stroke="black" points="268.75,-769 267,-764 265.25,-769 268.75,-769"/>
</g>
<!-- function&#45;0&#45;M_mul_fmp&#45;&gt;function&#45;0&#45;M_div_mp -->
<g id="edge20" class="edge">
<title>function&#45;0&#45;M_mul_fmp:s&#45;&gt;function&#45;0&#45;M_div_mp</title>
<path fill="none" stroke="black" d="M245,-727C245,-713.81 244.09,-699.08 243.13,-687.28"/>
<polygon fill="black" stroke="black" points="245.36,-689.58 242.7,-685 241.92,-690.24 245.36,-689.58"/>
</g>
<!-- function&#45;0&#45;M_mul_fmp&#45;&gt;function&#45;2&#45;CreateTensor -->
<g id="edge21" class="edge">
<title>function&#45;0&#45;M_mul_fmp:s&#45;&gt;function&#45;2&#45;CreateTensor</title>
<path fill="none" stroke="black" d="M289,-727C289,-664.31 293,-648.69 293,-586 293,-586 293,-586 293,-268 293,-220.58 293,-165.04 293,-134.68"/>
<polygon fill="black" stroke="black" points="294.75,-137 293,-132 291.25,-137 294.75,-137"/>
</g>
<!-- function&#45;0&#45;R_add_m&#45;&gt;function&#45;0&#45;M_exp_mp -->
<g id="edge3" class="edge">
<title>function&#45;0&#45;R_add_m:s&#45;&gt;function&#45;0&#45;M_exp_mp</title>
<path fill="none" stroke="black" d="M174,-569C174,-555.81 174.91,-541.08 175.87,-529.28"/>
<polygon fill="black" stroke="black" points="177.08,-532.24 176.3,-527 173.64,-531.58 177.08,-532.24"/>
</g>
<!-- function&#45;0&#45;M_exp_mp&#45;&gt;function&#45;0&#45;M_sub_mp -->
<g id="edge6" class="edge">
<title>function&#45;0&#45;M_exp_mp:s&#45;&gt;function&#45;0&#45;M_sub_mp</title>
<path fill="none" stroke="black" d="M178,-490C178,-476.84 178,-462.11 178,-450.3"/>
<polygon fill="black" stroke="black" points="179.75,-453 178,-448 176.25,-453 179.75,-453"/>
</g>
<!-- function&#45;0&#45;M_mul_emp&#45;&gt;function&#45;0&#45;CreateTensor -->
<g id="edge4" class="edge">
<title>function&#45;0&#45;M_mul_emp:s&#45;&gt;function&#45;0&#45;CreateTensor</title>
<path fill="none" stroke="black" d="M166,-174C166,-160.53 168.98,-145.75 172.08,-134.01"/>
<polygon fill="black" stroke="black" points="172.11,-137.13 173.41,-132 169.19,-135.2 172.11,-137.13"/>
</g>
<!-- function&#45;0&#45;M_mul_emp&#45;&gt;function&#45;1&#45;CreateTensor -->
<g id="edge5" class="edge">
<title>function&#45;0&#45;M_mul_emp:s&#45;&gt;function&#45;1&#45;CreateTensor</title>
<path fill="none" stroke="black" d="M212,-174C212,-171.41 161.87,-150.7 120.15,-133.92"/>
<polygon fill="black" stroke="black" points="120.66,-132.24 115.37,-132 119.36,-135.49 120.66,-132.24"/>
</g>
<!-- function&#45;0&#45;CreateTensor&#45;&gt;primitive&#45;String&#45;0 -->
<g id="edge11" class="edge">
<title>function&#45;0&#45;CreateTensor:s&#45;&gt;primitive&#45;String&#45;0</title>
<path fill="none" stroke="black" d="M217,-95C217,-79.23 226.59,-64.67 236.81,-53.63"/>
<polygon fill="black" stroke="black" points="234.38,-56.58 238.29,-53 233,-53.36 234.38,-56.58"/>
</g>
<!-- function&#45;0&#45;CreateTensor&#45;&gt;primitive&#45;i64&#45;64 -->
<g id="edge9" class="edge">
<title>function&#45;0&#45;CreateTensor:s&#45;&gt;primitive&#45;i64&#45;64</title>
<path fill="none" stroke="black" d="M154,-95C154,-80.86 148.34,-66.14 142.4,-54.59"/>
<polygon fill="black" stroke="black" points="145.62,-55.65 141.04,-53 142.97,-57.93 145.62,-55.65"/>
</g>
<!-- function&#45;0&#45;CreateTensor&#45;&gt;primitive&#45;i64&#45;1024 -->
<g id="edge10" class="edge">
<title>function&#45;0&#45;CreateTensor:s&#45;&gt;primitive&#45;i64&#45;1024</title>
<path fill="none" stroke="black" d="M192,-95C192,-81.82 192.68,-67.09 193.4,-55.29"/>
<polygon fill="black" stroke="black" points="194.75,-58.2 193.73,-53 191.29,-57.7 194.75,-58.2"/>
</g>
<!-- function&#45;1&#45;CreateTensor&#45;&gt;primitive&#45;String&#45;1 -->
<g id="edge19" class="edge">
<title>function&#45;1&#45;CreateTensor:s&#45;&gt;primitive&#45;String&#45;1</title>
<path fill="none" stroke="black" d="M103,-95C103,-79.71 94.31,-65.2 85.03,-54.07"/>
<polygon fill="black" stroke="black" points="88.65,-54.6 83.59,-53 86.55,-57.4 88.65,-54.6"/>
</g>
<!-- function&#45;1&#45;CreateTensor&#45;&gt;primitive&#45;i64&#45;64 -->
<g id="edge17" class="edge">
<title>function&#45;1&#45;CreateTensor:s&#45;&gt;primitive&#45;i64&#45;64</title>
<path fill="none" stroke="black" d="M40,-95C40,-93.16 73.04,-70.55 98.86,-53.16"/>
<polygon fill="black" stroke="black" points="99.99,-57.4 99,-52.2 96.53,-56.88 99.99,-57.4"/>
</g>
<!-- function&#45;1&#45;CreateTensor&#45;&gt;primitive&#45;i64&#45;1024 -->
<g id="edge18" class="edge">
<title>function&#45;1&#45;CreateTensor:s&#45;&gt;primitive&#45;i64&#45;1024</title>
<path fill="none" stroke="black" d="M78,-95C78,-54.64 124.83,-75.79 160,-56 160.21,-55.88 160.42,-55.76 160.64,-55.64"/>
<polygon fill="black" stroke="black" points="161.72,-57.03 165.15,-53 159.95,-54.01 161.72,-57.03"/>
</g>
<!-- function&#45;0&#45;M_sub_mp&#45;&gt;function&#45;0&#45;R_max_m -->
<g id="edge13" class="edge">
<title>function&#45;0&#45;M_sub_mp:s&#45;&gt;function&#45;0&#45;R_max_m</title>
<path fill="none" stroke="black" d="M199,-411C199,-397.06 193.66,-382.48 188.02,-370.96"/>
<polygon fill="black" stroke="black" points="190.95,-372.02 186.6,-369 188.12,-374.08 190.95,-372.02"/>
</g>
<!-- function&#45;0&#45;M_sub_mp&#45;&gt;function&#45;0&#45;R_add_e -->
<g id="edge12" class="edge">
<title>function&#45;0&#45;M_sub_mp:s&#45;&gt;function&#45;0&#45;R_add_e</title>
<path fill="none" stroke="black" d="M157,-411C157,-378.82 202.55,-400.22 218,-372 232.12,-346.22 217.35,-312.93 204.23,-291.52"/>
<polygon fill="black" stroke="black" points="207.4,-291.93 202.47,-290 205.12,-294.59 207.4,-291.93"/>
</g>
<!-- function&#45;0&#45;M_div_mp&#45;&gt;function&#45;0&#45;R_add_m -->
<g id="edge8" class="edge">
<title>function&#45;0&#45;M_div_mp:s&#45;&gt;function&#45;0&#45;R_add_m</title>
<path fill="none" stroke="black" d="M261,-648C261,-641.52 235.08,-623.64 211.54,-608.74"/>
<polygon fill="black" stroke="black" points="212.34,-607.18 207.18,-606 210.48,-610.14 212.34,-607.18"/>
</g>
<!-- function&#45;0&#45;M_div_mp&#45;&gt;function&#45;0&#45;M_exp_mp -->
<g id="edge7" class="edge">
<title>function&#45;0&#45;M_div_mp:s&#45;&gt;function&#45;0&#45;M_exp_mp</title>
<path fill="none" stroke="black" d="M221,-648C221,-609.24 227.73,-597.61 215,-561 210.92,-549.27 203.58,-537.72 196.51,-528.33"/>
<polygon fill="black" stroke="black" points="199.96,-529.5 195.29,-527 197.39,-531.87 199.96,-529.5"/>
</g>
<!-- function&#45;2&#45;CreateTensor&#45;&gt;primitive&#45;String&#45;2 -->
<g id="edge16" class="edge">
<title>function&#45;2&#45;CreateTensor:s&#45;&gt;primitive&#45;String&#45;2</title>
<path fill="none" stroke="black" d="M331,-95C331,-81.84 331,-67.11 331,-55.3"/>
<polygon fill="black" stroke="black" points="332.75,-58 331,-53 329.25,-58 332.75,-58"/>
</g>
<!-- function&#45;2&#45;CreateTensor&#45;&gt;primitive&#45;i64&#45;64 -->
<g id="edge14" class="edge">
<title>function&#45;2&#45;CreateTensor:s&#45;&gt;primitive&#45;i64&#45;64</title>
<path fill="none" stroke="black" d="M268,-95C268,-45.63 208.01,-78.36 164,-56 163.65,-55.82 163.31,-55.65 162.96,-55.47"/>
<polygon fill="black" stroke="black" points="163.67,-53.86 158.44,-53 161.99,-56.93 163.67,-53.86"/>
</g>
<!-- function&#45;2&#45;CreateTensor&#45;&gt;primitive&#45;i64&#45;1024 -->
<g id="edge15" class="edge">
<title>function&#45;2&#45;CreateTensor:s&#45;&gt;primitive&#45;i64&#45;1024</title>
<path fill="none" stroke="black" d="M306,-95C306,-57.03 262.8,-75.12 230,-56 229.79,-55.88 229.59,-55.76 229.38,-55.64"/>
<polygon fill="black" stroke="black" points="230.16,-54.07 224.98,-53 228.36,-57.07 230.16,-54.07"/>
</g>
<!-- primitive&#45;String&#45;0 -->
<g id="node1" class="node">
<title>primitive&#45;String&#45;0</title>
<g id="a_node1"><a xlink:title="String&#45;0: primitive&#45;String&#45;0">
<path fill="white" stroke="transparent" d="M254.17,-16C254.17,-16 267.83,-16 267.83,-16 273.17,-16 278.5,-21.33 278.5,-26.67 278.5,-26.67 278.5,-37.33 278.5,-37.33 278.5,-42.67 273.17,-48 267.83,-48 267.83,-48 254.17,-48 254.17,-48 248.83,-48 243.5,-42.67 243.5,-37.33 243.5,-37.33 243.5,-26.67 243.5,-26.67 243.5,-21.33 248.83,-16 254.17,-16"/>
<text text-anchor="start" x="249" y="-28.3" font-family="Helvetica,sans-Serif" font-size="14.00">&quot;Q&quot;</text>
<path fill="none" stroke="black" d="M254.17,-16C254.17,-16 267.83,-16 267.83,-16 273.17,-16 278.5,-21.33 278.5,-26.67 278.5,-26.67 278.5,-37.33 278.5,-37.33 278.5,-42.67 273.17,-48 267.83,-48 267.83,-48 254.17,-48 254.17,-48 248.83,-48 243.5,-42.67 243.5,-37.33 243.5,-37.33 243.5,-26.67 243.5,-26.67 243.5,-21.33 248.83,-16 254.17,-16"/>
</a>
</g>
</g>
<!-- primitive&#45;String&#45;1 -->
<g id="node2" class="node">
<title>primitive&#45;String&#45;1</title>
<g id="a_node2"><a xlink:title="String&#45;1: primitive&#45;String&#45;1">
<path fill="white" stroke="transparent" d="M57.17,-16C57.17,-16 68.83,-16 68.83,-16 74.17,-16 79.5,-21.33 79.5,-26.67 79.5,-26.67 79.5,-37.33 79.5,-37.33 79.5,-42.67 74.17,-48 68.83,-48 68.83,-48 57.17,-48 57.17,-48 51.83,-48 46.5,-42.67 46.5,-37.33 46.5,-37.33 46.5,-26.67 46.5,-26.67 46.5,-21.33 51.83,-16 57.17,-16"/>
<text text-anchor="start" x="52" y="-28.3" font-family="Helvetica,sans-Serif" font-size="14.00">&quot;K&quot;</text>
<path fill="none" stroke="black" d="M57.17,-16C57.17,-16 68.83,-16 68.83,-16 74.17,-16 79.5,-21.33 79.5,-26.67 79.5,-26.67 79.5,-37.33 79.5,-37.33 79.5,-42.67 74.17,-48 68.83,-48 68.83,-48 57.17,-48 57.17,-48 51.83,-48 46.5,-42.67 46.5,-37.33 46.5,-37.33 46.5,-26.67 46.5,-26.67 46.5,-21.33 51.83,-16 57.17,-16"/>
</a>
</g>
</g>
<!-- primitive&#45;String&#45;2 -->
<g id="node3" class="node">
<title>primitive&#45;String&#45;2</title>
<g id="a_node3"><a xlink:title="String&#45;2: primitive&#45;String&#45;2">
<path fill="white" stroke="transparent" d="M324.67,-16C324.67,-16 337.33,-16 337.33,-16 342.67,-16 348,-21.33 348,-26.67 348,-26.67 348,-37.33 348,-37.33 348,-42.67 342.67,-48 337.33,-48 337.33,-48 324.67,-48 324.67,-48 319.33,-48 314,-42.67 314,-37.33 314,-37.33 314,-26.67 314,-26.67 314,-21.33 319.33,-16 324.67,-16"/>
<text text-anchor="start" x="319" y="-28.3" font-family="Helvetica,sans-Serif" font-size="14.00">&quot;V&quot;</text>
<path fill="none" stroke="black" d="M324.67,-16C324.67,-16 337.33,-16 337.33,-16 342.67,-16 348,-21.33 348,-26.67 348,-26.67 348,-37.33 348,-37.33 348,-42.67 342.67,-48 337.33,-48 337.33,-48 324.67,-48 324.67,-48 319.33,-48 314,-42.67 314,-37.33 314,-37.33 314,-26.67 314,-26.67 314,-21.33 319.33,-16 324.67,-16"/>
</a>
</g>
</g>
<!-- function&#45;0&#45;R_max_m -->
<g id="node4" class="node">
<title>function&#45;0&#45;R_max_m</title>
<g id="a_node4"><a xlink:title="Tensor&#45;5: function&#45;0&#45;R_max_m">
<path fill="white" stroke="transparent" d="M147.17,-332C147.17,-332 202.83,-332 202.83,-332 208.17,-332 213.5,-337.33 213.5,-342.67 213.5,-342.67 213.5,-353.33 213.5,-353.33 213.5,-358.67 208.17,-364 202.83,-364 202.83,-364 147.17,-364 147.17,-364 141.83,-364 136.5,-358.67 136.5,-353.33 136.5,-353.33 136.5,-342.67 136.5,-342.67 136.5,-337.33 141.83,-332 147.17,-332"/>
<text text-anchor="start" x="142" y="-344.3" font-family="Helvetica,sans-Serif" font-size="14.00">R_max_m</text>
<path fill="none" stroke="black" d="M147.17,-332C147.17,-332 202.83,-332 202.83,-332 208.17,-332 213.5,-337.33 213.5,-342.67 213.5,-342.67 213.5,-353.33 213.5,-353.33 213.5,-358.67 208.17,-364 202.83,-364 202.83,-364 147.17,-364 147.17,-364 141.83,-364 136.5,-358.67 136.5,-353.33 136.5,-353.33 136.5,-342.67 136.5,-342.67 136.5,-337.33 141.83,-332 147.17,-332"/>
</a>
</g>
</g>
<!-- function&#45;0&#45;R_add_e -->
<g id="node5" class="node">
<title>function&#45;0&#45;R_add_e</title>
<g id="a_node5"><a xlink:title="Tensor&#45;4: function&#45;0&#45;R_add_e">
<path fill="white" stroke="transparent" d="M165.67,-253C165.67,-253 212.33,-253 212.33,-253 217.67,-253 223,-258.33 223,-263.67 223,-263.67 223,-274.33 223,-274.33 223,-279.67 217.67,-285 212.33,-285 212.33,-285 165.67,-285 165.67,-285 160.33,-285 155,-279.67 155,-274.33 155,-274.33 155,-263.67 155,-263.67 155,-258.33 160.33,-253 165.67,-253"/>
<text text-anchor="start" x="160" y="-265.3" font-family="Helvetica,sans-Serif" font-size="14.00">R_add_e</text>
<path fill="none" stroke="black" d="M165.67,-253C165.67,-253 212.33,-253 212.33,-253 217.67,-253 223,-258.33 223,-263.67 223,-263.67 223,-274.33 223,-274.33 223,-279.67 217.67,-285 212.33,-285 212.33,-285 165.67,-285 165.67,-285 160.33,-285 155,-279.67 155,-274.33 155,-274.33 155,-263.67 155,-263.67 155,-258.33 160.33,-253 165.67,-253"/>
</a>
</g>
</g>
<!-- function&#45;1&#45;R_add_m -->
<g id="node6" class="node">
<title>function&#45;1&#45;R_add_m</title>
<g id="a_node6"><a xlink:title="Tensor&#45;11: function&#45;1&#45;R_add_m">
<path fill="white" stroke="transparent" d="M240.67,-806C240.67,-806 293.33,-806 293.33,-806 298.67,-806 304,-811.33 304,-816.67 304,-816.67 304,-827.33 304,-827.33 304,-832.67 298.67,-838 293.33,-838 293.33,-838 240.67,-838 240.67,-838 235.33,-838 230,-832.67 230,-827.33 230,-827.33 230,-816.67 230,-816.67 230,-811.33 235.33,-806 240.67,-806"/>
<text text-anchor="start" x="235" y="-818.3" font-family="Helvetica,sans-Serif" font-size="14.00">R_add_m</text>
<path fill="none" stroke="black" d="M240.67,-806C240.67,-806 293.33,-806 293.33,-806 298.67,-806 304,-811.33 304,-816.67 304,-816.67 304,-827.33 304,-827.33 304,-832.67 298.67,-838 293.33,-838 293.33,-838 240.67,-838 240.67,-838 235.33,-838 230,-832.67 230,-827.33 230,-827.33 230,-816.67 230,-816.67 230,-811.33 235.33,-806 240.67,-806"/>
</a>
</g>
</g>
<!-- function&#45;0&#45;M_mul_fmp -->
<g id="node7" class="node">
<title>function&#45;0&#45;M_mul_fmp</title>
<g id="a_node7"><a xlink:title="Tensor&#45;10: function&#45;0&#45;M_mul_fmp">
<path fill="white" stroke="transparent" d="M232.67,-727C232.67,-727 301.33,-727 301.33,-727 306.67,-727 312,-732.33 312,-737.67 312,-737.67 312,-748.33 312,-748.33 312,-753.67 306.67,-759 301.33,-759 301.33,-759 232.67,-759 232.67,-759 227.33,-759 222,-753.67 222,-748.33 222,-748.33 222,-737.67 222,-737.67 222,-732.33 227.33,-727 232.67,-727"/>
<text text-anchor="start" x="227" y="-739.3" font-family="Helvetica,sans-Serif" font-size="14.00">M_mul_fmp</text>
<path fill="none" stroke="black" d="M232.67,-727C232.67,-727 301.33,-727 301.33,-727 306.67,-727 312,-732.33 312,-737.67 312,-737.67 312,-748.33 312,-748.33 312,-753.67 306.67,-759 301.33,-759 301.33,-759 232.67,-759 232.67,-759 227.33,-759 222,-753.67 222,-748.33 222,-748.33 222,-737.67 222,-737.67 222,-732.33 227.33,-727 232.67,-727"/>
</a>
</g>
</g>
<!-- function&#45;0&#45;R_add_m -->
<g id="node8" class="node">
<title>function&#45;0&#45;R_add_m</title>
<g id="a_node8"><a xlink:title="Tensor&#45;8: function&#45;0&#45;R_add_m">
<path fill="white" stroke="transparent" d="M147.67,-569C147.67,-569 200.33,-569 200.33,-569 205.67,-569 211,-574.33 211,-579.67 211,-579.67 211,-590.33 211,-590.33 211,-595.67 205.67,-601 200.33,-601 200.33,-601 147.67,-601 147.67,-601 142.33,-601 137,-595.67 137,-590.33 137,-590.33 137,-579.67 137,-579.67 137,-574.33 142.33,-569 147.67,-569"/>
<text text-anchor="start" x="142" y="-581.3" font-family="Helvetica,sans-Serif" font-size="14.00">R_add_m</text>
<path fill="none" stroke="black" d="M147.67,-569C147.67,-569 200.33,-569 200.33,-569 205.67,-569 211,-574.33 211,-579.67 211,-579.67 211,-590.33 211,-590.33 211,-595.67 205.67,-601 200.33,-601 200.33,-601 147.67,-601 147.67,-601 142.33,-601 137,-595.67 137,-590.33 137,-590.33 137,-579.67 137,-579.67 137,-574.33 142.33,-569 147.67,-569"/>
</a>
</g>
</g>
<!-- function&#45;0&#45;M_exp_mp -->
<g id="node9" class="node">
<title>function&#45;0&#45;M_exp_mp</title>
<g id="a_node9"><a xlink:title="Tensor&#45;7: function&#45;0&#45;M_exp_mp">
<path fill="white" stroke="transparent" d="M146.67,-490C146.67,-490 209.33,-490 209.33,-490 214.67,-490 220,-495.33 220,-500.67 220,-500.67 220,-511.33 220,-511.33 220,-516.67 214.67,-522 209.33,-522 209.33,-522 146.67,-522 146.67,-522 141.33,-522 136,-516.67 136,-511.33 136,-511.33 136,-500.67 136,-500.67 136,-495.33 141.33,-490 146.67,-490"/>
<text text-anchor="start" x="141" y="-502.3" font-family="Helvetica,sans-Serif" font-size="14.00">M_exp_mp</text>
<path fill="none" stroke="black" d="M146.67,-490C146.67,-490 209.33,-490 209.33,-490 214.67,-490 220,-495.33 220,-500.67 220,-500.67 220,-511.33 220,-511.33 220,-516.67 214.67,-522 209.33,-522 209.33,-522 146.67,-522 146.67,-522 141.33,-522 136,-516.67 136,-511.33 136,-511.33 136,-500.67 136,-500.67 136,-495.33 141.33,-490 146.67,-490"/>
</a>
</g>
</g>
<!-- function&#45;0&#45;M_mul_emp -->
<g id="node10" class="node">
<title>function&#45;0&#45;M_mul_emp</title>
<g id="a_node10"><a xlink:title="Tensor&#45;3: function&#45;0&#45;M_mul_emp">
<path fill="white" stroke="transparent" d="M153.17,-174C153.17,-174 224.83,-174 224.83,-174 230.17,-174 235.5,-179.33 235.5,-184.67 235.5,-184.67 235.5,-195.33 235.5,-195.33 235.5,-200.67 230.17,-206 224.83,-206 224.83,-206 153.17,-206 153.17,-206 147.83,-206 142.5,-200.67 142.5,-195.33 142.5,-195.33 142.5,-184.67 142.5,-184.67 142.5,-179.33 147.83,-174 153.17,-174"/>
<text text-anchor="start" x="148" y="-186.3" font-family="Helvetica,sans-Serif" font-size="14.00">M_mul_emp</text>
<path fill="none" stroke="black" d="M153.17,-174C153.17,-174 224.83,-174 224.83,-174 230.17,-174 235.5,-179.33 235.5,-184.67 235.5,-184.67 235.5,-195.33 235.5,-195.33 235.5,-200.67 230.17,-206 224.83,-206 224.83,-206 153.17,-206 153.17,-206 147.83,-206 142.5,-200.67 142.5,-195.33 142.5,-195.33 142.5,-184.67 142.5,-184.67 142.5,-179.33 147.83,-174 153.17,-174"/>
</a>
</g>
</g>
<!-- function&#45;0&#45;CreateTensor -->
<g id="node11" class="node">
<title>function&#45;0&#45;CreateTensor</title>
<g id="a_node11"><a xlink:title="Tensor&#45;0: function&#45;0&#45;CreateTensor">
<path fill="white" stroke="transparent" d="M139.17,-95C139.17,-95 218.83,-95 218.83,-95 224.17,-95 229.5,-100.33 229.5,-105.67 229.5,-105.67 229.5,-116.33 229.5,-116.33 229.5,-121.67 224.17,-127 218.83,-127 218.83,-127 139.17,-127 139.17,-127 133.83,-127 128.5,-121.67 128.5,-116.33 128.5,-116.33 128.5,-105.67 128.5,-105.67 128.5,-100.33 133.83,-95 139.17,-95"/>
<text text-anchor="start" x="134" y="-107.3" font-family="Helvetica,sans-Serif" font-size="14.00">CreateTensor</text>
<path fill="none" stroke="black" d="M139.17,-95C139.17,-95 218.83,-95 218.83,-95 224.17,-95 229.5,-100.33 229.5,-105.67 229.5,-105.67 229.5,-116.33 229.5,-116.33 229.5,-121.67 224.17,-127 218.83,-127 218.83,-127 139.17,-127 139.17,-127 133.83,-127 128.5,-121.67 128.5,-116.33 128.5,-116.33 128.5,-105.67 128.5,-105.67 128.5,-100.33 133.83,-95 139.17,-95"/>
</a>
</g>
</g>
<!-- function&#45;1&#45;CreateTensor -->
<g id="node12" class="node">
<title>function&#45;1&#45;CreateTensor</title>
<g id="a_node12"><a xlink:title="Tensor&#45;1: function&#45;1&#45;CreateTensor">
<path fill="white" stroke="transparent" d="M25.17,-95C25.17,-95 104.83,-95 104.83,-95 110.17,-95 115.5,-100.33 115.5,-105.67 115.5,-105.67 115.5,-116.33 115.5,-116.33 115.5,-121.67 110.17,-127 104.83,-127 104.83,-127 25.17,-127 25.17,-127 19.83,-127 14.5,-121.67 14.5,-116.33 14.5,-116.33 14.5,-105.67 14.5,-105.67 14.5,-100.33 19.83,-95 25.17,-95"/>
<text text-anchor="start" x="20" y="-107.3" font-family="Helvetica,sans-Serif" font-size="14.00">CreateTensor</text>
<path fill="none" stroke="black" d="M25.17,-95C25.17,-95 104.83,-95 104.83,-95 110.17,-95 115.5,-100.33 115.5,-105.67 115.5,-105.67 115.5,-116.33 115.5,-116.33 115.5,-121.67 110.17,-127 104.83,-127 104.83,-127 25.17,-127 25.17,-127 19.83,-127 14.5,-121.67 14.5,-116.33 14.5,-116.33 14.5,-105.67 14.5,-105.67 14.5,-100.33 19.83,-95 25.17,-95"/>
</a>
</g>
</g>
<!-- function&#45;0&#45;M_sub_mp -->
<g id="node13" class="node">
<title>function&#45;0&#45;M_sub_mp</title>
<g id="a_node13"><a xlink:title="Tensor&#45;6: function&#45;0&#45;M_sub_mp">
<path fill="white" stroke="transparent" d="M146.67,-411C146.67,-411 209.33,-411 209.33,-411 214.67,-411 220,-416.33 220,-421.67 220,-421.67 220,-432.33 220,-432.33 220,-437.67 214.67,-443 209.33,-443 209.33,-443 146.67,-443 146.67,-443 141.33,-443 136,-437.67 136,-432.33 136,-432.33 136,-421.67 136,-421.67 136,-416.33 141.33,-411 146.67,-411"/>
<text text-anchor="start" x="141" y="-423.3" font-family="Helvetica,sans-Serif" font-size="14.00">M_sub_mp</text>
<path fill="none" stroke="black" d="M146.67,-411C146.67,-411 209.33,-411 209.33,-411 214.67,-411 220,-416.33 220,-421.67 220,-421.67 220,-432.33 220,-432.33 220,-437.67 214.67,-443 209.33,-443 209.33,-443 146.67,-443 146.67,-443 141.33,-443 136,-437.67 136,-432.33 136,-432.33 136,-421.67 136,-421.67 136,-416.33 141.33,-411 146.67,-411"/>
</a>
</g>
</g>
<!-- function&#45;0&#45;M_div_mp -->
<g id="node14" class="node">
<title>function&#45;0&#45;M_div_mp</title>
<g id="a_node14"><a xlink:title="Tensor&#45;9: function&#45;0&#45;M_div_mp">
<path fill="white" stroke="transparent" d="M211.67,-648C211.67,-648 270.33,-648 270.33,-648 275.67,-648 281,-653.33 281,-658.67 281,-658.67 281,-669.33 281,-669.33 281,-674.67 275.67,-680 270.33,-680 270.33,-680 211.67,-680 211.67,-680 206.33,-680 201,-674.67 201,-669.33 201,-669.33 201,-658.67 201,-658.67 201,-653.33 206.33,-648 211.67,-648"/>
<text text-anchor="start" x="206" y="-660.3" font-family="Helvetica,sans-Serif" font-size="14.00">M_div_mp</text>
<path fill="none" stroke="black" d="M211.67,-648C211.67,-648 270.33,-648 270.33,-648 275.67,-648 281,-653.33 281,-658.67 281,-658.67 281,-669.33 281,-669.33 281,-674.67 275.67,-680 270.33,-680 270.33,-680 211.67,-680 211.67,-680 206.33,-680 201,-674.67 201,-669.33 201,-669.33 201,-658.67 201,-658.67 201,-653.33 206.33,-648 211.67,-648"/>
</a>
</g>
</g>
<!-- primitive&#45;i64&#45;64 -->
<g id="node15" class="node">
<title>primitive&#45;i64&#45;64</title>
<g id="a_node15"><a xlink:title="i64&#45;64: primitive&#45;i64&#45;64">
<path fill="white" stroke="transparent" d="M123.67,-16C123.67,-16 134.33,-16 134.33,-16 139.67,-16 145,-21.33 145,-26.67 145,-26.67 145,-37.33 145,-37.33 145,-42.67 139.67,-48 134.33,-48 134.33,-48 123.67,-48 123.67,-48 118.33,-48 113,-42.67 113,-37.33 113,-37.33 113,-26.67 113,-26.67 113,-21.33 118.33,-16 123.67,-16"/>
<text text-anchor="start" x="119.5" y="-28.3" font-family="Helvetica,sans-Serif" font-size="14.00">64</text>
<path fill="none" stroke="black" d="M123.67,-16C123.67,-16 134.33,-16 134.33,-16 139.67,-16 145,-21.33 145,-26.67 145,-26.67 145,-37.33 145,-37.33 145,-42.67 139.67,-48 134.33,-48 134.33,-48 123.67,-48 123.67,-48 118.33,-48 113,-42.67 113,-37.33 113,-37.33 113,-26.67 113,-26.67 113,-21.33 118.33,-16 123.67,-16"/>
</a>
</g>
</g>
<!-- primitive&#45;i64&#45;1024 -->
<g id="node16" class="node">
<title>primitive&#45;i64&#45;1024</title>
<g id="a_node16"><a xlink:title="i64&#45;1024: primitive&#45;i64&#45;1024">
<path fill="white" stroke="transparent" d="M182.17,-16C182.17,-16 207.83,-16 207.83,-16 213.17,-16 218.5,-21.33 218.5,-26.67 218.5,-26.67 218.5,-37.33 218.5,-37.33 218.5,-42.67 213.17,-48 207.83,-48 207.83,-48 182.17,-48 182.17,-48 176.83,-48 171.5,-42.67 171.5,-37.33 171.5,-37.33 171.5,-26.67 171.5,-26.67 171.5,-21.33 176.83,-16 182.17,-16"/>
<text text-anchor="start" x="177" y="-28.3" font-family="Helvetica,sans-Serif" font-size="14.00">1024</text>
<path fill="none" stroke="black" d="M182.17,-16C182.17,-16 207.83,-16 207.83,-16 213.17,-16 218.5,-21.33 218.5,-26.67 218.5,-26.67 218.5,-37.33 218.5,-37.33 218.5,-42.67 213.17,-48 207.83,-48 207.83,-48 182.17,-48 182.17,-48 176.83,-48 171.5,-42.67 171.5,-37.33 171.5,-37.33 171.5,-26.67 171.5,-26.67 171.5,-21.33 176.83,-16 182.17,-16"/>
</a>
</g>
</g>
<!-- function&#45;2&#45;CreateTensor -->
<g id="node17" class="node">
<title>function&#45;2&#45;CreateTensor</title>
<g id="a_node17"><a xlink:title="Tensor&#45;2: function&#45;2&#45;CreateTensor">
<path fill="white" stroke="transparent" d="M253.17,-95C253.17,-95 332.83,-95 332.83,-95 338.17,-95 343.5,-100.33 343.5,-105.67 343.5,-105.67 343.5,-116.33 343.5,-116.33 343.5,-121.67 338.17,-127 332.83,-127 332.83,-127 253.17,-127 253.17,-127 247.83,-127 242.5,-121.67 242.5,-116.33 242.5,-116.33 242.5,-105.67 242.5,-105.67 242.5,-100.33 247.83,-95 253.17,-95"/>
<text text-anchor="start" x="248" y="-107.3" font-family="Helvetica,sans-Serif" font-size="14.00">CreateTensor</text>
<path fill="none" stroke="black" d="M253.17,-95C253.17,-95 332.83,-95 332.83,-95 338.17,-95 343.5,-100.33 343.5,-105.67 343.5,-105.67 343.5,-116.33 343.5,-116.33 343.5,-121.67 338.17,-127 332.83,-127 332.83,-127 253.17,-127 253.17,-127 247.83,-127 242.5,-121.67 242.5,-116.33 242.5,-116.33 242.5,-105.67 242.5,-105.67 242.5,-100.33 247.83,-95 253.17,-95"/>
</a>
</g>
</g>
</g>
</svg>
