<?xml version="1.0" encoding="UTF-8" standalone="no"?>
<!DOCTYPE svg PUBLIC "-//W3C//DTD SVG 1.1//EN"
 "http://www.w3.org/Graphics/SVG/1.1/DTD/svg11.dtd">
<!-- Generated by graphviz version 2.43.0 (0)
 -->
<!-- Title: %3 Pages: 1 -->
<svg width="380pt" height="625pt"
 viewBox="0.00 0.00 380.00 625.00" xmlns="http://www.w3.org/2000/svg" xmlns:xlink="http://www.w3.org/1999/xlink">
<g id="graph0" class="graph" transform="scale(1 1) rotate(0) translate(4 621)">
<title>%3</title>
<polygon fill="white" stroke="#000000" points="-4,4 -4,-621 376,-621 376,4 -4,4"/>
<g id="clust1" class="cluster">
<title>outer_cluster_String&#45;1</title>
</g>
<g id="clust2" class="cluster">
<title>cluster_String&#45;1</title>
<path fill="#ffffb3" stroke="black" stroke-dasharray="5,2" d="M45,-11C45,-11 81,-11 81,-11 87,-11 93,-17 93,-23 93,-23 93,-41 93,-41 93,-47 87,-53 81,-53 81,-53 45,-53 45,-53 39,-53 33,-47 33,-41 33,-41 33,-23 33,-23 33,-17 39,-11 45,-11"/>
</g>
<g id="clust4" class="cluster">
<title>outer_cluster_String&#45;2</title>
</g>
<g id="clust5" class="cluster">
<title>cluster_String&#45;2</title>
<path fill="#ffffb3" stroke="black" stroke-dasharray="5,2" d="M313,-11C313,-11 349,-11 349,-11 355,-11 361,-17 361,-23 361,-23 361,-41 361,-41 361,-47 355,-53 349,-53 349,-53 313,-53 313,-53 307,-53 301,-47 301,-41 301,-41 301,-23 301,-23 301,-17 307,-11 313,-11"/>
</g>
<g id="clust7" class="cluster">
<title>outer_cluster_String&#45;0</title>
</g>
<g id="clust8" class="cluster">
<title>cluster_String&#45;0</title>
<path fill="#ffffb3" stroke="black" stroke-dasharray="5,2" d="M243,-11C243,-11 279,-11 279,-11 285,-11 291,-17 291,-23 291,-23 291,-41 291,-41 291,-47 285,-53 279,-53 279,-53 243,-53 243,-53 237,-53 231,-47 231,-41 231,-41 231,-23 231,-23 231,-17 237,-11 243,-11"/>
</g>
<g id="clust10" class="cluster">
<title>outer_cluster_Tensor&#45;2</title>
</g>
<g id="clust11" class="cluster">
<title>cluster_Tensor&#45;2</title>
<path fill="#bebada" stroke="black" stroke-dasharray="5,2" d="M251,-90C251,-90 335,-90 335,-90 341,-90 347,-96 347,-102 347,-102 347,-120 347,-120 347,-126 341,-132 335,-132 335,-132 251,-132 251,-132 245,-132 239,-126 239,-120 239,-120 239,-102 239,-102 239,-96 245,-90 251,-90"/>
</g>
<g id="clust13" class="cluster">
<title>outer_cluster_Tensor&#45;3</title>
</g>
<g id="clust14" class="cluster">
<title>cluster_Tensor&#45;3</title>
<path fill="#bebada" stroke="black" stroke-dasharray="5,2" d="M56,-169C56,-169 196,-169 196,-169 202,-169 208,-175 208,-181 208,-181 208,-199 208,-199 208,-205 202,-211 196,-211 196,-211 56,-211 56,-211 50,-211 44,-205 44,-199 44,-199 44,-181 44,-181 44,-175 50,-169 56,-169"/>
</g>
<g id="clust16" class="cluster">
<title>outer_cluster_Tensor&#45;8</title>
</g>
<g id="clust17" class="cluster">
<title>cluster_Tensor&#45;8</title>
<path fill="#bebada" stroke="black" stroke-dasharray="5,2" d="M158,-564C158,-564 300,-564 300,-564 306,-564 312,-570 312,-576 312,-576 312,-594 312,-594 312,-600 306,-606 300,-606 300,-606 158,-606 158,-606 152,-606 146,-600 146,-594 146,-594 146,-576 146,-576 146,-570 152,-564 158,-564"/>
</g>
<g id="clust19" class="cluster">
<title>outer_cluster_Tensor&#45;7</title>
</g>
<g id="clust20" class="cluster">
<title>cluster_Tensor&#45;7</title>
<path fill="#bebada" stroke="black" stroke-dasharray="5,2" d="M105,-485C105,-485 225,-485 225,-485 231,-485 237,-491 237,-497 237,-497 237,-515 237,-515 237,-521 231,-527 225,-527 225,-527 105,-527 105,-527 99,-527 93,-521 93,-515 93,-515 93,-497 93,-497 93,-491 99,-485 105,-485"/>
</g>
<g id="clust22" class="cluster">
<title>outer_cluster_Tensor&#45;5</title>
</g>
<g id="clust23" class="cluster">
<title>cluster_Tensor&#45;5</title>
<path fill="#bebada" stroke="black" stroke-dasharray="5,2" d="M51,-327C51,-327 199,-327 199,-327 205,-327 211,-333 211,-339 211,-339 211,-357 211,-357 211,-363 205,-369 199,-369 199,-369 51,-369 51,-369 45,-369 39,-363 39,-357 39,-357 39,-339 39,-339 39,-333 45,-327 51,-327"/>
</g>
<g id="clust25" class="cluster">
<title>outer_cluster_Tensor&#45;6</title>
</g>
<g id="clust26" class="cluster">
<title>cluster_Tensor&#45;6</title>
<path fill="#bebada" stroke="black" stroke-dasharray="5,2" d="M126,-406C126,-406 272,-406 272,-406 278,-406 284,-412 284,-418 284,-418 284,-436 284,-436 284,-442 278,-448 272,-448 272,-448 126,-448 126,-448 120,-448 114,-442 114,-436 114,-436 114,-418 114,-418 114,-412 120,-406 126,-406"/>
</g>
<g id="clust28" class="cluster">
<title>outer_cluster_Tensor&#45;0</title>
</g>
<g id="clust29" class="cluster">
<title>cluster_Tensor&#45;0</title>
<path fill="#bebada" stroke="black" stroke-dasharray="5,2" d="M137,-90C137,-90 221,-90 221,-90 227,-90 233,-96 233,-102 233,-102 233,-120 233,-120 233,-126 227,-132 221,-132 221,-132 137,-132 137,-132 131,-132 125,-126 125,-120 125,-120 125,-102 125,-102 125,-96 131,-90 137,-90"/>
</g>
<g id="clust31" class="cluster">
<title>outer_cluster_Tensor&#45;1</title>
</g>
<g id="clust32" class="cluster">
<title>cluster_Tensor&#45;1</title>
<path fill="#bebada" stroke="black" stroke-dasharray="5,2" d="M23,-90C23,-90 107,-90 107,-90 113,-90 119,-96 119,-102 119,-102 119,-120 119,-120 119,-126 113,-132 107,-132 107,-132 23,-132 23,-132 17,-132 11,-126 11,-120 11,-120 11,-102 11,-102 11,-96 17,-90 23,-90"/>
</g>
<g id="clust34" class="cluster">
<title>outer_cluster_Tensor&#45;4</title>
</g>
<g id="clust35" class="cluster">
<title>cluster_Tensor&#45;4</title>
<path fill="#bebada" stroke="black" stroke-dasharray="5,2" d="M99,-248C99,-248 247,-248 247,-248 253,-248 259,-254 259,-260 259,-260 259,-278 259,-278 259,-284 253,-290 247,-290 247,-290 99,-290 99,-290 93,-290 87,-284 87,-278 87,-278 87,-260 87,-260 87,-254 93,-248 99,-248"/>
</g>
<g id="clust37" class="cluster">
<title>outer_cluster_i64&#45;64</title>
</g>
<g id="clust38" class="cluster">
<title>cluster_i64&#45;64</title>
<path fill="#fb8072" stroke="black" stroke-dasharray="5,2" d="M111,-11C111,-11 147,-11 147,-11 153,-11 159,-17 159,-23 159,-23 159,-41 159,-41 159,-47 153,-53 147,-53 147,-53 111,-53 111,-53 105,-53 99,-47 99,-41 99,-41 99,-23 99,-23 99,-17 105,-11 111,-11"/>
</g>
<g id="clust40" class="cluster">
<title>outer_cluster_i64&#45;1024</title>
</g>
<g id="clust41" class="cluster">
<title>cluster_i64&#45;1024</title>
<path fill="#fb8072" stroke="black" stroke-dasharray="5,2" d="M177,-11C177,-11 213,-11 213,-11 219,-11 225,-17 225,-23 225,-23 225,-41 225,-41 225,-47 219,-53 213,-53 213,-53 177,-53 177,-53 171,-53 165,-47 165,-41 165,-41 165,-23 165,-23 165,-17 171,-11 177,-11"/>
</g>
<!-- function&#45;2&#45;CreateTensor&#45;&gt;primitive&#45;String&#45;2 -->
<g id="edge3" class="edge">
<title>function&#45;2&#45;CreateTensor:s&#45;&gt;primitive&#45;String&#45;2</title>
<path fill="none" stroke="black" d="M331,-95C331,-81.84 331,-67.11 331,-55.3"/>
<polygon fill="black" stroke="black" points="332.75,-58 331,-53 329.25,-58 332.75,-58"/>
</g>
<!-- function&#45;2&#45;CreateTensor&#45;&gt;primitive&#45;i64&#45;64 -->
<g id="edge1" class="edge">
<title>function&#45;2&#45;CreateTensor:s&#45;&gt;primitive&#45;i64&#45;64</title>
<path fill="none" stroke="black" d="M268,-95C268,-45.63 208.01,-78.36 164,-56 163.65,-55.82 163.31,-55.65 162.96,-55.47"/>
<polygon fill="black" stroke="black" points="163.67,-53.86 158.44,-53 161.99,-56.93 163.67,-53.86"/>
</g>
<!-- function&#45;2&#45;CreateTensor&#45;&gt;primitive&#45;i64&#45;1024 -->
<g id="edge2" class="edge">
<title>function&#45;2&#45;CreateTensor:s&#45;&gt;primitive&#45;i64&#45;1024</title>
<path fill="none" stroke="black" d="M306,-95C306,-57.03 262.8,-75.12 230,-56 229.79,-55.88 229.59,-55.76 229.38,-55.64"/>
<polygon fill="black" stroke="black" points="230.16,-54.07 224.98,-53 228.36,-57.07 230.16,-54.07"/>
</g>
<!-- function&#45;0&#45;M_mul_emp_R_add_e&#45;&gt;function&#45;0&#45;CreateTensor -->
<g id="edge4" class="edge">
<title>function&#45;0&#45;M_mul_emp_R_add_e:s&#45;&gt;function&#45;0&#45;CreateTensor</title>
<path fill="none" stroke="black" d="M87,-174C87,-161.89 109.19,-146.72 131.77,-134.42"/>
<polygon fill="black" stroke="black" points="132.71,-135.9 136.29,-132 131.06,-132.82 132.71,-135.9"/>
</g>
<!-- function&#45;0&#45;M_mul_emp_R_add_e&#45;&gt;function&#45;1&#45;CreateTensor -->
<g id="edge5" class="edge">
<title>function&#45;0&#45;M_mul_emp_R_add_e:s&#45;&gt;function&#45;1&#45;CreateTensor</title>
<path fill="none" stroke="black" d="M165,-174C165,-161.29 141.36,-146.28 117.07,-134.22"/>
<polygon fill="black" stroke="black" points="117.8,-132.62 112.53,-132 116.26,-135.77 117.8,-132.62"/>
</g>
<!-- function&#45;0&#45;CreateTensor&#45;&gt;primitive&#45;String&#45;0 -->
<g id="edge15" class="edge">
<title>function&#45;0&#45;CreateTensor:s&#45;&gt;primitive&#45;String&#45;0</title>
<path fill="none" stroke="black" d="M217,-95C217,-79.23 226.59,-64.67 236.81,-53.63"/>
<polygon fill="black" stroke="black" points="234.38,-56.58 238.29,-53 233,-53.36 234.38,-56.58"/>
</g>
<!-- function&#45;0&#45;CreateTensor&#45;&gt;primitive&#45;i64&#45;64 -->
<g id="edge13" class="edge">
<title>function&#45;0&#45;CreateTensor:s&#45;&gt;primitive&#45;i64&#45;64</title>
<path fill="none" stroke="black" d="M154,-95C154,-80.86 148.34,-66.14 142.4,-54.59"/>
<polygon fill="black" stroke="black" points="145.62,-55.65 141.04,-53 142.97,-57.93 145.62,-55.65"/>
</g>
<!-- function&#45;0&#45;CreateTensor&#45;&gt;primitive&#45;i64&#45;1024 -->
<g id="edge14" class="edge">
<title>function&#45;0&#45;CreateTensor:s&#45;&gt;primitive&#45;i64&#45;1024</title>
<path fill="none" stroke="black" d="M192,-95C192,-81.82 192.68,-67.09 193.4,-55.29"/>
<polygon fill="black" stroke="black" points="194.75,-58.2 193.73,-53 191.29,-57.7 194.75,-58.2"/>
</g>
<!-- function&#45;1&#45;CreateTensor&#45;&gt;primitive&#45;String&#45;1 -->
<g id="edge18" class="edge">
<title>function&#45;1&#45;CreateTensor:s&#45;&gt;primitive&#45;String&#45;1</title>
<path fill="none" stroke="black" d="M103,-95C103,-79.71 94.31,-65.2 85.03,-54.07"/>
<polygon fill="black" stroke="black" points="88.65,-54.6 83.59,-53 86.55,-57.4 88.65,-54.6"/>
</g>
<!-- function&#45;1&#45;CreateTensor&#45;&gt;primitive&#45;i64&#45;64 -->
<g id="edge16" class="edge">
<title>function&#45;1&#45;CreateTensor:s&#45;&gt;primitive&#45;i64&#45;64</title>
<path fill="none" stroke="black" d="M40,-95C40,-93.16 73.04,-70.55 98.86,-53.16"/>
<polygon fill="black" stroke="black" points="99.99,-57.4 99,-52.2 96.53,-56.88 99.99,-57.4"/>
</g>
<!-- function&#45;1&#45;CreateTensor&#45;&gt;primitive&#45;i64&#45;1024 -->
<g id="edge17" class="edge">
<title>function&#45;1&#45;CreateTensor:s&#45;&gt;primitive&#45;i64&#45;1024</title>
<path fill="none" stroke="black" d="M78,-95C78,-54.64 124.83,-75.79 160,-56 160.21,-55.88 160.42,-55.76 160.64,-55.64"/>
<polygon fill="black" stroke="black" points="161.72,-57.03 165.15,-53 159.95,-54.01 161.72,-57.03"/>
</g>
<!-- function&#45;0&#45;M_mul_fmp_R_add_m&#45;&gt;function&#45;2&#45;CreateTensor -->
<g id="edge7" class="edge">
<title>function&#45;0&#45;M_mul_fmp_R_add_m:s&#45;&gt;function&#45;2&#45;CreateTensor</title>
<path fill="none" stroke="black" d="M269,-569C269,-505.43 293,-491.57 293,-428 293,-428 293,-428 293,-268 293,-220.58 293,-165.04 293,-134.68"/>
<polygon fill="black" stroke="black" points="294.75,-137 293,-132 291.25,-137 294.75,-137"/>
</g>
<!-- function&#45;0&#45;M_mul_fmp_R_add_m&#45;&gt;function&#45;0&#45;M_div_mp_R_none -->
<g id="edge6" class="edge">
<title>function&#45;0&#45;M_mul_fmp_R_add_m:s&#45;&gt;function&#45;0&#45;M_div_mp_R_none</title>
<path fill="none" stroke="black" d="M189,-569C189,-555.06 183.66,-540.48 178.02,-528.96"/>
<polygon fill="black" stroke="black" points="180.95,-530.02 176.6,-527 178.12,-532.08 180.95,-530.02"/>
</g>
<!-- function&#45;0&#45;M_div_mp_R_none&#45;&gt;function&#45;0&#45;M_subexp_mp_R_none -->
<g id="edge8" class="edge">
<title>function&#45;0&#45;M_div_mp_R_none:s&#45;&gt;function&#45;0&#45;M_subexp_mp_R_none</title>
<path fill="none" stroke="black" d="M131,-490C131,-470.91 117.1,-469.65 113,-451 108.42,-430.16 110.67,-424.21 113,-403 114.16,-392.43 116.56,-380.91 118.91,-371.23"/>
<polygon fill="black" stroke="black" points="119.27,-374.23 120.13,-369 116.2,-372.55 119.27,-374.23"/>
</g>
<!-- function&#45;0&#45;M_div_mp_R_none&#45;&gt;function&#45;0&#45;M_none_mp_R_add_m -->
<g id="edge9" class="edge">
<title>function&#45;0&#45;M_div_mp_R_none:s&#45;&gt;function&#45;0&#45;M_none_mp_R_add_m</title>
<path fill="none" stroke="black" d="M199,-490C199,-476.84 199,-462.11 199,-450.3"/>
<polygon fill="black" stroke="black" points="200.75,-453 199,-448 197.25,-453 200.75,-453"/>
</g>
<!-- function&#45;0&#45;M_subexp_mp_R_none&#45;&gt;function&#45;0&#45;M_mul_emp_R_add_e -->
<g id="edge10" class="edge">
<title>function&#45;0&#45;M_subexp_mp_R_none:s&#45;&gt;function&#45;0&#45;M_mul_emp_R_add_e</title>
<path fill="none" stroke="black" d="M84,-332C84,-293.32 73.46,-281.59 86,-245 90.11,-233.03 97.92,-221.5 105.55,-212.2"/>
<polygon fill="black" stroke="black" points="104.4,-215.72 106.8,-211 101.98,-213.19 104.4,-215.72"/>
</g>
<!-- function&#45;0&#45;M_subexp_mp_R_none&#45;&gt;function&#45;0&#45;M_none_mp_R_max_m -->
<g id="edge11" class="edge">
<title>function&#45;0&#45;M_subexp_mp_R_none:s&#45;&gt;function&#45;0&#45;M_none_mp_R_max_m</title>
<path fill="none" stroke="black" d="M167,-332C167,-318.78 168.37,-304.04 169.8,-292.25"/>
<polygon fill="black" stroke="black" points="170.74,-295.29 170.46,-290 167.38,-294.31 170.74,-295.29"/>
</g>
<!-- function&#45;0&#45;M_none_mp_R_add_m&#45;&gt;function&#45;0&#45;M_subexp_mp_R_none -->
<g id="edge12" class="edge">
<title>function&#45;0&#45;M_none_mp_R_add_m:s&#45;&gt;function&#45;0&#45;M_subexp_mp_R_none</title>
<path fill="none" stroke="black" d="M200,-411C200,-394.51 189.1,-381.59 175.61,-371.9"/>
<polygon fill="black" stroke="black" points="176.47,-370.37 171.35,-369 174.5,-373.26 176.47,-370.37"/>
</g>
<!-- function&#45;0&#45;M_none_mp_R_max_m&#45;&gt;function&#45;0&#45;M_mul_emp_R_add_e -->
<g id="edge19" class="edge">
<title>function&#45;0&#45;M_none_mp_R_max_m:s&#45;&gt;function&#45;0&#45;M_mul_emp_R_add_e</title>
<path fill="none" stroke="black" d="M174,-253C174,-236.98 163.85,-222.58 152.89,-211.71"/>
<polygon fill="black" stroke="black" points="156.45,-211.26 151.16,-211 155.13,-214.51 156.45,-211.26"/>
</g>
<!-- primitive&#45;String&#45;1 -->
<g id="node1" class="node">
<title>primitive&#45;String&#45;1</title>
<g id="a_node1"><a xlink:title="String&#45;1: primitive&#45;String&#45;1">
<path fill="white" stroke="transparent" d="M57.17,-16C57.17,-16 68.83,-16 68.83,-16 74.17,-16 79.5,-21.33 79.5,-26.67 79.5,-26.67 79.5,-37.33 79.5,-37.33 79.5,-42.67 74.17,-48 68.83,-48 68.83,-48 57.17,-48 57.17,-48 51.83,-48 46.5,-42.67 46.5,-37.33 46.5,-37.33 46.5,-26.67 46.5,-26.67 46.5,-21.33 51.83,-16 57.17,-16"/>
<text text-anchor="start" x="52" y="-28.3" font-family="Helvetica,sans-Serif" font-size="14.00">&quot;K&quot;</text>
<path fill="none" stroke="black" d="M57.17,-16C57.17,-16 68.83,-16 68.83,-16 74.17,-16 79.5,-21.33 79.5,-26.67 79.5,-26.67 79.5,-37.33 79.5,-37.33 79.5,-42.67 74.17,-48 68.83,-48 68.83,-48 57.17,-48 57.17,-48 51.83,-48 46.5,-42.67 46.5,-37.33 46.5,-37.33 46.5,-26.67 46.5,-26.67 46.5,-21.33 51.83,-16 57.17,-16"/>
</a>
</g>
</g>
<!-- primitive&#45;String&#45;2 -->
<g id="node2" class="node">
<title>primitive&#45;String&#45;2</title>
<g id="a_node2"><a xlink:title="String&#45;2: primitive&#45;String&#45;2">
<path fill="white" stroke="transparent" d="M324.67,-16C324.67,-16 337.33,-16 337.33,-16 342.67,-16 348,-21.33 348,-26.67 348,-26.67 348,-37.33 348,-37.33 348,-42.67 342.67,-48 337.33,-48 337.33,-48 324.67,-48 324.67,-48 319.33,-48 314,-42.67 314,-37.33 314,-37.33 314,-26.67 314,-26.67 314,-21.33 319.33,-16 324.67,-16"/>
<text text-anchor="start" x="319" y="-28.3" font-family="Helvetica,sans-Serif" font-size="14.00">&quot;V&quot;</text>
<path fill="none" stroke="black" d="M324.67,-16C324.67,-16 337.33,-16 337.33,-16 342.67,-16 348,-21.33 348,-26.67 348,-26.67 348,-37.33 348,-37.33 348,-42.67 342.67,-48 337.33,-48 337.33,-48 324.67,-48 324.67,-48 319.33,-48 314,-42.67 314,-37.33 314,-37.33 314,-26.67 314,-26.67 314,-21.33 319.33,-16 324.67,-16"/>
</a>
</g>
</g>
<!-- primitive&#45;String&#45;0 -->
<g id="node3" class="node">
<title>primitive&#45;String&#45;0</title>
<g id="a_node3"><a xlink:title="String&#45;0: primitive&#45;String&#45;0">
<path fill="white" stroke="transparent" d="M254.17,-16C254.17,-16 267.83,-16 267.83,-16 273.17,-16 278.5,-21.33 278.5,-26.67 278.5,-26.67 278.5,-37.33 278.5,-37.33 278.5,-42.67 273.17,-48 267.83,-48 267.83,-48 254.17,-48 254.17,-48 248.83,-48 243.5,-42.67 243.5,-37.33 243.5,-37.33 243.5,-26.67 243.5,-26.67 243.5,-21.33 248.83,-16 254.17,-16"/>
<text text-anchor="start" x="249" y="-28.3" font-family="Helvetica,sans-Serif" font-size="14.00">&quot;Q&quot;</text>
<path fill="none" stroke="black" d="M254.17,-16C254.17,-16 267.83,-16 267.83,-16 273.17,-16 278.5,-21.33 278.5,-26.67 278.5,-26.67 278.5,-37.33 278.5,-37.33 278.5,-42.67 273.17,-48 267.83,-48 267.83,-48 254.17,-48 254.17,-48 248.83,-48 243.5,-42.67 243.5,-37.33 243.5,-37.33 243.5,-26.67 243.5,-26.67 243.5,-21.33 248.83,-16 254.17,-16"/>
</a>
</g>
</g>
<!-- function&#45;2&#45;CreateTensor -->
<g id="node4" class="node">
<title>function&#45;2&#45;CreateTensor</title>
<g id="a_node4"><a xlink:title="Tensor&#45;2: function&#45;2&#45;CreateTensor">
<path fill="white" stroke="transparent" d="M253.17,-95C253.17,-95 332.83,-95 332.83,-95 338.17,-95 343.5,-100.33 343.5,-105.67 343.5,-105.67 343.5,-116.33 343.5,-116.33 343.5,-121.67 338.17,-127 332.83,-127 332.83,-127 253.17,-127 253.17,-127 247.83,-127 242.5,-121.67 242.5,-116.33 242.5,-116.33 242.5,-105.67 242.5,-105.67 242.5,-100.33 247.83,-95 253.17,-95"/>
<text text-anchor="start" x="248" y="-107.3" font-family="Helvetica,sans-Serif" font-size="14.00">CreateTensor</text>
<path fill="none" stroke="black" d="M253.17,-95C253.17,-95 332.83,-95 332.83,-95 338.17,-95 343.5,-100.33 343.5,-105.67 343.5,-105.67 343.5,-116.33 343.5,-116.33 343.5,-121.67 338.17,-127 332.83,-127 332.83,-127 253.17,-127 253.17,-127 247.83,-127 242.5,-121.67 242.5,-116.33 242.5,-116.33 242.5,-105.67 242.5,-105.67 242.5,-100.33 247.83,-95 253.17,-95"/>
</a>
</g>
</g>
<!-- primitive&#45;i64&#45;64 -->
<g id="node5" class="node">
<title>primitive&#45;i64&#45;64</title>
<g id="a_node5"><a xlink:title="i64&#45;64: primitive&#45;i64&#45;64">
<path fill="white" stroke="transparent" d="M123.67,-16C123.67,-16 134.33,-16 134.33,-16 139.67,-16 145,-21.33 145,-26.67 145,-26.67 145,-37.33 145,-37.33 145,-42.67 139.67,-48 134.33,-48 134.33,-48 123.67,-48 123.67,-48 118.33,-48 113,-42.67 113,-37.33 113,-37.33 113,-26.67 113,-26.67 113,-21.33 118.33,-16 123.67,-16"/>
<text text-anchor="start" x="119.5" y="-28.3" font-family="Helvetica,sans-Serif" font-size="14.00">64</text>
<path fill="none" stroke="black" d="M123.67,-16C123.67,-16 134.33,-16 134.33,-16 139.67,-16 145,-21.33 145,-26.67 145,-26.67 145,-37.33 145,-37.33 145,-42.67 139.67,-48 134.33,-48 134.33,-48 123.67,-48 123.67,-48 118.33,-48 113,-42.67 113,-37.33 113,-37.33 113,-26.67 113,-26.67 113,-21.33 118.33,-16 123.67,-16"/>
</a>
</g>
</g>
<!-- primitive&#45;i64&#45;1024 -->
<g id="node6" class="node">
<title>primitive&#45;i64&#45;1024</title>
<g id="a_node6"><a xlink:title="i64&#45;1024: primitive&#45;i64&#45;1024">
<path fill="white" stroke="transparent" d="M182.17,-16C182.17,-16 207.83,-16 207.83,-16 213.17,-16 218.5,-21.33 218.5,-26.67 218.5,-26.67 218.5,-37.33 218.5,-37.33 218.5,-42.67 213.17,-48 207.83,-48 207.83,-48 182.17,-48 182.17,-48 176.83,-48 171.5,-42.67 171.5,-37.33 171.5,-37.33 171.5,-26.67 171.5,-26.67 171.5,-21.33 176.83,-16 182.17,-16"/>
<text text-anchor="start" x="177" y="-28.3" font-family="Helvetica,sans-Serif" font-size="14.00">1024</text>
<path fill="none" stroke="black" d="M182.17,-16C182.17,-16 207.83,-16 207.83,-16 213.17,-16 218.5,-21.33 218.5,-26.67 218.5,-26.67 218.5,-37.33 218.5,-37.33 218.5,-42.67 213.17,-48 207.83,-48 207.83,-48 182.17,-48 182.17,-48 176.83,-48 171.5,-42.67 171.5,-37.33 171.5,-37.33 171.5,-26.67 171.5,-26.67 171.5,-21.33 176.83,-16 182.17,-16"/>
</a>
</g>
</g>
<!-- function&#45;0&#45;M_mul_emp_R_add_e -->
<g id="node7" class="node">
<title>function&#45;0&#45;M_mul_emp_R_add_e</title>
<g id="a_node7"><a xlink:title="Tensor&#45;3: function&#45;0&#45;M_mul_emp_R_add_e">
<path fill="white" stroke="transparent" d="M57.67,-174C57.67,-174 194.33,-174 194.33,-174 199.67,-174 205,-179.33 205,-184.67 205,-184.67 205,-195.33 205,-195.33 205,-200.67 199.67,-206 194.33,-206 194.33,-206 57.67,-206 57.67,-206 52.33,-206 47,-200.67 47,-195.33 47,-195.33 47,-184.67 47,-184.67 47,-179.33 52.33,-174 57.67,-174"/>
<text text-anchor="start" x="52" y="-186.3" font-family="Helvetica,sans-Serif" font-size="14.00">M_mul_emp_R_add_e</text>
<path fill="none" stroke="black" d="M57.67,-174C57.67,-174 194.33,-174 194.33,-174 199.67,-174 205,-179.33 205,-184.67 205,-184.67 205,-195.33 205,-195.33 205,-200.67 199.67,-206 194.33,-206 194.33,-206 57.67,-206 57.67,-206 52.33,-206 47,-200.67 47,-195.33 47,-195.33 47,-184.67 47,-184.67 47,-179.33 52.33,-174 57.67,-174"/>
</a>
</g>
</g>
<!-- function&#45;0&#45;CreateTensor -->
<g id="node8" class="node">
<title>function&#45;0&#45;CreateTensor</title>
<g id="a_node8"><a xlink:title="Tensor&#45;0: function&#45;0&#45;CreateTensor">
<path fill="white" stroke="transparent" d="M139.17,-95C139.17,-95 218.83,-95 218.83,-95 224.17,-95 229.5,-100.33 229.5,-105.67 229.5,-105.67 229.5,-116.33 229.5,-116.33 229.5,-121.67 224.17,-127 218.83,-127 218.83,-127 139.17,-127 139.17,-127 133.83,-127 128.5,-121.67 128.5,-116.33 128.5,-116.33 128.5,-105.67 128.5,-105.67 128.5,-100.33 133.83,-95 139.17,-95"/>
<text text-anchor="start" x="134" y="-107.3" font-family="Helvetica,sans-Serif" font-size="14.00">CreateTensor</text>
<path fill="none" stroke="black" d="M139.17,-95C139.17,-95 218.83,-95 218.83,-95 224.17,-95 229.5,-100.33 229.5,-105.67 229.5,-105.67 229.5,-116.33 229.5,-116.33 229.5,-121.67 224.17,-127 218.83,-127 218.83,-127 139.17,-127 139.17,-127 133.83,-127 128.5,-121.67 128.5,-116.33 128.5,-116.33 128.5,-105.67 128.5,-105.67 128.5,-100.33 133.83,-95 139.17,-95"/>
</a>
</g>
</g>
<!-- function&#45;1&#45;CreateTensor -->
<g id="node9" class="node">
<title>function&#45;1&#45;CreateTensor</title>
<g id="a_node9"><a xlink:title="Tensor&#45;1: function&#45;1&#45;CreateTensor">
<path fill="white" stroke="transparent" d="M25.17,-95C25.17,-95 104.83,-95 104.83,-95 110.17,-95 115.5,-100.33 115.5,-105.67 115.5,-105.67 115.5,-116.33 115.5,-116.33 115.5,-121.67 110.17,-127 104.83,-127 104.83,-127 25.17,-127 25.17,-127 19.83,-127 14.5,-121.67 14.5,-116.33 14.5,-116.33 14.5,-105.67 14.5,-105.67 14.5,-100.33 19.83,-95 25.17,-95"/>
<text text-anchor="start" x="20" y="-107.3" font-family="Helvetica,sans-Serif" font-size="14.00">CreateTensor</text>
<path fill="none" stroke="black" d="M25.17,-95C25.17,-95 104.83,-95 104.83,-95 110.17,-95 115.5,-100.33 115.5,-105.67 115.5,-105.67 115.5,-116.33 115.5,-116.33 115.5,-121.67 110.17,-127 104.83,-127 104.83,-127 25.17,-127 25.17,-127 19.83,-127 14.5,-121.67 14.5,-116.33 14.5,-116.33 14.5,-105.67 14.5,-105.67 14.5,-100.33 19.83,-95 25.17,-95"/>
</a>
</g>
</g>
<!-- function&#45;0&#45;M_mul_fmp_R_add_m -->
<g id="node10" class="node">
<title>function&#45;0&#45;M_mul_fmp_R_add_m</title>
<g id="a_node10"><a xlink:title="Tensor&#45;8: function&#45;0&#45;M_mul_fmp_R_add_m">
<path fill="white" stroke="transparent" d="M159.67,-569C159.67,-569 298.33,-569 298.33,-569 303.67,-569 309,-574.33 309,-579.67 309,-579.67 309,-590.33 309,-590.33 309,-595.67 303.67,-601 298.33,-601 298.33,-601 159.67,-601 159.67,-601 154.33,-601 149,-595.67 149,-590.33 149,-590.33 149,-579.67 149,-579.67 149,-574.33 154.33,-569 159.67,-569"/>
<text text-anchor="start" x="154" y="-581.3" font-family="Helvetica,sans-Serif" font-size="14.00">M_mul_fmp_R_add_m</text>
<path fill="none" stroke="black" d="M159.67,-569C159.67,-569 298.33,-569 298.33,-569 303.67,-569 309,-574.33 309,-579.67 309,-579.67 309,-590.33 309,-590.33 309,-595.67 303.67,-601 298.33,-601 298.33,-601 159.67,-601 159.67,-601 154.33,-601 149,-595.67 149,-590.33 149,-590.33 149,-579.67 149,-579.67 149,-574.33 154.33,-569 159.67,-569"/>
</a>
</g>
</g>
<!-- function&#45;0&#45;M_div_mp_R_none -->
<g id="node11" class="node">
<title>function&#45;0&#45;M_div_mp_R_none</title>
<g id="a_node11"><a xlink:title="Tensor&#45;7: function&#45;0&#45;M_div_mp_R_none">
<path fill="white" stroke="transparent" d="M107.17,-490C107.17,-490 222.83,-490 222.83,-490 228.17,-490 233.5,-495.33 233.5,-500.67 233.5,-500.67 233.5,-511.33 233.5,-511.33 233.5,-516.67 228.17,-522 222.83,-522 222.83,-522 107.17,-522 107.17,-522 101.83,-522 96.5,-516.67 96.5,-511.33 96.5,-511.33 96.5,-500.67 96.5,-500.67 96.5,-495.33 101.83,-490 107.17,-490"/>
<text text-anchor="start" x="102" y="-502.3" font-family="Helvetica,sans-Serif" font-size="14.00">M_div_mp_R_none</text>
<path fill="none" stroke="black" d="M107.17,-490C107.17,-490 222.83,-490 222.83,-490 228.17,-490 233.5,-495.33 233.5,-500.67 233.5,-500.67 233.5,-511.33 233.5,-511.33 233.5,-516.67 228.17,-522 222.83,-522 222.83,-522 107.17,-522 107.17,-522 101.83,-522 96.5,-516.67 96.5,-511.33 96.5,-511.33 96.5,-500.67 96.5,-500.67 96.5,-495.33 101.83,-490 107.17,-490"/>
</a>
</g>
</g>
<!-- function&#45;0&#45;M_subexp_mp_R_none -->
<g id="node12" class="node">
<title>function&#45;0&#45;M_subexp_mp_R_none</title>
<g id="a_node12"><a xlink:title="Tensor&#45;5: function&#45;0&#45;M_subexp_mp_R_none">
<path fill="white" stroke="transparent" d="M52.17,-332C52.17,-332 197.83,-332 197.83,-332 203.17,-332 208.5,-337.33 208.5,-342.67 208.5,-342.67 208.5,-353.33 208.5,-353.33 208.5,-358.67 203.17,-364 197.83,-364 197.83,-364 52.17,-364 52.17,-364 46.83,-364 41.5,-358.67 41.5,-353.33 41.5,-353.33 41.5,-342.67 41.5,-342.67 41.5,-337.33 46.83,-332 52.17,-332"/>
<text text-anchor="start" x="47" y="-344.3" font-family="Helvetica,sans-Serif" font-size="14.00">M_subexp_mp_R_none</text>
<path fill="none" stroke="black" d="M52.17,-332C52.17,-332 197.83,-332 197.83,-332 203.17,-332 208.5,-337.33 208.5,-342.67 208.5,-342.67 208.5,-353.33 208.5,-353.33 208.5,-358.67 203.17,-364 197.83,-364 197.83,-364 52.17,-364 52.17,-364 46.83,-364 41.5,-358.67 41.5,-353.33 41.5,-353.33 41.5,-342.67 41.5,-342.67 41.5,-337.33 46.83,-332 52.17,-332"/>
</a>
</g>
</g>
<!-- function&#45;0&#45;M_none_mp_R_add_m -->
<g id="node13" class="node">
<title>function&#45;0&#45;M_none_mp_R_add_m</title>
<g id="a_node13"><a xlink:title="Tensor&#45;6: function&#45;0&#45;M_none_mp_R_add_m">
<path fill="white" stroke="transparent" d="M128.17,-411C128.17,-411 269.83,-411 269.83,-411 275.17,-411 280.5,-416.33 280.5,-421.67 280.5,-421.67 280.5,-432.33 280.5,-432.33 280.5,-437.67 275.17,-443 269.83,-443 269.83,-443 128.17,-443 128.17,-443 122.83,-443 117.5,-437.67 117.5,-432.33 117.5,-432.33 117.5,-421.67 117.5,-421.67 117.5,-416.33 122.83,-411 128.17,-411"/>
<text text-anchor="start" x="123" y="-423.3" font-family="Helvetica,sans-Serif" font-size="14.00">M_none_mp_R_add_m</text>
<path fill="none" stroke="black" d="M128.17,-411C128.17,-411 269.83,-411 269.83,-411 275.17,-411 280.5,-416.33 280.5,-421.67 280.5,-421.67 280.5,-432.33 280.5,-432.33 280.5,-437.67 275.17,-443 269.83,-443 269.83,-443 128.17,-443 128.17,-443 122.83,-443 117.5,-437.67 117.5,-432.33 117.5,-432.33 117.5,-421.67 117.5,-421.67 117.5,-416.33 122.83,-411 128.17,-411"/>
</a>
</g>
</g>
<!-- function&#45;0&#45;M_none_mp_R_max_m -->
<g id="node14" class="node">
<title>function&#45;0&#45;M_none_mp_R_max_m</title>
<g id="a_node14"><a xlink:title="Tensor&#45;4: function&#45;0&#45;M_none_mp_R_max_m">
<path fill="white" stroke="transparent" d="M100.17,-253C100.17,-253 245.83,-253 245.83,-253 251.17,-253 256.5,-258.33 256.5,-263.67 256.5,-263.67 256.5,-274.33 256.5,-274.33 256.5,-279.67 251.17,-285 245.83,-285 245.83,-285 100.17,-285 100.17,-285 94.83,-285 89.5,-279.67 89.5,-274.33 89.5,-274.33 89.5,-263.67 89.5,-263.67 89.5,-258.33 94.83,-253 100.17,-253"/>
<text text-anchor="start" x="95" y="-265.3" font-family="Helvetica,sans-Serif" font-size="14.00">M_none_mp_R_max_m</text>
<path fill="none" stroke="black" d="M100.17,-253C100.17,-253 245.83,-253 245.83,-253 251.17,-253 256.5,-258.33 256.5,-263.67 256.5,-263.67 256.5,-274.33 256.5,-274.33 256.5,-279.67 251.17,-285 245.83,-285 245.83,-285 100.17,-285 100.17,-285 94.83,-285 89.5,-279.67 89.5,-274.33 89.5,-274.33 89.5,-263.67 89.5,-263.67 89.5,-258.33 94.83,-253 100.17,-253"/>
</a>
</g>
</g>
</g>
</svg>
