<?xml version="1.0" encoding="UTF-8" standalone="no"?>
<!DOCTYPE svg PUBLIC "-//W3C//DTD SVG 1.1//EN"
 "http://www.w3.org/Graphics/SVG/1.1/DTD/svg11.dtd">
<!-- Generated by graphviz version 2.43.0 (0)
 -->
<!-- Title: %3 Pages: 1 -->
<svg width="446pt" height="1121pt"
 viewBox="0.00 0.00 446.00 1121.00" xmlns="http://www.w3.org/2000/svg" xmlns:xlink="http://www.w3.org/1999/xlink">
<g id="graph0" class="graph" transform="scale(1 1) rotate(0) translate(4 1117)">
<title>%3</title>
<polygon fill="white" stroke="#000000" points="-4,4 -4,-1117 442,-1117 442,4 -4,4"/>
<g id="clust1" class="cluster">
<title>outer_cluster_String&#45;0</title>
</g>
<g id="clust2" class="cluster">
<title>cluster_String&#45;0</title>
<path fill="#ffffb3" stroke="black" stroke-dasharray="5,2" d="M56,-11C56,-11 92,-11 92,-11 98,-11 104,-17 104,-23 104,-23 104,-41 104,-41 104,-47 98,-53 92,-53 92,-53 56,-53 56,-53 50,-53 44,-47 44,-41 44,-41 44,-23 44,-23 44,-17 50,-11 56,-11"/>
</g>
<g id="clust4" class="cluster">
<title>outer_cluster_String&#45;1</title>
</g>
<g id="clust5" class="cluster">
<title>cluster_String&#45;1</title>
<path fill="#ffffb3" stroke="black" stroke-dasharray="5,2" d="M254,-11C254,-11 290,-11 290,-11 296,-11 302,-17 302,-23 302,-23 302,-41 302,-41 302,-47 296,-53 290,-53 290,-53 254,-53 254,-53 248,-53 242,-47 242,-41 242,-41 242,-23 242,-23 242,-17 248,-11 254,-11"/>
</g>
<g id="clust7" class="cluster">
<title>outer_cluster_String&#45;2</title>
</g>
<g id="clust8" class="cluster">
<title>cluster_String&#45;2</title>
<path fill="#ffffb3" stroke="black" stroke-dasharray="5,2" d="M379,-11C379,-11 415,-11 415,-11 421,-11 427,-17 427,-23 427,-23 427,-41 427,-41 427,-47 421,-53 415,-53 415,-53 379,-53 379,-53 373,-53 367,-47 367,-41 367,-41 367,-23 367,-23 367,-17 373,-11 379,-11"/>
</g>
<g id="clust10" class="cluster">
<title>outer_cluster_Tensor&#45;8</title>
</g>
<g id="clust11" class="cluster">
<title>cluster_Tensor&#45;8</title>
<path fill="#bebada" stroke="black" stroke-dasharray="5,2" d="M192,-485C192,-485 290,-485 290,-485 296,-485 302,-491 302,-497 302,-497 302,-537 302,-537 302,-543 296,-549 290,-549 290,-549 192,-549 192,-549 186,-549 180,-543 180,-537 180,-537 180,-497 180,-497 180,-491 186,-485 192,-485"/>
<text text-anchor="start" x="206" y="-535.8" font-family="Helvetica,sans-Serif" font-size="9.00">let</text>
<text text-anchor="start" x="222" y="-535.8" font-family="Helvetica,sans-Serif" font-size="9.00">BQK_shifted</text>
</g>
<g id="clust13" class="cluster">
<title>outer_cluster_Tensor&#45;5</title>
</g>
<g id="clust14" class="cluster">
<title>cluster_Tensor&#45;5</title>
<path fill="#bebada" stroke="black" stroke-dasharray="5,2" d="M143,-327C143,-327 193,-327 193,-327 199,-327 205,-333 205,-339 205,-339 205,-379 205,-379 205,-385 199,-391 193,-391 193,-391 143,-391 143,-391 137,-391 131,-385 131,-379 131,-379 131,-339 131,-339 131,-333 137,-327 143,-327"/>
<text text-anchor="start" x="151" y="-377.8" font-family="Helvetica,sans-Serif" font-size="9.00">let</text>
<text text-anchor="start" x="167" y="-377.8" font-family="Helvetica,sans-Serif" font-size="9.00">BQK</text>
</g>
<g id="clust16" class="cluster">
<title>outer_cluster_Tensor&#45;18</title>
</g>
<g id="clust17" class="cluster">
<title>cluster_Tensor&#45;18</title>
<path fill="#bebada" stroke="black" stroke-dasharray="5,2" d="M236,-959C236,-959 292,-959 292,-959 298,-959 304,-965 304,-971 304,-971 304,-1011 304,-1011 304,-1017 298,-1023 292,-1023 292,-1023 236,-1023 236,-1023 230,-1023 224,-1017 224,-1011 224,-1011 224,-971 224,-971 224,-965 230,-959 236,-959"/>
<text text-anchor="start" x="240" y="-1009.8" font-family="Helvetica,sans-Serif" font-size="9.00">let</text>
<text text-anchor="start" x="256" y="-1009.8" font-family="Helvetica,sans-Serif" font-size="9.00">AV_acc</text>
</g>
<g id="clust19" class="cluster">
<title>outer_cluster_Tensor&#45;15</title>
</g>
<g id="clust20" class="cluster">
<title>cluster_Tensor&#45;15</title>
<path fill="#bebada" stroke="black" stroke-dasharray="5,2" d="M132,-959C132,-959 198,-959 198,-959 204,-959 210,-965 210,-971 210,-971 210,-1011 210,-1011 210,-1017 204,-1023 198,-1023 198,-1023 132,-1023 132,-1023 126,-1023 120,-1017 120,-1011 120,-1011 120,-971 120,-971 120,-965 126,-959 132,-959"/>
<text text-anchor="start" x="150" y="-1009.8" font-family="Helvetica,sans-Serif" font-size="9.00">let</text>
<text text-anchor="start" x="166" y="-1009.8" font-family="Helvetica,sans-Serif" font-size="9.00">GD</text>
</g>
<g id="clust22" class="cluster">
<title>outer_cluster_Tensor&#45;14</title>
</g>
<g id="clust23" class="cluster">
<title>cluster_Tensor&#45;14</title>
<path fill="#bebada" stroke="black" stroke-dasharray="5,2" d="M104,-801C104,-801 180,-801 180,-801 186,-801 192,-807 192,-813 192,-813 192,-853 192,-853 192,-859 186,-865 180,-865 180,-865 104,-865 104,-865 98,-865 92,-859 92,-853 92,-853 92,-813 92,-813 92,-807 98,-801 104,-801"/>
<text text-anchor="start" x="128" y="-851.8" font-family="Helvetica,sans-Serif" font-size="9.00">let</text>
<text text-anchor="start" x="144" y="-851.8" font-family="Helvetica,sans-Serif" font-size="9.00">CD</text>
</g>
<g id="clust25" class="cluster">
<title>outer_cluster_Tensor&#45;0</title>
</g>
<g id="clust26" class="cluster">
<title>cluster_Tensor&#45;0</title>
<path fill="#bebada" stroke="black" stroke-dasharray="5,2" d="M23,-90C23,-90 107,-90 107,-90 113,-90 119,-96 119,-102 119,-102 119,-142 119,-142 119,-148 113,-154 107,-154 107,-154 23,-154 23,-154 17,-154 11,-148 11,-142 11,-142 11,-102 11,-102 11,-96 17,-90 23,-90"/>
<text text-anchor="start" x="54" y="-140.8" font-family="Helvetica,sans-Serif" font-size="9.00">let</text>
<text text-anchor="start" x="70" y="-140.8" font-family="Helvetica,sans-Serif" font-size="9.00">Q</text>
</g>
<g id="clust28" class="cluster">
<title>outer_cluster_Tensor&#45;13</title>
</g>
<g id="clust29" class="cluster">
<title>cluster_Tensor&#45;13</title>
<path fill="#bebada" stroke="black" stroke-dasharray="5,2" d="M226,-722C226,-722 324,-722 324,-722 330,-722 336,-728 336,-734 336,-734 336,-774 336,-774 336,-780 330,-786 324,-786 324,-786 226,-786 226,-786 220,-786 214,-780 214,-774 214,-774 214,-734 214,-734 214,-728 220,-722 226,-722"/>
<text text-anchor="start" x="261" y="-772.8" font-family="Helvetica,sans-Serif" font-size="9.00">let</text>
<text text-anchor="start" x="277" y="-772.8" font-family="Helvetica,sans-Serif" font-size="9.00">CN</text>
</g>
<g id="clust31" class="cluster">
<title>outer_cluster_Tensor&#45;16</title>
</g>
<g id="clust32" class="cluster">
<title>cluster_Tensor&#45;16</title>
<path fill="#bebada" stroke="black" stroke-dasharray="5,2" d="M210,-801C210,-801 338,-801 338,-801 344,-801 350,-807 350,-813 350,-813 350,-853 350,-853 350,-859 344,-865 338,-865 338,-865 210,-865 210,-865 204,-865 198,-859 198,-853 198,-853 198,-813 198,-813 198,-807 204,-801 210,-801"/>
<text text-anchor="start" x="243" y="-851.8" font-family="Helvetica,sans-Serif" font-size="9.00">let</text>
<text text-anchor="start" x="259" y="-851.8" font-family="Helvetica,sans-Serif" font-size="9.00">A_unnorm</text>
</g>
<g id="clust34" class="cluster">
<title>outer_cluster_Tensor&#45;17</title>
</g>
<g id="clust35" class="cluster">
<title>cluster_Tensor&#45;17</title>
<path fill="#bebada" stroke="black" stroke-dasharray="5,2" d="M260,-880C260,-880 332,-880 332,-880 338,-880 344,-886 344,-892 344,-892 344,-932 344,-932 344,-938 338,-944 332,-944 332,-944 260,-944 260,-944 254,-944 248,-938 248,-932 248,-932 248,-892 248,-892 248,-886 254,-880 260,-880"/>
<text text-anchor="start" x="268" y="-930.8" font-family="Helvetica,sans-Serif" font-size="9.00">let</text>
<text text-anchor="start" x="284" y="-930.8" font-family="Helvetica,sans-Serif" font-size="9.00">AV_temp</text>
</g>
<g id="clust37" class="cluster">
<title>outer_cluster_Tensor&#45;9</title>
</g>
<g id="clust38" class="cluster">
<title>cluster_Tensor&#45;9</title>
<path fill="#bebada" stroke="black" stroke-dasharray="5,2" d="M192,-643C192,-643 290,-643 290,-643 296,-643 302,-649 302,-655 302,-655 302,-695 302,-695 302,-701 296,-707 290,-707 290,-707 192,-707 192,-707 186,-707 180,-701 180,-695 180,-695 180,-655 180,-655 180,-649 186,-643 192,-643"/>
<text text-anchor="start" x="224" y="-693.8" font-family="Helvetica,sans-Serif" font-size="9.00">let</text>
<text text-anchor="start" x="240" y="-693.8" font-family="Helvetica,sans-Serif" font-size="9.00">SLN</text>
</g>
<g id="clust40" class="cluster">
<title>outer_cluster_Tensor&#45;3</title>
</g>
<g id="clust41" class="cluster">
<title>cluster_Tensor&#45;3</title>
<path fill="#bebada" stroke="black" stroke-dasharray="5,2" d="M155,-169C155,-169 265,-169 265,-169 271,-169 277,-175 277,-181 277,-181 277,-221 277,-221 277,-227 271,-233 265,-233 265,-233 155,-233 155,-233 149,-233 143,-227 143,-221 143,-221 143,-181 143,-181 143,-175 149,-169 155,-169"/>
<text text-anchor="start" x="196" y="-219.8" font-family="Helvetica,sans-Serif" font-size="9.00">let</text>
<text text-anchor="start" x="212" y="-219.8" font-family="Helvetica,sans-Serif" font-size="9.00">BK</text>
</g>
<g id="clust43" class="cluster">
<title>outer_cluster_Tensor&#45;2</title>
</g>
<g id="clust44" class="cluster">
<title>cluster_Tensor&#45;2</title>
<path fill="#bebada" stroke="black" stroke-dasharray="5,2" d="M317,-90C317,-90 401,-90 401,-90 407,-90 413,-96 413,-102 413,-102 413,-142 413,-142 413,-148 407,-154 401,-154 401,-154 317,-154 317,-154 311,-154 305,-148 305,-142 305,-142 305,-102 305,-102 305,-96 311,-90 317,-90"/>
<text text-anchor="start" x="348" y="-140.8" font-family="Helvetica,sans-Serif" font-size="9.00">let</text>
<text text-anchor="start" x="364" y="-140.8" font-family="Helvetica,sans-Serif" font-size="9.00">V</text>
</g>
<g id="clust46" class="cluster">
<title>outer_cluster_Tensor&#45;1</title>
</g>
<g id="clust47" class="cluster">
<title>cluster_Tensor&#45;1</title>
<path fill="#bebada" stroke="black" stroke-dasharray="5,2" d="M137,-90C137,-90 221,-90 221,-90 227,-90 233,-96 233,-102 233,-102 233,-142 233,-142 233,-148 227,-154 221,-154 221,-154 137,-154 137,-154 131,-154 125,-148 125,-142 125,-142 125,-102 125,-102 125,-96 131,-90 137,-90"/>
<text text-anchor="start" x="168" y="-140.8" font-family="Helvetica,sans-Serif" font-size="9.00">let</text>
<text text-anchor="start" x="184" y="-140.8" font-family="Helvetica,sans-Serif" font-size="9.00">K</text>
</g>
<g id="clust49" class="cluster">
<title>outer_cluster_Tensor&#45;6</title>
</g>
<g id="clust50" class="cluster">
<title>cluster_Tensor&#45;6</title>
<path fill="#bebada" stroke="black" stroke-dasharray="5,2" d="M126,-406C126,-406 194,-406 194,-406 200,-406 206,-412 206,-418 206,-418 206,-458 206,-458 206,-464 200,-470 194,-470 194,-470 126,-470 126,-470 120,-470 114,-464 114,-458 114,-458 114,-418 114,-418 114,-412 120,-406 126,-406"/>
<text text-anchor="start" x="146" y="-456.8" font-family="Helvetica,sans-Serif" font-size="9.00">let</text>
<text text-anchor="start" x="162" y="-456.8" font-family="Helvetica,sans-Serif" font-size="9.00">LM</text>
</g>
<g id="clust52" class="cluster">
<title>outer_cluster_Tensor&#45;4</title>
</g>
<g id="clust53" class="cluster">
<title>cluster_Tensor&#45;4</title>
<path fill="#bebada" stroke="black" stroke-dasharray="5,2" d="M114,-248C114,-248 222,-248 222,-248 228,-248 234,-254 234,-260 234,-260 234,-300 234,-300 234,-306 228,-312 222,-312 222,-312 114,-312 114,-312 108,-312 102,-306 102,-300 102,-300 102,-260 102,-260 102,-254 108,-248 114,-248"/>
<text text-anchor="start" x="136" y="-298.8" font-family="Helvetica,sans-Serif" font-size="9.00">let</text>
<text text-anchor="start" x="152" y="-298.8" font-family="Helvetica,sans-Serif" font-size="9.00">BQK_temp</text>
</g>
<g id="clust55" class="cluster">
<title>outer_cluster_Tensor&#45;12</title>
</g>
<g id="clust56" class="cluster">
<title>cluster_Tensor&#45;12</title>
<path fill="#bebada" stroke="black" stroke-dasharray="5,2" d="M78,-643C78,-643 152,-643 152,-643 158,-643 164,-649 164,-655 164,-655 164,-695 164,-695 164,-701 158,-707 152,-707 152,-707 78,-707 78,-707 72,-707 66,-701 66,-695 66,-695 66,-655 66,-655 66,-649 72,-643 78,-643"/>
<text text-anchor="start" x="98" y="-693.8" font-family="Helvetica,sans-Serif" font-size="9.00">let</text>
<text text-anchor="start" x="114" y="-693.8" font-family="Helvetica,sans-Serif" font-size="9.00">PRM</text>
</g>
<g id="clust58" class="cluster">
<title>outer_cluster_Tensor&#45;7</title>
</g>
<g id="clust59" class="cluster">
<title>cluster_Tensor&#45;7</title>
<path fill="#bebada" stroke="black" stroke-dasharray="5,2" d="M75,-485C75,-485 143,-485 143,-485 149,-485 155,-491 155,-497 155,-497 155,-537 155,-537 155,-543 149,-549 143,-549 143,-549 75,-549 75,-549 69,-549 63,-543 63,-537 63,-537 63,-497 63,-497 63,-491 69,-485 75,-485"/>
<text text-anchor="start" x="94" y="-535.8" font-family="Helvetica,sans-Serif" font-size="9.00">let</text>
<text text-anchor="start" x="110" y="-535.8" font-family="Helvetica,sans-Serif" font-size="9.00">GM</text>
</g>
<g id="clust61" class="cluster">
<title>outer_cluster_Tensor&#45;11</title>
</g>
<g id="clust62" class="cluster">
<title>cluster_Tensor&#45;11</title>
<path fill="#bebada" stroke="black" stroke-dasharray="5,2" d="M79,-564C79,-564 153,-564 153,-564 159,-564 165,-570 165,-576 165,-576 165,-616 165,-616 165,-622 159,-628 153,-628 153,-628 79,-628 79,-628 73,-628 67,-622 67,-616 67,-616 67,-576 67,-576 67,-570 73,-564 79,-564"/>
<text text-anchor="start" x="83" y="-614.8" font-family="Helvetica,sans-Serif" font-size="9.00">let</text>
<text text-anchor="start" x="99" y="-614.8" font-family="Helvetica,sans-Serif" font-size="9.00">LM_GM_diff</text>
</g>
<g id="clust64" class="cluster">
<title>outer_cluster_Tensor&#45;19</title>
</g>
<g id="clust65" class="cluster">
<title>cluster_Tensor&#45;19</title>
<path fill="#bebada" stroke="black" stroke-dasharray="5,2" d="M215,-1038C215,-1038 269,-1038 269,-1038 275,-1038 281,-1044 281,-1050 281,-1050 281,-1090 281,-1090 281,-1096 275,-1102 269,-1102 269,-1102 215,-1102 215,-1102 209,-1102 203,-1096 203,-1090 203,-1090 203,-1050 203,-1050 203,-1044 209,-1038 215,-1038"/>
<text text-anchor="start" x="228" y="-1088.8" font-family="Helvetica,sans-Serif" font-size="9.00">let</text>
<text text-anchor="start" x="244" y="-1088.8" font-family="Helvetica,sans-Serif" font-size="9.00">AV</text>
</g>
<g id="clust67" class="cluster">
<title>outer_cluster_Tensor&#45;10</title>
</g>
<g id="clust68" class="cluster">
<title>cluster_Tensor&#45;10</title>
<path fill="#bebada" stroke="black" stroke-dasharray="5,2" d="M130,-722C130,-722 196,-722 196,-722 202,-722 208,-728 208,-734 208,-734 208,-774 208,-774 208,-780 202,-786 196,-786 196,-786 130,-786 130,-786 124,-786 118,-780 118,-774 118,-774 118,-734 118,-734 118,-728 124,-722 130,-722"/>
<text text-anchor="start" x="146" y="-772.8" font-family="Helvetica,sans-Serif" font-size="9.00">let</text>
<text text-anchor="start" x="162" y="-772.8" font-family="Helvetica,sans-Serif" font-size="9.00">SLD</text>
</g>
<g id="clust70" class="cluster">
<title>outer_cluster_i64&#45;1024</title>
</g>
<g id="clust71" class="cluster">
<title>cluster_i64&#45;1024</title>
<path fill="#fb8072" stroke="black" stroke-dasharray="5,2" d="M188,-11C188,-11 224,-11 224,-11 230,-11 236,-17 236,-23 236,-23 236,-41 236,-41 236,-47 230,-53 224,-53 224,-53 188,-53 188,-53 182,-53 176,-47 176,-41 176,-41 176,-23 176,-23 176,-17 182,-11 188,-11"/>
</g>
<g id="clust73" class="cluster">
<title>outer_cluster_i64&#45;64</title>
</g>
<g id="clust74" class="cluster">
<title>cluster_i64&#45;64</title>
<path fill="#fb8072" stroke="black" stroke-dasharray="5,2" d="M122,-11C122,-11 158,-11 158,-11 164,-11 170,-17 170,-23 170,-23 170,-41 170,-41 170,-47 164,-53 158,-53 158,-53 122,-53 122,-53 116,-53 110,-47 110,-41 110,-41 110,-23 110,-23 110,-17 116,-11 122,-11"/>
</g>
<g id="clust76" class="cluster">
<title>outer_cluster_i64&#45;4</title>
</g>
<g id="clust77" class="cluster">
<title>cluster_i64&#45;4</title>
<path fill="#fb8072" stroke="black" stroke-dasharray="5,2" d="M251,-90C251,-90 287,-90 287,-90 293,-90 299,-96 299,-102 299,-102 299,-120 299,-120 299,-126 293,-132 287,-132 287,-132 251,-132 251,-132 245,-132 239,-126 239,-120 239,-120 239,-102 239,-102 239,-96 245,-90 251,-90"/>
</g>
<!-- function&#45;0&#45;M_sub_m1m0p&#45;&gt;function&#45;0&#45;R_add_e -->
<g id="edge1" class="edge">
<title>function&#45;0&#45;M_sub_m1m0p:s&#45;&gt;function&#45;0&#45;R_add_e</title>
<path fill="none" stroke="black" d="M212,-490C212,-451.27 219.97,-439.49 207,-403 206.14,-400.59 205.14,-398.19 204.03,-395.82"/>
<polygon fill="black" stroke="black" points="205.41,-394.67 201.6,-391 202.29,-396.25 205.41,-394.67"/>
</g>
<!-- function&#45;0&#45;M_sub_m1m0p&#45;&gt;function&#45;0&#45;R_max_m0 -->
<g id="edge2" class="edge">
<title>function&#45;0&#45;M_sub_m1m0p:s&#45;&gt;function&#45;0&#45;R_max_m0</title>
<path fill="none" stroke="black" d="M270,-490C270,-462.71 234.93,-486.13 211,-473 210.79,-472.88 210.57,-472.76 210.36,-472.65"/>
<polygon fill="black" stroke="black" points="211.09,-471.05 205.9,-470 209.31,-474.06 211.09,-471.05"/>
</g>
<!-- function&#45;0&#45;R_add_e&#45;&gt;function&#45;0&#45;M_mul_em1m0p -->
<g id="edge3" class="edge">
<title>function&#45;0&#45;R_add_e:s&#45;&gt;function&#45;0&#45;M_mul_em1m0p</title>
<path fill="none" stroke="black" d="M168,-332C168,-327.15 168,-322.09 168,-317.04"/>
<polygon fill="black" stroke="black" points="169.75,-317 168,-312 166.25,-317 169.75,-317"/>
</g>
<!-- function&#45;0&#45;R_max_m0&#45;&gt;function&#45;0&#45;R_add_e -->
<g id="edge25" class="edge">
<title>function&#45;0&#45;R_max_m0:s&#45;&gt;function&#45;0&#45;R_add_e</title>
<path fill="none" stroke="black" d="M160,-411C160,-406.13 160.25,-401.07 160.65,-396.03"/>
<polygon fill="black" stroke="black" points="162.4,-396.13 161.11,-391 158.91,-395.82 162.4,-396.13"/>
</g>
<!-- function&#45;0&#45;M_mul_em1m0p&#45;&gt;function&#45;0&#45;CreateTensor -->
<g id="edge26" class="edge">
<title>function&#45;0&#45;M_mul_em1m0p:s&#45;&gt;function&#45;0&#45;CreateTensor</title>
<path fill="none" stroke="black" d="M137,-253C137,-218.71 119.9,-184.35 102.36,-158.13"/>
<polygon fill="black" stroke="black" points="103.81,-157.14 99.55,-154 100.91,-159.11 103.81,-157.14"/>
</g>
<!-- function&#45;0&#45;M_mul_em1m0p&#45;&gt;function&#45;0&#45;T_split_m_m1m0 -->
<g id="edge27" class="edge">
<title>function&#45;0&#45;M_mul_em1m0p:s&#45;&gt;function&#45;0&#45;T_split_m_m1m0</title>
<path fill="none" stroke="black" d="M199,-253C199,-248.12 199.33,-243.05 199.89,-238.02"/>
<polygon fill="black" stroke="black" points="201.63,-238.17 200.51,-233 198.16,-237.74 201.63,-238.17"/>
</g>
<!-- function&#45;0&#45;R_add_m&#45;&gt;function&#45;0&#45;M_mul_fmp -->
<g id="edge4" class="edge">
<title>function&#45;0&#45;R_add_m:s&#45;&gt;function&#45;0&#45;M_mul_fmp</title>
<path fill="none" stroke="black" d="M264,-964C264,-958.92 264.86,-953.84 266.3,-948.89"/>
<polygon fill="black" stroke="black" points="268.01,-949.29 267.92,-944 264.68,-948.19 268.01,-949.29"/>
</g>
<!-- function&#45;0&#45;M_mul_fmp&#45;&gt;function&#45;0&#45;T_unsplit_m1m0_m -->
<g id="edge14" class="edge">
<title>function&#45;0&#45;M_mul_fmp:s&#45;&gt;function&#45;0&#45;T_unsplit_m1m0_m</title>
<path fill="none" stroke="black" d="M274,-885C274,-880.15 274,-875.09 274,-870.04"/>
<polygon fill="black" stroke="black" points="275.75,-870 274,-865 272.25,-870 275.75,-870"/>
</g>
<!-- function&#45;0&#45;M_mul_fmp&#45;&gt;function&#45;2&#45;CreateTensor -->
<g id="edge15" class="edge">
<title>function&#45;0&#45;M_mul_fmp:s&#45;&gt;function&#45;2&#45;CreateTensor</title>
<path fill="none" stroke="black" d="M318,-885C318,-868.5 341.96,-881.8 351,-868 381.25,-821.8 359,-799.23 359,-744 359,-744 359,-744 359,-268 359,-231.5 359,-190.19 359,-159.26"/>
<polygon fill="black" stroke="black" points="360.75,-159 359,-154 357.25,-159 360.75,-159"/>
</g>
<!-- function&#45;0&#45;R_add_m1&#45;&gt;function&#45;0&#45;M_mul_m1p -->
<g id="edge5" class="edge">
<title>function&#45;0&#45;R_add_m1:s&#45;&gt;function&#45;0&#45;M_mul_m1p</title>
<path fill="none" stroke="black" d="M166,-964C166,-932.35 160.05,-897.25 154.07,-870"/>
<polygon fill="black" stroke="black" points="155.76,-869.5 152.96,-865 152.34,-870.26 155.76,-869.5"/>
</g>
<!-- function&#45;0&#45;M_mul_m1p&#45;&gt;function&#45;0&#45;R_add_m0 -->
<g id="edge6" class="edge">
<title>function&#45;0&#45;M_mul_m1p:s&#45;&gt;function&#45;0&#45;R_add_m0</title>
<path fill="none" stroke="black" d="M119,-806C119,-800.77 120.05,-795.68 121.83,-790.8"/>
<polygon fill="black" stroke="black" points="123.53,-791.28 123.85,-786 120.3,-789.93 123.53,-791.28"/>
</g>
<!-- function&#45;0&#45;M_mul_m1p&#45;&gt;function&#45;0&#45;M_exp_m1p -->
<g id="edge7" class="edge">
<title>function&#45;0&#45;M_mul_m1p:s&#45;&gt;function&#45;0&#45;M_exp_m1p</title>
<path fill="none" stroke="black" d="M165,-806C165,-783.37 130.21,-807.38 117,-789 101.34,-767.22 100.45,-737.27 103.66,-712.26"/>
<polygon fill="black" stroke="black" points="105.44,-712.2 104.41,-707 101.97,-711.7 105.44,-712.2"/>
</g>
<!-- function&#45;0&#45;R_add_m0&#45;&gt;function&#45;0&#45;M_exp_m1m0p -->
<g id="edge34" class="edge">
<title>function&#45;0&#45;R_add_m0:s&#45;&gt;function&#45;0&#45;M_exp_m1m0p</title>
<path fill="none" stroke="black" d="M164,-727C164,-715.92 168.9,-706.48 176.22,-698.57"/>
<polygon fill="black" stroke="black" points="177.69,-699.57 180,-694.8 175.23,-697.09 177.69,-699.57"/>
</g>
<!-- function&#45;0&#45;M_exp_m1p&#45;&gt;function&#45;0&#45;M_sub_m1p -->
<g id="edge28" class="edge">
<title>function&#45;0&#45;M_exp_m1p:s&#45;&gt;function&#45;0&#45;M_sub_m1p</title>
<path fill="none" stroke="black" d="M116,-648C116,-643.15 116,-638.09 116,-633.04"/>
<polygon fill="black" stroke="black" points="117.75,-633 116,-628 114.25,-633 117.75,-633"/>
</g>
<!-- function&#45;0&#45;CreateTensor&#45;&gt;primitive&#45;String&#45;0 -->
<g id="edge10" class="edge">
<title>function&#45;0&#45;CreateTensor:s&#45;&gt;primitive&#45;String&#45;0</title>
<path fill="none" stroke="black" d="M103,-95C103,-80.63 96.53,-66 89.7,-54.56"/>
<polygon fill="black" stroke="black" points="92.85,-55.06 87.97,-53 90.51,-57.65 92.85,-55.06"/>
</g>
<!-- function&#45;0&#45;CreateTensor&#45;&gt;primitive&#45;i64&#45;64 -->
<g id="edge8" class="edge">
<title>function&#45;0&#45;CreateTensor:s&#45;&gt;primitive&#45;i64&#45;64</title>
<path fill="none" stroke="black" d="M40,-95C40,-61.31 76.47,-73.92 105,-56 106.57,-55.01 108.17,-54 109.79,-52.96"/>
<polygon fill="black" stroke="black" points="110.36,-57.49 110,-52.2 106.99,-56.56 110.36,-57.49"/>
</g>
<!-- function&#45;0&#45;CreateTensor&#45;&gt;primitive&#45;i64&#45;1024 -->
<g id="edge9" class="edge">
<title>function&#45;0&#45;CreateTensor:s&#45;&gt;primitive&#45;i64&#45;1024</title>
<path fill="none" stroke="black" d="M78,-95C78,-50.18 131.44,-77.06 171,-56 171.33,-55.82 171.67,-55.64 172,-55.46"/>
<polygon fill="black" stroke="black" points="172.88,-56.98 176.37,-53 171.16,-53.93 172.88,-56.98"/>
</g>
<!-- function&#45;0&#45;M_mul_m1m0p&#45;&gt;function&#45;0&#45;M_exp_m1p -->
<g id="edge12" class="edge">
<title>function&#45;0&#45;M_mul_m1m0p:s&#45;&gt;function&#45;0&#45;M_exp_m1p</title>
<path fill="none" stroke="black" d="M304,-727C304,-698.97 205.1,-720.24 179,-710 175.52,-708.64 172.05,-707.04 168.63,-705.29"/>
<polygon fill="black" stroke="black" points="169.23,-703.63 164,-702.81 167.58,-706.71 169.23,-703.63"/>
</g>
<!-- function&#45;0&#45;M_mul_m1m0p&#45;&gt;function&#45;0&#45;M_exp_m1m0p -->
<g id="edge11" class="edge">
<title>function&#45;0&#45;M_mul_m1m0p:s&#45;&gt;function&#45;0&#45;M_exp_m1m0p</title>
<path fill="none" stroke="black" d="M246,-727C246,-722.14 245.85,-717.08 245.59,-712.03"/>
<polygon fill="black" stroke="black" points="247.34,-711.89 245.31,-707 243.84,-712.09 247.34,-711.89"/>
</g>
<!-- function&#45;0&#45;M_exp_m1m0p&#45;&gt;function&#45;0&#45;M_sub_m1m0p -->
<g id="edge16" class="edge">
<title>function&#45;0&#45;M_exp_m1m0p:s&#45;&gt;function&#45;0&#45;M_sub_m1m0p</title>
<path fill="none" stroke="black" d="M241,-648C241,-616.68 241,-581.44 241,-554.02"/>
<polygon fill="black" stroke="black" points="242.75,-554 241,-549 239.25,-554 242.75,-554"/>
</g>
<!-- function&#45;0&#45;T_unsplit_m1m0_m&#45;&gt;function&#45;0&#45;M_mul_m1m0p -->
<g id="edge13" class="edge">
<title>function&#45;0&#45;T_unsplit_m1m0_m:s&#45;&gt;function&#45;0&#45;M_mul_m1m0p</title>
<path fill="none" stroke="black" d="M275,-806C275,-801.15 275,-796.09 275,-791.04"/>
<polygon fill="black" stroke="black" points="276.75,-791 275,-786 273.25,-791 276.75,-791"/>
</g>
<!-- function&#45;2&#45;CreateTensor&#45;&gt;primitive&#45;String&#45;2 -->
<g id="edge21" class="edge">
<title>function&#45;2&#45;CreateTensor:s&#45;&gt;primitive&#45;String&#45;2</title>
<path fill="none" stroke="black" d="M397,-95C397,-81.84 397,-67.11 397,-55.3"/>
<polygon fill="black" stroke="black" points="398.75,-58 397,-53 395.25,-58 398.75,-58"/>
</g>
<!-- function&#45;2&#45;CreateTensor&#45;&gt;primitive&#45;i64&#45;64 -->
<g id="edge19" class="edge">
<title>function&#45;2&#45;CreateTensor:s&#45;&gt;primitive&#45;i64&#45;64</title>
<path fill="none" stroke="black" d="M334,-95C334,-22.24 241.7,-85.07 175,-56 174.49,-55.78 173.97,-55.54 173.46,-55.31"/>
<polygon fill="black" stroke="black" points="174.08,-53.66 168.83,-53 172.52,-56.8 174.08,-53.66"/>
</g>
<!-- function&#45;2&#45;CreateTensor&#45;&gt;primitive&#45;i64&#45;1024 -->
<g id="edge20" class="edge">
<title>function&#45;2&#45;CreateTensor:s&#45;&gt;primitive&#45;i64&#45;1024</title>
<path fill="none" stroke="black" d="M372,-95C372,-34.25 296.08,-81.62 241,-56 240.63,-55.83 240.26,-55.65 239.89,-55.48"/>
<polygon fill="black" stroke="black" points="240.33,-53.73 235.08,-53 238.73,-56.84 240.33,-53.73"/>
</g>
<!-- function&#45;0&#45;T_split_m_m1m0&#45;&gt;function&#45;1&#45;CreateTensor -->
<g id="edge17" class="edge">
<title>function&#45;0&#45;T_split_m_m1m0:s&#45;&gt;function&#45;1&#45;CreateTensor</title>
<path fill="none" stroke="black" d="M179,-174C179,-169.15 179,-164.09 179,-159.04"/>
<polygon fill="black" stroke="black" points="180.75,-159 179,-154 177.25,-159 180.75,-159"/>
</g>
<!-- function&#45;0&#45;T_split_m_m1m0&#45;&gt;primitive&#45;i64&#45;4 -->
<g id="edge18" class="edge">
<title>function&#45;0&#45;T_split_m_m1m0:s&#45;&gt;primitive&#45;i64&#45;4</title>
<path fill="none" stroke="black" d="M242,-174C242,-159.7 248.11,-144.97 254.52,-133.45"/>
<polygon fill="black" stroke="black" points="253.62,-136.69 256.08,-132 251.23,-134.14 253.62,-136.69"/>
</g>
<!-- function&#45;1&#45;CreateTensor&#45;&gt;primitive&#45;String&#45;1 -->
<g id="edge24" class="edge">
<title>function&#45;1&#45;CreateTensor:s&#45;&gt;primitive&#45;String&#45;1</title>
<path fill="none" stroke="black" d="M217,-95C217,-78.18 228.47,-63.79 240.93,-53.12"/>
<polygon fill="black" stroke="black" points="239.97,-56.82 242,-51.93 237.36,-54.49 239.97,-56.82"/>
</g>
<!-- function&#45;1&#45;CreateTensor&#45;&gt;primitive&#45;i64&#45;64 -->
<g id="edge22" class="edge">
<title>function&#45;1&#45;CreateTensor:s&#45;&gt;primitive&#45;i64&#45;64</title>
<path fill="none" stroke="black" d="M154,-95C154,-81.48 150.79,-66.7 147.45,-54.97"/>
<polygon fill="black" stroke="black" points="150.38,-56.01 146.02,-53 147.55,-58.07 150.38,-56.01"/>
</g>
<!-- function&#45;1&#45;CreateTensor&#45;&gt;primitive&#45;i64&#45;1024 -->
<g id="edge23" class="edge">
<title>function&#45;1&#45;CreateTensor:s&#45;&gt;primitive&#45;i64&#45;1024</title>
<path fill="none" stroke="black" d="M192,-95C192,-81.48 195.21,-66.7 198.55,-54.97"/>
<polygon fill="black" stroke="black" points="198.45,-58.07 199.98,-53 195.62,-56.01 198.45,-58.07"/>
</g>
<!-- function&#45;0&#45;M_sub_m1p&#45;&gt;function&#45;0&#45;R_max_m0 -->
<g id="edge30" class="edge">
<title>function&#45;0&#45;M_sub_m1p:s&#45;&gt;function&#45;0&#45;R_max_m0</title>
<path fill="none" stroke="black" d="M93,-569C93,-540 138,-574.74 156,-552 172.85,-530.72 174.08,-500.35 170.99,-475"/>
<polygon fill="black" stroke="black" points="172.72,-474.72 170.31,-470 169.25,-475.18 172.72,-474.72"/>
</g>
<!-- function&#45;0&#45;M_sub_m1p&#45;&gt;function&#45;0&#45;R_max_m1 -->
<g id="edge31" class="edge">
<title>function&#45;0&#45;M_sub_m1p:s&#45;&gt;function&#45;0&#45;R_max_m1</title>
<path fill="none" stroke="black" d="M139,-569C139,-563.94 138.18,-558.86 136.81,-553.91"/>
<polygon fill="black" stroke="black" points="138.44,-553.25 135.27,-549 135.1,-554.29 138.44,-553.25"/>
</g>
<!-- function&#45;0&#45;R_max_m1&#45;&gt;function&#45;0&#45;R_max_m0 -->
<g id="edge29" class="edge">
<title>function&#45;0&#45;R_max_m1:s&#45;&gt;function&#45;0&#45;R_max_m0</title>
<path fill="none" stroke="black" d="M109,-490C109,-484.69 110.13,-479.59 112.05,-474.75"/>
<polygon fill="black" stroke="black" points="113.74,-475.27 114.23,-470 110.55,-473.82 113.74,-475.27"/>
</g>
<!-- function&#45;0&#45;M_div_fp&#45;&gt;function&#45;0&#45;R_add_m -->
<g id="edge32" class="edge">
<title>function&#45;0&#45;M_div_fp:s&#45;&gt;function&#45;0&#45;R_add_m</title>
<path fill="none" stroke="black" d="M225,-1043C225,-1037.83 225.98,-1032.74 227.64,-1027.84"/>
<polygon fill="black" stroke="black" points="229.34,-1028.29 229.5,-1023 226.07,-1027.03 229.34,-1028.29"/>
</g>
<!-- function&#45;0&#45;M_div_fp&#45;&gt;function&#45;0&#45;R_add_m1 -->
<g id="edge33" class="edge">
<title>function&#45;0&#45;M_div_fp:s&#45;&gt;function&#45;0&#45;R_add_m1</title>
<path fill="none" stroke="black" d="M260,-1043C260,-1024.9 238.47,-1035.39 223,-1026 220.16,-1024.28 217.3,-1022.44 214.46,-1020.53"/>
<polygon fill="black" stroke="black" points="215.11,-1018.86 210,-1017.48 213.13,-1021.75 215.11,-1018.86"/>
</g>
<!-- primitive&#45;String&#45;0 -->
<g id="node1" class="node">
<title>primitive&#45;String&#45;0</title>
<g id="a_node1"><a xlink:title="String&#45;0: primitive&#45;String&#45;0">
<path fill="white" stroke="transparent" d="M67.17,-16C67.17,-16 80.83,-16 80.83,-16 86.17,-16 91.5,-21.33 91.5,-26.67 91.5,-26.67 91.5,-37.33 91.5,-37.33 91.5,-42.67 86.17,-48 80.83,-48 80.83,-48 67.17,-48 67.17,-48 61.83,-48 56.5,-42.67 56.5,-37.33 56.5,-37.33 56.5,-26.67 56.5,-26.67 56.5,-21.33 61.83,-16 67.17,-16"/>
<text text-anchor="start" x="62" y="-28.3" font-family="Helvetica,sans-Serif" font-size="14.00">&quot;Q&quot;</text>
<path fill="none" stroke="black" d="M67.17,-16C67.17,-16 80.83,-16 80.83,-16 86.17,-16 91.5,-21.33 91.5,-26.67 91.5,-26.67 91.5,-37.33 91.5,-37.33 91.5,-42.67 86.17,-48 80.83,-48 80.83,-48 67.17,-48 67.17,-48 61.83,-48 56.5,-42.67 56.5,-37.33 56.5,-37.33 56.5,-26.67 56.5,-26.67 56.5,-21.33 61.83,-16 67.17,-16"/>
</a>
</g>
</g>
<!-- primitive&#45;String&#45;1 -->
<g id="node2" class="node">
<title>primitive&#45;String&#45;1</title>
<g id="a_node2"><a xlink:title="String&#45;1: primitive&#45;String&#45;1">
<path fill="white" stroke="transparent" d="M266.17,-16C266.17,-16 277.83,-16 277.83,-16 283.17,-16 288.5,-21.33 288.5,-26.67 288.5,-26.67 288.5,-37.33 288.5,-37.33 288.5,-42.67 283.17,-48 277.83,-48 277.83,-48 266.17,-48 266.17,-48 260.83,-48 255.5,-42.67 255.5,-37.33 255.5,-37.33 255.5,-26.67 255.5,-26.67 255.5,-21.33 260.83,-16 266.17,-16"/>
<text text-anchor="start" x="261" y="-28.3" font-family="Helvetica,sans-Serif" font-size="14.00">&quot;K&quot;</text>
<path fill="none" stroke="black" d="M266.17,-16C266.17,-16 277.83,-16 277.83,-16 283.17,-16 288.5,-21.33 288.5,-26.67 288.5,-26.67 288.5,-37.33 288.5,-37.33 288.5,-42.67 283.17,-48 277.83,-48 277.83,-48 266.17,-48 266.17,-48 260.83,-48 255.5,-42.67 255.5,-37.33 255.5,-37.33 255.5,-26.67 255.5,-26.67 255.5,-21.33 260.83,-16 266.17,-16"/>
</a>
</g>
</g>
<!-- primitive&#45;String&#45;2 -->
<g id="node3" class="node">
<title>primitive&#45;String&#45;2</title>
<g id="a_node3"><a xlink:title="String&#45;2: primitive&#45;String&#45;2">
<path fill="white" stroke="transparent" d="M390.67,-16C390.67,-16 403.33,-16 403.33,-16 408.67,-16 414,-21.33 414,-26.67 414,-26.67 414,-37.33 414,-37.33 414,-42.67 408.67,-48 403.33,-48 403.33,-48 390.67,-48 390.67,-48 385.33,-48 380,-42.67 380,-37.33 380,-37.33 380,-26.67 380,-26.67 380,-21.33 385.33,-16 390.67,-16"/>
<text text-anchor="start" x="385" y="-28.3" font-family="Helvetica,sans-Serif" font-size="14.00">&quot;V&quot;</text>
<path fill="none" stroke="black" d="M390.67,-16C390.67,-16 403.33,-16 403.33,-16 408.67,-16 414,-21.33 414,-26.67 414,-26.67 414,-37.33 414,-37.33 414,-42.67 408.67,-48 403.33,-48 403.33,-48 390.67,-48 390.67,-48 385.33,-48 380,-42.67 380,-37.33 380,-37.33 380,-26.67 380,-26.67 380,-21.33 385.33,-16 390.67,-16"/>
</a>
</g>
</g>
<!-- function&#45;0&#45;M_sub_m1m0p -->
<g id="node4" class="node">
<title>function&#45;0&#45;M_sub_m1m0p</title>
<g id="a_node4"><a xlink:title="Tensor&#45;8: function&#45;0&#45;M_sub_m1m0p">
<path fill="white" stroke="transparent" d="M193.67,-490C193.67,-490 288.33,-490 288.33,-490 293.67,-490 299,-495.33 299,-500.67 299,-500.67 299,-511.33 299,-511.33 299,-516.67 293.67,-522 288.33,-522 288.33,-522 193.67,-522 193.67,-522 188.33,-522 183,-516.67 183,-511.33 183,-511.33 183,-500.67 183,-500.67 183,-495.33 188.33,-490 193.67,-490"/>
<text text-anchor="start" x="188" y="-502.3" font-family="Helvetica,sans-Serif" font-size="14.00">M_sub_m1m0p</text>
<path fill="none" stroke="black" d="M193.67,-490C193.67,-490 288.33,-490 288.33,-490 293.67,-490 299,-495.33 299,-500.67 299,-500.67 299,-511.33 299,-511.33 299,-516.67 293.67,-522 288.33,-522 288.33,-522 193.67,-522 193.67,-522 188.33,-522 183,-516.67 183,-511.33 183,-511.33 183,-500.67 183,-500.67 183,-495.33 188.33,-490 193.67,-490"/>
</a>
</g>
</g>
<!-- function&#45;0&#45;R_add_e -->
<g id="node5" class="node">
<title>function&#45;0&#45;R_add_e</title>
<g id="a_node5"><a xlink:title="Tensor&#45;5: function&#45;0&#45;R_add_e">
<path fill="white" stroke="transparent" d="M144.67,-332C144.67,-332 191.33,-332 191.33,-332 196.67,-332 202,-337.33 202,-342.67 202,-342.67 202,-353.33 202,-353.33 202,-358.67 196.67,-364 191.33,-364 191.33,-364 144.67,-364 144.67,-364 139.33,-364 134,-358.67 134,-353.33 134,-353.33 134,-342.67 134,-342.67 134,-337.33 139.33,-332 144.67,-332"/>
<text text-anchor="start" x="139" y="-344.3" font-family="Helvetica,sans-Serif" font-size="14.00">R_add_e</text>
<path fill="none" stroke="black" d="M144.67,-332C144.67,-332 191.33,-332 191.33,-332 196.67,-332 202,-337.33 202,-342.67 202,-342.67 202,-353.33 202,-353.33 202,-358.67 196.67,-364 191.33,-364 191.33,-364 144.67,-364 144.67,-364 139.33,-364 134,-358.67 134,-353.33 134,-353.33 134,-342.67 134,-342.67 134,-337.33 139.33,-332 144.67,-332"/>
</a>
</g>
</g>
<!-- function&#45;0&#45;R_max_m0 -->
<g id="node6" class="node">
<title>function&#45;0&#45;R_max_m0</title>
<g id="a_node6"><a xlink:title="Tensor&#45;6: function&#45;0&#45;R_max_m0">
<path fill="white" stroke="transparent" d="M127.67,-411C127.67,-411 192.33,-411 192.33,-411 197.67,-411 203,-416.33 203,-421.67 203,-421.67 203,-432.33 203,-432.33 203,-437.67 197.67,-443 192.33,-443 192.33,-443 127.67,-443 127.67,-443 122.33,-443 117,-437.67 117,-432.33 117,-432.33 117,-421.67 117,-421.67 117,-416.33 122.33,-411 127.67,-411"/>
<text text-anchor="start" x="122" y="-423.3" font-family="Helvetica,sans-Serif" font-size="14.00">R_max_m0</text>
<path fill="none" stroke="black" d="M127.67,-411C127.67,-411 192.33,-411 192.33,-411 197.67,-411 203,-416.33 203,-421.67 203,-421.67 203,-432.33 203,-432.33 203,-437.67 197.67,-443 192.33,-443 192.33,-443 127.67,-443 127.67,-443 122.33,-443 117,-437.67 117,-432.33 117,-432.33 117,-421.67 117,-421.67 117,-416.33 122.33,-411 127.67,-411"/>
</a>
</g>
</g>
<!-- function&#45;0&#45;M_mul_em1m0p -->
<g id="node7" class="node">
<title>function&#45;0&#45;M_mul_em1m0p</title>
<g id="a_node7"><a xlink:title="Tensor&#45;4: function&#45;0&#45;M_mul_em1m0p">
<path fill="white" stroke="transparent" d="M116.17,-253C116.17,-253 219.83,-253 219.83,-253 225.17,-253 230.5,-258.33 230.5,-263.67 230.5,-263.67 230.5,-274.33 230.5,-274.33 230.5,-279.67 225.17,-285 219.83,-285 219.83,-285 116.17,-285 116.17,-285 110.83,-285 105.5,-279.67 105.5,-274.33 105.5,-274.33 105.5,-263.67 105.5,-263.67 105.5,-258.33 110.83,-253 116.17,-253"/>
<text text-anchor="start" x="111" y="-265.3" font-family="Helvetica,sans-Serif" font-size="14.00">M_mul_em1m0p</text>
<path fill="none" stroke="black" d="M116.17,-253C116.17,-253 219.83,-253 219.83,-253 225.17,-253 230.5,-258.33 230.5,-263.67 230.5,-263.67 230.5,-274.33 230.5,-274.33 230.5,-279.67 225.17,-285 219.83,-285 219.83,-285 116.17,-285 116.17,-285 110.83,-285 105.5,-279.67 105.5,-274.33 105.5,-274.33 105.5,-263.67 105.5,-263.67 105.5,-258.33 110.83,-253 116.17,-253"/>
</a>
</g>
</g>
<!-- function&#45;0&#45;R_add_m -->
<g id="node8" class="node">
<title>function&#45;0&#45;R_add_m</title>
<g id="a_node8"><a xlink:title="Tensor&#45;18: function&#45;0&#45;R_add_m">
<path fill="white" stroke="transparent" d="M237.67,-964C237.67,-964 290.33,-964 290.33,-964 295.67,-964 301,-969.33 301,-974.67 301,-974.67 301,-985.33 301,-985.33 301,-990.67 295.67,-996 290.33,-996 290.33,-996 237.67,-996 237.67,-996 232.33,-996 227,-990.67 227,-985.33 227,-985.33 227,-974.67 227,-974.67 227,-969.33 232.33,-964 237.67,-964"/>
<text text-anchor="start" x="232" y="-976.3" font-family="Helvetica,sans-Serif" font-size="14.00">R_add_m</text>
<path fill="none" stroke="black" d="M237.67,-964C237.67,-964 290.33,-964 290.33,-964 295.67,-964 301,-969.33 301,-974.67 301,-974.67 301,-985.33 301,-985.33 301,-990.67 295.67,-996 290.33,-996 290.33,-996 237.67,-996 237.67,-996 232.33,-996 227,-990.67 227,-985.33 227,-985.33 227,-974.67 227,-974.67 227,-969.33 232.33,-964 237.67,-964"/>
</a>
</g>
</g>
<!-- function&#45;0&#45;M_mul_fmp -->
<g id="node9" class="node">
<title>function&#45;0&#45;M_mul_fmp</title>
<g id="a_node9"><a xlink:title="Tensor&#45;17: function&#45;0&#45;M_mul_fmp">
<path fill="white" stroke="transparent" d="M261.67,-885C261.67,-885 330.33,-885 330.33,-885 335.67,-885 341,-890.33 341,-895.67 341,-895.67 341,-906.33 341,-906.33 341,-911.67 335.67,-917 330.33,-917 330.33,-917 261.67,-917 261.67,-917 256.33,-917 251,-911.67 251,-906.33 251,-906.33 251,-895.67 251,-895.67 251,-890.33 256.33,-885 261.67,-885"/>
<text text-anchor="start" x="256" y="-897.3" font-family="Helvetica,sans-Serif" font-size="14.00">M_mul_fmp</text>
<path fill="none" stroke="black" d="M261.67,-885C261.67,-885 330.33,-885 330.33,-885 335.67,-885 341,-890.33 341,-895.67 341,-895.67 341,-906.33 341,-906.33 341,-911.67 335.67,-917 330.33,-917 330.33,-917 261.67,-917 261.67,-917 256.33,-917 251,-911.67 251,-906.33 251,-906.33 251,-895.67 251,-895.67 251,-890.33 256.33,-885 261.67,-885"/>
</a>
</g>
</g>
<!-- function&#45;0&#45;R_add_m1 -->
<g id="node10" class="node">
<title>function&#45;0&#45;R_add_m1</title>
<g id="a_node10"><a xlink:title="Tensor&#45;15: function&#45;0&#45;R_add_m1">
<path fill="white" stroke="transparent" d="M134.17,-964C134.17,-964 195.83,-964 195.83,-964 201.17,-964 206.5,-969.33 206.5,-974.67 206.5,-974.67 206.5,-985.33 206.5,-985.33 206.5,-990.67 201.17,-996 195.83,-996 195.83,-996 134.17,-996 134.17,-996 128.83,-996 123.5,-990.67 123.5,-985.33 123.5,-985.33 123.5,-974.67 123.5,-974.67 123.5,-969.33 128.83,-964 134.17,-964"/>
<text text-anchor="start" x="129" y="-976.3" font-family="Helvetica,sans-Serif" font-size="14.00">R_add_m1</text>
<path fill="none" stroke="black" d="M134.17,-964C134.17,-964 195.83,-964 195.83,-964 201.17,-964 206.5,-969.33 206.5,-974.67 206.5,-974.67 206.5,-985.33 206.5,-985.33 206.5,-990.67 201.17,-996 195.83,-996 195.83,-996 134.17,-996 134.17,-996 128.83,-996 123.5,-990.67 123.5,-985.33 123.5,-985.33 123.5,-974.67 123.5,-974.67 123.5,-969.33 128.83,-964 134.17,-964"/>
</a>
</g>
</g>
<!-- function&#45;0&#45;M_mul_m1p -->
<g id="node11" class="node">
<title>function&#45;0&#45;M_mul_m1p</title>
<g id="a_node11"><a xlink:title="Tensor&#45;14: function&#45;0&#45;M_mul_m1p">
<path fill="white" stroke="transparent" d="M105.67,-806C105.67,-806 178.33,-806 178.33,-806 183.67,-806 189,-811.33 189,-816.67 189,-816.67 189,-827.33 189,-827.33 189,-832.67 183.67,-838 178.33,-838 178.33,-838 105.67,-838 105.67,-838 100.33,-838 95,-832.67 95,-827.33 95,-827.33 95,-816.67 95,-816.67 95,-811.33 100.33,-806 105.67,-806"/>
<text text-anchor="start" x="100" y="-818.3" font-family="Helvetica,sans-Serif" font-size="14.00">M_mul_m1p</text>
<path fill="none" stroke="black" d="M105.67,-806C105.67,-806 178.33,-806 178.33,-806 183.67,-806 189,-811.33 189,-816.67 189,-816.67 189,-827.33 189,-827.33 189,-832.67 183.67,-838 178.33,-838 178.33,-838 105.67,-838 105.67,-838 100.33,-838 95,-832.67 95,-827.33 95,-827.33 95,-816.67 95,-816.67 95,-811.33 100.33,-806 105.67,-806"/>
</a>
</g>
</g>
<!-- function&#45;0&#45;R_add_m0 -->
<g id="node12" class="node">
<title>function&#45;0&#45;R_add_m0</title>
<g id="a_node12"><a xlink:title="Tensor&#45;10: function&#45;0&#45;R_add_m0">
<path fill="white" stroke="transparent" d="M132.17,-727C132.17,-727 193.83,-727 193.83,-727 199.17,-727 204.5,-732.33 204.5,-737.67 204.5,-737.67 204.5,-748.33 204.5,-748.33 204.5,-753.67 199.17,-759 193.83,-759 193.83,-759 132.17,-759 132.17,-759 126.83,-759 121.5,-753.67 121.5,-748.33 121.5,-748.33 121.5,-737.67 121.5,-737.67 121.5,-732.33 126.83,-727 132.17,-727"/>
<text text-anchor="start" x="127" y="-739.3" font-family="Helvetica,sans-Serif" font-size="14.00">R_add_m0</text>
<path fill="none" stroke="black" d="M132.17,-727C132.17,-727 193.83,-727 193.83,-727 199.17,-727 204.5,-732.33 204.5,-737.67 204.5,-737.67 204.5,-748.33 204.5,-748.33 204.5,-753.67 199.17,-759 193.83,-759 193.83,-759 132.17,-759 132.17,-759 126.83,-759 121.5,-753.67 121.5,-748.33 121.5,-748.33 121.5,-737.67 121.5,-737.67 121.5,-732.33 126.83,-727 132.17,-727"/>
</a>
</g>
</g>
<!-- function&#45;0&#45;M_exp_m1p -->
<g id="node13" class="node">
<title>function&#45;0&#45;M_exp_m1p</title>
<g id="a_node13"><a xlink:title="Tensor&#45;12: function&#45;0&#45;M_exp_m1p">
<path fill="white" stroke="transparent" d="M79.17,-648C79.17,-648 150.83,-648 150.83,-648 156.17,-648 161.5,-653.33 161.5,-658.67 161.5,-658.67 161.5,-669.33 161.5,-669.33 161.5,-674.67 156.17,-680 150.83,-680 150.83,-680 79.17,-680 79.17,-680 73.83,-680 68.5,-674.67 68.5,-669.33 68.5,-669.33 68.5,-658.67 68.5,-658.67 68.5,-653.33 73.83,-648 79.17,-648"/>
<text text-anchor="start" x="74" y="-660.3" font-family="Helvetica,sans-Serif" font-size="14.00">M_exp_m1p</text>
<path fill="none" stroke="black" d="M79.17,-648C79.17,-648 150.83,-648 150.83,-648 156.17,-648 161.5,-653.33 161.5,-658.67 161.5,-658.67 161.5,-669.33 161.5,-669.33 161.5,-674.67 156.17,-680 150.83,-680 150.83,-680 79.17,-680 79.17,-680 73.83,-680 68.5,-674.67 68.5,-669.33 68.5,-669.33 68.5,-658.67 68.5,-658.67 68.5,-653.33 73.83,-648 79.17,-648"/>
</a>
</g>
</g>
<!-- function&#45;0&#45;CreateTensor -->
<g id="node14" class="node">
<title>function&#45;0&#45;CreateTensor</title>
<g id="a_node14"><a xlink:title="Tensor&#45;0: function&#45;0&#45;CreateTensor">
<path fill="white" stroke="transparent" d="M25.17,-95C25.17,-95 104.83,-95 104.83,-95 110.17,-95 115.5,-100.33 115.5,-105.67 115.5,-105.67 115.5,-116.33 115.5,-116.33 115.5,-121.67 110.17,-127 104.83,-127 104.83,-127 25.17,-127 25.17,-127 19.83,-127 14.5,-121.67 14.5,-116.33 14.5,-116.33 14.5,-105.67 14.5,-105.67 14.5,-100.33 19.83,-95 25.17,-95"/>
<text text-anchor="start" x="20" y="-107.3" font-family="Helvetica,sans-Serif" font-size="14.00">CreateTensor</text>
<path fill="none" stroke="black" d="M25.17,-95C25.17,-95 104.83,-95 104.83,-95 110.17,-95 115.5,-100.33 115.5,-105.67 115.5,-105.67 115.5,-116.33 115.5,-116.33 115.5,-121.67 110.17,-127 104.83,-127 104.83,-127 25.17,-127 25.17,-127 19.83,-127 14.5,-121.67 14.5,-116.33 14.5,-116.33 14.5,-105.67 14.5,-105.67 14.5,-100.33 19.83,-95 25.17,-95"/>
</a>
</g>
</g>
<!-- primitive&#45;i64&#45;64 -->
<g id="node15" class="node">
<title>primitive&#45;i64&#45;64</title>
<g id="a_node15"><a xlink:title="i64&#45;64: primitive&#45;i64&#45;64">
<path fill="white" stroke="transparent" d="M134.67,-16C134.67,-16 145.33,-16 145.33,-16 150.67,-16 156,-21.33 156,-26.67 156,-26.67 156,-37.33 156,-37.33 156,-42.67 150.67,-48 145.33,-48 145.33,-48 134.67,-48 134.67,-48 129.33,-48 124,-42.67 124,-37.33 124,-37.33 124,-26.67 124,-26.67 124,-21.33 129.33,-16 134.67,-16"/>
<text text-anchor="start" x="130.5" y="-28.3" font-family="Helvetica,sans-Serif" font-size="14.00">64</text>
<path fill="none" stroke="black" d="M134.67,-16C134.67,-16 145.33,-16 145.33,-16 150.67,-16 156,-21.33 156,-26.67 156,-26.67 156,-37.33 156,-37.33 156,-42.67 150.67,-48 145.33,-48 145.33,-48 134.67,-48 134.67,-48 129.33,-48 124,-42.67 124,-37.33 124,-37.33 124,-26.67 124,-26.67 124,-21.33 129.33,-16 134.67,-16"/>
</a>
</g>
</g>
<!-- primitive&#45;i64&#45;1024 -->
<g id="node16" class="node">
<title>primitive&#45;i64&#45;1024</title>
<g id="a_node16"><a xlink:title="i64&#45;1024: primitive&#45;i64&#45;1024">
<path fill="white" stroke="transparent" d="M193.17,-16C193.17,-16 218.83,-16 218.83,-16 224.17,-16 229.5,-21.33 229.5,-26.67 229.5,-26.67 229.5,-37.33 229.5,-37.33 229.5,-42.67 224.17,-48 218.83,-48 218.83,-48 193.17,-48 193.17,-48 187.83,-48 182.5,-42.67 182.5,-37.33 182.5,-37.33 182.5,-26.67 182.5,-26.67 182.5,-21.33 187.83,-16 193.17,-16"/>
<text text-anchor="start" x="188" y="-28.3" font-family="Helvetica,sans-Serif" font-size="14.00">1024</text>
<path fill="none" stroke="black" d="M193.17,-16C193.17,-16 218.83,-16 218.83,-16 224.17,-16 229.5,-21.33 229.5,-26.67 229.5,-26.67 229.5,-37.33 229.5,-37.33 229.5,-42.67 224.17,-48 218.83,-48 218.83,-48 193.17,-48 193.17,-48 187.83,-48 182.5,-42.67 182.5,-37.33 182.5,-37.33 182.5,-26.67 182.5,-26.67 182.5,-21.33 187.83,-16 193.17,-16"/>
</a>
</g>
</g>
<!-- function&#45;0&#45;M_mul_m1m0p -->
<g id="node17" class="node">
<title>function&#45;0&#45;M_mul_m1m0p</title>
<g id="a_node17"><a xlink:title="Tensor&#45;13: function&#45;0&#45;M_mul_m1m0p">
<path fill="white" stroke="transparent" d="M227.67,-727C227.67,-727 322.33,-727 322.33,-727 327.67,-727 333,-732.33 333,-737.67 333,-737.67 333,-748.33 333,-748.33 333,-753.67 327.67,-759 322.33,-759 322.33,-759 227.67,-759 227.67,-759 222.33,-759 217,-753.67 217,-748.33 217,-748.33 217,-737.67 217,-737.67 217,-732.33 222.33,-727 227.67,-727"/>
<text text-anchor="start" x="222" y="-739.3" font-family="Helvetica,sans-Serif" font-size="14.00">M_mul_m1m0p</text>
<path fill="none" stroke="black" d="M227.67,-727C227.67,-727 322.33,-727 322.33,-727 327.67,-727 333,-732.33 333,-737.67 333,-737.67 333,-748.33 333,-748.33 333,-753.67 327.67,-759 322.33,-759 322.33,-759 227.67,-759 227.67,-759 222.33,-759 217,-753.67 217,-748.33 217,-748.33 217,-737.67 217,-737.67 217,-732.33 222.33,-727 227.67,-727"/>
</a>
</g>
</g>
<!-- function&#45;0&#45;M_exp_m1m0p -->
<g id="node18" class="node">
<title>function&#45;0&#45;M_exp_m1m0p</title>
<g id="a_node18"><a xlink:title="Tensor&#45;9: function&#45;0&#45;M_exp_m1m0p">
<path fill="white" stroke="transparent" d="M193.67,-648C193.67,-648 288.33,-648 288.33,-648 293.67,-648 299,-653.33 299,-658.67 299,-658.67 299,-669.33 299,-669.33 299,-674.67 293.67,-680 288.33,-680 288.33,-680 193.67,-680 193.67,-680 188.33,-680 183,-674.67 183,-669.33 183,-669.33 183,-658.67 183,-658.67 183,-653.33 188.33,-648 193.67,-648"/>
<text text-anchor="start" x="188" y="-660.3" font-family="Helvetica,sans-Serif" font-size="14.00">M_exp_m1m0p</text>
<path fill="none" stroke="black" d="M193.67,-648C193.67,-648 288.33,-648 288.33,-648 293.67,-648 299,-653.33 299,-658.67 299,-658.67 299,-669.33 299,-669.33 299,-674.67 293.67,-680 288.33,-680 288.33,-680 193.67,-680 193.67,-680 188.33,-680 183,-674.67 183,-669.33 183,-669.33 183,-658.67 183,-658.67 183,-653.33 188.33,-648 193.67,-648"/>
</a>
</g>
</g>
<!-- function&#45;0&#45;T_unsplit_m1m0_m -->
<g id="node19" class="node">
<title>function&#45;0&#45;T_unsplit_m1m0_m</title>
<g id="a_node19"><a xlink:title="Tensor&#45;16: function&#45;0&#45;T_unsplit_m1m0_m">
<path fill="white" stroke="transparent" d="M212.17,-806C212.17,-806 335.83,-806 335.83,-806 341.17,-806 346.5,-811.33 346.5,-816.67 346.5,-816.67 346.5,-827.33 346.5,-827.33 346.5,-832.67 341.17,-838 335.83,-838 335.83,-838 212.17,-838 212.17,-838 206.83,-838 201.5,-832.67 201.5,-827.33 201.5,-827.33 201.5,-816.67 201.5,-816.67 201.5,-811.33 206.83,-806 212.17,-806"/>
<text text-anchor="start" x="207" y="-818.3" font-family="Helvetica,sans-Serif" font-size="14.00">T_unsplit_m1m0_m</text>
<path fill="none" stroke="black" d="M212.17,-806C212.17,-806 335.83,-806 335.83,-806 341.17,-806 346.5,-811.33 346.5,-816.67 346.5,-816.67 346.5,-827.33 346.5,-827.33 346.5,-832.67 341.17,-838 335.83,-838 335.83,-838 212.17,-838 212.17,-838 206.83,-838 201.5,-832.67 201.5,-827.33 201.5,-827.33 201.5,-816.67 201.5,-816.67 201.5,-811.33 206.83,-806 212.17,-806"/>
</a>
</g>
</g>
<!-- function&#45;2&#45;CreateTensor -->
<g id="node20" class="node">
<title>function&#45;2&#45;CreateTensor</title>
<g id="a_node20"><a xlink:title="Tensor&#45;2: function&#45;2&#45;CreateTensor">
<path fill="white" stroke="transparent" d="M319.17,-95C319.17,-95 398.83,-95 398.83,-95 404.17,-95 409.5,-100.33 409.5,-105.67 409.5,-105.67 409.5,-116.33 409.5,-116.33 409.5,-121.67 404.17,-127 398.83,-127 398.83,-127 319.17,-127 319.17,-127 313.83,-127 308.5,-121.67 308.5,-116.33 308.5,-116.33 308.5,-105.67 308.5,-105.67 308.5,-100.33 313.83,-95 319.17,-95"/>
<text text-anchor="start" x="314" y="-107.3" font-family="Helvetica,sans-Serif" font-size="14.00">CreateTensor</text>
<path fill="none" stroke="black" d="M319.17,-95C319.17,-95 398.83,-95 398.83,-95 404.17,-95 409.5,-100.33 409.5,-105.67 409.5,-105.67 409.5,-116.33 409.5,-116.33 409.5,-121.67 404.17,-127 398.83,-127 398.83,-127 319.17,-127 319.17,-127 313.83,-127 308.5,-121.67 308.5,-116.33 308.5,-116.33 308.5,-105.67 308.5,-105.67 308.5,-100.33 313.83,-95 319.17,-95"/>
</a>
</g>
</g>
<!-- function&#45;0&#45;T_split_m_m1m0 -->
<g id="node21" class="node">
<title>function&#45;0&#45;T_split_m_m1m0</title>
<g id="a_node21"><a xlink:title="Tensor&#45;3: function&#45;0&#45;T_split_m_m1m0">
<path fill="white" stroke="transparent" d="M157.17,-174C157.17,-174 262.83,-174 262.83,-174 268.17,-174 273.5,-179.33 273.5,-184.67 273.5,-184.67 273.5,-195.33 273.5,-195.33 273.5,-200.67 268.17,-206 262.83,-206 262.83,-206 157.17,-206 157.17,-206 151.83,-206 146.5,-200.67 146.5,-195.33 146.5,-195.33 146.5,-184.67 146.5,-184.67 146.5,-179.33 151.83,-174 157.17,-174"/>
<text text-anchor="start" x="152" y="-186.3" font-family="Helvetica,sans-Serif" font-size="14.00">T_split_m_m1m0</text>
<path fill="none" stroke="black" d="M157.17,-174C157.17,-174 262.83,-174 262.83,-174 268.17,-174 273.5,-179.33 273.5,-184.67 273.5,-184.67 273.5,-195.33 273.5,-195.33 273.5,-200.67 268.17,-206 262.83,-206 262.83,-206 157.17,-206 157.17,-206 151.83,-206 146.5,-200.67 146.5,-195.33 146.5,-195.33 146.5,-184.67 146.5,-184.67 146.5,-179.33 151.83,-174 157.17,-174"/>
</a>
</g>
</g>
<!-- function&#45;1&#45;CreateTensor -->
<g id="node22" class="node">
<title>function&#45;1&#45;CreateTensor</title>
<g id="a_node22"><a xlink:title="Tensor&#45;1: function&#45;1&#45;CreateTensor">
<path fill="white" stroke="transparent" d="M139.17,-95C139.17,-95 218.83,-95 218.83,-95 224.17,-95 229.5,-100.33 229.5,-105.67 229.5,-105.67 229.5,-116.33 229.5,-116.33 229.5,-121.67 224.17,-127 218.83,-127 218.83,-127 139.17,-127 139.17,-127 133.83,-127 128.5,-121.67 128.5,-116.33 128.5,-116.33 128.5,-105.67 128.5,-105.67 128.5,-100.33 133.83,-95 139.17,-95"/>
<text text-anchor="start" x="134" y="-107.3" font-family="Helvetica,sans-Serif" font-size="14.00">CreateTensor</text>
<path fill="none" stroke="black" d="M139.17,-95C139.17,-95 218.83,-95 218.83,-95 224.17,-95 229.5,-100.33 229.5,-105.67 229.5,-105.67 229.5,-116.33 229.5,-116.33 229.5,-121.67 224.17,-127 218.83,-127 218.83,-127 139.17,-127 139.17,-127 133.83,-127 128.5,-121.67 128.5,-116.33 128.5,-116.33 128.5,-105.67 128.5,-105.67 128.5,-100.33 133.83,-95 139.17,-95"/>
</a>
</g>
</g>
<!-- primitive&#45;i64&#45;4 -->
<g id="node23" class="node">
<title>primitive&#45;i64&#45;4</title>
<g id="a_node23"><a xlink:title="i64&#45;4: primitive&#45;i64&#45;4">
<path fill="white" stroke="transparent" d="M263.67,-95C263.67,-95 274.33,-95 274.33,-95 279.67,-95 285,-100.33 285,-105.67 285,-105.67 285,-116.33 285,-116.33 285,-121.67 279.67,-127 274.33,-127 274.33,-127 263.67,-127 263.67,-127 258.33,-127 253,-121.67 253,-116.33 253,-116.33 253,-105.67 253,-105.67 253,-100.33 258.33,-95 263.67,-95"/>
<text text-anchor="start" x="264" y="-107.3" font-family="Helvetica,sans-Serif" font-size="14.00">4</text>
<path fill="none" stroke="black" d="M263.67,-95C263.67,-95 274.33,-95 274.33,-95 279.67,-95 285,-100.33 285,-105.67 285,-105.67 285,-116.33 285,-116.33 285,-121.67 279.67,-127 274.33,-127 274.33,-127 263.67,-127 263.67,-127 258.33,-127 253,-121.67 253,-116.33 253,-116.33 253,-105.67 253,-105.67 253,-100.33 258.33,-95 263.67,-95"/>
</a>
</g>
</g>
<!-- function&#45;0&#45;M_sub_m1p -->
<g id="node24" class="node">
<title>function&#45;0&#45;M_sub_m1p</title>
<g id="a_node24"><a xlink:title="Tensor&#45;11: function&#45;0&#45;M_sub_m1p">
<path fill="white" stroke="transparent" d="M80.17,-569C80.17,-569 151.83,-569 151.83,-569 157.17,-569 162.5,-574.33 162.5,-579.67 162.5,-579.67 162.5,-590.33 162.5,-590.33 162.5,-595.67 157.17,-601 151.83,-601 151.83,-601 80.17,-601 80.17,-601 74.83,-601 69.5,-595.67 69.5,-590.33 69.5,-590.33 69.5,-579.67 69.5,-579.67 69.5,-574.33 74.83,-569 80.17,-569"/>
<text text-anchor="start" x="75" y="-581.3" font-family="Helvetica,sans-Serif" font-size="14.00">M_sub_m1p</text>
<path fill="none" stroke="black" d="M80.17,-569C80.17,-569 151.83,-569 151.83,-569 157.17,-569 162.5,-574.33 162.5,-579.67 162.5,-579.67 162.5,-590.33 162.5,-590.33 162.5,-595.67 157.17,-601 151.83,-601 151.83,-601 80.17,-601 80.17,-601 74.83,-601 69.5,-595.67 69.5,-590.33 69.5,-590.33 69.5,-579.67 69.5,-579.67 69.5,-574.33 74.83,-569 80.17,-569"/>
</a>
</g>
</g>
<!-- function&#45;0&#45;R_max_m1 -->
<g id="node25" class="node">
<title>function&#45;0&#45;R_max_m1</title>
<g id="a_node25"><a xlink:title="Tensor&#45;7: function&#45;0&#45;R_max_m1">
<path fill="white" stroke="transparent" d="M76.67,-490C76.67,-490 141.33,-490 141.33,-490 146.67,-490 152,-495.33 152,-500.67 152,-500.67 152,-511.33 152,-511.33 152,-516.67 146.67,-522 141.33,-522 141.33,-522 76.67,-522 76.67,-522 71.33,-522 66,-516.67 66,-511.33 66,-511.33 66,-500.67 66,-500.67 66,-495.33 71.33,-490 76.67,-490"/>
<text text-anchor="start" x="71" y="-502.3" font-family="Helvetica,sans-Serif" font-size="14.00">R_max_m1</text>
<path fill="none" stroke="black" d="M76.67,-490C76.67,-490 141.33,-490 141.33,-490 146.67,-490 152,-495.33 152,-500.67 152,-500.67 152,-511.33 152,-511.33 152,-516.67 146.67,-522 141.33,-522 141.33,-522 76.67,-522 76.67,-522 71.33,-522 66,-516.67 66,-511.33 66,-511.33 66,-500.67 66,-500.67 66,-495.33 71.33,-490 76.67,-490"/>
</a>
</g>
</g>
<!-- function&#45;0&#45;M_div_fp -->
<g id="node26" class="node">
<title>function&#45;0&#45;M_div_fp</title>
<g id="a_node26"><a xlink:title="Tensor&#45;19: function&#45;0&#45;M_div_fp">
<path fill="white" stroke="transparent" d="M217.17,-1043C217.17,-1043 266.83,-1043 266.83,-1043 272.17,-1043 277.5,-1048.33 277.5,-1053.67 277.5,-1053.67 277.5,-1064.33 277.5,-1064.33 277.5,-1069.67 272.17,-1075 266.83,-1075 266.83,-1075 217.17,-1075 217.17,-1075 211.83,-1075 206.5,-1069.67 206.5,-1064.33 206.5,-1064.33 206.5,-1053.67 206.5,-1053.67 206.5,-1048.33 211.83,-1043 217.17,-1043"/>
<text text-anchor="start" x="212" y="-1055.3" font-family="Helvetica,sans-Serif" font-size="14.00">M_div_fp</text>
<path fill="none" stroke="black" d="M217.17,-1043C217.17,-1043 266.83,-1043 266.83,-1043 272.17,-1043 277.5,-1048.33 277.5,-1053.67 277.5,-1053.67 277.5,-1064.33 277.5,-1064.33 277.5,-1069.67 272.17,-1075 266.83,-1075 266.83,-1075 217.17,-1075 217.17,-1075 211.83,-1075 206.5,-1069.67 206.5,-1064.33 206.5,-1064.33 206.5,-1053.67 206.5,-1053.67 206.5,-1048.33 211.83,-1043 217.17,-1043"/>
</a>
</g>
</g>
</g>
</svg>
