<?xml version="1.0" encoding="UTF-8" standalone="no"?>
<!DOCTYPE svg PUBLIC "-//W3C//DTD SVG 1.1//EN"
 "http://www.w3.org/Graphics/SVG/1.1/DTD/svg11.dtd">
<!-- Generated by graphviz version 2.43.0 (0)
 -->
<!-- Title: %3 Pages: 1 -->
<svg width="648pt" height="1200pt"
 viewBox="0.00 0.00 648.00 1200.00" xmlns="http://www.w3.org/2000/svg" xmlns:xlink="http://www.w3.org/1999/xlink">
<g id="graph0" class="graph" transform="scale(1 1) rotate(0) translate(4 1196)">
<title>%3</title>
<polygon fill="white" stroke="#000000" points="-4,4 -4,-1196 644,-1196 644,4 -4,4"/>
<g id="clust1" class="cluster">
<title>outer_cluster_String&#45;2</title>
</g>
<g id="clust2" class="cluster">
<title>cluster_String&#45;2</title>
<path fill="#ffffb3" stroke="black" stroke-dasharray="5,2" d="M534,-11C534,-11 570,-11 570,-11 576,-11 582,-17 582,-23 582,-23 582,-41 582,-41 582,-47 576,-53 570,-53 570,-53 534,-53 534,-53 528,-53 522,-47 522,-41 522,-41 522,-23 522,-23 522,-17 528,-11 534,-11"/>
</g>
<g id="clust4" class="cluster">
<title>outer_cluster_String&#45;0</title>
</g>
<g id="clust5" class="cluster">
<title>cluster_String&#45;0</title>
<path fill="#ffffb3" stroke="black" stroke-dasharray="5,2" d="M298,-11C298,-11 334,-11 334,-11 340,-11 346,-17 346,-23 346,-23 346,-41 346,-41 346,-47 340,-53 334,-53 334,-53 298,-53 298,-53 292,-53 286,-47 286,-41 286,-41 286,-23 286,-23 286,-17 292,-11 298,-11"/>
</g>
<g id="clust7" class="cluster">
<title>outer_cluster_String&#45;1</title>
</g>
<g id="clust8" class="cluster">
<title>cluster_String&#45;1</title>
<path fill="#ffffb3" stroke="black" stroke-dasharray="5,2" d="M232,-11C232,-11 268,-11 268,-11 274,-11 280,-17 280,-23 280,-23 280,-41 280,-41 280,-47 274,-53 268,-53 268,-53 232,-53 232,-53 226,-53 220,-47 220,-41 220,-41 220,-23 220,-23 220,-17 226,-11 232,-11"/>
</g>
<g id="clust10" class="cluster">
<title>outer_cluster_Tensor&#45;2</title>
</g>
<g id="clust11" class="cluster">
<title>cluster_Tensor&#45;2</title>
<path fill="#bebada" stroke="black" stroke-dasharray="5,2" d="M472,-90C472,-90 556,-90 556,-90 562,-90 568,-96 568,-102 568,-102 568,-142 568,-142 568,-148 562,-154 556,-154 556,-154 472,-154 472,-154 466,-154 460,-148 460,-142 460,-142 460,-102 460,-102 460,-96 466,-90 472,-90"/>
<text text-anchor="start" x="503" y="-140.8" font-family="Helvetica,sans-Serif" font-size="9.00">let</text>
<text text-anchor="start" x="519" y="-140.8" font-family="Helvetica,sans-Serif" font-size="9.00">V</text>
</g>
<g id="clust13" class="cluster">
<title>outer_cluster_Tensor&#45;3</title>
</g>
<g id="clust14" class="cluster">
<title>cluster_Tensor&#45;3</title>
<path fill="#bebada" stroke="black" stroke-dasharray="5,2" d="M151,-248C151,-248 355,-248 355,-248 361,-248 367,-254 367,-260 367,-260 367,-300 367,-300 367,-306 361,-312 355,-312 355,-312 151,-312 151,-312 145,-312 139,-306 139,-300 139,-300 139,-260 139,-260 139,-254 145,-248 151,-248"/>
<text text-anchor="start" x="224" y="-298.8" font-family="Helvetica,sans-Serif" font-size="9.00">let</text>
<text text-anchor="start" x="240" y="-298.8" font-family="Helvetica,sans-Serif" font-size="9.00">QK_temp</text>
</g>
<g id="clust16" class="cluster">
<title>outer_cluster_Tensor&#45;7</title>
</g>
<g id="clust17" class="cluster">
<title>cluster_Tensor&#45;7</title>
<path fill="#bebada" stroke="black" stroke-dasharray="5,2" d="M123,-643C123,-643 309,-643 309,-643 315,-643 321,-649 321,-655 321,-655 321,-695 321,-695 321,-701 315,-707 309,-707 309,-707 123,-707 123,-707 117,-707 111,-701 111,-695 111,-695 111,-655 111,-655 111,-649 117,-643 123,-643"/>
<text text-anchor="start" x="202" y="-693.8" font-family="Helvetica,sans-Serif" font-size="9.00">let</text>
<text text-anchor="start" x="218" y="-693.8" font-family="Helvetica,sans-Serif" font-size="9.00">SN</text>
</g>
<g id="clust19" class="cluster">
<title>outer_cluster_Tensor&#45;19</title>
</g>
<g id="clust20" class="cluster">
<title>cluster_Tensor&#45;19</title>
<path fill="#bebada" stroke="black" stroke-dasharray="5,2" d="M259,-801C259,-801 335,-801 335,-801 341,-801 347,-807 347,-813 347,-813 347,-831 347,-831 347,-837 341,-843 335,-843 335,-843 259,-843 259,-843 253,-843 247,-837 247,-831 247,-831 247,-813 247,-813 247,-807 253,-801 259,-801"/>
</g>
<g id="clust22" class="cluster">
<title>outer_cluster_Tensor&#45;16</title>
</g>
<g id="clust23" class="cluster">
<title>cluster_Tensor&#45;16</title>
<path fill="#bebada" stroke="black" stroke-dasharray="5,2" d="M332,-564C332,-564 406,-564 406,-564 412,-564 418,-570 418,-576 418,-576 418,-594 418,-594 418,-600 412,-606 406,-606 406,-606 332,-606 332,-606 326,-606 320,-600 320,-594 320,-594 320,-576 320,-576 320,-570 326,-564 332,-564"/>
</g>
<g id="clust25" class="cluster">
<title>outer_cluster_Tensor&#45;11</title>
</g>
<g id="clust26" class="cluster">
<title>cluster_Tensor&#45;11</title>
<path fill="#bebada" stroke="black" stroke-dasharray="5,2" d="M173,-1117C173,-1117 617,-1117 617,-1117 623,-1117 629,-1123 629,-1129 629,-1129 629,-1169 629,-1169 629,-1175 623,-1181 617,-1181 617,-1181 173,-1181 173,-1181 167,-1181 161,-1175 161,-1169 161,-1169 161,-1129 161,-1129 161,-1123 167,-1117 173,-1117"/>
<text text-anchor="start" x="381" y="-1167.8" font-family="Helvetica,sans-Serif" font-size="9.00">let</text>
<text text-anchor="start" x="397" y="-1167.8" font-family="Helvetica,sans-Serif" font-size="9.00">AV</text>
</g>
<g id="clust28" class="cluster">
<title>outer_cluster_Tensor&#45;20</title>
</g>
<g id="clust29" class="cluster">
<title>cluster_Tensor&#45;20</title>
<path fill="#bebada" stroke="black" stroke-dasharray="5,2" d="M253,-1038C253,-1038 319,-1038 319,-1038 325,-1038 331,-1044 331,-1050 331,-1050 331,-1068 331,-1068 331,-1074 325,-1080 319,-1080 319,-1080 253,-1080 253,-1080 247,-1080 241,-1074 241,-1068 241,-1068 241,-1050 241,-1050 241,-1044 247,-1038 253,-1038"/>
</g>
<g id="clust31" class="cluster">
<title>outer_cluster_Tensor&#45;18</title>
</g>
<g id="clust32" class="cluster">
<title>cluster_Tensor&#45;18</title>
<path fill="#bebada" stroke="black" stroke-dasharray="5,2" d="M285,-722C285,-722 383,-722 383,-722 389,-722 395,-728 395,-734 395,-734 395,-752 395,-752 395,-758 389,-764 383,-764 383,-764 285,-764 285,-764 279,-764 273,-758 273,-752 273,-752 273,-734 273,-734 273,-728 279,-722 285,-722"/>
</g>
<g id="clust34" class="cluster">
<title>outer_cluster_Tensor&#45;1</title>
</g>
<g id="clust35" class="cluster">
<title>cluster_Tensor&#45;1</title>
<path fill="#bebada" stroke="black" stroke-dasharray="5,2" d="M178,-90C178,-90 262,-90 262,-90 268,-90 274,-96 274,-102 274,-102 274,-142 274,-142 274,-148 268,-154 262,-154 262,-154 178,-154 178,-154 172,-154 166,-148 166,-142 166,-142 166,-102 166,-102 166,-96 172,-90 178,-90"/>
<text text-anchor="start" x="209" y="-140.8" font-family="Helvetica,sans-Serif" font-size="9.00">let</text>
<text text-anchor="start" x="225" y="-140.8" font-family="Helvetica,sans-Serif" font-size="9.00">K</text>
</g>
<g id="clust37" class="cluster">
<title>outer_cluster_Tensor&#45;6</title>
</g>
<g id="clust38" class="cluster">
<title>cluster_Tensor&#45;6</title>
<path fill="#bebada" stroke="black" stroke-dasharray="5,2" d="M113,-564C113,-564 299,-564 299,-564 305,-564 311,-570 311,-576 311,-576 311,-616 311,-616 311,-622 305,-628 299,-628 299,-628 113,-628 113,-628 107,-628 101,-622 101,-616 101,-616 101,-576 101,-576 101,-570 107,-564 113,-564"/>
<text text-anchor="start" x="174" y="-614.8" font-family="Helvetica,sans-Serif" font-size="9.00">let</text>
<text text-anchor="start" x="190" y="-614.8" font-family="Helvetica,sans-Serif" font-size="9.00">QK_shifted</text>
</g>
<g id="clust40" class="cluster">
<title>outer_cluster_Tensor&#45;22</title>
</g>
<g id="clust41" class="cluster">
<title>cluster_Tensor&#45;22</title>
<path fill="#bebada" stroke="black" stroke-dasharray="5,2" d="M535,-880C535,-880 607,-880 607,-880 613,-880 619,-886 619,-892 619,-892 619,-910 619,-910 619,-916 613,-922 607,-922 607,-922 535,-922 535,-922 529,-922 523,-916 523,-910 523,-910 523,-892 523,-892 523,-886 529,-880 535,-880"/>
</g>
<g id="clust43" class="cluster">
<title>outer_cluster_Tensor&#45;0</title>
</g>
<g id="clust44" class="cluster">
<title>cluster_Tensor&#45;0</title>
<path fill="#bebada" stroke="black" stroke-dasharray="5,2" d="M358,-90C358,-90 442,-90 442,-90 448,-90 454,-96 454,-102 454,-102 454,-142 454,-142 454,-148 448,-154 442,-154 442,-154 358,-154 358,-154 352,-154 346,-148 346,-142 346,-142 346,-102 346,-102 346,-96 352,-90 358,-90"/>
<text text-anchor="start" x="389" y="-140.8" font-family="Helvetica,sans-Serif" font-size="9.00">let</text>
<text text-anchor="start" x="405" y="-140.8" font-family="Helvetica,sans-Serif" font-size="9.00">Q</text>
</g>
<g id="clust46" class="cluster">
<title>outer_cluster_Tensor&#45;23</title>
</g>
<g id="clust47" class="cluster">
<title>cluster_Tensor&#45;23</title>
<path fill="#bebada" stroke="black" stroke-dasharray="5,2" d="M457,-1038C457,-1038 601,-1038 601,-1038 607,-1038 613,-1044 613,-1050 613,-1050 613,-1068 613,-1068 613,-1074 607,-1080 601,-1080 601,-1080 457,-1080 457,-1080 451,-1080 445,-1074 445,-1068 445,-1068 445,-1050 445,-1050 445,-1044 451,-1038 457,-1038"/>
</g>
<g id="clust49" class="cluster">
<title>outer_cluster_Tensor&#45;13</title>
</g>
<g id="clust50" class="cluster">
<title>cluster_Tensor&#45;13</title>
<path fill="#bebada" stroke="black" stroke-dasharray="5,2" d="M262,-406C262,-406 330,-406 330,-406 336,-406 342,-412 342,-418 342,-418 342,-436 342,-436 342,-442 336,-448 330,-448 330,-448 262,-448 262,-448 256,-448 250,-442 250,-436 250,-436 250,-418 250,-418 250,-412 256,-406 262,-406"/>
</g>
<g id="clust52" class="cluster">
<title>outer_cluster_Tensor&#45;27</title>
</g>
<g id="clust53" class="cluster">
<title>cluster_Tensor&#45;27</title>
<path fill="#bebada" stroke="black" stroke-dasharray="5,2" d="M544,-959C544,-959 610,-959 610,-959 616,-959 622,-965 622,-971 622,-971 622,-989 622,-989 622,-995 616,-1001 610,-1001 610,-1001 544,-1001 544,-1001 538,-1001 532,-995 532,-989 532,-989 532,-971 532,-971 532,-965 538,-959 544,-959"/>
</g>
<g id="clust55" class="cluster">
<title>outer_cluster_Tensor&#45;21</title>
</g>
<g id="clust56" class="cluster">
<title>cluster_Tensor&#45;21</title>
<path fill="#bebada" stroke="black" stroke-dasharray="5,2" d="M365,-801C365,-801 493,-801 493,-801 499,-801 505,-807 505,-813 505,-813 505,-831 505,-831 505,-837 499,-843 493,-843 493,-843 365,-843 365,-843 359,-843 353,-837 353,-831 353,-831 353,-813 353,-813 353,-807 359,-801 365,-801"/>
</g>
<g id="clust58" class="cluster">
<title>outer_cluster_Tensor&#45;4</title>
</g>
<g id="clust59" class="cluster">
<title>cluster_Tensor&#45;4</title>
<path fill="#bebada" stroke="black" stroke-dasharray="5,2" d="M271,-327C271,-327 321,-327 321,-327 327,-327 333,-333 333,-339 333,-339 333,-379 333,-379 333,-385 327,-391 321,-391 321,-391 271,-391 271,-391 265,-391 259,-385 259,-379 259,-379 259,-339 259,-339 259,-333 265,-327 271,-327"/>
<text text-anchor="start" x="282" y="-377.8" font-family="Helvetica,sans-Serif" font-size="9.00">let</text>
<text text-anchor="start" x="298" y="-377.8" font-family="Helvetica,sans-Serif" font-size="9.00">QK</text>
</g>
<g id="clust61" class="cluster">
<title>outer_cluster_Tensor&#45;8</title>
</g>
<g id="clust62" class="cluster">
<title>cluster_Tensor&#45;8</title>
<path fill="#bebada" stroke="black" stroke-dasharray="5,2" d="M23,-801C23,-801 167,-801 167,-801 173,-801 179,-807 179,-813 179,-813 179,-853 179,-853 179,-859 173,-865 167,-865 167,-865 23,-865 23,-865 17,-865 11,-859 11,-853 11,-853 11,-813 11,-813 11,-807 17,-801 23,-801"/>
<text text-anchor="start" x="81" y="-851.8" font-family="Helvetica,sans-Serif" font-size="9.00">let</text>
<text text-anchor="start" x="97" y="-851.8" font-family="Helvetica,sans-Serif" font-size="9.00">SD</text>
</g>
<g id="clust64" class="cluster">
<title>outer_cluster_Tensor&#45;14</title>
</g>
<g id="clust65" class="cluster">
<title>cluster_Tensor&#45;14</title>
<path fill="#bebada" stroke="black" stroke-dasharray="5,2" d="M177,-722C177,-722 243,-722 243,-722 249,-722 255,-728 255,-734 255,-734 255,-752 255,-752 255,-758 249,-764 243,-764 243,-764 177,-764 177,-764 171,-764 165,-758 165,-752 165,-752 165,-734 165,-734 165,-728 171,-722 177,-722"/>
</g>
<g id="clust67" class="cluster">
<title>outer_cluster_Tensor&#45;12</title>
</g>
<g id="clust68" class="cluster">
<title>cluster_Tensor&#45;12</title>
<path fill="#bebada" stroke="black" stroke-dasharray="5,2" d="M232,-169C232,-169 342,-169 342,-169 348,-169 354,-175 354,-181 354,-181 354,-199 354,-199 354,-205 348,-211 342,-211 342,-211 232,-211 232,-211 226,-211 220,-205 220,-199 220,-199 220,-181 220,-181 220,-175 226,-169 232,-169"/>
</g>
<g id="clust70" class="cluster">
<title>outer_cluster_Tensor&#45;5</title>
</g>
<g id="clust71" class="cluster">
<title>cluster_Tensor&#45;5</title>
<path fill="#bebada" stroke="black" stroke-dasharray="5,2" d="M272,-485C272,-485 422,-485 422,-485 428,-485 434,-491 434,-497 434,-497 434,-537 434,-537 434,-543 428,-549 422,-549 422,-549 272,-549 272,-549 266,-549 260,-543 260,-537 260,-537 260,-497 260,-497 260,-491 266,-485 272,-485"/>
<text text-anchor="start" x="332" y="-535.8" font-family="Helvetica,sans-Serif" font-size="9.00">let</text>
<text text-anchor="start" x="348" y="-535.8" font-family="Helvetica,sans-Serif" font-size="9.00">GM</text>
</g>
<g id="clust73" class="cluster">
<title>outer_cluster_Tensor&#45;15</title>
</g>
<g id="clust74" class="cluster">
<title>cluster_Tensor&#45;15</title>
<path fill="#bebada" stroke="black" stroke-dasharray="5,2" d="M361,-1038C361,-1038 427,-1038 427,-1038 433,-1038 439,-1044 439,-1050 439,-1050 439,-1068 439,-1068 439,-1074 433,-1080 427,-1080 427,-1080 361,-1080 361,-1080 355,-1080 349,-1074 349,-1068 349,-1068 349,-1050 349,-1050 349,-1044 355,-1038 361,-1038"/>
</g>
<g id="clust76" class="cluster">
<title>outer_cluster_Tensor&#45;9</title>
</g>
<g id="clust77" class="cluster">
<title>cluster_Tensor&#45;9</title>
<path fill="#bebada" stroke="black" stroke-dasharray="5,2" d="M99,-880C99,-880 276,-880 276,-880 282,-880 288,-886 288,-892 288,-892 288,-932 288,-932 288,-938 282,-944 276,-944 276,-944 99,-944 99,-944 93,-944 87,-938 87,-932 87,-932 87,-892 87,-892 87,-886 93,-880 99,-880"/>
<text text-anchor="start" x="176.5" y="-930.8" font-family="Helvetica,sans-Serif" font-size="9.00">let</text>
<text text-anchor="start" x="192.5" y="-930.8" font-family="Helvetica,sans-Serif" font-size="9.00">A</text>
</g>
<g id="clust79" class="cluster">
<title>outer_cluster_Tensor&#45;17</title>
</g>
<g id="clust80" class="cluster">
<title>cluster_Tensor&#45;17</title>
<path fill="#bebada" stroke="black" stroke-dasharray="5,2" d="M339,-643C339,-643 413,-643 413,-643 419,-643 425,-649 425,-655 425,-655 425,-673 425,-673 425,-679 419,-685 413,-685 413,-685 339,-685 339,-685 333,-685 327,-679 327,-673 327,-673 327,-655 327,-655 327,-649 333,-643 339,-643"/>
</g>
<g id="clust82" class="cluster">
<title>outer_cluster_Tensor&#45;10</title>
</g>
<g id="clust83" class="cluster">
<title>cluster_Tensor&#45;10</title>
<path fill="#bebada" stroke="black" stroke-dasharray="5,2" d="M339,-959C339,-959 411,-959 411,-959 417,-959 423,-965 423,-971 423,-971 423,-1011 423,-1011 423,-1017 417,-1023 411,-1023 411,-1023 339,-1023 339,-1023 333,-1023 327,-1017 327,-1011 327,-1011 327,-971 327,-971 327,-965 333,-959 339,-959"/>
<text text-anchor="start" x="347" y="-1009.8" font-family="Helvetica,sans-Serif" font-size="9.00">let</text>
<text text-anchor="start" x="363" y="-1009.8" font-family="Helvetica,sans-Serif" font-size="9.00">AV_temp</text>
</g>
<g id="clust85" class="cluster">
<title>outer_cluster_i64&#45;64</title>
</g>
<g id="clust86" class="cluster">
<title>cluster_i64&#45;64</title>
<path fill="#fb8072" stroke="black" stroke-dasharray="5,2" d="M364,-11C364,-11 400,-11 400,-11 406,-11 412,-17 412,-23 412,-23 412,-41 412,-41 412,-47 406,-53 400,-53 400,-53 364,-53 364,-53 358,-53 352,-47 352,-41 352,-41 352,-23 352,-23 352,-17 358,-11 364,-11"/>
</g>
<g id="clust88" class="cluster">
<title>outer_cluster_i64&#45;4</title>
</g>
<g id="clust89" class="cluster">
<title>cluster_i64&#45;4</title>
<path fill="#fb8072" stroke="black" stroke-dasharray="5,2" d="M292,-90C292,-90 328,-90 328,-90 334,-90 340,-96 340,-102 340,-102 340,-120 340,-120 340,-126 334,-132 328,-132 328,-132 292,-132 292,-132 286,-132 280,-126 280,-120 280,-120 280,-102 280,-102 280,-96 286,-90 292,-90"/>
</g>
<g id="clust91" class="cluster">
<title>outer_cluster_i64&#45;1024</title>
</g>
<g id="clust92" class="cluster">
<title>cluster_i64&#45;1024</title>
<path fill="#fb8072" stroke="black" stroke-dasharray="5,2" d="M430,-11C430,-11 466,-11 466,-11 472,-11 478,-17 478,-23 478,-23 478,-41 478,-41 478,-47 472,-53 466,-53 466,-53 430,-53 430,-53 424,-53 418,-47 418,-41 418,-41 418,-23 418,-23 418,-17 424,-11 430,-11"/>
</g>
<!-- function&#45;2&#45;CreateTensor&#45;&gt;primitive&#45;String&#45;2 -->
<g id="edge3" class="edge">
<title>function&#45;2&#45;CreateTensor:s&#45;&gt;primitive&#45;String&#45;2</title>
<path fill="none" stroke="black" d="M552,-95C552,-81.84 552,-67.11 552,-55.3"/>
<polygon fill="black" stroke="black" points="553.75,-58 552,-53 550.25,-58 553.75,-58"/>
</g>
<!-- function&#45;2&#45;CreateTensor&#45;&gt;primitive&#45;i64&#45;64 -->
<g id="edge1" class="edge">
<title>function&#45;2&#45;CreateTensor:s&#45;&gt;primitive&#45;i64&#45;64</title>
<path fill="none" stroke="black" d="M489,-95C489,-58.61 448.24,-74.68 417,-56 416.79,-55.88 416.59,-55.75 416.38,-55.63"/>
<polygon fill="black" stroke="black" points="417.18,-54.06 412,-52.95 415.35,-57.05 417.18,-54.06"/>
</g>
<!-- function&#45;2&#45;CreateTensor&#45;&gt;primitive&#45;i64&#45;1024 -->
<g id="edge2" class="edge">
<title>function&#45;2&#45;CreateTensor:s&#45;&gt;primitive&#45;i64&#45;1024</title>
<path fill="none" stroke="black" d="M527,-95C527,-69.77 501.76,-53.25 479.81,-43.66"/>
<polygon fill="black" stroke="black" points="483.24,-43.47 478,-42.72 481.63,-46.58 483.24,-43.47"/>
</g>
<!-- function&#45;0&#45;M_mul_emp&#45;&gt;function&#45;0&#45;CreateTensor -->
<g id="edge4" class="edge">
<title>function&#45;0&#45;M_mul_emp:s&#45;&gt;function&#45;0&#45;CreateTensor</title>
<path fill="none" stroke="black" d="M165,-253C165,-166.79 287.91,-268.13 355,-214 364.41,-206.41 375.34,-181.95 384.08,-158.89"/>
<polygon fill="black" stroke="black" points="385.8,-159.29 385.91,-154 382.52,-158.07 385.8,-159.29"/>
</g>
<!-- function&#45;0&#45;M_mul_emp&#45;&gt;function&#45;1&#45;CreateTensor -->
<g id="edge5" class="edge">
<title>function&#45;0&#45;M_mul_emp:s&#45;&gt;function&#45;1&#45;CreateTensor</title>
<path fill="none" stroke="black" d="M211,-253C211,-221.63 213.25,-186.41 215.49,-159.02"/>
<polygon fill="black" stroke="black" points="217.24,-159.13 215.91,-154 213.75,-158.83 217.24,-159.13"/>
</g>
<!-- function&#45;0&#45;CreateTensor&#45;&gt;primitive&#45;String&#45;0 -->
<g id="edge38" class="edge">
<title>function&#45;0&#45;CreateTensor:s&#45;&gt;primitive&#45;String&#45;0</title>
<path fill="none" stroke="black" d="M438,-95C438,-52.63 388.16,-76.37 351,-56 350.78,-55.88 350.57,-55.76 350.35,-55.64"/>
<polygon fill="black" stroke="black" points="350.95,-53.97 345.74,-53 349.21,-57.01 350.95,-53.97"/>
</g>
<!-- function&#45;0&#45;CreateTensor&#45;&gt;primitive&#45;i64&#45;64 -->
<g id="edge36" class="edge">
<title>function&#45;0&#45;CreateTensor:s&#45;&gt;primitive&#45;i64&#45;64</title>
<path fill="none" stroke="black" d="M375,-95C375,-81.76 376.6,-67.02 378.27,-55.24"/>
<polygon fill="black" stroke="black" points="379.07,-58.3 379.03,-53 375.76,-57.16 379.07,-58.3"/>
</g>
<!-- function&#45;0&#45;CreateTensor&#45;&gt;primitive&#45;i64&#45;1024 -->
<g id="edge37" class="edge">
<title>function&#45;0&#45;CreateTensor:s&#45;&gt;primitive&#45;i64&#45;1024</title>
<path fill="none" stroke="black" d="M413,-95C413,-80.03 420.84,-65.34 429.09,-54.03"/>
<polygon fill="black" stroke="black" points="427.8,-57.75 430.14,-53 425.34,-55.25 427.8,-57.75"/>
</g>
<!-- function&#45;1&#45;CreateTensor&#45;&gt;primitive&#45;String&#45;1 -->
<g id="edge29" class="edge">
<title>function&#45;1&#45;CreateTensor:s&#45;&gt;primitive&#45;String&#45;1</title>
<path fill="none" stroke="black" d="M258,-95C258,-81.73 256.17,-66.99 254.27,-55.22"/>
<polygon fill="black" stroke="black" points="256.86,-57.01 253.39,-53 253.6,-58.29 256.86,-57.01"/>
</g>
<!-- function&#45;1&#45;CreateTensor&#45;&gt;primitive&#45;i64&#45;64 -->
<g id="edge27" class="edge">
<title>function&#45;1&#45;CreateTensor:s&#45;&gt;primitive&#45;i64&#45;64</title>
<path fill="none" stroke="black" d="M195,-95C195,-25.26 283.21,-84.2 347,-56 347.51,-55.77 348.02,-55.54 348.53,-55.3"/>
<polygon fill="black" stroke="black" points="349.44,-56.81 353.12,-53 347.86,-53.68 349.44,-56.81"/>
</g>
<!-- function&#45;1&#45;CreateTensor&#45;&gt;primitive&#45;i64&#45;1024 -->
<g id="edge28" class="edge">
<title>function&#45;1&#45;CreateTensor:s&#45;&gt;primitive&#45;i64&#45;1024</title>
<path fill="none" stroke="black" d="M233,-95C233,-54.07 375.26,-71.84 413,-56 413.53,-55.78 414.06,-55.55 414.58,-55.31"/>
<polygon fill="black" stroke="black" points="415.6,-56.76 419.33,-53 414.07,-53.62 415.6,-56.76"/>
</g>
<!-- function&#45;0&#45;M_mul_em1m0p&#45;&gt;function&#45;0&#45;CreateTensor -->
<g id="edge6" class="edge">
<title>function&#45;0&#45;M_mul_em1m0p:s&#45;&gt;function&#45;0&#45;CreateTensor</title>
<path fill="none" stroke="black" d="M270,-253C270,-200.71 346.97,-253.7 381,-214 393.83,-199.03 399.16,-178.21 401.06,-159.28"/>
<polygon fill="black" stroke="black" points="402.83,-159.13 401.51,-154 399.34,-158.83 402.83,-159.13"/>
</g>
<!-- function&#45;0&#45;M_mul_em1m0p&#45;&gt;function&#45;0&#45;T_split_m_m1m0 -->
<g id="edge7" class="edge">
<title>function&#45;0&#45;M_mul_em1m0p:s&#45;&gt;function&#45;0&#45;T_split_m_m1m0</title>
<path fill="none" stroke="black" d="M332,-253C332,-237.23 322.34,-222.76 311.98,-211.78"/>
<polygon fill="black" stroke="black" points="315.7,-211.71 310.45,-211 314.11,-214.83 315.7,-211.71"/>
</g>
<!-- function&#45;0&#45;T_split_m_m1m0&#45;&gt;function&#45;1&#45;CreateTensor -->
<g id="edge48" class="edge">
<title>function&#45;0&#45;T_split_m_m1m0:s&#45;&gt;function&#45;1&#45;CreateTensor</title>
<path fill="none" stroke="black" d="M256,-174C256,-168.87 255.07,-163.78 253.5,-158.86"/>
<polygon fill="black" stroke="black" points="255.09,-158.1 251.73,-154 251.8,-159.29 255.09,-158.1"/>
</g>
<!-- function&#45;0&#45;T_split_m_m1m0&#45;&gt;primitive&#45;i64&#45;4 -->
<g id="edge49" class="edge">
<title>function&#45;0&#45;T_split_m_m1m0:s&#45;&gt;primitive&#45;i64&#45;4</title>
<path fill="none" stroke="black" d="M319,-174C319,-160.7 316.95,-145.96 314.8,-134.19"/>
<polygon fill="black" stroke="black" points="317.46,-135.84 313.82,-132 314.27,-137.28 317.46,-135.84"/>
</g>
<!-- function&#45;0&#45;M_exp_mp&#45;&gt;function&#45;0&#45;M_sub_m1m0p -->
<g id="edge8" class="edge">
<title>function&#45;0&#45;M_exp_mp:s&#45;&gt;function&#45;0&#45;M_sub_m1m0p</title>
<path fill="none" stroke="black" d="M156,-648C156,-643.14 156.18,-638.08 156.49,-633.03"/>
<polygon fill="black" stroke="black" points="158.24,-633.11 156.83,-628 154.75,-632.87 158.24,-633.11"/>
</g>
<!-- function&#45;0&#45;M_sub_m1m0p&#45;&gt;function&#45;0&#45;R_max_m0 -->
<g id="edge33" class="edge">
<title>function&#45;0&#45;M_sub_m1m0p:s&#45;&gt;function&#45;0&#45;R_max_m0</title>
<path fill="none" stroke="black" d="M191,-569C191,-517.74 236.2,-473.05 267.29,-448.37"/>
<polygon fill="black" stroke="black" points="264.2,-451.26 268.38,-448 263.08,-447.94 264.2,-451.26"/>
</g>
<!-- function&#45;0&#45;M_sub_m1m0p&#45;&gt;function&#45;0&#45;R_add_e -->
<g id="edge32" class="edge">
<title>function&#45;0&#45;M_sub_m1m0p:s&#45;&gt;function&#45;0&#45;R_add_e</title>
<path fill="none" stroke="black" d="M133,-569C133,-487.17 206.71,-415.91 254.99,-378.01"/>
<polygon fill="black" stroke="black" points="256.13,-379.34 259,-374.89 253.98,-376.58 256.13,-379.34"/>
</g>
<!-- function&#45;0&#45;M_exp_m1m0p&#45;&gt;function&#45;0&#45;M_sub_mp -->
<g id="edge9" class="edge">
<title>function&#45;0&#45;M_exp_m1m0p:s&#45;&gt;function&#45;0&#45;M_sub_mp</title>
<path fill="none" stroke="black" d="M260,-648C260,-643.14 260.18,-638.08 260.49,-633.03"/>
<polygon fill="black" stroke="black" points="262.24,-633.11 260.83,-628 258.75,-632.87 262.24,-633.11"/>
</g>
<!-- function&#45;0&#45;M_sub_mp&#45;&gt;function&#45;0&#45;R_add_e -->
<g id="edge30" class="edge">
<title>function&#45;0&#45;M_sub_mp:s&#45;&gt;function&#45;0&#45;R_add_e</title>
<path fill="none" stroke="black" d="M245,-569C245,-495.2 222.3,-471.8 249,-403 250.83,-398.28 253.27,-393.69 256.08,-389.32"/>
<polygon fill="black" stroke="black" points="257.64,-390.13 259,-385.01 254.75,-388.17 257.64,-390.13"/>
</g>
<!-- function&#45;0&#45;M_sub_mp&#45;&gt;function&#45;0&#45;R_max_m1 -->
<g id="edge31" class="edge">
<title>function&#45;0&#45;M_sub_mp:s&#45;&gt;function&#45;0&#45;R_max_m1</title>
<path fill="none" stroke="black" d="M287,-569C287,-564.06 287.56,-558.99 288.48,-553.98"/>
<polygon fill="black" stroke="black" points="290.22,-554.25 289.53,-549 286.79,-553.53 290.22,-554.25"/>
</g>
<!-- function&#45;0&#45;M_mul_m1p&#45;&gt;function&#45;0&#45;R_add_m0 -->
<g id="edge10" class="edge">
<title>function&#45;0&#45;M_mul_m1p:s&#45;&gt;function&#45;0&#45;R_add_m0</title>
<path fill="none" stroke="black" d="M274,-806C274,-788.62 261.67,-774.55 247.83,-764.23"/>
<polygon fill="black" stroke="black" points="252.6,-765.44 247.5,-764 250.58,-768.31 252.6,-765.44"/>
</g>
<!-- function&#45;0&#45;M_mul_m1p&#45;&gt;function&#45;0&#45;M_exp_m1p -->
<g id="edge11" class="edge">
<title>function&#45;0&#45;M_mul_m1p:s&#45;&gt;function&#45;0&#45;M_exp_m1p</title>
<path fill="none" stroke="black" d="M320,-806C320,-768.03 376.21,-799.4 396,-767 411.1,-742.27 399.39,-708.43 388.56,-686.64"/>
<polygon fill="black" stroke="black" points="391.73,-687.86 387.27,-685 388.98,-690.01 391.73,-687.86"/>
</g>
<!-- function&#45;0&#45;R_add_m0&#45;&gt;function&#45;0&#45;M_exp_m1m0p -->
<g id="edge47" class="edge">
<title>function&#45;0&#45;R_add_m0:s&#45;&gt;function&#45;0&#45;M_exp_m1m0p</title>
<path fill="none" stroke="black" d="M211,-727C211,-721.71 212.11,-716.61 214,-711.76"/>
<polygon fill="black" stroke="black" points="215.69,-712.27 216.13,-707 212.49,-710.84 215.69,-712.27"/>
</g>
<!-- function&#45;0&#45;M_exp_m1p&#45;&gt;function&#45;0&#45;M_sub_m1p -->
<g id="edge57" class="edge">
<title>function&#45;0&#45;M_exp_m1p:s&#45;&gt;function&#45;0&#45;M_sub_m1p</title>
<path fill="none" stroke="black" d="M377,-648C377,-634.73 375.17,-619.99 373.27,-608.22"/>
<polygon fill="black" stroke="black" points="375.86,-610.01 372.39,-606 372.6,-611.29 375.86,-610.01"/>
</g>
<!-- function&#45;0&#45;M_sub_m1p&#45;&gt;function&#45;0&#45;R_max_m0 -->
<g id="edge12" class="edge">
<title>function&#45;0&#45;M_sub_m1p:s&#45;&gt;function&#45;0&#45;R_max_m0</title>
<path fill="none" stroke="black" d="M346,-569C346,-549.3 271.71,-567.05 259,-552 238.93,-528.23 249.8,-511.72 259,-482 262.67,-470.14 269.95,-458.56 277.09,-449.19"/>
<polygon fill="black" stroke="black" points="275.93,-452.71 278.34,-448 273.52,-450.18 275.93,-452.71"/>
</g>
<!-- function&#45;0&#45;M_sub_m1p&#45;&gt;function&#45;0&#45;R_max_m -->
<g id="edge13" class="edge">
<title>function&#45;0&#45;M_sub_m1p:s&#45;&gt;function&#45;0&#45;R_max_m</title>
<path fill="none" stroke="black" d="M392,-569C392,-564.15 392,-559.09 392,-554.04"/>
<polygon fill="black" stroke="black" points="393.75,-554 392,-549 390.25,-554 393.75,-554"/>
</g>
<!-- function&#45;0&#45;R_max_m0&#45;&gt;function&#45;0&#45;R_add_e -->
<g id="edge41" class="edge">
<title>function&#45;0&#45;R_max_m0:s&#45;&gt;function&#45;0&#45;R_add_e</title>
<path fill="none" stroke="black" d="M296,-411C296,-406.15 296,-401.09 296,-396.04"/>
<polygon fill="black" stroke="black" points="297.75,-396 296,-391 294.25,-396 297.75,-396"/>
</g>
<!-- function&#45;0&#45;R_max_m&#45;&gt;function&#45;0&#45;R_add_e -->
<g id="edge50" class="edge">
<title>function&#45;0&#45;R_max_m:s&#45;&gt;function&#45;0&#45;R_add_e</title>
<path fill="none" stroke="black" d="M393,-490C393,-447.97 363.38,-409.34 336.88,-383.18"/>
<polygon fill="black" stroke="black" points="337.81,-381.64 333,-379.42 335.37,-384.15 337.81,-381.64"/>
</g>
<!-- function&#45;0&#45;M_div_fp&#45;&gt;function&#45;3&#45;R_add_m1 -->
<g id="edge14" class="edge">
<title>function&#45;0&#45;M_div_fp:s&#45;&gt;function&#45;3&#45;R_add_m1</title>
<path fill="none" stroke="black" d="M261,-1122C261,-1081.29 401.39,-1095.92 440,-1083 441.1,-1082.63 442.22,-1082.24 443.33,-1081.84"/>
<polygon fill="black" stroke="black" points="444.19,-1083.39 448.26,-1080 442.96,-1080.11 444.19,-1083.39"/>
</g>
<!-- function&#45;0&#45;M_div_fp&#45;&gt;function&#45;0&#45;R_add_m1 -->
<g id="edge15" class="edge">
<title>function&#45;0&#45;M_div_fp:s&#45;&gt;function&#45;0&#45;R_add_m1</title>
<path fill="none" stroke="black" d="M296,-1122C296,-1091.67 263.85,-1101.74 240,-1083 168.19,-1026.59 133.13,-1025.21 86,-947 72.01,-923.78 64.54,-894.43 60.55,-870.11"/>
<polygon fill="black" stroke="black" points="62.25,-869.67 59.75,-865 58.8,-870.21 62.25,-869.67"/>
</g>
<!-- function&#45;3&#45;R_add_m1&#45;&gt;function&#45;2&#45;R_add_m0 -->
<g id="edge40" class="edge">
<title>function&#45;3&#45;R_add_m1:s&#45;&gt;function&#45;2&#45;R_add_m0</title>
<path fill="none" stroke="black" d="M491,-1043C491,-1020.67 510.32,-1005.58 530.64,-995.88"/>
<polygon fill="black" stroke="black" points="529.23,-999.29 532,-994.77 527.02,-996.57 529.23,-999.29"/>
</g>
<!-- function&#45;0&#45;R_add_m1&#45;&gt;function&#45;0&#45;R_add_m0 -->
<g id="edge46" class="edge">
<title>function&#45;0&#45;R_add_m1:s&#45;&gt;function&#45;0&#45;R_add_m0</title>
<path fill="none" stroke="black" d="M57,-806C57,-759.64 118.09,-747.11 163.07,-744.17"/>
<polygon fill="black" stroke="black" points="160.33,-746.37 165,-743.87 159.79,-742.91 160.33,-746.37"/>
</g>
<!-- function&#45;1&#45;M_div_fp&#45;&gt;function&#45;2&#45;R_add_m -->
<g id="edge16" class="edge">
<title>function&#45;1&#45;M_div_fp:s&#45;&gt;function&#45;2&#45;R_add_m</title>
<path fill="none" stroke="black" d="M573,-1122C573,-1108.84 573,-1094.11 573,-1082.3"/>
<polygon fill="black" stroke="black" points="574.75,-1085 573,-1080 571.25,-1085 574.75,-1085"/>
</g>
<!-- function&#45;1&#45;M_div_fp&#45;&gt;function&#45;3&#45;M_div_fp -->
<g id="edge17" class="edge">
<title>function&#45;1&#45;M_div_fp:s&#45;&gt;function&#45;3&#45;M_div_fp</title>
<path fill="none" stroke="black" d="M608,-1122C608,-1098.88 579.44,-1106.49 554.15,-1117.76"/>
<polygon fill="black" stroke="black" points="553.29,-1116.23 549.47,-1119.9 554.75,-1119.41 553.29,-1116.23"/>
</g>
<!-- function&#45;2&#45;R_add_m&#45;&gt;function&#45;1&#45;M_mul_fmp -->
<g id="edge39" class="edge">
<title>function&#45;2&#45;R_add_m:s&#45;&gt;function&#45;1&#45;M_mul_fmp</title>
<path fill="none" stroke="black" d="M573,-1043C573,-1022.86 542.26,-1042.7 531,-1026 513.61,-1000.2 521.25,-985.54 531,-956 534.97,-943.98 542.76,-932.45 550.42,-923.15"/>
<polygon fill="black" stroke="black" points="549.16,-926.66 551.68,-922 546.8,-924.07 549.16,-926.66"/>
</g>
<!-- function&#45;3&#45;M_div_fp&#45;&gt;function&#45;3&#45;R_add_m1 -->
<g id="edge21" class="edge">
<title>function&#45;3&#45;M_div_fp:s&#45;&gt;function&#45;3&#45;R_add_m1</title>
<path fill="none" stroke="black" d="M533,-1122C533,-1106.48 523.79,-1092.05 513.9,-1081.02"/>
<polygon fill="black" stroke="black" points="517.42,-1081.14 512.24,-1080 515.58,-1084.11 517.42,-1081.14"/>
</g>
<!-- function&#45;3&#45;M_div_fp&#45;&gt;function&#45;2&#45;R_add_m -->
<g id="edge20" class="edge">
<title>function&#45;3&#45;M_div_fp:s&#45;&gt;function&#45;2&#45;R_add_m</title>
<path fill="none" stroke="black" d="M498,-1122C498,-1111.18 516.79,-1095.66 535.56,-1082.85"/>
<polygon fill="black" stroke="black" points="536.63,-1084.24 539.81,-1080 534.68,-1081.33 536.63,-1084.24"/>
</g>
<!-- function&#45;2&#45;M_div_fp&#45;&gt;function&#45;3&#45;R_add_m1 -->
<g id="edge18" class="edge">
<title>function&#45;2&#45;M_div_fp:s&#45;&gt;function&#45;3&#45;R_add_m1</title>
<path fill="none" stroke="black" d="M336,-1122C336,-1072.63 394.44,-1101.99 440,-1083 440.72,-1082.7 441.45,-1082.39 442.18,-1082.08"/>
<polygon fill="black" stroke="black" points="443.15,-1083.57 447.05,-1080 441.77,-1080.36 443.15,-1083.57"/>
</g>
<!-- function&#45;2&#45;M_div_fp&#45;&gt;function&#45;2&#45;R_add_m1 -->
<g id="edge19" class="edge">
<title>function&#45;2&#45;M_div_fp:s&#45;&gt;function&#45;2&#45;R_add_m1</title>
<path fill="none" stroke="black" d="M371,-1122C371,-1099.92 352.05,-1084.87 332.05,-1075.14"/>
<polygon fill="black" stroke="black" points="335.7,-1076.46 331,-1074.02 333.15,-1078.86 335.7,-1076.46"/>
</g>
<!-- function&#45;2&#45;R_add_m1&#45;&gt;function&#45;0&#45;M_mul_m1p -->
<g id="edge24" class="edge">
<title>function&#45;2&#45;R_add_m1:s&#45;&gt;function&#45;0&#45;M_mul_m1p</title>
<path fill="none" stroke="black" d="M287,-1043C287,-970.55 292.48,-884.82 295.33,-845.16"/>
<polygon fill="black" stroke="black" points="296.58,-848.22 295.69,-843 293.13,-847.64 296.58,-848.22"/>
</g>
<!-- function&#45;1&#45;R_add_m&#45;&gt;function&#45;0&#45;M_mul_fmp -->
<g id="edge22" class="edge">
<title>function&#45;1&#45;R_add_m:s&#45;&gt;function&#45;0&#45;M_mul_fmp</title>
<path fill="none" stroke="black" d="M201,-1122C201,-1061.25 288.35,-1125.25 332,-1083 348.16,-1067.36 339.39,-1055.78 348,-1035 348.97,-1032.66 349.99,-1030.29 351.06,-1027.9"/>
<polygon fill="black" stroke="black" points="352.81,-1028.27 353.28,-1023 349.62,-1026.83 352.81,-1028.27"/>
</g>
<!-- function&#45;0&#45;M_mul_fmp&#45;&gt;function&#45;2&#45;CreateTensor -->
<g id="edge59" class="edge">
<title>function&#45;0&#45;M_mul_fmp:s&#45;&gt;function&#45;2&#45;CreateTensor</title>
<path fill="none" stroke="black" d="M397,-964C397,-899.45 474.35,-924.27 506,-868 515.96,-850.29 514,-843.31 514,-823 514,-823 514,-823 514,-268 514,-231.5 514,-190.19 514,-159.26"/>
<polygon fill="black" stroke="black" points="515.75,-159 514,-154 512.25,-159 515.75,-159"/>
</g>
<!-- function&#45;0&#45;M_mul_fmp&#45;&gt;function&#45;0&#45;M_div_m1m0p -->
<g id="edge58" class="edge">
<title>function&#45;0&#45;M_mul_fmp:s&#45;&gt;function&#45;0&#45;M_div_m1m0p</title>
<path fill="none" stroke="black" d="M353,-964C353,-933.13 321.72,-917.63 290.71,-909.84"/>
<polygon fill="black" stroke="black" points="293.28,-909.06 288,-908.66 291.88,-912.26 293.28,-909.06"/>
</g>
<!-- function&#45;1&#45;R_add_m1&#45;&gt;function&#45;1&#45;R_add_m0 -->
<g id="edge23" class="edge">
<title>function&#45;1&#45;R_add_m1:s&#45;&gt;function&#45;1&#45;R_add_m0</title>
<path fill="none" stroke="black" d="M435,-1122C435,-1106.6 426.09,-1092.08 416.58,-1080.97"/>
<polygon fill="black" stroke="black" points="420.21,-1081.23 415.06,-1080 418.32,-1084.17 420.21,-1081.23"/>
</g>
<!-- function&#45;1&#45;R_add_m0&#45;&gt;function&#45;0&#45;M_mul_fmp -->
<g id="edge52" class="edge">
<title>function&#45;1&#45;R_add_m0:s&#45;&gt;function&#45;0&#45;M_mul_fmp</title>
<path fill="none" stroke="black" d="M395,-1043C395,-1038.05 394.42,-1032.98 393.45,-1027.97"/>
<polygon fill="black" stroke="black" points="395.14,-1027.51 392.36,-1023 391.72,-1028.26 395.14,-1027.51"/>
</g>
<!-- function&#45;0&#45;M_mul_m1m0p&#45;&gt;function&#45;0&#45;M_exp_m1m0p -->
<g id="edge25" class="edge">
<title>function&#45;0&#45;M_mul_m1m0p:s&#45;&gt;function&#45;0&#45;M_exp_m1m0p</title>
<path fill="none" stroke="black" d="M305,-727C305,-721.76 303.93,-716.66 302.13,-711.79"/>
<polygon fill="black" stroke="black" points="303.66,-710.91 300.09,-707 300.44,-712.28 303.66,-710.91"/>
</g>
<!-- function&#45;0&#45;M_mul_m1m0p&#45;&gt;function&#45;0&#45;M_exp_m1p -->
<g id="edge26" class="edge">
<title>function&#45;0&#45;M_mul_m1m0p:s&#45;&gt;function&#45;0&#45;M_exp_m1p</title>
<path fill="none" stroke="black" d="M363,-727C363,-713.53 365.98,-698.75 369.08,-687.01"/>
<polygon fill="black" stroke="black" points="369.11,-690.13 370.41,-685 366.19,-688.2 369.11,-690.13"/>
</g>
<!-- function&#45;0&#45;R_add_e&#45;&gt;function&#45;0&#45;M_mul_em1m0p -->
<g id="edge44" class="edge">
<title>function&#45;0&#45;R_add_e:s&#45;&gt;function&#45;0&#45;M_mul_em1m0p</title>
<path fill="none" stroke="black" d="M296,-332C296,-327.14 296.15,-322.08 296.41,-317.03"/>
<polygon fill="black" stroke="black" points="298.16,-317.09 296.69,-312 294.66,-316.89 298.16,-317.09"/>
</g>
<!-- function&#45;0&#45;R_max_m1&#45;&gt;function&#45;0&#45;R_max_m0 -->
<g id="edge51" class="edge">
<title>function&#45;0&#45;R_max_m1:s&#45;&gt;function&#45;0&#45;R_max_m0</title>
<path fill="none" stroke="black" d="M306,-490C306,-476.76 303.75,-462.14 301.39,-450.42"/>
<polygon fill="black" stroke="black" points="303.95,-451.84 300.3,-448 300.75,-453.28 303.95,-451.84"/>
</g>
<!-- function&#45;1&#45;M_mul_fmp&#45;&gt;function&#45;2&#45;CreateTensor -->
<g id="edge35" class="edge">
<title>function&#45;1&#45;M_mul_fmp:s&#45;&gt;function&#45;2&#45;CreateTensor</title>
<path fill="none" stroke="black" d="M593,-885C593,-820.54 559,-808.46 559,-744 559,-744 559,-744 559,-268 559,-230.23 546.67,-189.27 534.92,-158.79"/>
<polygon fill="black" stroke="black" points="536.5,-158.01 533.04,-154 533.24,-159.29 536.5,-158.01"/>
</g>
<!-- function&#45;1&#45;M_mul_fmp&#45;&gt;function&#45;0&#45;T_unsplit_m1m0_m -->
<g id="edge34" class="edge">
<title>function&#45;1&#45;M_mul_fmp:s&#45;&gt;function&#45;0&#45;T_unsplit_m1m0_m</title>
<path fill="none" stroke="black" d="M549,-885C549,-860.82 529.53,-846.06 506.27,-837.05"/>
<polygon fill="black" stroke="black" points="510.21,-837.29 505,-836.33 508.47,-840.33 510.21,-837.29"/>
</g>
<!-- function&#45;0&#45;T_unsplit_m1m0_m&#45;&gt;function&#45;0&#45;M_mul_m1m0p -->
<g id="edge43" class="edge">
<title>function&#45;0&#45;T_unsplit_m1m0_m:s&#45;&gt;function&#45;0&#45;M_mul_m1m0p</title>
<path fill="none" stroke="black" d="M430,-806C430,-785.88 414.94,-771.97 396.74,-762.51"/>
<polygon fill="black" stroke="black" points="400.05,-762.81 395,-761.2 397.95,-765.6 400.05,-762.81"/>
</g>
<!-- function&#45;2&#45;R_add_m0&#45;&gt;function&#45;1&#45;M_mul_fmp -->
<g id="edge42" class="edge">
<title>function&#45;2&#45;R_add_m0:s&#45;&gt;function&#45;1&#45;M_mul_fmp</title>
<path fill="none" stroke="black" d="M578,-964C578,-950.76 576.4,-936.02 574.73,-924.24"/>
<polygon fill="black" stroke="black" points="577.24,-926.16 573.97,-922 573.93,-927.3 577.24,-926.16"/>
</g>
<!-- function&#45;0&#45;R_add_m&#45;&gt;function&#45;0&#45;M_exp_mp -->
<g id="edge45" class="edge">
<title>function&#45;0&#45;R_add_m:s&#45;&gt;function&#45;0&#45;M_exp_mp</title>
<path fill="none" stroke="black" d="M139,-806C139,-774.51 143.23,-739.34 147.47,-712.01"/>
<polygon fill="black" stroke="black" points="149.21,-712.21 148.26,-707 145.76,-711.66 149.21,-712.21"/>
</g>
<!-- function&#45;0&#45;M_div_mp&#45;&gt;function&#45;0&#45;M_exp_m1m0p -->
<g id="edge53" class="edge">
<title>function&#45;0&#45;M_div_mp:s&#45;&gt;function&#45;0&#45;M_exp_m1m0p</title>
<path fill="none" stroke="black" d="M110,-885C110,-852.98 160.21,-893.17 180,-868 199.23,-843.54 187.34,-828.23 180,-798 176.34,-782.93 167.66,-782.07 164,-767 158.97,-746.27 150.99,-735.91 164,-719 173.53,-706.61 183.88,-716.7 198,-710 198.49,-709.77 198.99,-709.53 199.48,-709.28"/>
<polygon fill="black" stroke="black" points="200.29,-710.84 203.94,-707 198.69,-707.72 200.29,-710.84"/>
</g>
<!-- function&#45;0&#45;M_div_mp&#45;&gt;function&#45;0&#45;R_add_m1 -->
<g id="edge54" class="edge">
<title>function&#45;0&#45;M_div_mp:s&#45;&gt;function&#45;0&#45;R_add_m1</title>
<path fill="none" stroke="black" d="M150,-885C150,-861.95 120.53,-880.24 101,-868 100.91,-867.94 100.81,-867.88 100.72,-867.82"/>
<polygon fill="black" stroke="black" points="101.64,-866.33 96.51,-865 99.68,-869.24 101.64,-866.33"/>
</g>
<!-- function&#45;0&#45;M_div_m1m0p&#45;&gt;function&#45;0&#45;M_exp_mp -->
<g id="edge55" class="edge">
<title>function&#45;0&#45;M_div_m1m0p:s&#45;&gt;function&#45;0&#45;M_exp_mp</title>
<path fill="none" stroke="black" d="M203,-885C203,-807.55 306.06,-778.09 256,-719 240.27,-700.43 223.7,-721.01 202,-710 201.78,-709.89 201.55,-709.77 201.33,-709.65"/>
<polygon fill="black" stroke="black" points="201.9,-707.96 196.69,-707 200.16,-711 201.9,-707.96"/>
</g>
<!-- function&#45;0&#45;M_div_m1m0p&#45;&gt;function&#45;0&#45;R_add_m -->
<g id="edge56" class="edge">
<title>function&#45;0&#45;M_div_m1m0p:s&#45;&gt;function&#45;0&#45;R_add_m</title>
<path fill="none" stroke="black" d="M258,-885C258,-880.49 214.35,-858.7 179.93,-842.22"/>
<polygon fill="black" stroke="black" points="183.46,-843.89 179,-841.03 180.7,-846.05 183.46,-843.89"/>
</g>
<!-- primitive&#45;String&#45;2 -->
<g id="node1" class="node">
<title>primitive&#45;String&#45;2</title>
<g id="a_node1"><a xlink:title="String&#45;2: primitive&#45;String&#45;2">
<path fill="white" stroke="transparent" d="M545.67,-16C545.67,-16 558.33,-16 558.33,-16 563.67,-16 569,-21.33 569,-26.67 569,-26.67 569,-37.33 569,-37.33 569,-42.67 563.67,-48 558.33,-48 558.33,-48 545.67,-48 545.67,-48 540.33,-48 535,-42.67 535,-37.33 535,-37.33 535,-26.67 535,-26.67 535,-21.33 540.33,-16 545.67,-16"/>
<text text-anchor="start" x="540" y="-28.3" font-family="Helvetica,sans-Serif" font-size="14.00">&quot;V&quot;</text>
<path fill="none" stroke="black" d="M545.67,-16C545.67,-16 558.33,-16 558.33,-16 563.67,-16 569,-21.33 569,-26.67 569,-26.67 569,-37.33 569,-37.33 569,-42.67 563.67,-48 558.33,-48 558.33,-48 545.67,-48 545.67,-48 540.33,-48 535,-42.67 535,-37.33 535,-37.33 535,-26.67 535,-26.67 535,-21.33 540.33,-16 545.67,-16"/>
</a>
</g>
</g>
<!-- primitive&#45;String&#45;0 -->
<g id="node2" class="node">
<title>primitive&#45;String&#45;0</title>
<g id="a_node2"><a xlink:title="String&#45;0: primitive&#45;String&#45;0">
<path fill="white" stroke="transparent" d="M309.17,-16C309.17,-16 322.83,-16 322.83,-16 328.17,-16 333.5,-21.33 333.5,-26.67 333.5,-26.67 333.5,-37.33 333.5,-37.33 333.5,-42.67 328.17,-48 322.83,-48 322.83,-48 309.17,-48 309.17,-48 303.83,-48 298.5,-42.67 298.5,-37.33 298.5,-37.33 298.5,-26.67 298.5,-26.67 298.5,-21.33 303.83,-16 309.17,-16"/>
<text text-anchor="start" x="304" y="-28.3" font-family="Helvetica,sans-Serif" font-size="14.00">&quot;Q&quot;</text>
<path fill="none" stroke="black" d="M309.17,-16C309.17,-16 322.83,-16 322.83,-16 328.17,-16 333.5,-21.33 333.5,-26.67 333.5,-26.67 333.5,-37.33 333.5,-37.33 333.5,-42.67 328.17,-48 322.83,-48 322.83,-48 309.17,-48 309.17,-48 303.83,-48 298.5,-42.67 298.5,-37.33 298.5,-37.33 298.5,-26.67 298.5,-26.67 298.5,-21.33 303.83,-16 309.17,-16"/>
</a>
</g>
</g>
<!-- primitive&#45;String&#45;1 -->
<g id="node3" class="node">
<title>primitive&#45;String&#45;1</title>
<g id="a_node3"><a xlink:title="String&#45;1: primitive&#45;String&#45;1">
<path fill="white" stroke="transparent" d="M244.17,-16C244.17,-16 255.83,-16 255.83,-16 261.17,-16 266.5,-21.33 266.5,-26.67 266.5,-26.67 266.5,-37.33 266.5,-37.33 266.5,-42.67 261.17,-48 255.83,-48 255.83,-48 244.17,-48 244.17,-48 238.83,-48 233.5,-42.67 233.5,-37.33 233.5,-37.33 233.5,-26.67 233.5,-26.67 233.5,-21.33 238.83,-16 244.17,-16"/>
<text text-anchor="start" x="239" y="-28.3" font-family="Helvetica,sans-Serif" font-size="14.00">&quot;K&quot;</text>
<path fill="none" stroke="black" d="M244.17,-16C244.17,-16 255.83,-16 255.83,-16 261.17,-16 266.5,-21.33 266.5,-26.67 266.5,-26.67 266.5,-37.33 266.5,-37.33 266.5,-42.67 261.17,-48 255.83,-48 255.83,-48 244.17,-48 244.17,-48 238.83,-48 233.5,-42.67 233.5,-37.33 233.5,-37.33 233.5,-26.67 233.5,-26.67 233.5,-21.33 238.83,-16 244.17,-16"/>
</a>
</g>
</g>
<!-- function&#45;2&#45;CreateTensor -->
<g id="node4" class="node">
<title>function&#45;2&#45;CreateTensor</title>
<g id="a_node4"><a xlink:title="Tensor&#45;2: function&#45;2&#45;CreateTensor">
<path fill="white" stroke="transparent" d="M474.17,-95C474.17,-95 553.83,-95 553.83,-95 559.17,-95 564.5,-100.33 564.5,-105.67 564.5,-105.67 564.5,-116.33 564.5,-116.33 564.5,-121.67 559.17,-127 553.83,-127 553.83,-127 474.17,-127 474.17,-127 468.83,-127 463.5,-121.67 463.5,-116.33 463.5,-116.33 463.5,-105.67 463.5,-105.67 463.5,-100.33 468.83,-95 474.17,-95"/>
<text text-anchor="start" x="469" y="-107.3" font-family="Helvetica,sans-Serif" font-size="14.00">CreateTensor</text>
<path fill="none" stroke="black" d="M474.17,-95C474.17,-95 553.83,-95 553.83,-95 559.17,-95 564.5,-100.33 564.5,-105.67 564.5,-105.67 564.5,-116.33 564.5,-116.33 564.5,-121.67 559.17,-127 553.83,-127 553.83,-127 474.17,-127 474.17,-127 468.83,-127 463.5,-121.67 463.5,-116.33 463.5,-116.33 463.5,-105.67 463.5,-105.67 463.5,-100.33 468.83,-95 474.17,-95"/>
</a>
</g>
</g>
<!-- primitive&#45;i64&#45;64 -->
<g id="node5" class="node">
<title>primitive&#45;i64&#45;64</title>
<g id="a_node5"><a xlink:title="i64&#45;64: primitive&#45;i64&#45;64">
<path fill="white" stroke="transparent" d="M376.67,-16C376.67,-16 387.33,-16 387.33,-16 392.67,-16 398,-21.33 398,-26.67 398,-26.67 398,-37.33 398,-37.33 398,-42.67 392.67,-48 387.33,-48 387.33,-48 376.67,-48 376.67,-48 371.33,-48 366,-42.67 366,-37.33 366,-37.33 366,-26.67 366,-26.67 366,-21.33 371.33,-16 376.67,-16"/>
<text text-anchor="start" x="372.5" y="-28.3" font-family="Helvetica,sans-Serif" font-size="14.00">64</text>
<path fill="none" stroke="black" d="M376.67,-16C376.67,-16 387.33,-16 387.33,-16 392.67,-16 398,-21.33 398,-26.67 398,-26.67 398,-37.33 398,-37.33 398,-42.67 392.67,-48 387.33,-48 387.33,-48 376.67,-48 376.67,-48 371.33,-48 366,-42.67 366,-37.33 366,-37.33 366,-26.67 366,-26.67 366,-21.33 371.33,-16 376.67,-16"/>
</a>
</g>
</g>
<!-- primitive&#45;i64&#45;1024 -->
<g id="node6" class="node">
<title>primitive&#45;i64&#45;1024</title>
<g id="a_node6"><a xlink:title="i64&#45;1024: primitive&#45;i64&#45;1024">
<path fill="white" stroke="transparent" d="M435.17,-16C435.17,-16 460.83,-16 460.83,-16 466.17,-16 471.5,-21.33 471.5,-26.67 471.5,-26.67 471.5,-37.33 471.5,-37.33 471.5,-42.67 466.17,-48 460.83,-48 460.83,-48 435.17,-48 435.17,-48 429.83,-48 424.5,-42.67 424.5,-37.33 424.5,-37.33 424.5,-26.67 424.5,-26.67 424.5,-21.33 429.83,-16 435.17,-16"/>
<text text-anchor="start" x="430" y="-28.3" font-family="Helvetica,sans-Serif" font-size="14.00">1024</text>
<path fill="none" stroke="black" d="M435.17,-16C435.17,-16 460.83,-16 460.83,-16 466.17,-16 471.5,-21.33 471.5,-26.67 471.5,-26.67 471.5,-37.33 471.5,-37.33 471.5,-42.67 466.17,-48 460.83,-48 460.83,-48 435.17,-48 435.17,-48 429.83,-48 424.5,-42.67 424.5,-37.33 424.5,-37.33 424.5,-26.67 424.5,-26.67 424.5,-21.33 429.83,-16 435.17,-16"/>
</a>
</g>
</g>
<!-- function&#45;0&#45;M_mul_emp -->
<g id="node7" class="node">
<title>function&#45;0&#45;M_mul_emp</title>
<g id="a_node7"><a xlink:title="Tensor&#45;3: function&#45;0&#45;M_mul_emp">
<path fill="white" stroke="transparent" d="M152.17,-253C152.17,-253 223.83,-253 223.83,-253 229.17,-253 234.5,-258.33 234.5,-263.67 234.5,-263.67 234.5,-274.33 234.5,-274.33 234.5,-279.67 229.17,-285 223.83,-285 223.83,-285 152.17,-285 152.17,-285 146.83,-285 141.5,-279.67 141.5,-274.33 141.5,-274.33 141.5,-263.67 141.5,-263.67 141.5,-258.33 146.83,-253 152.17,-253"/>
<text text-anchor="start" x="147" y="-265.3" font-family="Helvetica,sans-Serif" font-size="14.00">M_mul_emp</text>
<path fill="none" stroke="black" d="M152.17,-253C152.17,-253 223.83,-253 223.83,-253 229.17,-253 234.5,-258.33 234.5,-263.67 234.5,-263.67 234.5,-274.33 234.5,-274.33 234.5,-279.67 229.17,-285 223.83,-285 223.83,-285 152.17,-285 152.17,-285 146.83,-285 141.5,-279.67 141.5,-274.33 141.5,-274.33 141.5,-263.67 141.5,-263.67 141.5,-258.33 146.83,-253 152.17,-253"/>
</a>
</g>
</g>
<!-- function&#45;0&#45;CreateTensor -->
<g id="node8" class="node">
<title>function&#45;0&#45;CreateTensor</title>
<g id="a_node8"><a xlink:title="Tensor&#45;0: function&#45;0&#45;CreateTensor">
<path fill="white" stroke="transparent" d="M360.17,-95C360.17,-95 439.83,-95 439.83,-95 445.17,-95 450.5,-100.33 450.5,-105.67 450.5,-105.67 450.5,-116.33 450.5,-116.33 450.5,-121.67 445.17,-127 439.83,-127 439.83,-127 360.17,-127 360.17,-127 354.83,-127 349.5,-121.67 349.5,-116.33 349.5,-116.33 349.5,-105.67 349.5,-105.67 349.5,-100.33 354.83,-95 360.17,-95"/>
<text text-anchor="start" x="355" y="-107.3" font-family="Helvetica,sans-Serif" font-size="14.00">CreateTensor</text>
<path fill="none" stroke="black" d="M360.17,-95C360.17,-95 439.83,-95 439.83,-95 445.17,-95 450.5,-100.33 450.5,-105.67 450.5,-105.67 450.5,-116.33 450.5,-116.33 450.5,-121.67 445.17,-127 439.83,-127 439.83,-127 360.17,-127 360.17,-127 354.83,-127 349.5,-121.67 349.5,-116.33 349.5,-116.33 349.5,-105.67 349.5,-105.67 349.5,-100.33 354.83,-95 360.17,-95"/>
</a>
</g>
</g>
<!-- function&#45;1&#45;CreateTensor -->
<g id="node9" class="node">
<title>function&#45;1&#45;CreateTensor</title>
<g id="a_node9"><a xlink:title="Tensor&#45;1: function&#45;1&#45;CreateTensor">
<path fill="white" stroke="transparent" d="M180.17,-95C180.17,-95 259.83,-95 259.83,-95 265.17,-95 270.5,-100.33 270.5,-105.67 270.5,-105.67 270.5,-116.33 270.5,-116.33 270.5,-121.67 265.17,-127 259.83,-127 259.83,-127 180.17,-127 180.17,-127 174.83,-127 169.5,-121.67 169.5,-116.33 169.5,-116.33 169.5,-105.67 169.5,-105.67 169.5,-100.33 174.83,-95 180.17,-95"/>
<text text-anchor="start" x="175" y="-107.3" font-family="Helvetica,sans-Serif" font-size="14.00">CreateTensor</text>
<path fill="none" stroke="black" d="M180.17,-95C180.17,-95 259.83,-95 259.83,-95 265.17,-95 270.5,-100.33 270.5,-105.67 270.5,-105.67 270.5,-116.33 270.5,-116.33 270.5,-121.67 265.17,-127 259.83,-127 259.83,-127 180.17,-127 180.17,-127 174.83,-127 169.5,-121.67 169.5,-116.33 169.5,-116.33 169.5,-105.67 169.5,-105.67 169.5,-100.33 174.83,-95 180.17,-95"/>
</a>
</g>
</g>
<!-- function&#45;0&#45;M_mul_em1m0p -->
<g id="node10" class="node">
<title>function&#45;0&#45;M_mul_em1m0p</title>
<g id="a_node10"><a xlink:title="Tensor&#45;3: function&#45;0&#45;M_mul_em1m0p">
<path fill="white" stroke="transparent" d="M249.17,-253C249.17,-253 352.83,-253 352.83,-253 358.17,-253 363.5,-258.33 363.5,-263.67 363.5,-263.67 363.5,-274.33 363.5,-274.33 363.5,-279.67 358.17,-285 352.83,-285 352.83,-285 249.17,-285 249.17,-285 243.83,-285 238.5,-279.67 238.5,-274.33 238.5,-274.33 238.5,-263.67 238.5,-263.67 238.5,-258.33 243.83,-253 249.17,-253"/>
<text text-anchor="start" x="244" y="-265.3" font-family="Helvetica,sans-Serif" font-size="14.00">M_mul_em1m0p</text>
<path fill="none" stroke="black" d="M249.17,-253C249.17,-253 352.83,-253 352.83,-253 358.17,-253 363.5,-258.33 363.5,-263.67 363.5,-263.67 363.5,-274.33 363.5,-274.33 363.5,-279.67 358.17,-285 352.83,-285 352.83,-285 249.17,-285 249.17,-285 243.83,-285 238.5,-279.67 238.5,-274.33 238.5,-274.33 238.5,-263.67 238.5,-263.67 238.5,-258.33 243.83,-253 249.17,-253"/>
</a>
</g>
</g>
<!-- function&#45;0&#45;T_split_m_m1m0 -->
<g id="node11" class="node">
<title>function&#45;0&#45;T_split_m_m1m0</title>
<g id="a_node11"><a xlink:title="Tensor&#45;12: function&#45;0&#45;T_split_m_m1m0">
<path fill="white" stroke="transparent" d="M234.17,-174C234.17,-174 339.83,-174 339.83,-174 345.17,-174 350.5,-179.33 350.5,-184.67 350.5,-184.67 350.5,-195.33 350.5,-195.33 350.5,-200.67 345.17,-206 339.83,-206 339.83,-206 234.17,-206 234.17,-206 228.83,-206 223.5,-200.67 223.5,-195.33 223.5,-195.33 223.5,-184.67 223.5,-184.67 223.5,-179.33 228.83,-174 234.17,-174"/>
<text text-anchor="start" x="229" y="-186.3" font-family="Helvetica,sans-Serif" font-size="14.00">T_split_m_m1m0</text>
<path fill="none" stroke="black" d="M234.17,-174C234.17,-174 339.83,-174 339.83,-174 345.17,-174 350.5,-179.33 350.5,-184.67 350.5,-184.67 350.5,-195.33 350.5,-195.33 350.5,-200.67 345.17,-206 339.83,-206 339.83,-206 234.17,-206 234.17,-206 228.83,-206 223.5,-200.67 223.5,-195.33 223.5,-195.33 223.5,-184.67 223.5,-184.67 223.5,-179.33 228.83,-174 234.17,-174"/>
</a>
</g>
</g>
<!-- function&#45;0&#45;M_exp_mp -->
<g id="node12" class="node">
<title>function&#45;0&#45;M_exp_mp</title>
<g id="a_node12"><a xlink:title="Tensor&#45;7: function&#45;0&#45;M_exp_mp">
<path fill="white" stroke="transparent" d="M124.67,-648C124.67,-648 187.33,-648 187.33,-648 192.67,-648 198,-653.33 198,-658.67 198,-658.67 198,-669.33 198,-669.33 198,-674.67 192.67,-680 187.33,-680 187.33,-680 124.67,-680 124.67,-680 119.33,-680 114,-674.67 114,-669.33 114,-669.33 114,-658.67 114,-658.67 114,-653.33 119.33,-648 124.67,-648"/>
<text text-anchor="start" x="119" y="-660.3" font-family="Helvetica,sans-Serif" font-size="14.00">M_exp_mp</text>
<path fill="none" stroke="black" d="M124.67,-648C124.67,-648 187.33,-648 187.33,-648 192.67,-648 198,-653.33 198,-658.67 198,-658.67 198,-669.33 198,-669.33 198,-674.67 192.67,-680 187.33,-680 187.33,-680 124.67,-680 124.67,-680 119.33,-680 114,-674.67 114,-669.33 114,-669.33 114,-658.67 114,-658.67 114,-653.33 119.33,-648 124.67,-648"/>
</a>
</g>
</g>
<!-- function&#45;0&#45;M_sub_m1m0p -->
<g id="node13" class="node">
<title>function&#45;0&#45;M_sub_m1m0p</title>
<g id="a_node13"><a xlink:title="Tensor&#45;6: function&#45;0&#45;M_sub_m1m0p">
<path fill="white" stroke="transparent" d="M114.67,-569C114.67,-569 209.33,-569 209.33,-569 214.67,-569 220,-574.33 220,-579.67 220,-579.67 220,-590.33 220,-590.33 220,-595.67 214.67,-601 209.33,-601 209.33,-601 114.67,-601 114.67,-601 109.33,-601 104,-595.67 104,-590.33 104,-590.33 104,-579.67 104,-579.67 104,-574.33 109.33,-569 114.67,-569"/>
<text text-anchor="start" x="109" y="-581.3" font-family="Helvetica,sans-Serif" font-size="14.00">M_sub_m1m0p</text>
<path fill="none" stroke="black" d="M114.67,-569C114.67,-569 209.33,-569 209.33,-569 214.67,-569 220,-574.33 220,-579.67 220,-579.67 220,-590.33 220,-590.33 220,-595.67 214.67,-601 209.33,-601 209.33,-601 114.67,-601 114.67,-601 109.33,-601 104,-595.67 104,-590.33 104,-590.33 104,-579.67 104,-579.67 104,-574.33 109.33,-569 114.67,-569"/>
</a>
</g>
</g>
<!-- function&#45;0&#45;M_exp_m1m0p -->
<g id="node14" class="node">
<title>function&#45;0&#45;M_exp_m1m0p</title>
<g id="a_node14"><a xlink:title="Tensor&#45;7: function&#45;0&#45;M_exp_m1m0p">
<path fill="white" stroke="transparent" d="M212.67,-648C212.67,-648 307.33,-648 307.33,-648 312.67,-648 318,-653.33 318,-658.67 318,-658.67 318,-669.33 318,-669.33 318,-674.67 312.67,-680 307.33,-680 307.33,-680 212.67,-680 212.67,-680 207.33,-680 202,-674.67 202,-669.33 202,-669.33 202,-658.67 202,-658.67 202,-653.33 207.33,-648 212.67,-648"/>
<text text-anchor="start" x="207" y="-660.3" font-family="Helvetica,sans-Serif" font-size="14.00">M_exp_m1m0p</text>
<path fill="none" stroke="black" d="M212.67,-648C212.67,-648 307.33,-648 307.33,-648 312.67,-648 318,-653.33 318,-658.67 318,-658.67 318,-669.33 318,-669.33 318,-674.67 312.67,-680 307.33,-680 307.33,-680 212.67,-680 212.67,-680 207.33,-680 202,-674.67 202,-669.33 202,-669.33 202,-658.67 202,-658.67 202,-653.33 207.33,-648 212.67,-648"/>
</a>
</g>
</g>
<!-- function&#45;0&#45;M_sub_mp -->
<g id="node15" class="node">
<title>function&#45;0&#45;M_sub_mp</title>
<g id="a_node15"><a xlink:title="Tensor&#45;6: function&#45;0&#45;M_sub_mp">
<path fill="white" stroke="transparent" d="M234.67,-569C234.67,-569 297.33,-569 297.33,-569 302.67,-569 308,-574.33 308,-579.67 308,-579.67 308,-590.33 308,-590.33 308,-595.67 302.67,-601 297.33,-601 297.33,-601 234.67,-601 234.67,-601 229.33,-601 224,-595.67 224,-590.33 224,-590.33 224,-579.67 224,-579.67 224,-574.33 229.33,-569 234.67,-569"/>
<text text-anchor="start" x="229" y="-581.3" font-family="Helvetica,sans-Serif" font-size="14.00">M_sub_mp</text>
<path fill="none" stroke="black" d="M234.67,-569C234.67,-569 297.33,-569 297.33,-569 302.67,-569 308,-574.33 308,-579.67 308,-579.67 308,-590.33 308,-590.33 308,-595.67 302.67,-601 297.33,-601 297.33,-601 234.67,-601 234.67,-601 229.33,-601 224,-595.67 224,-590.33 224,-590.33 224,-579.67 224,-579.67 224,-574.33 229.33,-569 234.67,-569"/>
</a>
</g>
</g>
<!-- function&#45;0&#45;M_mul_m1p -->
<g id="node16" class="node">
<title>function&#45;0&#45;M_mul_m1p</title>
<g id="a_node16"><a xlink:title="Tensor&#45;19: function&#45;0&#45;M_mul_m1p">
<path fill="white" stroke="transparent" d="M260.67,-806C260.67,-806 333.33,-806 333.33,-806 338.67,-806 344,-811.33 344,-816.67 344,-816.67 344,-827.33 344,-827.33 344,-832.67 338.67,-838 333.33,-838 333.33,-838 260.67,-838 260.67,-838 255.33,-838 250,-832.67 250,-827.33 250,-827.33 250,-816.67 250,-816.67 250,-811.33 255.33,-806 260.67,-806"/>
<text text-anchor="start" x="255" y="-818.3" font-family="Helvetica,sans-Serif" font-size="14.00">M_mul_m1p</text>
<path fill="none" stroke="black" d="M260.67,-806C260.67,-806 333.33,-806 333.33,-806 338.67,-806 344,-811.33 344,-816.67 344,-816.67 344,-827.33 344,-827.33 344,-832.67 338.67,-838 333.33,-838 333.33,-838 260.67,-838 260.67,-838 255.33,-838 250,-832.67 250,-827.33 250,-827.33 250,-816.67 250,-816.67 250,-811.33 255.33,-806 260.67,-806"/>
</a>
</g>
</g>
<!-- function&#45;0&#45;R_add_m0 -->
<g id="node17" class="node">
<title>function&#45;0&#45;R_add_m0</title>
<g id="a_node17"><a xlink:title="Tensor&#45;14: function&#45;0&#45;R_add_m0">
<path fill="white" stroke="transparent" d="M179.17,-727C179.17,-727 240.83,-727 240.83,-727 246.17,-727 251.5,-732.33 251.5,-737.67 251.5,-737.67 251.5,-748.33 251.5,-748.33 251.5,-753.67 246.17,-759 240.83,-759 240.83,-759 179.17,-759 179.17,-759 173.83,-759 168.5,-753.67 168.5,-748.33 168.5,-748.33 168.5,-737.67 168.5,-737.67 168.5,-732.33 173.83,-727 179.17,-727"/>
<text text-anchor="start" x="174" y="-739.3" font-family="Helvetica,sans-Serif" font-size="14.00">R_add_m0</text>
<path fill="none" stroke="black" d="M179.17,-727C179.17,-727 240.83,-727 240.83,-727 246.17,-727 251.5,-732.33 251.5,-737.67 251.5,-737.67 251.5,-748.33 251.5,-748.33 251.5,-753.67 246.17,-759 240.83,-759 240.83,-759 179.17,-759 179.17,-759 173.83,-759 168.5,-753.67 168.5,-748.33 168.5,-748.33 168.5,-737.67 168.5,-737.67 168.5,-732.33 173.83,-727 179.17,-727"/>
</a>
</g>
</g>
<!-- function&#45;0&#45;M_exp_m1p -->
<g id="node18" class="node">
<title>function&#45;0&#45;M_exp_m1p</title>
<g id="a_node18"><a xlink:title="Tensor&#45;17: function&#45;0&#45;M_exp_m1p">
<path fill="white" stroke="transparent" d="M340.17,-648C340.17,-648 411.83,-648 411.83,-648 417.17,-648 422.5,-653.33 422.5,-658.67 422.5,-658.67 422.5,-669.33 422.5,-669.33 422.5,-674.67 417.17,-680 411.83,-680 411.83,-680 340.17,-680 340.17,-680 334.83,-680 329.5,-674.67 329.5,-669.33 329.5,-669.33 329.5,-658.67 329.5,-658.67 329.5,-653.33 334.83,-648 340.17,-648"/>
<text text-anchor="start" x="335" y="-660.3" font-family="Helvetica,sans-Serif" font-size="14.00">M_exp_m1p</text>
<path fill="none" stroke="black" d="M340.17,-648C340.17,-648 411.83,-648 411.83,-648 417.17,-648 422.5,-653.33 422.5,-658.67 422.5,-658.67 422.5,-669.33 422.5,-669.33 422.5,-674.67 417.17,-680 411.83,-680 411.83,-680 340.17,-680 340.17,-680 334.83,-680 329.5,-674.67 329.5,-669.33 329.5,-669.33 329.5,-658.67 329.5,-658.67 329.5,-653.33 334.83,-648 340.17,-648"/>
</a>
</g>
</g>
<!-- function&#45;0&#45;M_sub_m1p -->
<g id="node19" class="node">
<title>function&#45;0&#45;M_sub_m1p</title>
<g id="a_node19"><a xlink:title="Tensor&#45;16: function&#45;0&#45;M_sub_m1p">
<path fill="white" stroke="transparent" d="M333.17,-569C333.17,-569 404.83,-569 404.83,-569 410.17,-569 415.5,-574.33 415.5,-579.67 415.5,-579.67 415.5,-590.33 415.5,-590.33 415.5,-595.67 410.17,-601 404.83,-601 404.83,-601 333.17,-601 333.17,-601 327.83,-601 322.5,-595.67 322.5,-590.33 322.5,-590.33 322.5,-579.67 322.5,-579.67 322.5,-574.33 327.83,-569 333.17,-569"/>
<text text-anchor="start" x="328" y="-581.3" font-family="Helvetica,sans-Serif" font-size="14.00">M_sub_m1p</text>
<path fill="none" stroke="black" d="M333.17,-569C333.17,-569 404.83,-569 404.83,-569 410.17,-569 415.5,-574.33 415.5,-579.67 415.5,-579.67 415.5,-590.33 415.5,-590.33 415.5,-595.67 410.17,-601 404.83,-601 404.83,-601 333.17,-601 333.17,-601 327.83,-601 322.5,-595.67 322.5,-590.33 322.5,-590.33 322.5,-579.67 322.5,-579.67 322.5,-574.33 327.83,-569 333.17,-569"/>
</a>
</g>
</g>
<!-- function&#45;0&#45;R_max_m0 -->
<g id="node20" class="node">
<title>function&#45;0&#45;R_max_m0</title>
<g id="a_node20"><a xlink:title="Tensor&#45;13: function&#45;0&#45;R_max_m0">
<path fill="white" stroke="transparent" d="M263.67,-411C263.67,-411 328.33,-411 328.33,-411 333.67,-411 339,-416.33 339,-421.67 339,-421.67 339,-432.33 339,-432.33 339,-437.67 333.67,-443 328.33,-443 328.33,-443 263.67,-443 263.67,-443 258.33,-443 253,-437.67 253,-432.33 253,-432.33 253,-421.67 253,-421.67 253,-416.33 258.33,-411 263.67,-411"/>
<text text-anchor="start" x="258" y="-423.3" font-family="Helvetica,sans-Serif" font-size="14.00">R_max_m0</text>
<path fill="none" stroke="black" d="M263.67,-411C263.67,-411 328.33,-411 328.33,-411 333.67,-411 339,-416.33 339,-421.67 339,-421.67 339,-432.33 339,-432.33 339,-437.67 333.67,-443 328.33,-443 328.33,-443 263.67,-443 263.67,-443 258.33,-443 253,-437.67 253,-432.33 253,-432.33 253,-421.67 253,-421.67 253,-416.33 258.33,-411 263.67,-411"/>
</a>
</g>
</g>
<!-- function&#45;0&#45;R_max_m -->
<g id="node21" class="node">
<title>function&#45;0&#45;R_max_m</title>
<g id="a_node21"><a xlink:title="Tensor&#45;5: function&#45;0&#45;R_max_m">
<path fill="white" stroke="transparent" d="M364.17,-490C364.17,-490 419.83,-490 419.83,-490 425.17,-490 430.5,-495.33 430.5,-500.67 430.5,-500.67 430.5,-511.33 430.5,-511.33 430.5,-516.67 425.17,-522 419.83,-522 419.83,-522 364.17,-522 364.17,-522 358.83,-522 353.5,-516.67 353.5,-511.33 353.5,-511.33 353.5,-500.67 353.5,-500.67 353.5,-495.33 358.83,-490 364.17,-490"/>
<text text-anchor="start" x="359" y="-502.3" font-family="Helvetica,sans-Serif" font-size="14.00">R_max_m</text>
<path fill="none" stroke="black" d="M364.17,-490C364.17,-490 419.83,-490 419.83,-490 425.17,-490 430.5,-495.33 430.5,-500.67 430.5,-500.67 430.5,-511.33 430.5,-511.33 430.5,-516.67 425.17,-522 419.83,-522 419.83,-522 364.17,-522 364.17,-522 358.83,-522 353.5,-516.67 353.5,-511.33 353.5,-511.33 353.5,-500.67 353.5,-500.67 353.5,-495.33 358.83,-490 364.17,-490"/>
</a>
</g>
</g>
<!-- function&#45;0&#45;M_div_fp -->
<g id="node22" class="node">
<title>function&#45;0&#45;M_div_fp</title>
<g id="a_node22"><a xlink:title="Tensor&#45;11: function&#45;0&#45;M_div_fp">
<path fill="white" stroke="transparent" d="M253.17,-1122C253.17,-1122 302.83,-1122 302.83,-1122 308.17,-1122 313.5,-1127.33 313.5,-1132.67 313.5,-1132.67 313.5,-1143.33 313.5,-1143.33 313.5,-1148.67 308.17,-1154 302.83,-1154 302.83,-1154 253.17,-1154 253.17,-1154 247.83,-1154 242.5,-1148.67 242.5,-1143.33 242.5,-1143.33 242.5,-1132.67 242.5,-1132.67 242.5,-1127.33 247.83,-1122 253.17,-1122"/>
<text text-anchor="start" x="248" y="-1134.3" font-family="Helvetica,sans-Serif" font-size="14.00">M_div_fp</text>
<path fill="none" stroke="black" d="M253.17,-1122C253.17,-1122 302.83,-1122 302.83,-1122 308.17,-1122 313.5,-1127.33 313.5,-1132.67 313.5,-1132.67 313.5,-1143.33 313.5,-1143.33 313.5,-1148.67 308.17,-1154 302.83,-1154 302.83,-1154 253.17,-1154 253.17,-1154 247.83,-1154 242.5,-1148.67 242.5,-1143.33 242.5,-1143.33 242.5,-1132.67 242.5,-1132.67 242.5,-1127.33 247.83,-1122 253.17,-1122"/>
</a>
</g>
</g>
<!-- function&#45;3&#45;R_add_m1 -->
<g id="node23" class="node">
<title>function&#45;3&#45;R_add_m1</title>
<g id="a_node23"><a xlink:title="Tensor&#45;23: function&#45;3&#45;R_add_m1">
<path fill="white" stroke="transparent" d="M459.17,-1043C459.17,-1043 520.83,-1043 520.83,-1043 526.17,-1043 531.5,-1048.33 531.5,-1053.67 531.5,-1053.67 531.5,-1064.33 531.5,-1064.33 531.5,-1069.67 526.17,-1075 520.83,-1075 520.83,-1075 459.17,-1075 459.17,-1075 453.83,-1075 448.5,-1069.67 448.5,-1064.33 448.5,-1064.33 448.5,-1053.67 448.5,-1053.67 448.5,-1048.33 453.83,-1043 459.17,-1043"/>
<text text-anchor="start" x="454" y="-1055.3" font-family="Helvetica,sans-Serif" font-size="14.00">R_add_m1</text>
<path fill="none" stroke="black" d="M459.17,-1043C459.17,-1043 520.83,-1043 520.83,-1043 526.17,-1043 531.5,-1048.33 531.5,-1053.67 531.5,-1053.67 531.5,-1064.33 531.5,-1064.33 531.5,-1069.67 526.17,-1075 520.83,-1075 520.83,-1075 459.17,-1075 459.17,-1075 453.83,-1075 448.5,-1069.67 448.5,-1064.33 448.5,-1064.33 448.5,-1053.67 448.5,-1053.67 448.5,-1048.33 453.83,-1043 459.17,-1043"/>
</a>
</g>
</g>
<!-- function&#45;0&#45;R_add_m1 -->
<g id="node24" class="node">
<title>function&#45;0&#45;R_add_m1</title>
<g id="a_node24"><a xlink:title="Tensor&#45;8: function&#45;0&#45;R_add_m1">
<path fill="white" stroke="transparent" d="M25.17,-806C25.17,-806 86.83,-806 86.83,-806 92.17,-806 97.5,-811.33 97.5,-816.67 97.5,-816.67 97.5,-827.33 97.5,-827.33 97.5,-832.67 92.17,-838 86.83,-838 86.83,-838 25.17,-838 25.17,-838 19.83,-838 14.5,-832.67 14.5,-827.33 14.5,-827.33 14.5,-816.67 14.5,-816.67 14.5,-811.33 19.83,-806 25.17,-806"/>
<text text-anchor="start" x="20" y="-818.3" font-family="Helvetica,sans-Serif" font-size="14.00">R_add_m1</text>
<path fill="none" stroke="black" d="M25.17,-806C25.17,-806 86.83,-806 86.83,-806 92.17,-806 97.5,-811.33 97.5,-816.67 97.5,-816.67 97.5,-827.33 97.5,-827.33 97.5,-832.67 92.17,-838 86.83,-838 86.83,-838 25.17,-838 25.17,-838 19.83,-838 14.5,-832.67 14.5,-827.33 14.5,-827.33 14.5,-816.67 14.5,-816.67 14.5,-811.33 19.83,-806 25.17,-806"/>
</a>
</g>
</g>
<!-- function&#45;1&#45;M_div_fp -->
<g id="node25" class="node">
<title>function&#45;1&#45;M_div_fp</title>
<g id="a_node25"><a xlink:title="Tensor&#45;11: function&#45;1&#45;M_div_fp">
<path fill="white" stroke="transparent" d="M565.17,-1122C565.17,-1122 614.83,-1122 614.83,-1122 620.17,-1122 625.5,-1127.33 625.5,-1132.67 625.5,-1132.67 625.5,-1143.33 625.5,-1143.33 625.5,-1148.67 620.17,-1154 614.83,-1154 614.83,-1154 565.17,-1154 565.17,-1154 559.83,-1154 554.5,-1148.67 554.5,-1143.33 554.5,-1143.33 554.5,-1132.67 554.5,-1132.67 554.5,-1127.33 559.83,-1122 565.17,-1122"/>
<text text-anchor="start" x="560" y="-1134.3" font-family="Helvetica,sans-Serif" font-size="14.00">M_div_fp</text>
<path fill="none" stroke="black" d="M565.17,-1122C565.17,-1122 614.83,-1122 614.83,-1122 620.17,-1122 625.5,-1127.33 625.5,-1132.67 625.5,-1132.67 625.5,-1143.33 625.5,-1143.33 625.5,-1148.67 620.17,-1154 614.83,-1154 614.83,-1154 565.17,-1154 565.17,-1154 559.83,-1154 554.5,-1148.67 554.5,-1143.33 554.5,-1143.33 554.5,-1132.67 554.5,-1132.67 554.5,-1127.33 559.83,-1122 565.17,-1122"/>
</a>
</g>
</g>
<!-- function&#45;2&#45;R_add_m -->
<g id="node26" class="node">
<title>function&#45;2&#45;R_add_m</title>
<g id="a_node26"><a xlink:title="Tensor&#45;23: function&#45;2&#45;R_add_m">
<path fill="white" stroke="transparent" d="M546.67,-1043C546.67,-1043 599.33,-1043 599.33,-1043 604.67,-1043 610,-1048.33 610,-1053.67 610,-1053.67 610,-1064.33 610,-1064.33 610,-1069.67 604.67,-1075 599.33,-1075 599.33,-1075 546.67,-1075 546.67,-1075 541.33,-1075 536,-1069.67 536,-1064.33 536,-1064.33 536,-1053.67 536,-1053.67 536,-1048.33 541.33,-1043 546.67,-1043"/>
<text text-anchor="start" x="541" y="-1055.3" font-family="Helvetica,sans-Serif" font-size="14.00">R_add_m</text>
<path fill="none" stroke="black" d="M546.67,-1043C546.67,-1043 599.33,-1043 599.33,-1043 604.67,-1043 610,-1048.33 610,-1053.67 610,-1053.67 610,-1064.33 610,-1064.33 610,-1069.67 604.67,-1075 599.33,-1075 599.33,-1075 546.67,-1075 546.67,-1075 541.33,-1075 536,-1069.67 536,-1064.33 536,-1064.33 536,-1053.67 536,-1053.67 536,-1048.33 541.33,-1043 546.67,-1043"/>
</a>
</g>
</g>
<!-- function&#45;3&#45;M_div_fp -->
<g id="node27" class="node">
<title>function&#45;3&#45;M_div_fp</title>
<g id="a_node27"><a xlink:title="Tensor&#45;11: function&#45;3&#45;M_div_fp">
<path fill="white" stroke="transparent" d="M490.17,-1122C490.17,-1122 539.83,-1122 539.83,-1122 545.17,-1122 550.5,-1127.33 550.5,-1132.67 550.5,-1132.67 550.5,-1143.33 550.5,-1143.33 550.5,-1148.67 545.17,-1154 539.83,-1154 539.83,-1154 490.17,-1154 490.17,-1154 484.83,-1154 479.5,-1148.67 479.5,-1143.33 479.5,-1143.33 479.5,-1132.67 479.5,-1132.67 479.5,-1127.33 484.83,-1122 490.17,-1122"/>
<text text-anchor="start" x="485" y="-1134.3" font-family="Helvetica,sans-Serif" font-size="14.00">M_div_fp</text>
<path fill="none" stroke="black" d="M490.17,-1122C490.17,-1122 539.83,-1122 539.83,-1122 545.17,-1122 550.5,-1127.33 550.5,-1132.67 550.5,-1132.67 550.5,-1143.33 550.5,-1143.33 550.5,-1148.67 545.17,-1154 539.83,-1154 539.83,-1154 490.17,-1154 490.17,-1154 484.83,-1154 479.5,-1148.67 479.5,-1143.33 479.5,-1143.33 479.5,-1132.67 479.5,-1132.67 479.5,-1127.33 484.83,-1122 490.17,-1122"/>
</a>
</g>
</g>
<!-- function&#45;2&#45;M_div_fp -->
<g id="node28" class="node">
<title>function&#45;2&#45;M_div_fp</title>
<g id="a_node28"><a xlink:title="Tensor&#45;11: function&#45;2&#45;M_div_fp">
<path fill="white" stroke="transparent" d="M328.17,-1122C328.17,-1122 377.83,-1122 377.83,-1122 383.17,-1122 388.5,-1127.33 388.5,-1132.67 388.5,-1132.67 388.5,-1143.33 388.5,-1143.33 388.5,-1148.67 383.17,-1154 377.83,-1154 377.83,-1154 328.17,-1154 328.17,-1154 322.83,-1154 317.5,-1148.67 317.5,-1143.33 317.5,-1143.33 317.5,-1132.67 317.5,-1132.67 317.5,-1127.33 322.83,-1122 328.17,-1122"/>
<text text-anchor="start" x="323" y="-1134.3" font-family="Helvetica,sans-Serif" font-size="14.00">M_div_fp</text>
<path fill="none" stroke="black" d="M328.17,-1122C328.17,-1122 377.83,-1122 377.83,-1122 383.17,-1122 388.5,-1127.33 388.5,-1132.67 388.5,-1132.67 388.5,-1143.33 388.5,-1143.33 388.5,-1148.67 383.17,-1154 377.83,-1154 377.83,-1154 328.17,-1154 328.17,-1154 322.83,-1154 317.5,-1148.67 317.5,-1143.33 317.5,-1143.33 317.5,-1132.67 317.5,-1132.67 317.5,-1127.33 322.83,-1122 328.17,-1122"/>
</a>
</g>
</g>
<!-- function&#45;2&#45;R_add_m1 -->
<g id="node29" class="node">
<title>function&#45;2&#45;R_add_m1</title>
<g id="a_node29"><a xlink:title="Tensor&#45;20: function&#45;2&#45;R_add_m1">
<path fill="white" stroke="transparent" d="M255.17,-1043C255.17,-1043 316.83,-1043 316.83,-1043 322.17,-1043 327.5,-1048.33 327.5,-1053.67 327.5,-1053.67 327.5,-1064.33 327.5,-1064.33 327.5,-1069.67 322.17,-1075 316.83,-1075 316.83,-1075 255.17,-1075 255.17,-1075 249.83,-1075 244.5,-1069.67 244.5,-1064.33 244.5,-1064.33 244.5,-1053.67 244.5,-1053.67 244.5,-1048.33 249.83,-1043 255.17,-1043"/>
<text text-anchor="start" x="250" y="-1055.3" font-family="Helvetica,sans-Serif" font-size="14.00">R_add_m1</text>
<path fill="none" stroke="black" d="M255.17,-1043C255.17,-1043 316.83,-1043 316.83,-1043 322.17,-1043 327.5,-1048.33 327.5,-1053.67 327.5,-1053.67 327.5,-1064.33 327.5,-1064.33 327.5,-1069.67 322.17,-1075 316.83,-1075 316.83,-1075 255.17,-1075 255.17,-1075 249.83,-1075 244.5,-1069.67 244.5,-1064.33 244.5,-1064.33 244.5,-1053.67 244.5,-1053.67 244.5,-1048.33 249.83,-1043 255.17,-1043"/>
</a>
</g>
</g>
<!-- function&#45;1&#45;R_add_m -->
<g id="node30" class="node">
<title>function&#45;1&#45;R_add_m</title>
<g id="a_node30"><a xlink:title="Tensor&#45;11: function&#45;1&#45;R_add_m">
<path fill="white" stroke="transparent" d="M174.67,-1122C174.67,-1122 227.33,-1122 227.33,-1122 232.67,-1122 238,-1127.33 238,-1132.67 238,-1132.67 238,-1143.33 238,-1143.33 238,-1148.67 232.67,-1154 227.33,-1154 227.33,-1154 174.67,-1154 174.67,-1154 169.33,-1154 164,-1148.67 164,-1143.33 164,-1143.33 164,-1132.67 164,-1132.67 164,-1127.33 169.33,-1122 174.67,-1122"/>
<text text-anchor="start" x="169" y="-1134.3" font-family="Helvetica,sans-Serif" font-size="14.00">R_add_m</text>
<path fill="none" stroke="black" d="M174.67,-1122C174.67,-1122 227.33,-1122 227.33,-1122 232.67,-1122 238,-1127.33 238,-1132.67 238,-1132.67 238,-1143.33 238,-1143.33 238,-1148.67 232.67,-1154 227.33,-1154 227.33,-1154 174.67,-1154 174.67,-1154 169.33,-1154 164,-1148.67 164,-1143.33 164,-1143.33 164,-1132.67 164,-1132.67 164,-1127.33 169.33,-1122 174.67,-1122"/>
</a>
</g>
</g>
<!-- function&#45;0&#45;M_mul_fmp -->
<g id="node31" class="node">
<title>function&#45;0&#45;M_mul_fmp</title>
<g id="a_node31"><a xlink:title="Tensor&#45;10: function&#45;0&#45;M_mul_fmp">
<path fill="white" stroke="transparent" d="M340.67,-964C340.67,-964 409.33,-964 409.33,-964 414.67,-964 420,-969.33 420,-974.67 420,-974.67 420,-985.33 420,-985.33 420,-990.67 414.67,-996 409.33,-996 409.33,-996 340.67,-996 340.67,-996 335.33,-996 330,-990.67 330,-985.33 330,-985.33 330,-974.67 330,-974.67 330,-969.33 335.33,-964 340.67,-964"/>
<text text-anchor="start" x="335" y="-976.3" font-family="Helvetica,sans-Serif" font-size="14.00">M_mul_fmp</text>
<path fill="none" stroke="black" d="M340.67,-964C340.67,-964 409.33,-964 409.33,-964 414.67,-964 420,-969.33 420,-974.67 420,-974.67 420,-985.33 420,-985.33 420,-990.67 414.67,-996 409.33,-996 409.33,-996 340.67,-996 340.67,-996 335.33,-996 330,-990.67 330,-985.33 330,-985.33 330,-974.67 330,-974.67 330,-969.33 335.33,-964 340.67,-964"/>
</a>
</g>
</g>
<!-- function&#45;1&#45;R_add_m1 -->
<g id="node32" class="node">
<title>function&#45;1&#45;R_add_m1</title>
<g id="a_node32"><a xlink:title="Tensor&#45;11: function&#45;1&#45;R_add_m1">
<path fill="white" stroke="transparent" d="M403.17,-1122C403.17,-1122 464.83,-1122 464.83,-1122 470.17,-1122 475.5,-1127.33 475.5,-1132.67 475.5,-1132.67 475.5,-1143.33 475.5,-1143.33 475.5,-1148.67 470.17,-1154 464.83,-1154 464.83,-1154 403.17,-1154 403.17,-1154 397.83,-1154 392.5,-1148.67 392.5,-1143.33 392.5,-1143.33 392.5,-1132.67 392.5,-1132.67 392.5,-1127.33 397.83,-1122 403.17,-1122"/>
<text text-anchor="start" x="398" y="-1134.3" font-family="Helvetica,sans-Serif" font-size="14.00">R_add_m1</text>
<path fill="none" stroke="black" d="M403.17,-1122C403.17,-1122 464.83,-1122 464.83,-1122 470.17,-1122 475.5,-1127.33 475.5,-1132.67 475.5,-1132.67 475.5,-1143.33 475.5,-1143.33 475.5,-1148.67 470.17,-1154 464.83,-1154 464.83,-1154 403.17,-1154 403.17,-1154 397.83,-1154 392.5,-1148.67 392.5,-1143.33 392.5,-1143.33 392.5,-1132.67 392.5,-1132.67 392.5,-1127.33 397.83,-1122 403.17,-1122"/>
</a>
</g>
</g>
<!-- function&#45;1&#45;R_add_m0 -->
<g id="node33" class="node">
<title>function&#45;1&#45;R_add_m0</title>
<g id="a_node33"><a xlink:title="Tensor&#45;15: function&#45;1&#45;R_add_m0">
<path fill="white" stroke="transparent" d="M363.17,-1043C363.17,-1043 424.83,-1043 424.83,-1043 430.17,-1043 435.5,-1048.33 435.5,-1053.67 435.5,-1053.67 435.5,-1064.33 435.5,-1064.33 435.5,-1069.67 430.17,-1075 424.83,-1075 424.83,-1075 363.17,-1075 363.17,-1075 357.83,-1075 352.5,-1069.67 352.5,-1064.33 352.5,-1064.33 352.5,-1053.67 352.5,-1053.67 352.5,-1048.33 357.83,-1043 363.17,-1043"/>
<text text-anchor="start" x="358" y="-1055.3" font-family="Helvetica,sans-Serif" font-size="14.00">R_add_m0</text>
<path fill="none" stroke="black" d="M363.17,-1043C363.17,-1043 424.83,-1043 424.83,-1043 430.17,-1043 435.5,-1048.33 435.5,-1053.67 435.5,-1053.67 435.5,-1064.33 435.5,-1064.33 435.5,-1069.67 430.17,-1075 424.83,-1075 424.83,-1075 363.17,-1075 363.17,-1075 357.83,-1075 352.5,-1069.67 352.5,-1064.33 352.5,-1064.33 352.5,-1053.67 352.5,-1053.67 352.5,-1048.33 357.83,-1043 363.17,-1043"/>
</a>
</g>
</g>
<!-- function&#45;0&#45;M_mul_m1m0p -->
<g id="node34" class="node">
<title>function&#45;0&#45;M_mul_m1m0p</title>
<g id="a_node34"><a xlink:title="Tensor&#45;18: function&#45;0&#45;M_mul_m1m0p">
<path fill="white" stroke="transparent" d="M286.67,-727C286.67,-727 381.33,-727 381.33,-727 386.67,-727 392,-732.33 392,-737.67 392,-737.67 392,-748.33 392,-748.33 392,-753.67 386.67,-759 381.33,-759 381.33,-759 286.67,-759 286.67,-759 281.33,-759 276,-753.67 276,-748.33 276,-748.33 276,-737.67 276,-737.67 276,-732.33 281.33,-727 286.67,-727"/>
<text text-anchor="start" x="281" y="-739.3" font-family="Helvetica,sans-Serif" font-size="14.00">M_mul_m1m0p</text>
<path fill="none" stroke="black" d="M286.67,-727C286.67,-727 381.33,-727 381.33,-727 386.67,-727 392,-732.33 392,-737.67 392,-737.67 392,-748.33 392,-748.33 392,-753.67 386.67,-759 381.33,-759 381.33,-759 286.67,-759 286.67,-759 281.33,-759 276,-753.67 276,-748.33 276,-748.33 276,-737.67 276,-737.67 276,-732.33 281.33,-727 286.67,-727"/>
</a>
</g>
</g>
<!-- function&#45;0&#45;R_add_e -->
<g id="node35" class="node">
<title>function&#45;0&#45;R_add_e</title>
<g id="a_node35"><a xlink:title="Tensor&#45;4: function&#45;0&#45;R_add_e">
<path fill="white" stroke="transparent" d="M272.67,-332C272.67,-332 319.33,-332 319.33,-332 324.67,-332 330,-337.33 330,-342.67 330,-342.67 330,-353.33 330,-353.33 330,-358.67 324.67,-364 319.33,-364 319.33,-364 272.67,-364 272.67,-364 267.33,-364 262,-358.67 262,-353.33 262,-353.33 262,-342.67 262,-342.67 262,-337.33 267.33,-332 272.67,-332"/>
<text text-anchor="start" x="267" y="-344.3" font-family="Helvetica,sans-Serif" font-size="14.00">R_add_e</text>
<path fill="none" stroke="black" d="M272.67,-332C272.67,-332 319.33,-332 319.33,-332 324.67,-332 330,-337.33 330,-342.67 330,-342.67 330,-353.33 330,-353.33 330,-358.67 324.67,-364 319.33,-364 319.33,-364 272.67,-364 272.67,-364 267.33,-364 262,-358.67 262,-353.33 262,-353.33 262,-342.67 262,-342.67 262,-337.33 267.33,-332 272.67,-332"/>
</a>
</g>
</g>
<!-- function&#45;0&#45;R_max_m1 -->
<g id="node36" class="node">
<title>function&#45;0&#45;R_max_m1</title>
<g id="a_node36"><a xlink:title="Tensor&#45;5: function&#45;0&#45;R_max_m1">
<path fill="white" stroke="transparent" d="M273.67,-490C273.67,-490 338.33,-490 338.33,-490 343.67,-490 349,-495.33 349,-500.67 349,-500.67 349,-511.33 349,-511.33 349,-516.67 343.67,-522 338.33,-522 338.33,-522 273.67,-522 273.67,-522 268.33,-522 263,-516.67 263,-511.33 263,-511.33 263,-500.67 263,-500.67 263,-495.33 268.33,-490 273.67,-490"/>
<text text-anchor="start" x="268" y="-502.3" font-family="Helvetica,sans-Serif" font-size="14.00">R_max_m1</text>
<path fill="none" stroke="black" d="M273.67,-490C273.67,-490 338.33,-490 338.33,-490 343.67,-490 349,-495.33 349,-500.67 349,-500.67 349,-511.33 349,-511.33 349,-516.67 343.67,-522 338.33,-522 338.33,-522 273.67,-522 273.67,-522 268.33,-522 263,-516.67 263,-511.33 263,-511.33 263,-500.67 263,-500.67 263,-495.33 268.33,-490 273.67,-490"/>
</a>
</g>
</g>
<!-- function&#45;1&#45;M_mul_fmp -->
<g id="node37" class="node">
<title>function&#45;1&#45;M_mul_fmp</title>
<g id="a_node37"><a xlink:title="Tensor&#45;22: function&#45;1&#45;M_mul_fmp">
<path fill="white" stroke="transparent" d="M536.67,-885C536.67,-885 605.33,-885 605.33,-885 610.67,-885 616,-890.33 616,-895.67 616,-895.67 616,-906.33 616,-906.33 616,-911.67 610.67,-917 605.33,-917 605.33,-917 536.67,-917 536.67,-917 531.33,-917 526,-911.67 526,-906.33 526,-906.33 526,-895.67 526,-895.67 526,-890.33 531.33,-885 536.67,-885"/>
<text text-anchor="start" x="531" y="-897.3" font-family="Helvetica,sans-Serif" font-size="14.00">M_mul_fmp</text>
<path fill="none" stroke="black" d="M536.67,-885C536.67,-885 605.33,-885 605.33,-885 610.67,-885 616,-890.33 616,-895.67 616,-895.67 616,-906.33 616,-906.33 616,-911.67 610.67,-917 605.33,-917 605.33,-917 536.67,-917 536.67,-917 531.33,-917 526,-911.67 526,-906.33 526,-906.33 526,-895.67 526,-895.67 526,-890.33 531.33,-885 536.67,-885"/>
</a>
</g>
</g>
<!-- function&#45;0&#45;T_unsplit_m1m0_m -->
<g id="node38" class="node">
<title>function&#45;0&#45;T_unsplit_m1m0_m</title>
<g id="a_node38"><a xlink:title="Tensor&#45;21: function&#45;0&#45;T_unsplit_m1m0_m">
<path fill="white" stroke="transparent" d="M367.17,-806C367.17,-806 490.83,-806 490.83,-806 496.17,-806 501.5,-811.33 501.5,-816.67 501.5,-816.67 501.5,-827.33 501.5,-827.33 501.5,-832.67 496.17,-838 490.83,-838 490.83,-838 367.17,-838 367.17,-838 361.83,-838 356.5,-832.67 356.5,-827.33 356.5,-827.33 356.5,-816.67 356.5,-816.67 356.5,-811.33 361.83,-806 367.17,-806"/>
<text text-anchor="start" x="362" y="-818.3" font-family="Helvetica,sans-Serif" font-size="14.00">T_unsplit_m1m0_m</text>
<path fill="none" stroke="black" d="M367.17,-806C367.17,-806 490.83,-806 490.83,-806 496.17,-806 501.5,-811.33 501.5,-816.67 501.5,-816.67 501.5,-827.33 501.5,-827.33 501.5,-832.67 496.17,-838 490.83,-838 490.83,-838 367.17,-838 367.17,-838 361.83,-838 356.5,-832.67 356.5,-827.33 356.5,-827.33 356.5,-816.67 356.5,-816.67 356.5,-811.33 361.83,-806 367.17,-806"/>
</a>
</g>
</g>
<!-- function&#45;2&#45;R_add_m0 -->
<g id="node39" class="node">
<title>function&#45;2&#45;R_add_m0</title>
<g id="a_node39"><a xlink:title="Tensor&#45;27: function&#45;2&#45;R_add_m0">
<path fill="white" stroke="transparent" d="M546.17,-964C546.17,-964 607.83,-964 607.83,-964 613.17,-964 618.5,-969.33 618.5,-974.67 618.5,-974.67 618.5,-985.33 618.5,-985.33 618.5,-990.67 613.17,-996 607.83,-996 607.83,-996 546.17,-996 546.17,-996 540.83,-996 535.5,-990.67 535.5,-985.33 535.5,-985.33 535.5,-974.67 535.5,-974.67 535.5,-969.33 540.83,-964 546.17,-964"/>
<text text-anchor="start" x="541" y="-976.3" font-family="Helvetica,sans-Serif" font-size="14.00">R_add_m0</text>
<path fill="none" stroke="black" d="M546.17,-964C546.17,-964 607.83,-964 607.83,-964 613.17,-964 618.5,-969.33 618.5,-974.67 618.5,-974.67 618.5,-985.33 618.5,-985.33 618.5,-990.67 613.17,-996 607.83,-996 607.83,-996 546.17,-996 546.17,-996 540.83,-996 535.5,-990.67 535.5,-985.33 535.5,-985.33 535.5,-974.67 535.5,-974.67 535.5,-969.33 540.83,-964 546.17,-964"/>
</a>
</g>
</g>
<!-- function&#45;0&#45;R_add_m -->
<g id="node40" class="node">
<title>function&#45;0&#45;R_add_m</title>
<g id="a_node40"><a xlink:title="Tensor&#45;8: function&#45;0&#45;R_add_m">
<path fill="white" stroke="transparent" d="M112.67,-806C112.67,-806 165.33,-806 165.33,-806 170.67,-806 176,-811.33 176,-816.67 176,-816.67 176,-827.33 176,-827.33 176,-832.67 170.67,-838 165.33,-838 165.33,-838 112.67,-838 112.67,-838 107.33,-838 102,-832.67 102,-827.33 102,-827.33 102,-816.67 102,-816.67 102,-811.33 107.33,-806 112.67,-806"/>
<text text-anchor="start" x="107" y="-818.3" font-family="Helvetica,sans-Serif" font-size="14.00">R_add_m</text>
<path fill="none" stroke="black" d="M112.67,-806C112.67,-806 165.33,-806 165.33,-806 170.67,-806 176,-811.33 176,-816.67 176,-816.67 176,-827.33 176,-827.33 176,-832.67 170.67,-838 165.33,-838 165.33,-838 112.67,-838 112.67,-838 107.33,-838 102,-832.67 102,-827.33 102,-827.33 102,-816.67 102,-816.67 102,-811.33 107.33,-806 112.67,-806"/>
</a>
</g>
</g>
<!-- primitive&#45;i64&#45;4 -->
<g id="node41" class="node">
<title>primitive&#45;i64&#45;4</title>
<g id="a_node41"><a xlink:title="i64&#45;4: primitive&#45;i64&#45;4">
<path fill="white" stroke="transparent" d="M304.67,-95C304.67,-95 315.33,-95 315.33,-95 320.67,-95 326,-100.33 326,-105.67 326,-105.67 326,-116.33 326,-116.33 326,-121.67 320.67,-127 315.33,-127 315.33,-127 304.67,-127 304.67,-127 299.33,-127 294,-121.67 294,-116.33 294,-116.33 294,-105.67 294,-105.67 294,-100.33 299.33,-95 304.67,-95"/>
<text text-anchor="start" x="305" y="-107.3" font-family="Helvetica,sans-Serif" font-size="14.00">4</text>
<path fill="none" stroke="black" d="M304.67,-95C304.67,-95 315.33,-95 315.33,-95 320.67,-95 326,-100.33 326,-105.67 326,-105.67 326,-116.33 326,-116.33 326,-121.67 320.67,-127 315.33,-127 315.33,-127 304.67,-127 304.67,-127 299.33,-127 294,-121.67 294,-116.33 294,-116.33 294,-105.67 294,-105.67 294,-100.33 299.33,-95 304.67,-95"/>
</a>
</g>
</g>
<!-- function&#45;0&#45;M_div_mp -->
<g id="node42" class="node">
<title>function&#45;0&#45;M_div_mp</title>
<g id="a_node42"><a xlink:title="Tensor&#45;9: function&#45;0&#45;M_div_mp">
<path fill="white" stroke="transparent" d="M100.67,-885C100.67,-885 159.33,-885 159.33,-885 164.67,-885 170,-890.33 170,-895.67 170,-895.67 170,-906.33 170,-906.33 170,-911.67 164.67,-917 159.33,-917 159.33,-917 100.67,-917 100.67,-917 95.33,-917 90,-911.67 90,-906.33 90,-906.33 90,-895.67 90,-895.67 90,-890.33 95.33,-885 100.67,-885"/>
<text text-anchor="start" x="95" y="-897.3" font-family="Helvetica,sans-Serif" font-size="14.00">M_div_mp</text>
<path fill="none" stroke="black" d="M100.67,-885C100.67,-885 159.33,-885 159.33,-885 164.67,-885 170,-890.33 170,-895.67 170,-895.67 170,-906.33 170,-906.33 170,-911.67 164.67,-917 159.33,-917 159.33,-917 100.67,-917 100.67,-917 95.33,-917 90,-911.67 90,-906.33 90,-906.33 90,-895.67 90,-895.67 90,-890.33 95.33,-885 100.67,-885"/>
</a>
</g>
</g>
<!-- function&#45;0&#45;M_div_m1m0p -->
<g id="node43" class="node">
<title>function&#45;0&#45;M_div_m1m0p</title>
<g id="a_node43"><a xlink:title="Tensor&#45;9: function&#45;0&#45;M_div_m1m0p">
<path fill="white" stroke="transparent" d="M185.17,-885C185.17,-885 274.83,-885 274.83,-885 280.17,-885 285.5,-890.33 285.5,-895.67 285.5,-895.67 285.5,-906.33 285.5,-906.33 285.5,-911.67 280.17,-917 274.83,-917 274.83,-917 185.17,-917 185.17,-917 179.83,-917 174.5,-911.67 174.5,-906.33 174.5,-906.33 174.5,-895.67 174.5,-895.67 174.5,-890.33 179.83,-885 185.17,-885"/>
<text text-anchor="start" x="180" y="-897.3" font-family="Helvetica,sans-Serif" font-size="14.00">M_div_m1m0p</text>
<path fill="none" stroke="black" d="M185.17,-885C185.17,-885 274.83,-885 274.83,-885 280.17,-885 285.5,-890.33 285.5,-895.67 285.5,-895.67 285.5,-906.33 285.5,-906.33 285.5,-911.67 280.17,-917 274.83,-917 274.83,-917 185.17,-917 185.17,-917 179.83,-917 174.5,-911.67 174.5,-906.33 174.5,-906.33 174.5,-895.67 174.5,-895.67 174.5,-890.33 179.83,-885 185.17,-885"/>
</a>
</g>
</g>
</g>
</svg>
