<?xml version="1.0" encoding="UTF-8" standalone="no"?>
<!DOCTYPE svg PUBLIC "-//W3C//DTD SVG 1.1//EN"
 "http://www.w3.org/Graphics/SVG/1.1/DTD/svg11.dtd">
<!-- Generated by graphviz version 2.43.0 (0)
 -->
<!-- Title: %3 Pages: 1 -->
<svg width="592pt" height="1020pt"
 viewBox="0.00 0.00 592.00 1020.00" xmlns="http://www.w3.org/2000/svg" xmlns:xlink="http://www.w3.org/1999/xlink">
<g id="graph0" class="graph" transform="scale(1 1) rotate(0) translate(4 1016)">
<title>%3</title>
<polygon fill="white" stroke="#000000" points="-4,4 -4,-1016 588,-1016 588,4 -4,4"/>
<g id="clust1" class="cluster">
<title>outer_cluster_String&#45;0</title>
</g>
<g id="clust2" class="cluster">
<title>cluster_String&#45;0</title>
<path fill="#ffffb3" stroke="black" stroke-dasharray="5,2" d="M393,-11C393,-11 429,-11 429,-11 435,-11 441,-17 441,-23 441,-23 441,-41 441,-41 441,-47 435,-53 429,-53 429,-53 393,-53 393,-53 387,-53 381,-47 381,-41 381,-41 381,-23 381,-23 381,-17 387,-11 393,-11"/>
</g>
<g id="clust4" class="cluster">
<title>outer_cluster_String&#45;1</title>
</g>
<g id="clust5" class="cluster">
<title>cluster_String&#45;1</title>
<path fill="#ffffb3" stroke="black" stroke-dasharray="5,2" d="M230,-11C230,-11 266,-11 266,-11 272,-11 278,-17 278,-23 278,-23 278,-41 278,-41 278,-47 272,-53 266,-53 266,-53 230,-53 230,-53 224,-53 218,-47 218,-41 218,-41 218,-23 218,-23 218,-17 224,-11 230,-11"/>
</g>
<g id="clust7" class="cluster">
<title>outer_cluster_String&#45;2</title>
</g>
<g id="clust8" class="cluster">
<title>cluster_String&#45;2</title>
<path fill="#ffffb3" stroke="black" stroke-dasharray="5,2" d="M525,-11C525,-11 561,-11 561,-11 567,-11 573,-17 573,-23 573,-23 573,-41 573,-41 573,-47 567,-53 561,-53 561,-53 525,-53 525,-53 519,-53 513,-47 513,-41 513,-41 513,-23 513,-23 513,-17 519,-11 525,-11"/>
</g>
<g id="clust10" class="cluster">
<title>outer_cluster_Tensor&#45;3</title>
</g>
<g id="clust11" class="cluster">
<title>cluster_Tensor&#45;3</title>
<path fill="#bebada" stroke="black" stroke-dasharray="5,2" d="M213,-169C213,-169 323,-169 323,-169 329,-169 335,-175 335,-181 335,-181 335,-199 335,-199 335,-205 329,-211 323,-211 323,-211 213,-211 213,-211 207,-211 201,-205 201,-199 201,-199 201,-181 201,-181 201,-175 207,-169 213,-169"/>
</g>
<g id="clust13" class="cluster">
<title>outer_cluster_Tensor&#45;7</title>
</g>
<g id="clust14" class="cluster">
<title>cluster_Tensor&#45;7</title>
<path fill="#bebada" stroke="black" stroke-dasharray="5,2" d="M23,-406C23,-406 205,-406 205,-406 211,-406 217,-412 217,-418 217,-418 217,-436 217,-436 217,-442 211,-448 205,-448 205,-448 23,-448 23,-448 17,-448 11,-442 11,-436 11,-436 11,-418 11,-418 11,-412 17,-406 23,-406"/>
</g>
<g id="clust16" class="cluster">
<title>outer_cluster_Tensor&#45;11</title>
</g>
<g id="clust17" class="cluster">
<title>cluster_Tensor&#45;11</title>
<path fill="#bebada" stroke="black" stroke-dasharray="5,2" d="M81,-643C81,-643 237,-643 237,-643 243,-643 249,-649 249,-655 249,-655 249,-673 249,-673 249,-679 243,-685 237,-685 237,-685 81,-685 81,-685 75,-685 69,-679 69,-673 69,-673 69,-655 69,-655 69,-649 75,-643 81,-643"/>
</g>
<g id="clust19" class="cluster">
<title>outer_cluster_Tensor&#45;14</title>
</g>
<g id="clust20" class="cluster">
<title>cluster_Tensor&#45;14</title>
<path fill="#bebada" stroke="black" stroke-dasharray="5,2" d="M250,-801C250,-801 400,-801 400,-801 406,-801 412,-807 412,-813 412,-813 412,-831 412,-831 412,-837 406,-843 400,-843 400,-843 250,-843 250,-843 244,-843 238,-837 238,-831 238,-831 238,-813 238,-813 238,-807 244,-801 250,-801"/>
</g>
<g id="clust22" class="cluster">
<title>outer_cluster_Tensor&#45;8</title>
</g>
<g id="clust23" class="cluster">
<title>cluster_Tensor&#45;8</title>
<path fill="#bebada" stroke="black" stroke-dasharray="5,2" d="M299,-564C299,-564 483,-564 483,-564 489,-564 495,-570 495,-576 495,-576 495,-594 495,-594 495,-600 489,-606 483,-606 483,-606 299,-606 299,-606 293,-606 287,-600 287,-594 287,-594 287,-576 287,-576 287,-570 293,-564 299,-564"/>
</g>
<g id="clust25" class="cluster">
<title>outer_cluster_Tensor&#45;0</title>
</g>
<g id="clust26" class="cluster">
<title>cluster_Tensor&#45;0</title>
<path fill="#bebada" stroke="black" stroke-dasharray="5,2" d="M348,-90C348,-90 432,-90 432,-90 438,-90 444,-96 444,-102 444,-102 444,-120 444,-120 444,-126 438,-132 432,-132 432,-132 348,-132 348,-132 342,-132 336,-126 336,-120 336,-120 336,-102 336,-102 336,-96 342,-90 348,-90"/>
</g>
<g id="clust28" class="cluster">
<title>outer_cluster_Tensor&#45;5</title>
</g>
<g id="clust29" class="cluster">
<title>cluster_Tensor&#45;5</title>
<path fill="#bebada" stroke="black" stroke-dasharray="5,2" d="M130,-327C130,-327 320,-327 320,-327 326,-327 332,-333 332,-339 332,-339 332,-357 332,-357 332,-363 326,-369 320,-369 320,-369 130,-369 130,-369 124,-369 118,-363 118,-357 118,-357 118,-339 118,-339 118,-333 124,-327 130,-327"/>
</g>
<g id="clust31" class="cluster">
<title>outer_cluster_Tensor&#45;12</title>
</g>
<g id="clust32" class="cluster">
<title>cluster_Tensor&#45;12</title>
<path fill="#bebada" stroke="black" stroke-dasharray="5,2" d="M301,-643C301,-643 435,-643 435,-643 441,-643 447,-649 447,-655 447,-655 447,-673 447,-673 447,-679 441,-685 435,-685 435,-685 301,-685 301,-685 295,-685 289,-679 289,-673 289,-673 289,-655 289,-655 289,-649 295,-643 301,-643"/>
</g>
<g id="clust34" class="cluster">
<title>outer_cluster_Tensor&#45;4</title>
</g>
<g id="clust35" class="cluster">
<title>cluster_Tensor&#45;4</title>
<path fill="#bebada" stroke="black" stroke-dasharray="5,2" d="M137,-248C137,-248 309,-248 309,-248 315,-248 321,-254 321,-260 321,-260 321,-278 321,-278 321,-284 315,-290 309,-290 309,-290 137,-290 137,-290 131,-290 125,-284 125,-278 125,-278 125,-260 125,-260 125,-254 131,-248 137,-248"/>
</g>
<g id="clust37" class="cluster">
<title>outer_cluster_Tensor&#45;10</title>
</g>
<g id="clust38" class="cluster">
<title>cluster_Tensor&#45;10</title>
<path fill="#bebada" stroke="black" stroke-dasharray="5,2" d="M135,-564C135,-564 269,-564 269,-564 275,-564 281,-570 281,-576 281,-576 281,-594 281,-594 281,-600 275,-606 269,-606 269,-606 135,-606 135,-606 129,-606 123,-600 123,-594 123,-594 123,-576 123,-576 123,-570 129,-564 135,-564"/>
</g>
<g id="clust40" class="cluster">
<title>outer_cluster_Tensor&#45;15</title>
</g>
<g id="clust41" class="cluster">
<title>cluster_Tensor&#45;15</title>
<path fill="#bebada" stroke="black" stroke-dasharray="5,2" d="M285,-880C285,-880 413,-880 413,-880 419,-880 425,-886 425,-892 425,-892 425,-910 425,-910 425,-916 419,-922 413,-922 413,-922 285,-922 285,-922 279,-922 273,-916 273,-910 273,-910 273,-892 273,-892 273,-886 279,-880 285,-880"/>
</g>
<g id="clust43" class="cluster">
<title>outer_cluster_Tensor&#45;9</title>
</g>
<g id="clust44" class="cluster">
<title>cluster_Tensor&#45;9</title>
<path fill="#bebada" stroke="black" stroke-dasharray="5,2" d="M196,-485C196,-485 330,-485 330,-485 336,-485 342,-491 342,-497 342,-497 342,-515 342,-515 342,-521 336,-527 330,-527 330,-527 196,-527 196,-527 190,-527 184,-521 184,-515 184,-515 184,-497 184,-497 184,-491 190,-485 196,-485"/>
</g>
<g id="clust46" class="cluster">
<title>outer_cluster_Tensor&#45;6</title>
</g>
<g id="clust47" class="cluster">
<title>cluster_Tensor&#45;6</title>
<path fill="#bebada" stroke="black" stroke-dasharray="5,2" d="M247,-406C247,-406 413,-406 413,-406 419,-406 425,-412 425,-418 425,-418 425,-436 425,-436 425,-442 419,-448 413,-448 413,-448 247,-448 247,-448 241,-448 235,-442 235,-436 235,-436 235,-418 235,-418 235,-412 241,-406 247,-406"/>
</g>
<g id="clust49" class="cluster">
<title>outer_cluster_Tensor&#45;16</title>
</g>
<g id="clust50" class="cluster">
<title>cluster_Tensor&#45;16</title>
<path fill="#bebada" stroke="black" stroke-dasharray="5,2" d="M368,-959C368,-959 510,-959 510,-959 516,-959 522,-965 522,-971 522,-971 522,-989 522,-989 522,-995 516,-1001 510,-1001 510,-1001 368,-1001 368,-1001 362,-1001 356,-995 356,-989 356,-989 356,-971 356,-971 356,-965 362,-959 368,-959"/>
</g>
<g id="clust52" class="cluster">
<title>outer_cluster_Tensor&#45;2</title>
</g>
<g id="clust53" class="cluster">
<title>cluster_Tensor&#45;2</title>
<path fill="#bebada" stroke="black" stroke-dasharray="5,2" d="M462,-90C462,-90 546,-90 546,-90 552,-90 558,-96 558,-102 558,-102 558,-120 558,-120 558,-126 552,-132 546,-132 546,-132 462,-132 462,-132 456,-132 450,-126 450,-120 450,-120 450,-102 450,-102 450,-96 456,-90 462,-90"/>
</g>
<g id="clust55" class="cluster">
<title>outer_cluster_Tensor&#45;1</title>
</g>
<g id="clust56" class="cluster">
<title>cluster_Tensor&#45;1</title>
<path fill="#bebada" stroke="black" stroke-dasharray="5,2" d="M168,-90C168,-90 252,-90 252,-90 258,-90 264,-96 264,-102 264,-102 264,-120 264,-120 264,-126 258,-132 252,-132 252,-132 168,-132 168,-132 162,-132 156,-126 156,-120 156,-120 156,-102 156,-102 156,-96 162,-90 168,-90"/>
</g>
<g id="clust58" class="cluster">
<title>outer_cluster_Tensor&#45;13</title>
</g>
<g id="clust59" class="cluster">
<title>cluster_Tensor&#45;13</title>
<path fill="#bebada" stroke="black" stroke-dasharray="5,2" d="M285,-722C285,-722 449,-722 449,-722 455,-722 461,-728 461,-734 461,-734 461,-752 461,-752 461,-758 455,-764 449,-764 449,-764 285,-764 285,-764 279,-764 273,-758 273,-752 273,-752 273,-734 273,-734 273,-728 279,-722 285,-722"/>
</g>
<g id="clust61" class="cluster">
<title>outer_cluster_i64&#45;4</title>
</g>
<g id="clust62" class="cluster">
<title>cluster_i64&#45;4</title>
<path fill="#fb8072" stroke="black" stroke-dasharray="5,2" d="M282,-90C282,-90 318,-90 318,-90 324,-90 330,-96 330,-102 330,-102 330,-120 330,-120 330,-126 324,-132 318,-132 318,-132 282,-132 282,-132 276,-132 270,-126 270,-120 270,-120 270,-102 270,-102 270,-96 276,-90 282,-90"/>
</g>
<g id="clust64" class="cluster">
<title>outer_cluster_i64&#45;1024</title>
</g>
<g id="clust65" class="cluster">
<title>cluster_i64&#45;1024</title>
<path fill="#fb8072" stroke="black" stroke-dasharray="5,2" d="M327,-11C327,-11 363,-11 363,-11 369,-11 375,-17 375,-23 375,-23 375,-41 375,-41 375,-47 369,-53 363,-53 363,-53 327,-53 327,-53 321,-53 315,-47 315,-41 315,-41 315,-23 315,-23 315,-17 321,-11 327,-11"/>
</g>
<g id="clust67" class="cluster">
<title>outer_cluster_i64&#45;64</title>
</g>
<g id="clust68" class="cluster">
<title>cluster_i64&#45;64</title>
<path fill="#fb8072" stroke="black" stroke-dasharray="5,2" d="M459,-11C459,-11 495,-11 495,-11 501,-11 507,-17 507,-23 507,-23 507,-41 507,-41 507,-47 501,-53 495,-53 495,-53 459,-53 459,-53 453,-53 447,-47 447,-41 447,-41 447,-23 447,-23 447,-17 453,-11 459,-11"/>
</g>
<!-- function&#45;0&#45;T_split_m_m1m0&#45;&gt;function&#45;1&#45;CreateTensor -->
<g id="edge1" class="edge">
<title>function&#45;0&#45;T_split_m_m1m0:s&#45;&gt;function&#45;1&#45;CreateTensor</title>
<path fill="none" stroke="black" d="M237,-174C237,-159.7 230.89,-144.97 224.48,-133.45"/>
<polygon fill="black" stroke="black" points="227.77,-134.14 222.92,-132 225.38,-136.69 227.77,-134.14"/>
</g>
<!-- function&#45;0&#45;T_split_m_m1m0&#45;&gt;primitive&#45;i64&#45;4 -->
<g id="edge2" class="edge">
<title>function&#45;0&#45;T_split_m_m1m0:s&#45;&gt;primitive&#45;i64&#45;4</title>
<path fill="none" stroke="black" d="M300,-174C300,-160.84 300,-146.11 300,-134.3"/>
<polygon fill="black" stroke="black" points="301.75,-137 300,-132 298.25,-137 301.75,-137"/>
</g>
<!-- function&#45;1&#45;CreateTensor&#45;&gt;primitive&#45;String&#45;1 -->
<g id="edge30" class="edge">
<title>function&#45;1&#45;CreateTensor:s&#45;&gt;primitive&#45;String&#45;1</title>
<path fill="none" stroke="black" d="M248,-95C248,-81.84 248,-67.11 248,-55.3"/>
<polygon fill="black" stroke="black" points="249.75,-58 248,-53 246.25,-58 249.75,-58"/>
</g>
<!-- function&#45;1&#45;CreateTensor&#45;&gt;primitive&#45;i64&#45;64 -->
<g id="edge28" class="edge">
<title>function&#45;1&#45;CreateTensor:s&#45;&gt;primitive&#45;i64&#45;64</title>
<path fill="none" stroke="black" d="M185,-95C185,-37.24 388.06,-76.67 442,-56 442.7,-55.73 443.4,-55.45 444.1,-55.15"/>
<polygon fill="black" stroke="black" points="444.91,-56.7 448.69,-53 443.42,-53.53 444.91,-56.7"/>
</g>
<!-- function&#45;1&#45;CreateTensor&#45;&gt;primitive&#45;i64&#45;1024 -->
<g id="edge29" class="edge">
<title>function&#45;1&#45;CreateTensor:s&#45;&gt;primitive&#45;i64&#45;1024</title>
<path fill="none" stroke="black" d="M223,-95C223,-84.88 277.02,-60.78 313.17,-45.78"/>
<polygon fill="black" stroke="black" points="311.39,-48.69 315,-44.82 309.76,-45.59 311.39,-48.69"/>
</g>
<!-- function&#45;0&#45;M_subexp_m1m0p_R_none&#45;&gt;function&#45;0&#45;M_mul_em1m0p_R_add_e -->
<g id="edge3" class="edge">
<title>function&#45;0&#45;M_subexp_m1m0p_R_none:s&#45;&gt;function&#45;0&#45;M_mul_em1m0p_R_add_e</title>
<path fill="none" stroke="black" d="M65,-411C65,-354.3 122.34,-314.75 167.93,-292.25"/>
<polygon fill="black" stroke="black" points="168.85,-293.75 172.59,-290 167.32,-290.61 168.85,-293.75"/>
</g>
<!-- function&#45;0&#45;M_subexp_m1m0p_R_none&#45;&gt;function&#45;0&#45;M_none_m1m0p_R_max_m0 -->
<g id="edge4" class="edge">
<title>function&#45;0&#45;M_subexp_m1m0p_R_none:s&#45;&gt;function&#45;0&#45;M_none_m1m0p_R_max_m0</title>
<path fill="none" stroke="black" d="M164,-411C164,-393.76 176.14,-379.56 189.58,-369.12"/>
<polygon fill="black" stroke="black" points="186.44,-373.11 189.79,-369 184.61,-370.13 186.44,-373.11"/>
</g>
<!-- function&#45;0&#45;M_mul_em1m0p_R_add_e&#45;&gt;function&#45;0&#45;T_split_m_m1m0 -->
<g id="edge17" class="edge">
<title>function&#45;0&#45;M_mul_em1m0p_R_add_e:s&#45;&gt;function&#45;0&#45;T_split_m_m1m0</title>
<path fill="none" stroke="black" d="M270,-253C270,-239.83 269.54,-225.1 269.07,-213.3"/>
<polygon fill="black" stroke="black" points="271.06,-215.81 268.85,-211 267.58,-216.14 271.06,-215.81"/>
</g>
<!-- function&#45;0&#45;M_mul_em1m0p_R_add_e&#45;&gt;function&#45;0&#45;CreateTensor -->
<g id="edge16" class="edge">
<title>function&#45;0&#45;M_mul_em1m0p_R_add_e:s&#45;&gt;function&#45;0&#45;CreateTensor</title>
<path fill="none" stroke="black" d="M176,-253C176,-179.81 278.25,-258.96 336,-214 361.98,-193.78 376.86,-157.49 384.18,-134.1"/>
<polygon fill="black" stroke="black" points="384.22,-137.11 385.63,-132 381.35,-135.12 384.22,-137.11"/>
</g>
<!-- function&#45;0&#45;M_none_m1m0p_R_max_m0&#45;&gt;function&#45;0&#45;M_mul_em1m0p_R_add_e -->
<g id="edge13" class="edge">
<title>function&#45;0&#45;M_none_m1m0p_R_max_m0:s&#45;&gt;function&#45;0&#45;M_mul_em1m0p_R_add_e</title>
<path fill="none" stroke="black" d="M226,-332C226,-318.82 225.32,-304.09 224.6,-292.29"/>
<polygon fill="black" stroke="black" points="226.71,-294.7 224.27,-290 223.25,-295.2 226.71,-294.7"/>
</g>
<!-- function&#45;0&#45;M_mul_m1m0p_R_none&#45;&gt;function&#45;0&#45;M_subexp_m1m0p_R_none -->
<g id="edge5" class="edge">
<title>function&#45;0&#45;M_mul_m1m0p_R_none:s&#45;&gt;function&#45;0&#45;M_subexp_m1m0p_R_none</title>
<path fill="none" stroke="black" d="M116,-648C116,-575.62 114.9,-489.85 114.33,-450.18"/>
<polygon fill="black" stroke="black" points="116.18,-452.94 114.26,-448 112.68,-453.06 116.18,-452.94"/>
</g>
<!-- function&#45;0&#45;M_mul_m1m0p_R_none&#45;&gt;function&#45;0&#45;M_exp_m1p_R_none -->
<g id="edge6" class="edge">
<title>function&#45;0&#45;M_mul_m1m0p_R_none:s&#45;&gt;function&#45;0&#45;M_exp_m1p_R_none</title>
<path fill="none" stroke="black" d="M202,-648C202,-634.84 202,-620.11 202,-608.3"/>
<polygon fill="black" stroke="black" points="203.75,-611 202,-606 200.25,-611 203.75,-611"/>
</g>
<!-- function&#45;0&#45;M_exp_m1p_R_none&#45;&gt;function&#45;0&#45;M_sub_m1p_R_none -->
<g id="edge18" class="edge">
<title>function&#45;0&#45;M_exp_m1p_R_none:s&#45;&gt;function&#45;0&#45;M_sub_m1p_R_none</title>
<path fill="none" stroke="black" d="M203,-569C203,-551.9 214.94,-537.71 228.16,-527.25"/>
<polygon fill="black" stroke="black" points="224.8,-529.79 229.3,-527 224.04,-526.38 224.8,-529.79"/>
</g>
<!-- function&#45;0&#45;M_div_m1m0p_R_none&#45;&gt;function&#45;0&#45;M_mul_m1m0p_R_none -->
<g id="edge7" class="edge">
<title>function&#45;0&#45;M_div_m1m0p_R_none:s&#45;&gt;function&#45;0&#45;M_mul_m1m0p_R_none</title>
<path fill="none" stroke="black" d="M283,-806C283,-776.12 219.41,-716.73 183.31,-685.42"/>
<polygon fill="black" stroke="black" points="187.73,-685.67 182.48,-685 186.17,-688.8 187.73,-685.67"/>
</g>
<!-- function&#45;0&#45;M_div_m1m0p_R_none&#45;&gt;function&#45;0&#45;M_none_m1p_R_add_m1 -->
<g id="edge8" class="edge">
<title>function&#45;0&#45;M_div_m1m0p_R_none:s&#45;&gt;function&#45;0&#45;M_none_m1p_R_add_m1</title>
<path fill="none" stroke="black" d="M367,-806C367,-792.84 367,-778.11 367,-766.3"/>
<polygon fill="black" stroke="black" points="368.75,-769 367,-764 365.25,-769 368.75,-769"/>
</g>
<!-- function&#45;0&#45;M_none_m1p_R_add_m1&#45;&gt;function&#45;0&#45;M_mul_m1p_R_none -->
<g id="edge31" class="edge">
<title>function&#45;0&#45;M_none_m1p_R_add_m1:s&#45;&gt;function&#45;0&#45;M_mul_m1p_R_none</title>
<path fill="none" stroke="black" d="M368,-727C368,-713.84 368,-699.11 368,-687.3"/>
<polygon fill="black" stroke="black" points="369.75,-690 368,-685 366.25,-690 369.75,-690"/>
</g>
<!-- function&#45;0&#45;M_none_m1m0p_R_add_m0&#45;&gt;function&#45;0&#45;M_subexp_m1m0p_R_none -->
<g id="edge9" class="edge">
<title>function&#45;0&#45;M_none_m1m0p_R_add_m0:s&#45;&gt;function&#45;0&#45;M_subexp_m1m0p_R_none</title>
<path fill="none" stroke="black" d="M392,-569C392,-521.75 222.51,-555.9 183,-530 153.45,-510.63 133.3,-473.77 122.73,-450.07"/>
<polygon fill="black" stroke="black" points="125.53,-451.57 121.62,-448 122.44,-453.23 125.53,-451.57"/>
</g>
<!-- function&#45;0&#45;CreateTensor&#45;&gt;primitive&#45;String&#45;0 -->
<g id="edge12" class="edge">
<title>function&#45;0&#45;CreateTensor:s&#45;&gt;primitive&#45;String&#45;0</title>
<path fill="none" stroke="black" d="M428,-95C428,-81.33 424.11,-66.54 420.05,-54.84"/>
<polygon fill="black" stroke="black" points="422.79,-56.99 419.31,-53 419.55,-58.29 422.79,-56.99"/>
</g>
<!-- function&#45;0&#45;CreateTensor&#45;&gt;primitive&#45;i64&#45;64 -->
<g id="edge10" class="edge">
<title>function&#45;0&#45;CreateTensor:s&#45;&gt;primitive&#45;i64&#45;64</title>
<path fill="none" stroke="black" d="M365,-95C365,-56.64 408.81,-75.23 442,-56 442.21,-55.88 442.41,-55.76 442.62,-55.64"/>
<polygon fill="black" stroke="black" points="443.64,-57.07 447.04,-53 441.85,-54.06 443.64,-57.07"/>
</g>
<!-- function&#45;0&#45;CreateTensor&#45;&gt;primitive&#45;i64&#45;1024 -->
<g id="edge11" class="edge">
<title>function&#45;0&#45;CreateTensor:s&#45;&gt;primitive&#45;i64&#45;1024</title>
<path fill="none" stroke="black" d="M403,-95C403,-84.74 385.85,-67.31 370.2,-53.53"/>
<polygon fill="black" stroke="black" points="374.48,-53.96 369.27,-53 372.74,-57 374.48,-53.96"/>
</g>
<!-- function&#45;0&#45;M_mul_m1p_R_none&#45;&gt;function&#45;0&#45;M_exp_m1p_R_none -->
<g id="edge15" class="edge">
<title>function&#45;0&#45;M_mul_m1p_R_none:s&#45;&gt;function&#45;0&#45;M_exp_m1p_R_none</title>
<path fill="none" stroke="black" d="M406,-648C406,-644.54 336.19,-623.91 278.24,-607.38"/>
<polygon fill="black" stroke="black" points="278.67,-605.68 273.38,-606 277.71,-609.05 278.67,-605.68"/>
</g>
<!-- function&#45;0&#45;M_mul_m1p_R_none&#45;&gt;function&#45;0&#45;M_none_m1m0p_R_add_m0 -->
<g id="edge14" class="edge">
<title>function&#45;0&#45;M_mul_m1p_R_none:s&#45;&gt;function&#45;0&#45;M_none_m1m0p_R_add_m0</title>
<path fill="none" stroke="black" d="M330,-648C330,-630.76 342.14,-616.56 355.58,-606.12"/>
<polygon fill="black" stroke="black" points="352.44,-610.11 355.79,-606 350.61,-607.13 352.44,-610.11"/>
</g>
<!-- function&#45;0&#45;M_sub_m1p_R_none&#45;&gt;function&#45;0&#45;M_none_m1m0p_R_max_m0 -->
<g id="edge20" class="edge">
<title>function&#45;0&#45;M_sub_m1p_R_none:s&#45;&gt;function&#45;0&#45;M_none_m1m0p_R_max_m0</title>
<path fill="none" stroke="black" d="M226,-490C226,-448.23 225.56,-399.5 225.26,-371.65"/>
<polygon fill="black" stroke="black" points="227.06,-373.96 225.2,-369 223.56,-374.04 227.06,-373.96"/>
</g>
<!-- function&#45;0&#45;M_sub_m1p_R_none&#45;&gt;function&#45;0&#45;M_none_m1p_R_max_m1 -->
<g id="edge21" class="edge">
<title>function&#45;0&#45;M_sub_m1p_R_none:s&#45;&gt;function&#45;0&#45;M_none_m1p_R_max_m1</title>
<path fill="none" stroke="black" d="M301,-490C301,-475.63 307.47,-461 314.3,-449.56"/>
<polygon fill="black" stroke="black" points="313.49,-452.65 316.03,-448 311.15,-450.06 313.49,-452.65"/>
</g>
<!-- function&#45;0&#45;T_unsplit_m1m0_m&#45;&gt;function&#45;0&#45;M_div_m1m0p_R_none -->
<g id="edge19" class="edge">
<title>function&#45;0&#45;T_unsplit_m1m0_m:s&#45;&gt;function&#45;0&#45;M_div_m1m0p_R_none</title>
<path fill="none" stroke="black" d="M350,-885C350,-870.86 344.34,-856.14 338.4,-844.59"/>
<polygon fill="black" stroke="black" points="341.62,-845.65 337.04,-843 338.97,-847.93 341.62,-845.65"/>
</g>
<!-- function&#45;0&#45;M_none_m1p_R_max_m1&#45;&gt;function&#45;0&#45;M_none_m1m0p_R_max_m0 -->
<g id="edge22" class="edge">
<title>function&#45;0&#45;M_none_m1p_R_max_m1:s&#45;&gt;function&#45;0&#45;M_none_m1m0p_R_max_m0</title>
<path fill="none" stroke="black" d="M331,-411C331,-393.49 320.08,-380.83 305.26,-371.71"/>
<polygon fill="black" stroke="black" points="305.75,-369.97 300.54,-369 304,-373.01 305.75,-369.97"/>
</g>
<!-- function&#45;0&#45;M_mul_fmp_R_add_m&#45;&gt;function&#45;0&#45;T_unsplit_m1m0_m -->
<g id="edge23" class="edge">
<title>function&#45;0&#45;M_mul_fmp_R_add_m:s&#45;&gt;function&#45;0&#45;T_unsplit_m1m0_m</title>
<path fill="none" stroke="black" d="M399,-964C399,-947.85 388.59,-933.53 377.27,-922.73"/>
<polygon fill="black" stroke="black" points="381.35,-923.91 376.41,-922 379.08,-926.58 381.35,-923.91"/>
</g>
<!-- function&#45;0&#45;M_mul_fmp_R_add_m&#45;&gt;function&#45;2&#45;CreateTensor -->
<g id="edge24" class="edge">
<title>function&#45;0&#45;M_mul_fmp_R_add_m:s&#45;&gt;function&#45;2&#45;CreateTensor</title>
<path fill="none" stroke="black" d="M479,-964C479,-900.36 504,-886.64 504,-823 504,-823 504,-823 504,-268 504,-220.58 504,-165.04 504,-134.68"/>
<polygon fill="black" stroke="black" points="505.75,-137 504,-132 502.25,-137 505.75,-137"/>
</g>
<!-- function&#45;2&#45;CreateTensor&#45;&gt;primitive&#45;String&#45;2 -->
<g id="edge27" class="edge">
<title>function&#45;2&#45;CreateTensor:s&#45;&gt;primitive&#45;String&#45;2</title>
<path fill="none" stroke="black" d="M542,-95C542,-81.84 542.23,-67.1 542.47,-55.3"/>
<polygon fill="black" stroke="black" points="544.09,-58.08 542.58,-53 540.59,-57.91 544.09,-58.08"/>
</g>
<!-- function&#45;2&#45;CreateTensor&#45;&gt;primitive&#45;i64&#45;64 -->
<g id="edge25" class="edge">
<title>function&#45;2&#45;CreateTensor:s&#45;&gt;primitive&#45;i64&#45;64</title>
<path fill="none" stroke="black" d="M479,-95C479,-81.83 478.54,-67.1 478.07,-55.3"/>
<polygon fill="black" stroke="black" points="480.06,-57.81 477.85,-53 476.58,-58.14 480.06,-57.81"/>
</g>
<!-- function&#45;2&#45;CreateTensor&#45;&gt;primitive&#45;i64&#45;1024 -->
<g id="edge26" class="edge">
<title>function&#45;2&#45;CreateTensor:s&#45;&gt;primitive&#45;i64&#45;1024</title>
<path fill="none" stroke="black" d="M517,-95C517,-31.69 437.56,-82.35 380,-56 379.5,-55.77 379.01,-55.54 378.51,-55.3"/>
<polygon fill="black" stroke="black" points="379.27,-53.72 374.02,-53 377.67,-56.84 379.27,-53.72"/>
</g>
<!-- primitive&#45;String&#45;0 -->
<g id="node1" class="node">
<title>primitive&#45;String&#45;0</title>
<g id="a_node1"><a xlink:title="String&#45;0: primitive&#45;String&#45;0">
<path fill="white" stroke="transparent" d="M404.17,-16C404.17,-16 417.83,-16 417.83,-16 423.17,-16 428.5,-21.33 428.5,-26.67 428.5,-26.67 428.5,-37.33 428.5,-37.33 428.5,-42.67 423.17,-48 417.83,-48 417.83,-48 404.17,-48 404.17,-48 398.83,-48 393.5,-42.67 393.5,-37.33 393.5,-37.33 393.5,-26.67 393.5,-26.67 393.5,-21.33 398.83,-16 404.17,-16"/>
<text text-anchor="start" x="399" y="-28.3" font-family="Helvetica,sans-Serif" font-size="14.00">&quot;Q&quot;</text>
<path fill="none" stroke="black" d="M404.17,-16C404.17,-16 417.83,-16 417.83,-16 423.17,-16 428.5,-21.33 428.5,-26.67 428.5,-26.67 428.5,-37.33 428.5,-37.33 428.5,-42.67 423.17,-48 417.83,-48 417.83,-48 404.17,-48 404.17,-48 398.83,-48 393.5,-42.67 393.5,-37.33 393.5,-37.33 393.5,-26.67 393.5,-26.67 393.5,-21.33 398.83,-16 404.17,-16"/>
</a>
</g>
</g>
<!-- primitive&#45;String&#45;1 -->
<g id="node2" class="node">
<title>primitive&#45;String&#45;1</title>
<g id="a_node2"><a xlink:title="String&#45;1: primitive&#45;String&#45;1">
<path fill="white" stroke="transparent" d="M242.17,-16C242.17,-16 253.83,-16 253.83,-16 259.17,-16 264.5,-21.33 264.5,-26.67 264.5,-26.67 264.5,-37.33 264.5,-37.33 264.5,-42.67 259.17,-48 253.83,-48 253.83,-48 242.17,-48 242.17,-48 236.83,-48 231.5,-42.67 231.5,-37.33 231.5,-37.33 231.5,-26.67 231.5,-26.67 231.5,-21.33 236.83,-16 242.17,-16"/>
<text text-anchor="start" x="237" y="-28.3" font-family="Helvetica,sans-Serif" font-size="14.00">&quot;K&quot;</text>
<path fill="none" stroke="black" d="M242.17,-16C242.17,-16 253.83,-16 253.83,-16 259.17,-16 264.5,-21.33 264.5,-26.67 264.5,-26.67 264.5,-37.33 264.5,-37.33 264.5,-42.67 259.17,-48 253.83,-48 253.83,-48 242.17,-48 242.17,-48 236.83,-48 231.5,-42.67 231.5,-37.33 231.5,-37.33 231.5,-26.67 231.5,-26.67 231.5,-21.33 236.83,-16 242.17,-16"/>
</a>
</g>
</g>
<!-- primitive&#45;String&#45;2 -->
<g id="node3" class="node">
<title>primitive&#45;String&#45;2</title>
<g id="a_node3"><a xlink:title="String&#45;2: primitive&#45;String&#45;2">
<path fill="white" stroke="transparent" d="M536.67,-16C536.67,-16 549.33,-16 549.33,-16 554.67,-16 560,-21.33 560,-26.67 560,-26.67 560,-37.33 560,-37.33 560,-42.67 554.67,-48 549.33,-48 549.33,-48 536.67,-48 536.67,-48 531.33,-48 526,-42.67 526,-37.33 526,-37.33 526,-26.67 526,-26.67 526,-21.33 531.33,-16 536.67,-16"/>
<text text-anchor="start" x="531" y="-28.3" font-family="Helvetica,sans-Serif" font-size="14.00">&quot;V&quot;</text>
<path fill="none" stroke="black" d="M536.67,-16C536.67,-16 549.33,-16 549.33,-16 554.67,-16 560,-21.33 560,-26.67 560,-26.67 560,-37.33 560,-37.33 560,-42.67 554.67,-48 549.33,-48 549.33,-48 536.67,-48 536.67,-48 531.33,-48 526,-42.67 526,-37.33 526,-37.33 526,-26.67 526,-26.67 526,-21.33 531.33,-16 536.67,-16"/>
</a>
</g>
</g>
<!-- function&#45;0&#45;T_split_m_m1m0 -->
<g id="node4" class="node">
<title>function&#45;0&#45;T_split_m_m1m0</title>
<g id="a_node4"><a xlink:title="Tensor&#45;3: function&#45;0&#45;T_split_m_m1m0">
<path fill="white" stroke="transparent" d="M215.17,-174C215.17,-174 320.83,-174 320.83,-174 326.17,-174 331.5,-179.33 331.5,-184.67 331.5,-184.67 331.5,-195.33 331.5,-195.33 331.5,-200.67 326.17,-206 320.83,-206 320.83,-206 215.17,-206 215.17,-206 209.83,-206 204.5,-200.67 204.5,-195.33 204.5,-195.33 204.5,-184.67 204.5,-184.67 204.5,-179.33 209.83,-174 215.17,-174"/>
<text text-anchor="start" x="210" y="-186.3" font-family="Helvetica,sans-Serif" font-size="14.00">T_split_m_m1m0</text>
<path fill="none" stroke="black" d="M215.17,-174C215.17,-174 320.83,-174 320.83,-174 326.17,-174 331.5,-179.33 331.5,-184.67 331.5,-184.67 331.5,-195.33 331.5,-195.33 331.5,-200.67 326.17,-206 320.83,-206 320.83,-206 215.17,-206 215.17,-206 209.83,-206 204.5,-200.67 204.5,-195.33 204.5,-195.33 204.5,-184.67 204.5,-184.67 204.5,-179.33 209.83,-174 215.17,-174"/>
</a>
</g>
</g>
<!-- function&#45;1&#45;CreateTensor -->
<g id="node5" class="node">
<title>function&#45;1&#45;CreateTensor</title>
<g id="a_node5"><a xlink:title="Tensor&#45;1: function&#45;1&#45;CreateTensor">
<path fill="white" stroke="transparent" d="M170.17,-95C170.17,-95 249.83,-95 249.83,-95 255.17,-95 260.5,-100.33 260.5,-105.67 260.5,-105.67 260.5,-116.33 260.5,-116.33 260.5,-121.67 255.17,-127 249.83,-127 249.83,-127 170.17,-127 170.17,-127 164.83,-127 159.5,-121.67 159.5,-116.33 159.5,-116.33 159.5,-105.67 159.5,-105.67 159.5,-100.33 164.83,-95 170.17,-95"/>
<text text-anchor="start" x="165" y="-107.3" font-family="Helvetica,sans-Serif" font-size="14.00">CreateTensor</text>
<path fill="none" stroke="black" d="M170.17,-95C170.17,-95 249.83,-95 249.83,-95 255.17,-95 260.5,-100.33 260.5,-105.67 260.5,-105.67 260.5,-116.33 260.5,-116.33 260.5,-121.67 255.17,-127 249.83,-127 249.83,-127 170.17,-127 170.17,-127 164.83,-127 159.5,-121.67 159.5,-116.33 159.5,-116.33 159.5,-105.67 159.5,-105.67 159.5,-100.33 164.83,-95 170.17,-95"/>
</a>
</g>
</g>
<!-- primitive&#45;i64&#45;4 -->
<g id="node6" class="node">
<title>primitive&#45;i64&#45;4</title>
<g id="a_node6"><a xlink:title="i64&#45;4: primitive&#45;i64&#45;4">
<path fill="white" stroke="transparent" d="M294.67,-95C294.67,-95 305.33,-95 305.33,-95 310.67,-95 316,-100.33 316,-105.67 316,-105.67 316,-116.33 316,-116.33 316,-121.67 310.67,-127 305.33,-127 305.33,-127 294.67,-127 294.67,-127 289.33,-127 284,-121.67 284,-116.33 284,-116.33 284,-105.67 284,-105.67 284,-100.33 289.33,-95 294.67,-95"/>
<text text-anchor="start" x="295" y="-107.3" font-family="Helvetica,sans-Serif" font-size="14.00">4</text>
<path fill="none" stroke="black" d="M294.67,-95C294.67,-95 305.33,-95 305.33,-95 310.67,-95 316,-100.33 316,-105.67 316,-105.67 316,-116.33 316,-116.33 316,-121.67 310.67,-127 305.33,-127 305.33,-127 294.67,-127 294.67,-127 289.33,-127 284,-121.67 284,-116.33 284,-116.33 284,-105.67 284,-105.67 284,-100.33 289.33,-95 294.67,-95"/>
</a>
</g>
</g>
<!-- function&#45;0&#45;M_subexp_m1m0p_R_none -->
<g id="node7" class="node">
<title>function&#45;0&#45;M_subexp_m1m0p_R_none</title>
<g id="a_node7"><a xlink:title="Tensor&#45;7: function&#45;0&#45;M_subexp_m1m0p_R_none">
<path fill="white" stroke="transparent" d="M25.17,-411C25.17,-411 202.83,-411 202.83,-411 208.17,-411 213.5,-416.33 213.5,-421.67 213.5,-421.67 213.5,-432.33 213.5,-432.33 213.5,-437.67 208.17,-443 202.83,-443 202.83,-443 25.17,-443 25.17,-443 19.83,-443 14.5,-437.67 14.5,-432.33 14.5,-432.33 14.5,-421.67 14.5,-421.67 14.5,-416.33 19.83,-411 25.17,-411"/>
<text text-anchor="start" x="20" y="-423.3" font-family="Helvetica,sans-Serif" font-size="14.00">M_subexp_m1m0p_R_none</text>
<path fill="none" stroke="black" d="M25.17,-411C25.17,-411 202.83,-411 202.83,-411 208.17,-411 213.5,-416.33 213.5,-421.67 213.5,-421.67 213.5,-432.33 213.5,-432.33 213.5,-437.67 208.17,-443 202.83,-443 202.83,-443 25.17,-443 25.17,-443 19.83,-443 14.5,-437.67 14.5,-432.33 14.5,-432.33 14.5,-421.67 14.5,-421.67 14.5,-416.33 19.83,-411 25.17,-411"/>
</a>
</g>
</g>
<!-- function&#45;0&#45;M_mul_em1m0p_R_add_e -->
<g id="node8" class="node">
<title>function&#45;0&#45;M_mul_em1m0p_R_add_e</title>
<g id="a_node8"><a xlink:title="Tensor&#45;4: function&#45;0&#45;M_mul_em1m0p_R_add_e">
<path fill="white" stroke="transparent" d="M139.17,-253C139.17,-253 306.83,-253 306.83,-253 312.17,-253 317.5,-258.33 317.5,-263.67 317.5,-263.67 317.5,-274.33 317.5,-274.33 317.5,-279.67 312.17,-285 306.83,-285 306.83,-285 139.17,-285 139.17,-285 133.83,-285 128.5,-279.67 128.5,-274.33 128.5,-274.33 128.5,-263.67 128.5,-263.67 128.5,-258.33 133.83,-253 139.17,-253"/>
<text text-anchor="start" x="134" y="-265.3" font-family="Helvetica,sans-Serif" font-size="14.00">M_mul_em1m0p_R_add_e</text>
<path fill="none" stroke="black" d="M139.17,-253C139.17,-253 306.83,-253 306.83,-253 312.17,-253 317.5,-258.33 317.5,-263.67 317.5,-263.67 317.5,-274.33 317.5,-274.33 317.5,-279.67 312.17,-285 306.83,-285 306.83,-285 139.17,-285 139.17,-285 133.83,-285 128.5,-279.67 128.5,-274.33 128.5,-274.33 128.5,-263.67 128.5,-263.67 128.5,-258.33 133.83,-253 139.17,-253"/>
</a>
</g>
</g>
<!-- function&#45;0&#45;M_none_m1m0p_R_max_m0 -->
<g id="node9" class="node">
<title>function&#45;0&#45;M_none_m1m0p_R_max_m0</title>
<g id="a_node9"><a xlink:title="Tensor&#45;5: function&#45;0&#45;M_none_m1m0p_R_max_m0">
<path fill="white" stroke="transparent" d="M132.17,-332C132.17,-332 317.83,-332 317.83,-332 323.17,-332 328.5,-337.33 328.5,-342.67 328.5,-342.67 328.5,-353.33 328.5,-353.33 328.5,-358.67 323.17,-364 317.83,-364 317.83,-364 132.17,-364 132.17,-364 126.83,-364 121.5,-358.67 121.5,-353.33 121.5,-353.33 121.5,-342.67 121.5,-342.67 121.5,-337.33 126.83,-332 132.17,-332"/>
<text text-anchor="start" x="127" y="-344.3" font-family="Helvetica,sans-Serif" font-size="14.00">M_none_m1m0p_R_max_m0</text>
<path fill="none" stroke="black" d="M132.17,-332C132.17,-332 317.83,-332 317.83,-332 323.17,-332 328.5,-337.33 328.5,-342.67 328.5,-342.67 328.5,-353.33 328.5,-353.33 328.5,-358.67 323.17,-364 317.83,-364 317.83,-364 132.17,-364 132.17,-364 126.83,-364 121.5,-358.67 121.5,-353.33 121.5,-353.33 121.5,-342.67 121.5,-342.67 121.5,-337.33 126.83,-332 132.17,-332"/>
</a>
</g>
</g>
<!-- function&#45;0&#45;M_mul_m1m0p_R_none -->
<g id="node10" class="node">
<title>function&#45;0&#45;M_mul_m1m0p_R_none</title>
<g id="a_node10"><a xlink:title="Tensor&#45;11: function&#45;0&#45;M_mul_m1m0p_R_none">
<path fill="white" stroke="transparent" d="M82.67,-648C82.67,-648 235.33,-648 235.33,-648 240.67,-648 246,-653.33 246,-658.67 246,-658.67 246,-669.33 246,-669.33 246,-674.67 240.67,-680 235.33,-680 235.33,-680 82.67,-680 82.67,-680 77.33,-680 72,-674.67 72,-669.33 72,-669.33 72,-658.67 72,-658.67 72,-653.33 77.33,-648 82.67,-648"/>
<text text-anchor="start" x="77" y="-660.3" font-family="Helvetica,sans-Serif" font-size="14.00">M_mul_m1m0p_R_none</text>
<path fill="none" stroke="black" d="M82.67,-648C82.67,-648 235.33,-648 235.33,-648 240.67,-648 246,-653.33 246,-658.67 246,-658.67 246,-669.33 246,-669.33 246,-674.67 240.67,-680 235.33,-680 235.33,-680 82.67,-680 82.67,-680 77.33,-680 72,-674.67 72,-669.33 72,-669.33 72,-658.67 72,-658.67 72,-653.33 77.33,-648 82.67,-648"/>
</a>
</g>
</g>
<!-- function&#45;0&#45;M_exp_m1p_R_none -->
<g id="node11" class="node">
<title>function&#45;0&#45;M_exp_m1p_R_none</title>
<g id="a_node11"><a xlink:title="Tensor&#45;10: function&#45;0&#45;M_exp_m1p_R_none">
<path fill="white" stroke="transparent" d="M137.17,-569C137.17,-569 266.83,-569 266.83,-569 272.17,-569 277.5,-574.33 277.5,-579.67 277.5,-579.67 277.5,-590.33 277.5,-590.33 277.5,-595.67 272.17,-601 266.83,-601 266.83,-601 137.17,-601 137.17,-601 131.83,-601 126.5,-595.67 126.5,-590.33 126.5,-590.33 126.5,-579.67 126.5,-579.67 126.5,-574.33 131.83,-569 137.17,-569"/>
<text text-anchor="start" x="132" y="-581.3" font-family="Helvetica,sans-Serif" font-size="14.00">M_exp_m1p_R_none</text>
<path fill="none" stroke="black" d="M137.17,-569C137.17,-569 266.83,-569 266.83,-569 272.17,-569 277.5,-574.33 277.5,-579.67 277.5,-579.67 277.5,-590.33 277.5,-590.33 277.5,-595.67 272.17,-601 266.83,-601 266.83,-601 137.17,-601 137.17,-601 131.83,-601 126.5,-595.67 126.5,-590.33 126.5,-590.33 126.5,-579.67 126.5,-579.67 126.5,-574.33 131.83,-569 137.17,-569"/>
</a>
</g>
</g>
<!-- function&#45;0&#45;M_div_m1m0p_R_none -->
<g id="node12" class="node">
<title>function&#45;0&#45;M_div_m1m0p_R_none</title>
<g id="a_node12"><a xlink:title="Tensor&#45;14: function&#45;0&#45;M_div_m1m0p_R_none">
<path fill="white" stroke="transparent" d="M251.17,-806C251.17,-806 398.83,-806 398.83,-806 404.17,-806 409.5,-811.33 409.5,-816.67 409.5,-816.67 409.5,-827.33 409.5,-827.33 409.5,-832.67 404.17,-838 398.83,-838 398.83,-838 251.17,-838 251.17,-838 245.83,-838 240.5,-832.67 240.5,-827.33 240.5,-827.33 240.5,-816.67 240.5,-816.67 240.5,-811.33 245.83,-806 251.17,-806"/>
<text text-anchor="start" x="246" y="-818.3" font-family="Helvetica,sans-Serif" font-size="14.00">M_div_m1m0p_R_none</text>
<path fill="none" stroke="black" d="M251.17,-806C251.17,-806 398.83,-806 398.83,-806 404.17,-806 409.5,-811.33 409.5,-816.67 409.5,-816.67 409.5,-827.33 409.5,-827.33 409.5,-832.67 404.17,-838 398.83,-838 398.83,-838 251.17,-838 251.17,-838 245.83,-838 240.5,-832.67 240.5,-827.33 240.5,-827.33 240.5,-816.67 240.5,-816.67 240.5,-811.33 245.83,-806 251.17,-806"/>
</a>
</g>
</g>
<!-- function&#45;0&#45;M_none_m1p_R_add_m1 -->
<g id="node13" class="node">
<title>function&#45;0&#45;M_none_m1p_R_add_m1</title>
<g id="a_node13"><a xlink:title="Tensor&#45;13: function&#45;0&#45;M_none_m1p_R_add_m1">
<path fill="white" stroke="transparent" d="M287.17,-727C287.17,-727 446.83,-727 446.83,-727 452.17,-727 457.5,-732.33 457.5,-737.67 457.5,-737.67 457.5,-748.33 457.5,-748.33 457.5,-753.67 452.17,-759 446.83,-759 446.83,-759 287.17,-759 287.17,-759 281.83,-759 276.5,-753.67 276.5,-748.33 276.5,-748.33 276.5,-737.67 276.5,-737.67 276.5,-732.33 281.83,-727 287.17,-727"/>
<text text-anchor="start" x="282" y="-739.3" font-family="Helvetica,sans-Serif" font-size="14.00">M_none_m1p_R_add_m1</text>
<path fill="none" stroke="black" d="M287.17,-727C287.17,-727 446.83,-727 446.83,-727 452.17,-727 457.5,-732.33 457.5,-737.67 457.5,-737.67 457.5,-748.33 457.5,-748.33 457.5,-753.67 452.17,-759 446.83,-759 446.83,-759 287.17,-759 287.17,-759 281.83,-759 276.5,-753.67 276.5,-748.33 276.5,-748.33 276.5,-737.67 276.5,-737.67 276.5,-732.33 281.83,-727 287.17,-727"/>
</a>
</g>
</g>
<!-- function&#45;0&#45;M_none_m1m0p_R_add_m0 -->
<g id="node14" class="node">
<title>function&#45;0&#45;M_none_m1m0p_R_add_m0</title>
<g id="a_node14"><a xlink:title="Tensor&#45;8: function&#45;0&#45;M_none_m1m0p_R_add_m0">
<path fill="white" stroke="transparent" d="M300.17,-569C300.17,-569 481.83,-569 481.83,-569 487.17,-569 492.5,-574.33 492.5,-579.67 492.5,-579.67 492.5,-590.33 492.5,-590.33 492.5,-595.67 487.17,-601 481.83,-601 481.83,-601 300.17,-601 300.17,-601 294.83,-601 289.5,-595.67 289.5,-590.33 289.5,-590.33 289.5,-579.67 289.5,-579.67 289.5,-574.33 294.83,-569 300.17,-569"/>
<text text-anchor="start" x="295" y="-581.3" font-family="Helvetica,sans-Serif" font-size="14.00">M_none_m1m0p_R_add_m0</text>
<path fill="none" stroke="black" d="M300.17,-569C300.17,-569 481.83,-569 481.83,-569 487.17,-569 492.5,-574.33 492.5,-579.67 492.5,-579.67 492.5,-590.33 492.5,-590.33 492.5,-595.67 487.17,-601 481.83,-601 481.83,-601 300.17,-601 300.17,-601 294.83,-601 289.5,-595.67 289.5,-590.33 289.5,-590.33 289.5,-579.67 289.5,-579.67 289.5,-574.33 294.83,-569 300.17,-569"/>
</a>
</g>
</g>
<!-- function&#45;0&#45;CreateTensor -->
<g id="node15" class="node">
<title>function&#45;0&#45;CreateTensor</title>
<g id="a_node15"><a xlink:title="Tensor&#45;0: function&#45;0&#45;CreateTensor">
<path fill="white" stroke="transparent" d="M350.17,-95C350.17,-95 429.83,-95 429.83,-95 435.17,-95 440.5,-100.33 440.5,-105.67 440.5,-105.67 440.5,-116.33 440.5,-116.33 440.5,-121.67 435.17,-127 429.83,-127 429.83,-127 350.17,-127 350.17,-127 344.83,-127 339.5,-121.67 339.5,-116.33 339.5,-116.33 339.5,-105.67 339.5,-105.67 339.5,-100.33 344.83,-95 350.17,-95"/>
<text text-anchor="start" x="345" y="-107.3" font-family="Helvetica,sans-Serif" font-size="14.00">CreateTensor</text>
<path fill="none" stroke="black" d="M350.17,-95C350.17,-95 429.83,-95 429.83,-95 435.17,-95 440.5,-100.33 440.5,-105.67 440.5,-105.67 440.5,-116.33 440.5,-116.33 440.5,-121.67 435.17,-127 429.83,-127 429.83,-127 350.17,-127 350.17,-127 344.83,-127 339.5,-121.67 339.5,-116.33 339.5,-116.33 339.5,-105.67 339.5,-105.67 339.5,-100.33 344.83,-95 350.17,-95"/>
</a>
</g>
</g>
<!-- primitive&#45;i64&#45;64 -->
<g id="node16" class="node">
<title>primitive&#45;i64&#45;64</title>
<g id="a_node16"><a xlink:title="i64&#45;64: primitive&#45;i64&#45;64">
<path fill="white" stroke="transparent" d="M471.67,-16C471.67,-16 482.33,-16 482.33,-16 487.67,-16 493,-21.33 493,-26.67 493,-26.67 493,-37.33 493,-37.33 493,-42.67 487.67,-48 482.33,-48 482.33,-48 471.67,-48 471.67,-48 466.33,-48 461,-42.67 461,-37.33 461,-37.33 461,-26.67 461,-26.67 461,-21.33 466.33,-16 471.67,-16"/>
<text text-anchor="start" x="467.5" y="-28.3" font-family="Helvetica,sans-Serif" font-size="14.00">64</text>
<path fill="none" stroke="black" d="M471.67,-16C471.67,-16 482.33,-16 482.33,-16 487.67,-16 493,-21.33 493,-26.67 493,-26.67 493,-37.33 493,-37.33 493,-42.67 487.67,-48 482.33,-48 482.33,-48 471.67,-48 471.67,-48 466.33,-48 461,-42.67 461,-37.33 461,-37.33 461,-26.67 461,-26.67 461,-21.33 466.33,-16 471.67,-16"/>
</a>
</g>
</g>
<!-- primitive&#45;i64&#45;1024 -->
<g id="node17" class="node">
<title>primitive&#45;i64&#45;1024</title>
<g id="a_node17"><a xlink:title="i64&#45;1024: primitive&#45;i64&#45;1024">
<path fill="white" stroke="transparent" d="M332.17,-16C332.17,-16 357.83,-16 357.83,-16 363.17,-16 368.5,-21.33 368.5,-26.67 368.5,-26.67 368.5,-37.33 368.5,-37.33 368.5,-42.67 363.17,-48 357.83,-48 357.83,-48 332.17,-48 332.17,-48 326.83,-48 321.5,-42.67 321.5,-37.33 321.5,-37.33 321.5,-26.67 321.5,-26.67 321.5,-21.33 326.83,-16 332.17,-16"/>
<text text-anchor="start" x="327" y="-28.3" font-family="Helvetica,sans-Serif" font-size="14.00">1024</text>
<path fill="none" stroke="black" d="M332.17,-16C332.17,-16 357.83,-16 357.83,-16 363.17,-16 368.5,-21.33 368.5,-26.67 368.5,-26.67 368.5,-37.33 368.5,-37.33 368.5,-42.67 363.17,-48 357.83,-48 357.83,-48 332.17,-48 332.17,-48 326.83,-48 321.5,-42.67 321.5,-37.33 321.5,-37.33 321.5,-26.67 321.5,-26.67 321.5,-21.33 326.83,-16 332.17,-16"/>
</a>
</g>
</g>
<!-- function&#45;0&#45;M_mul_m1p_R_none -->
<g id="node18" class="node">
<title>function&#45;0&#45;M_mul_m1p_R_none</title>
<g id="a_node18"><a xlink:title="Tensor&#45;12: function&#45;0&#45;M_mul_m1p_R_none">
<path fill="white" stroke="transparent" d="M302.67,-648C302.67,-648 433.33,-648 433.33,-648 438.67,-648 444,-653.33 444,-658.67 444,-658.67 444,-669.33 444,-669.33 444,-674.67 438.67,-680 433.33,-680 433.33,-680 302.67,-680 302.67,-680 297.33,-680 292,-674.67 292,-669.33 292,-669.33 292,-658.67 292,-658.67 292,-653.33 297.33,-648 302.67,-648"/>
<text text-anchor="start" x="297" y="-660.3" font-family="Helvetica,sans-Serif" font-size="14.00">M_mul_m1p_R_none</text>
<path fill="none" stroke="black" d="M302.67,-648C302.67,-648 433.33,-648 433.33,-648 438.67,-648 444,-653.33 444,-658.67 444,-658.67 444,-669.33 444,-669.33 444,-674.67 438.67,-680 433.33,-680 433.33,-680 302.67,-680 302.67,-680 297.33,-680 292,-674.67 292,-669.33 292,-669.33 292,-658.67 292,-658.67 292,-653.33 297.33,-648 302.67,-648"/>
</a>
</g>
</g>
<!-- function&#45;0&#45;M_sub_m1p_R_none -->
<g id="node19" class="node">
<title>function&#45;0&#45;M_sub_m1p_R_none</title>
<g id="a_node19"><a xlink:title="Tensor&#45;9: function&#45;0&#45;M_sub_m1p_R_none">
<path fill="white" stroke="transparent" d="M198.17,-490C198.17,-490 327.83,-490 327.83,-490 333.17,-490 338.5,-495.33 338.5,-500.67 338.5,-500.67 338.5,-511.33 338.5,-511.33 338.5,-516.67 333.17,-522 327.83,-522 327.83,-522 198.17,-522 198.17,-522 192.83,-522 187.5,-516.67 187.5,-511.33 187.5,-511.33 187.5,-500.67 187.5,-500.67 187.5,-495.33 192.83,-490 198.17,-490"/>
<text text-anchor="start" x="193" y="-502.3" font-family="Helvetica,sans-Serif" font-size="14.00">M_sub_m1p_R_none</text>
<path fill="none" stroke="black" d="M198.17,-490C198.17,-490 327.83,-490 327.83,-490 333.17,-490 338.5,-495.33 338.5,-500.67 338.5,-500.67 338.5,-511.33 338.5,-511.33 338.5,-516.67 333.17,-522 327.83,-522 327.83,-522 198.17,-522 198.17,-522 192.83,-522 187.5,-516.67 187.5,-511.33 187.5,-511.33 187.5,-500.67 187.5,-500.67 187.5,-495.33 192.83,-490 198.17,-490"/>
</a>
</g>
</g>
<!-- function&#45;0&#45;T_unsplit_m1m0_m -->
<g id="node20" class="node">
<title>function&#45;0&#45;T_unsplit_m1m0_m</title>
<g id="a_node20"><a xlink:title="Tensor&#45;15: function&#45;0&#45;T_unsplit_m1m0_m">
<path fill="white" stroke="transparent" d="M287.17,-885C287.17,-885 410.83,-885 410.83,-885 416.17,-885 421.5,-890.33 421.5,-895.67 421.5,-895.67 421.5,-906.33 421.5,-906.33 421.5,-911.67 416.17,-917 410.83,-917 410.83,-917 287.17,-917 287.17,-917 281.83,-917 276.5,-911.67 276.5,-906.33 276.5,-906.33 276.5,-895.67 276.5,-895.67 276.5,-890.33 281.83,-885 287.17,-885"/>
<text text-anchor="start" x="282" y="-897.3" font-family="Helvetica,sans-Serif" font-size="14.00">T_unsplit_m1m0_m</text>
<path fill="none" stroke="black" d="M287.17,-885C287.17,-885 410.83,-885 410.83,-885 416.17,-885 421.5,-890.33 421.5,-895.67 421.5,-895.67 421.5,-906.33 421.5,-906.33 421.5,-911.67 416.17,-917 410.83,-917 410.83,-917 287.17,-917 287.17,-917 281.83,-917 276.5,-911.67 276.5,-906.33 276.5,-906.33 276.5,-895.67 276.5,-895.67 276.5,-890.33 281.83,-885 287.17,-885"/>
</a>
</g>
</g>
<!-- function&#45;0&#45;M_none_m1p_R_max_m1 -->
<g id="node21" class="node">
<title>function&#45;0&#45;M_none_m1p_R_max_m1</title>
<g id="a_node21"><a xlink:title="Tensor&#45;6: function&#45;0&#45;M_none_m1p_R_max_m1">
<path fill="white" stroke="transparent" d="M248.17,-411C248.17,-411 411.83,-411 411.83,-411 417.17,-411 422.5,-416.33 422.5,-421.67 422.5,-421.67 422.5,-432.33 422.5,-432.33 422.5,-437.67 417.17,-443 411.83,-443 411.83,-443 248.17,-443 248.17,-443 242.83,-443 237.5,-437.67 237.5,-432.33 237.5,-432.33 237.5,-421.67 237.5,-421.67 237.5,-416.33 242.83,-411 248.17,-411"/>
<text text-anchor="start" x="243" y="-423.3" font-family="Helvetica,sans-Serif" font-size="14.00">M_none_m1p_R_max_m1</text>
<path fill="none" stroke="black" d="M248.17,-411C248.17,-411 411.83,-411 411.83,-411 417.17,-411 422.5,-416.33 422.5,-421.67 422.5,-421.67 422.5,-432.33 422.5,-432.33 422.5,-437.67 417.17,-443 411.83,-443 411.83,-443 248.17,-443 248.17,-443 242.83,-443 237.5,-437.67 237.5,-432.33 237.5,-432.33 237.5,-421.67 237.5,-421.67 237.5,-416.33 242.83,-411 248.17,-411"/>
</a>
</g>
</g>
<!-- function&#45;0&#45;M_mul_fmp_R_add_m -->
<g id="node22" class="node">
<title>function&#45;0&#45;M_mul_fmp_R_add_m</title>
<g id="a_node22"><a xlink:title="Tensor&#45;16: function&#45;0&#45;M_mul_fmp_R_add_m">
<path fill="white" stroke="transparent" d="M369.67,-964C369.67,-964 508.33,-964 508.33,-964 513.67,-964 519,-969.33 519,-974.67 519,-974.67 519,-985.33 519,-985.33 519,-990.67 513.67,-996 508.33,-996 508.33,-996 369.67,-996 369.67,-996 364.33,-996 359,-990.67 359,-985.33 359,-985.33 359,-974.67 359,-974.67 359,-969.33 364.33,-964 369.67,-964"/>
<text text-anchor="start" x="364" y="-976.3" font-family="Helvetica,sans-Serif" font-size="14.00">M_mul_fmp_R_add_m</text>
<path fill="none" stroke="black" d="M369.67,-964C369.67,-964 508.33,-964 508.33,-964 513.67,-964 519,-969.33 519,-974.67 519,-974.67 519,-985.33 519,-985.33 519,-990.67 513.67,-996 508.33,-996 508.33,-996 369.67,-996 369.67,-996 364.33,-996 359,-990.67 359,-985.33 359,-985.33 359,-974.67 359,-974.67 359,-969.33 364.33,-964 369.67,-964"/>
</a>
</g>
</g>
<!-- function&#45;2&#45;CreateTensor -->
<g id="node23" class="node">
<title>function&#45;2&#45;CreateTensor</title>
<g id="a_node23"><a xlink:title="Tensor&#45;2: function&#45;2&#45;CreateTensor">
<path fill="white" stroke="transparent" d="M464.17,-95C464.17,-95 543.83,-95 543.83,-95 549.17,-95 554.5,-100.33 554.5,-105.67 554.5,-105.67 554.5,-116.33 554.5,-116.33 554.5,-121.67 549.17,-127 543.83,-127 543.83,-127 464.17,-127 464.17,-127 458.83,-127 453.5,-121.67 453.5,-116.33 453.5,-116.33 453.5,-105.67 453.5,-105.67 453.5,-100.33 458.83,-95 464.17,-95"/>
<text text-anchor="start" x="459" y="-107.3" font-family="Helvetica,sans-Serif" font-size="14.00">CreateTensor</text>
<path fill="none" stroke="black" d="M464.17,-95C464.17,-95 543.83,-95 543.83,-95 549.17,-95 554.5,-100.33 554.5,-105.67 554.5,-105.67 554.5,-116.33 554.5,-116.33 554.5,-121.67 549.17,-127 543.83,-127 543.83,-127 464.17,-127 464.17,-127 458.83,-127 453.5,-121.67 453.5,-116.33 453.5,-116.33 453.5,-105.67 453.5,-105.67 453.5,-100.33 458.83,-95 464.17,-95"/>
</a>
</g>
</g>
</g>
</svg>
